<svg width="430" height="353" viewBox="0 0 430 353" fill="none" xmlns="http://www.w3.org/2000/svg">
<g clip-path="url(#clip0_1547_73897)">
<circle cx="148" cy="41" r="282" fill="#F2F6FF"/>
<path d="M291.18 323.243H69.803C69.5085 323.243 69.2698 323.004 69.2698 322.71C69.2698 322.415 69.5085 322.177 69.803 322.177H291.18C291.475 322.177 291.713 322.415 291.713 322.71C291.713 323.004 291.474 323.243 291.18 323.243Z" fill="#263238"/>
<path d="M237.83 352.035C267.153 352.035 290.924 349.054 290.924 345.377C290.924 341.7 267.153 338.72 237.83 338.72C208.507 338.72 184.736 341.7 184.736 345.377C184.736 349.054 208.507 352.035 237.83 352.035Z" fill="#263238"/>
<path d="M237.829 352.712C223.62 352.712 210.257 352.018 200.202 350.757C184.059 348.733 184.059 346.207 184.059 345.377C184.059 344.547 184.059 342.022 200.202 339.998C210.257 338.737 223.62 338.042 237.829 338.042C252.039 338.042 265.402 338.737 275.457 339.998C291.6 342.022 291.6 344.547 291.6 345.377C291.6 346.207 291.6 348.732 275.457 350.757C265.402 352.018 252.039 352.712 237.829 352.712ZM237.829 339.396C223.675 339.396 210.372 340.087 200.371 341.341C185.584 343.195 185.413 345.356 185.413 345.377C185.413 345.399 185.584 347.559 200.371 349.414C210.372 350.667 223.675 351.358 237.829 351.358C251.984 351.358 265.288 350.667 275.288 349.414C290.075 347.559 290.247 345.399 290.247 345.377C290.247 345.356 290.076 343.195 275.288 341.341C265.287 340.087 251.984 339.396 237.829 339.396Z" fill="#263238"/>
<path d="M229.882 221.17H73.1433V226.571H118.339L108.836 327.957H112.285L125.182 226.571H182.797L195.693 327.957H199.142L189.639 226.571H229.882V221.17Z" fill="white"/>
<path d="M199.152 328.633C199.149 328.633 199.145 328.634 199.141 328.633H195.693C195.352 328.633 195.065 328.38 195.021 328.042L182.2 227.248H125.777L112.957 328.042C112.914 328.381 112.627 328.633 112.286 328.633H108.837C108.646 328.633 108.464 328.553 108.337 328.413C108.208 328.272 108.145 328.083 108.163 327.894L117.597 227.248H73.1437C72.7702 227.248 72.467 226.945 72.467 226.571V221.17C72.467 220.796 72.7702 220.493 73.1437 220.493H229.883C230.256 220.493 230.56 220.796 230.56 221.17V226.571C230.56 226.945 230.256 227.248 229.883 227.248H190.383L199.804 327.774C199.82 327.832 199.829 327.893 199.829 327.957C199.829 328.331 199.526 328.633 199.152 328.633ZM196.289 327.28H198.398L188.965 226.634C188.947 226.444 189.01 226.256 189.138 226.115C189.266 225.975 189.448 225.894 189.638 225.894H229.205V221.847H73.8199V225.894H118.339C118.53 225.894 118.712 225.975 118.839 226.115C118.968 226.256 119.031 226.444 119.013 226.634L109.58 327.28H111.689L124.51 226.486C124.553 226.147 124.84 225.894 125.181 225.894H182.796C183.137 225.894 183.424 226.148 183.468 226.486L196.289 327.28Z" fill="#263238"/>
<path d="M203.401 143.982H114.197V126.171C114.197 122.584 117.104 119.677 120.691 119.677H196.907C200.494 119.677 203.401 122.584 203.401 126.171V143.982Z" fill="white"/>
<path d="M203.401 144.659H114.197C113.823 144.659 113.52 144.356 113.52 143.982V126.171C113.52 122.217 116.737 119 120.691 119H196.907C200.861 119 204.078 122.217 204.078 126.171V143.982C204.078 144.356 203.775 144.659 203.401 144.659ZM114.873 143.305H202.724V126.171C202.724 122.963 200.115 120.353 196.907 120.353H120.691C117.483 120.353 114.873 122.963 114.873 126.171V143.305Z" fill="#263238"/>
<path d="M130.406 144.355C130.032 144.355 129.729 144.052 129.729 143.678V129.934C129.729 129.56 130.032 129.257 130.406 129.257C130.779 129.257 131.082 129.56 131.082 129.934V143.678C131.082 144.052 130.779 144.355 130.406 144.355Z" fill="#263238"/>
<path d="M145.223 144.355C144.849 144.355 144.546 144.052 144.546 143.678V129.934C144.546 129.56 144.849 129.257 145.223 129.257C145.596 129.257 145.9 129.56 145.9 129.934V143.678C145.9 144.052 145.597 144.355 145.223 144.355Z" fill="#263238"/>
<path d="M160.04 144.355C159.666 144.355 159.363 144.052 159.363 143.678V129.934C159.363 129.56 159.666 129.257 160.04 129.257C160.413 129.257 160.716 129.56 160.716 129.934V143.678C160.716 144.052 160.414 144.355 160.04 144.355Z" fill="#263238"/>
<path d="M174.857 144.355C174.483 144.355 174.18 144.052 174.18 143.678V129.934C174.18 129.56 174.483 129.257 174.857 129.257C175.23 129.257 175.534 129.56 175.534 129.934V143.678C175.534 144.052 175.231 144.355 174.857 144.355Z" fill="#263238"/>
<path d="M189.675 144.355C189.301 144.355 188.998 144.052 188.998 143.678V129.934C188.998 129.56 189.301 129.257 189.675 129.257C190.048 129.257 190.351 129.56 190.351 129.934V143.678C190.351 144.052 190.049 144.355 189.675 144.355Z" fill="#263238"/>
<path d="M119.554 136.958H113.951V129.934H110.819C108.35 129.934 106.348 131.936 106.348 134.405V143.982H119.554V136.958Z" fill="white"/>
<path d="M119.554 144.659H106.348C105.974 144.659 105.671 144.356 105.671 143.982V134.406C105.671 131.567 107.98 129.257 110.819 129.257H113.95C114.324 129.257 114.627 129.56 114.627 129.934V136.281H119.554C119.928 136.281 120.231 136.585 120.231 136.958V143.983C120.231 144.356 119.928 144.659 119.554 144.659ZM107.025 143.306H118.878V137.635H113.951C113.577 137.635 113.274 137.332 113.274 136.958V130.611H110.82C108.727 130.611 107.025 132.313 107.025 134.406V143.306Z" fill="#263238"/>
<path d="M197.811 136.958H203.414V129.934H206.545C209.015 129.934 211.018 131.936 211.018 134.405V143.982H197.811V136.958Z" fill="white"/>
<path d="M211.017 144.659H197.81C197.437 144.659 197.134 144.356 197.134 143.982V136.958C197.134 136.585 197.437 136.281 197.81 136.281H202.737V129.934C202.737 129.56 203.04 129.257 203.414 129.257H206.545C209.384 129.257 211.694 131.567 211.694 134.406V143.982C211.694 144.356 211.391 144.659 211.017 144.659ZM198.488 143.306H210.341V134.406C210.341 132.313 208.638 130.611 206.545 130.611H204.091V136.958C204.091 137.332 203.788 137.635 203.414 137.635H198.488V143.306Z" fill="#263238"/>
<path d="M216.593 221.17H89.7251C86.7162 221.17 84.2773 218.731 84.2773 215.722V149.126C84.2773 146.117 86.7167 143.677 89.7251 143.677H216.593C219.602 143.677 222.041 146.117 222.041 149.126V215.722C222.041 218.731 219.602 221.17 216.593 221.17Z" fill="white"/>
<path d="M216.593 221.847H89.725C86.348 221.847 83.6006 219.099 83.6006 215.722V149.126C83.6006 145.748 86.348 143.001 89.725 143.001H216.593C219.97 143.001 222.717 145.748 222.717 149.126V215.722C222.718 219.099 219.97 221.847 216.593 221.847ZM89.725 144.354C87.0945 144.354 84.954 146.495 84.954 149.126V215.722C84.954 218.353 87.0945 220.493 89.725 220.493H216.593C219.223 220.493 221.364 218.353 221.364 215.722V149.126C221.364 146.495 219.223 144.354 216.593 144.354H89.725Z" fill="#263238"/>
<path d="M207.808 175.948V160.546C207.808 158.111 205.835 156.137 203.399 156.137H105.185C102.75 156.137 100.775 158.111 100.775 160.546V175.948H207.808Z" fill="white"/>
<path d="M207.808 176.625H100.776C100.402 176.625 100.099 176.322 100.099 175.948V160.546C100.099 157.741 102.38 155.46 105.185 155.46H203.399C206.204 155.46 208.486 157.741 208.486 160.546V175.948C208.485 176.323 208.182 176.625 207.808 176.625ZM101.453 175.272H207.132V160.546C207.132 158.488 205.457 156.813 203.399 156.813H105.185C103.126 156.813 101.452 158.488 101.452 160.546V175.272H101.453Z" fill="#263238"/>
<path d="M173.946 175.759H207.583C207.583 175.759 209.829 194.844 200.128 203.137C192.911 209.306 180.472 207.288 180.472 207.288L173.946 175.759Z" fill="#FCFCFC"/>
<path d="M185.214 208.28C182.394 208.28 180.444 207.969 180.363 207.956C180.086 207.911 179.865 207.7 179.809 207.425L173.283 175.896C173.242 175.697 173.292 175.489 173.421 175.332C173.549 175.174 173.742 175.082 173.946 175.082H207.583C207.926 175.082 208.215 175.339 208.255 175.68C208.349 176.474 210.431 195.221 200.567 203.652C196.091 207.477 189.747 208.28 185.214 208.28ZM181.037 206.683C181.76 206.773 183.286 206.927 185.214 206.927C189.519 206.927 195.525 206.181 199.687 202.623C208.061 195.466 207.236 179.7 206.967 176.436H174.776L181.037 206.683Z" fill="#263238"/>
<path d="M127.763 160.588L165.125 160.836C178.39 160.456 188.784 172.141 186.861 185.272L185.844 192.222C185.358 195.54 186.318 198.908 188.483 201.47C191.768 205.359 197.76 205.365 201.053 201.483L204.481 197.441C198.52 209.054 184.307 210.636 170.609 210.089L149.066 209.385C148.751 209.374 148.436 209.357 148.123 209.336C136.581 208.523 127.763 198.655 127.763 187.084V160.588H127.763Z" fill="#EC644E"/>
<path d="M175.016 210.859C173.604 210.859 172.153 210.828 170.582 210.766L149.044 210.061C148.72 210.05 148.397 210.034 148.076 210.011C136.306 209.182 127.086 199.111 127.086 187.084V160.588C127.086 160.408 127.158 160.235 127.286 160.108C127.413 159.982 127.584 159.912 127.763 159.912C127.765 159.912 127.766 159.912 127.767 159.912L165.129 160.16C165.322 160.154 165.539 160.15 165.753 160.15C172.147 160.15 178.216 162.93 182.404 167.777C186.59 172.62 188.459 179.033 187.532 185.37L186.514 192.32C186.056 195.445 186.963 198.621 189.001 201.033C190.44 202.737 192.544 203.714 194.774 203.714C196.998 203.714 199.099 202.741 200.538 201.045L203.966 197.003C204.188 196.741 204.571 196.687 204.858 196.878C205.144 197.069 205.241 197.444 205.084 197.75C199.052 209.499 185.035 210.859 175.016 210.859ZM128.439 161.269V187.084C128.439 198.403 137.106 207.881 148.17 208.66C148.475 208.682 148.781 208.698 149.088 208.708L170.63 209.413C172.189 209.475 173.621 209.505 175.016 209.505C184.525 209.505 191.662 207.998 196.747 204.847C196.106 204.993 195.445 205.067 194.773 205.067C192.144 205.067 189.663 203.915 187.966 201.906C185.678 199.198 184.661 195.633 185.174 192.124L186.192 185.174C187.062 179.226 185.309 173.208 181.38 168.662C177.448 164.113 171.753 161.504 165.753 161.504C165.551 161.504 165.347 161.507 165.144 161.513L128.439 161.269Z" fill="#263238"/>
<path d="M153.58 290.981C131.568 290.834 83.351 290.599 70.2192 291.254C127.801 251.364 27.7526 211.474 57.7489 171.584C63.2616 164.254 72.0506 160.127 81.2218 160.219L165.317 161.062C111.888 198.075 199.21 238.194 179.21 275.945C174.221 285.362 164.236 291.053 153.58 290.981Z" fill="white"/>
<path d="M70.2188 291.931C69.9302 291.931 69.6715 291.747 69.5778 291.472C69.4804 291.186 69.5848 290.87 69.8333 290.697C80.241 283.488 85.9897 275.96 87.4097 267.684C89.7695 253.925 79.5513 239.768 69.6698 226.077C56.7291 208.148 43.3478 189.608 57.2072 171.176C62.6863 163.89 71.5516 159.54 80.9209 159.54L81.2279 159.541L165.323 160.384C165.617 160.386 165.876 160.58 165.963 160.862C166.049 161.143 165.944 161.449 165.702 161.616C152.155 171.001 146.794 180.997 148.831 193.073C150.641 203.803 158.222 214.924 165.553 225.68C176.91 242.34 188.652 259.568 179.808 276.26C174.776 285.757 164.802 291.657 153.778 291.657L153.575 291.656C142.35 291.581 125.634 291.492 109.751 291.492C89.3494 291.492 76.0606 291.638 70.2529 291.929C70.241 291.93 70.2301 291.931 70.2188 291.931ZM80.9215 160.894C71.9755 160.894 63.5151 165.043 58.2893 171.991C45.0292 189.625 57.5314 206.947 70.7677 225.285C80.8127 239.203 91.1998 253.594 88.7436 267.914C87.3474 276.053 82.0134 283.454 72.4616 290.485C79.1317 290.256 91.6469 290.14 109.751 290.14C125.638 290.14 142.356 290.23 153.585 290.304L153.778 290.305C164.3 290.305 173.816 284.681 178.612 275.628C187.074 259.657 175.565 242.772 164.435 226.443C149.785 204.951 134.646 182.743 163.233 161.717L80.9215 160.894Z" fill="#263238"/>
<path d="M163.254 265.165H136.658C136.284 265.165 135.981 264.862 135.981 264.489C135.981 264.115 136.284 263.812 136.658 263.812H163.254C163.627 263.812 163.93 264.115 163.93 264.489C163.93 264.862 163.627 265.165 163.254 265.165Z" fill="#263238"/>
<path d="M171.274 265.165H165.538C165.165 265.165 164.862 264.862 164.862 264.489C164.862 264.115 165.165 263.812 165.538 263.812H171.274C171.648 263.812 171.951 264.115 171.951 264.489C171.951 264.862 171.648 265.165 171.274 265.165Z" fill="#263238"/>
<path d="M160.744 269.344H134.148C133.775 269.344 133.471 269.04 133.471 268.667C133.471 268.293 133.775 267.99 134.148 267.99H160.744C161.117 267.99 161.42 268.293 161.42 268.667C161.42 269.04 161.117 269.344 160.744 269.344Z" fill="#263238"/>
<path d="M168.764 269.344H163.029C162.655 269.344 162.352 269.04 162.352 268.667C162.352 268.293 162.655 267.99 163.029 267.99H168.764C169.138 267.99 169.441 268.293 169.441 268.667C169.441 269.04 169.139 269.344 168.764 269.344Z" fill="#263238"/>
<path d="M158.777 274.406H132.181C131.808 274.406 131.505 274.103 131.505 273.729C131.505 273.356 131.808 273.052 132.181 273.052H158.777C159.15 273.052 159.453 273.356 159.453 273.729C159.453 274.103 159.151 274.406 158.777 274.406Z" fill="#263238"/>
<path d="M166.798 274.406H161.062C160.689 274.406 160.386 274.103 160.386 273.729C160.386 273.356 160.689 273.052 161.062 273.052H166.798C167.172 273.052 167.475 273.356 167.475 273.729C167.475 274.103 167.172 274.406 166.798 274.406Z" fill="#263238"/>
<path d="M152.979 167.009C151.957 167.798 150.985 168.644 150.079 169.545C149.736 169.888 149.391 170.248 149.057 170.622H94.4577C94.4577 170.622 89.7202 171.377 84.3299 175.967C82.6398 177.41 80.8933 179.697 79.5827 181.686H58.8518C59.3683 180.279 62.5975 174.945 65.6334 172.359C71.0189 167.763 75.7612 167.009 75.7612 167.009H152.979Z" fill="#EC644E"/>
<path d="M79.5827 182.363H58.8518C58.6309 182.363 58.4236 182.254 58.2969 182.073C58.1708 181.892 58.1404 181.66 58.2168 181.452C58.7982 179.87 62.1238 174.46 65.1955 171.843C70.6627 167.178 75.4543 166.372 75.6556 166.34C75.6903 166.334 75.7266 166.331 75.7617 166.331H152.98C153.27 166.331 153.527 166.515 153.62 166.789C153.714 167.063 153.623 167.366 153.393 167.543C152.375 168.33 151.421 169.164 150.557 170.023C150.185 170.396 149.859 170.739 149.563 171.072C149.435 171.216 149.251 171.298 149.058 171.298H94.5178C94.0229 171.392 89.6525 172.322 84.7684 176.481C82.8872 178.086 81.066 180.664 80.1479 182.057C80.0228 182.248 79.8101 182.363 79.5827 182.363ZM59.9194 181.009H79.22C80.228 179.508 82.015 177.052 83.8903 175.452C89.3629 170.791 94.1496 169.986 94.351 169.954C94.3857 169.949 94.4219 169.945 94.4571 169.945H148.756C149.014 169.664 149.292 169.375 149.601 169.066C150.072 168.596 150.569 168.135 151.086 167.685H75.8218C75.327 167.779 70.9528 168.709 66.073 172.872C63.5616 175.012 60.9691 179.032 59.9194 181.009Z" fill="#263238"/>
<path d="M142.618 280.034H49.6768C50.0563 280.529 50.4542 281.023 50.8748 281.517C55.8878 287.402 63.3007 291.468 71.0307 291.415C92.3225 291.269 155.798 290.908 155.798 290.908C149.685 289.189 145.459 284.834 142.618 280.034Z" fill="#EC644E"/>
<path d="M70.8819 292.092C63.4381 292.092 55.766 288.303 50.3599 281.955C49.9507 281.475 49.5403 280.967 49.1397 280.445C48.9832 280.241 48.9556 279.965 49.0699 279.734C49.1841 279.503 49.4196 279.357 49.6767 279.357H142.618C142.857 279.357 143.079 279.483 143.201 279.689C146.485 285.239 150.786 288.795 155.982 290.257C156.306 290.348 156.514 290.664 156.468 290.999C156.423 291.333 156.139 291.583 155.802 291.585C155.167 291.589 92.0832 291.947 71.0356 292.092H70.8819ZM51.081 280.71C51.1839 280.834 51.2873 280.957 51.3896 281.078C56.5428 287.127 63.8295 290.739 70.8819 290.739L71.0264 290.738C89.1463 290.614 138.414 290.331 152.182 290.252C148.259 288.337 144.925 285.14 142.235 280.71H51.081Z" fill="#263238"/>
<path d="M171.476 253.555C164.166 234.728 144.118 215.62 140.283 196.87H60.365C64.6547 215.765 85.8479 234.66 93.3745 253.555H171.476Z" fill="#FCFCFC"/>
<path d="M171.475 254.231H93.3743C93.0972 254.231 92.8481 254.063 92.7458 253.805C89.4121 245.435 83.2385 236.881 77.2683 228.609C69.8143 218.281 62.1075 207.602 59.7055 197.019C59.66 196.818 59.7082 196.608 59.8365 196.447C59.9648 196.286 60.1597 196.193 60.3654 196.193H140.283C140.605 196.193 140.881 196.419 140.946 196.734C143.067 207.101 150.381 217.834 157.455 228.214C163.063 236.444 168.863 244.954 172.107 253.309C172.187 253.518 172.161 253.752 172.034 253.937C171.908 254.121 171.698 254.231 171.475 254.231ZM93.8307 252.878H170.477C167.226 244.957 161.693 236.838 156.335 228.976C149.308 218.664 142.045 208.006 139.735 197.547H61.2235C63.7727 207.597 71.1877 217.871 78.3657 227.817C84.2838 236.017 90.4001 244.492 93.8307 252.878Z" fill="#263238"/>
<path d="M99.9204 211.971H73.6677C73.2941 211.971 72.991 211.667 72.991 211.294C72.991 210.92 73.2941 210.617 73.6677 210.617H99.9204C100.294 210.617 100.597 210.92 100.597 211.294C100.597 211.667 100.295 211.971 99.9204 211.971Z" fill="#263238"/>
<path d="M120.718 211.971H107.355C106.981 211.971 106.678 211.667 106.678 211.294C106.678 210.92 106.981 210.617 107.355 210.617H120.718C121.092 210.617 121.395 210.92 121.395 211.294C121.395 211.667 121.093 211.971 120.718 211.971Z" fill="#263238"/>
<path d="M137.927 211.971H129.393C129.019 211.971 128.716 211.667 128.716 211.294C128.716 210.92 129.019 210.617 129.393 210.617H137.927C138.301 210.617 138.604 210.92 138.604 211.294C138.604 211.667 138.301 211.971 137.927 211.971Z" fill="#263238"/>
<path d="M104.623 221.339H79.4885C79.1149 221.339 78.8118 221.036 78.8118 220.663C78.8118 220.289 79.1149 219.986 79.4885 219.986H104.623C104.997 219.986 105.3 220.289 105.3 220.663C105.3 221.036 104.997 221.339 104.623 221.339Z" fill="#263238"/>
<path d="M125.422 221.339H112.058C111.684 221.339 111.381 221.036 111.381 220.663C111.381 220.289 111.684 219.986 112.058 219.986H125.422C125.795 219.986 126.099 220.289 126.099 220.663C126.099 221.036 125.795 221.339 125.422 221.339Z" fill="#263238"/>
<path d="M142.629 221.339H134.095C133.721 221.339 133.418 221.036 133.418 220.663C133.418 220.289 133.721 219.986 134.095 219.986H142.629C143.003 219.986 143.306 220.289 143.306 220.663C143.306 221.036 143.003 221.339 142.629 221.339Z" fill="#263238"/>
<path d="M111.484 228.944H86.7946C86.4211 228.944 86.1179 228.641 86.1179 228.268C86.1179 227.894 86.4211 227.591 86.7946 227.591H111.484C111.857 227.591 112.161 227.894 112.161 228.268C112.161 228.641 111.857 228.944 111.484 228.944Z" fill="#263238"/>
<path d="M132.282 228.944H118.918C118.544 228.944 118.241 228.641 118.241 228.268C118.241 227.894 118.544 227.591 118.918 227.591H132.282C132.655 227.591 132.959 227.894 132.959 228.268C132.959 228.641 132.655 228.944 132.282 228.944Z" fill="#263238"/>
<path d="M149.49 228.944H140.955C140.582 228.944 140.279 228.641 140.279 228.268C140.279 227.894 140.582 227.591 140.955 227.591H149.49C149.863 227.591 150.167 227.894 150.167 228.268C150.167 228.641 149.863 228.944 149.49 228.944Z" fill="#263238"/>
<path d="M115.959 236.576H92.9125C92.539 236.576 92.2358 236.273 92.2358 235.899C92.2358 235.526 92.539 235.223 92.9125 235.223H115.959C116.333 235.223 116.636 235.526 116.636 235.899C116.636 236.273 116.333 236.576 115.959 236.576Z" fill="#263238"/>
<path d="M136.758 236.576H123.394C123.021 236.576 122.718 236.273 122.718 235.899C122.718 235.526 123.021 235.223 123.394 235.223H136.758C137.132 235.223 137.435 235.526 137.435 235.899C137.435 236.273 137.132 236.576 136.758 236.576Z" fill="#263238"/>
<path d="M153.966 236.576H145.431C145.058 236.576 144.754 236.273 144.754 235.899C144.754 235.526 145.058 235.223 145.431 235.223H153.966C154.339 235.223 154.642 235.526 154.642 235.899C154.642 236.273 154.34 236.576 153.966 236.576Z" fill="#263238"/>
<path d="M121.984 244.818H98.5773C98.2038 244.818 97.9006 244.514 97.9006 244.141C97.9006 243.767 98.2038 243.464 98.5773 243.464H121.984C122.358 243.464 122.661 243.767 122.661 244.141C122.661 244.514 122.358 244.818 121.984 244.818Z" fill="#263238"/>
<path d="M142.783 244.818H129.419C129.045 244.818 128.742 244.514 128.742 244.141C128.742 243.767 129.045 243.464 129.419 243.464H142.783C143.156 243.464 143.459 243.767 143.459 244.141C143.459 244.514 143.157 244.818 142.783 244.818Z" fill="#263238"/>
<path d="M159.991 244.818H151.456C151.082 244.818 150.779 244.514 150.779 244.141C150.779 243.767 151.082 243.464 151.456 243.464H159.991C160.364 243.464 160.667 243.767 160.667 244.141C160.667 244.514 160.365 244.818 159.991 244.818Z" fill="#263238"/>
<path d="M141.702 202.437C141.035 200.578 140.493 198.722 140.113 196.869H60.1965C60.6177 198.725 61.2051 200.581 61.9235 202.437H141.702Z" fill="#EC644E"/>
<path d="M141.702 203.113H61.9234C61.6435 203.113 61.3934 202.942 61.2922 202.681C60.537 200.73 59.9469 198.825 59.5365 197.019C59.4911 196.818 59.5392 196.608 59.6675 196.447C59.7958 196.286 59.9907 196.193 60.1964 196.193H140.114C140.435 196.193 140.712 196.418 140.777 196.734C141.136 198.489 141.647 200.279 142.34 202.208C142.414 202.416 142.383 202.646 142.256 202.826C142.13 203.007 141.922 203.113 141.702 203.113ZM62.3895 201.76H140.75C140.258 200.302 139.867 198.911 139.565 197.546H61.055C61.4004 198.905 61.8476 200.317 62.3895 201.76Z" fill="#263238"/>
<path d="M96.12 174.859L94.6946 182.365H93.0906L94.516 174.859H96.12Z" fill="#263238"/>
<path d="M97.1567 182.365L98.5827 174.859H100.465L101.456 177.721C101.757 178.679 101.957 179.458 102.136 180.282H102.169C102.203 179.514 102.303 178.69 102.515 177.587L103.027 174.859H104.519L103.105 182.365H101.446L100.399 179.369C100.065 178.355 99.8641 177.677 99.6638 176.752L99.6302 176.763C99.5409 177.487 99.3628 178.556 99.1403 179.736L98.6503 182.365H97.1567Z" fill="#263238"/>
<path d="M107.087 182.365L106.152 174.859H107.811L108.145 178.434C108.223 179.224 108.278 179.959 108.323 180.739H108.345C108.623 180.004 108.979 179.202 109.348 178.423L111.028 174.859H112.822L108.947 182.365H107.087Z" fill="#263238"/>
<path d="M120.38 177.866C120.38 179.236 119.9 180.561 119.043 181.408C118.341 182.086 117.394 182.488 116.27 182.488C114.321 182.488 113.229 181.107 113.229 179.359C113.229 178 113.731 176.652 114.61 175.806C115.312 175.138 116.27 174.737 117.351 174.737C119.333 174.736 120.38 176.073 120.38 177.866ZM115.869 176.641C115.268 177.231 114.933 178.4 114.933 179.303C114.933 180.361 115.413 181.152 116.503 181.152C116.971 181.152 117.417 180.94 117.762 180.606C118.352 180.016 118.675 178.78 118.675 177.911C118.675 176.975 118.341 176.074 117.16 176.074C116.66 176.073 116.214 176.285 115.869 176.641Z" fill="#263238"/>
<path d="M124.712 174.859L123.287 182.365H121.683L123.109 174.859H124.712Z" fill="#263238"/>
<path d="M131.253 182.153C130.853 182.331 130.173 182.476 129.271 182.476C127.29 182.476 125.952 181.273 125.952 179.291C125.952 177.61 126.71 176.296 127.846 175.538C128.625 174.993 129.55 174.736 130.608 174.736C131.421 174.736 132.034 174.926 132.245 175.06L131.81 176.363C131.587 176.251 131.097 176.118 130.452 176.118C129.806 176.118 129.194 176.318 128.737 176.697C128.102 177.209 127.7 178.066 127.7 179.113C127.7 180.305 128.368 181.107 129.694 181.107C130.218 181.107 130.741 181.017 131.12 180.862L131.253 182.153Z" fill="#263238"/>
<path d="M137.821 179.18H135.147L134.802 180.995H137.798L137.541 182.365H132.942L134.368 174.859H138.811L138.544 176.228H135.715L135.403 177.832H138.077L137.821 179.18Z" fill="#263238"/>
<path d="M81.7485 172.241H72.6396C72.2661 172.241 71.9629 171.937 71.9629 171.564C71.9629 171.19 72.2661 170.887 72.6396 170.887H81.7485C82.1221 170.887 82.4252 171.19 82.4252 171.564C82.4252 171.937 82.1226 172.241 81.7485 172.241Z" fill="#263238"/>
<path d="M137.849 188.942H129.777C129.404 188.942 129.1 188.638 129.1 188.265C129.1 187.891 129.404 187.588 129.777 187.588H137.849C138.223 187.588 138.526 187.891 138.526 188.265C138.526 188.638 138.223 188.942 137.849 188.942Z" fill="#263238"/>
<path d="M126.865 188.942H119.874C119.501 188.942 119.198 188.638 119.198 188.265C119.198 187.891 119.501 187.588 119.874 187.588H126.865C127.239 187.588 127.542 187.891 127.542 188.265C127.542 188.638 127.239 188.942 126.865 188.942Z" fill="#263238"/>
<path d="M116.729 188.942H112.534C112.161 188.942 111.857 188.638 111.857 188.265C111.857 187.891 112.161 187.588 112.534 187.588H116.729C117.102 187.588 117.405 187.891 117.405 188.265C117.405 188.638 117.103 188.942 116.729 188.942Z" fill="#263238"/>
<path d="M138.079 191.922H111.484C111.11 191.922 110.807 191.619 110.807 191.245C110.807 190.872 111.11 190.568 111.484 190.568H138.079C138.453 190.568 138.756 190.872 138.756 191.245C138.756 191.619 138.453 191.922 138.079 191.922Z" fill="#263238"/>
<path d="M109.198 191.922H103.463C103.089 191.922 102.786 191.619 102.786 191.245C102.786 190.872 103.089 190.568 103.463 190.568H109.198C109.572 190.568 109.875 190.872 109.875 191.245C109.875 191.619 109.572 191.922 109.198 191.922Z" fill="#263238"/>
<path d="M77.6999 175.724H68.5866C68.2131 175.724 67.9099 175.421 67.9099 175.048C67.9099 174.674 68.2131 174.371 68.5866 174.371H77.6999C78.0734 174.371 78.3766 174.674 78.3766 175.048C78.3766 175.421 78.0734 175.724 77.6999 175.724Z" fill="#263238"/>
<path d="M95.103 154.511C96.3127 154.511 97.2933 153.531 97.2933 152.321C97.2933 151.111 96.3127 150.13 95.103 150.13C93.8933 150.13 92.9126 151.111 92.9126 152.321C92.9126 153.531 93.8933 154.511 95.103 154.511Z" fill="#263238"/>
<path d="M62.8167 161.263C62.5931 161.263 62.3749 161.153 62.2456 160.95C62.0447 160.635 62.1373 160.216 62.4523 160.016C64.7932 158.523 67.7279 157.491 70.7151 157.11C71.0833 157.061 71.4243 157.325 71.472 157.696C71.5191 158.067 71.257 158.406 70.8862 158.453C68.0928 158.809 65.3562 159.77 63.1799 161.157C63.0673 161.229 62.9417 161.263 62.8167 161.263Z" fill="#263238"/>
<path d="M65.4088 156.697C65.1446 156.697 64.8935 156.541 64.7846 156.282C64.6396 155.938 64.8014 155.541 65.1463 155.396C66.726 154.731 68.3414 154.258 69.9481 153.99C70.319 153.928 70.6649 154.178 70.7266 154.546C70.7878 154.915 70.5388 155.264 70.1706 155.325C68.6678 155.575 67.1536 156.019 65.6703 156.643C65.5853 156.679 65.4965 156.697 65.4088 156.697Z" fill="#263238"/>
<path d="M127.763 160.588L165.125 160.836C178.39 160.456 188.784 172.141 186.861 185.272L185.844 192.222C185.358 195.54 186.318 198.908 188.483 201.47C191.768 205.359 197.76 205.365 201.053 201.483L204.481 197.441C198.52 209.054 184.307 210.636 170.609 210.089L149.066 209.385C148.751 209.374 148.436 209.357 148.123 209.336C136.581 208.523 127.763 198.655 127.763 187.084V160.588H127.763Z" fill="#9ABAE3"/>
<path d="M175.016 210.859C173.604 210.859 172.153 210.828 170.582 210.766L149.044 210.061C148.72 210.05 148.397 210.034 148.076 210.011C136.306 209.182 127.086 199.111 127.086 187.084V160.588C127.086 160.408 127.158 160.235 127.286 160.108C127.413 159.982 127.584 159.912 127.763 159.912C127.765 159.912 127.766 159.912 127.767 159.912L165.129 160.16C165.322 160.154 165.539 160.15 165.753 160.15C172.147 160.15 178.216 162.93 182.404 167.777C186.59 172.62 188.459 179.033 187.532 185.37L186.514 192.32C186.056 195.445 186.963 198.621 189.001 201.033C190.44 202.737 192.544 203.714 194.774 203.714C196.998 203.714 199.099 202.741 200.538 201.045L203.966 197.003C204.188 196.741 204.571 196.687 204.858 196.878C205.144 197.069 205.241 197.444 205.084 197.75C199.052 209.499 185.035 210.859 175.016 210.859ZM128.439 161.269V187.084C128.439 198.403 137.106 207.881 148.17 208.66C148.475 208.682 148.781 208.698 149.088 208.708L170.63 209.413C172.189 209.475 173.621 209.505 175.016 209.505C184.525 209.505 191.662 207.998 196.747 204.847C196.106 204.993 195.445 205.067 194.773 205.067C192.144 205.067 189.663 203.915 187.966 201.906C185.678 199.198 184.661 195.633 185.174 192.124L186.192 185.174C187.062 179.226 185.309 173.208 181.38 168.662C177.448 164.113 171.753 161.504 165.753 161.504C165.551 161.504 165.347 161.507 165.144 161.513L128.439 161.269Z" fill="#263238"/>
<path d="M232.214 334.303H215.255L198.465 347.18H231.524L232.214 334.303Z" fill="#644BFD"/>
<path d="M231.524 347.857H198.465C198.176 347.857 197.918 347.672 197.824 347.397C197.731 347.123 197.823 346.819 198.053 346.643L214.844 333.766C214.962 333.676 215.106 333.626 215.256 333.626H232.214C232.4 333.626 232.577 333.703 232.705 333.837C232.833 333.972 232.899 334.154 232.89 334.339L232.2 347.216C232.18 347.576 231.883 347.857 231.524 347.857ZM200.459 346.503H230.882L231.5 334.98H215.485L200.459 346.503Z" fill="#263238"/>
<path d="M269.997 334.303H253.039L236.249 347.18H269.307L269.997 334.303Z" fill="#644BFD"/>
<path d="M269.307 347.857H236.249C235.959 347.857 235.701 347.672 235.608 347.397C235.515 347.123 235.607 346.819 235.837 346.643L252.628 333.766C252.746 333.676 252.89 333.626 253.04 333.626H269.998C270.183 333.626 270.361 333.703 270.489 333.837C270.616 333.972 270.683 334.154 270.673 334.339L269.983 347.216C269.964 347.576 269.666 347.857 269.307 347.857ZM238.242 346.503H268.665L269.284 334.98H253.269L238.242 346.503Z" fill="#263238"/>
<path d="M214.221 242.932C214.726 241.769 214.292 240.956 214.292 240.956H235.995L235.944 242.156L246.848 233.359C246.848 233.359 260.814 236.008 261.659 236.953C268.748 244.894 264.978 273.057 264.717 286.255C264.704 286.95 266.343 291.227 268.075 295.543C269.835 299.928 270.176 304.514 270.093 309.182C270.007 313.923 271.095 318.613 273.194 322.865L274.06 324.617C274.816 326.151 275.14 327.887 274.838 329.57C274.807 329.737 274.773 329.903 274.732 330.069L274.95 335.916L267.17 337.412C263.627 338.093 255.701 339.561 252.227 338.59L244.505 336.591L242.044 328.156C241.474 323.41 242.008 318.315 240.85 313.677L236.356 295.667L234.119 277.569L233.466 292.931L234.587 295.703C237.208 302.187 236.412 310.152 235.151 317.323C234.591 320.512 235.122 323.823 236.754 326.703C238.222 329.296 238.116 332.495 236.649 335.088L235.887 336.433L231.437 336.46C229.75 336.47 228.07 336.68 226.433 337.085L223.454 337.823C218.832 338.966 213.959 338.533 209.611 336.592C209.611 336.592 208.098 335.913 208.472 320.641C208.714 310.78 206.089 297.175 205.941 289.718C205.68 276.521 212.183 247.621 214.221 242.932Z" fill="#9ABAE3"/>
<path d="M239.707 240.956L239.656 242.156L249.832 233.946C248.081 233.593 246.847 233.359 246.847 233.359L237.431 240.956H239.707Z" fill="white"/>
<path d="M255.938 338.591L248.217 336.593L245.757 328.157C245.186 323.411 245.72 318.316 244.562 313.678L241.104 302.534L234.679 276.579C234.679 276.579 235.888 295.797 239.873 309.764L240.85 313.678C242.007 318.316 241.473 323.411 242.043 328.157L244.504 336.593L252.226 338.591C253.487 338.943 255.338 338.972 257.35 338.836C256.827 338.784 256.35 338.706 255.938 338.591Z" fill="white"/>
<path d="M213.323 336.593C213.323 336.593 211.81 335.913 212.184 320.642C212.425 310.781 209.8 297.177 209.653 289.719C209.393 276.521 215.895 247.622 217.933 242.932C218.438 241.769 218.004 240.956 218.004 240.956H214.292C214.292 240.956 214.726 241.769 214.22 242.932C212.182 247.622 205.68 276.521 205.94 289.719C206.087 297.177 208.712 310.781 208.471 320.642C208.097 335.913 209.61 336.593 209.61 336.593C212.937 338.077 216.569 338.677 220.161 338.367C217.815 338.16 215.503 337.566 213.323 336.593Z" fill="white"/>
<path d="M255.312 339.59C253.95 339.59 252.88 339.476 252.043 339.242L244.334 337.248C244.104 337.188 243.921 337.011 243.854 336.782L241.394 328.346C241.383 328.311 241.376 328.274 241.372 328.238C241.143 326.332 241.088 324.351 241.036 322.435C240.957 319.554 240.875 316.575 240.193 313.841L235.699 295.832C235.692 295.805 235.687 295.778 235.684 295.751L234.448 285.753L234.148 292.814L235.214 295.45C237.958 302.241 237.059 310.378 235.817 317.441C235.278 320.511 235.82 323.683 237.342 326.371C238.89 329.104 238.85 332.572 237.237 335.422L236.475 336.767C236.355 336.978 236.132 337.109 235.89 337.111L231.44 337.137C229.808 337.147 228.178 337.351 226.596 337.742L223.616 338.48C221.886 338.908 220.105 339.125 218.322 339.125C215.205 339.125 212.181 338.481 209.334 337.21C207.744 336.496 207.619 327.796 207.794 320.625C207.933 314.948 207.101 307.908 206.367 301.697C205.831 297.169 205.326 292.893 205.263 289.732C204.998 276.292 211.672 247.096 213.6 242.661C213.957 241.839 213.699 241.285 213.688 241.262C213.587 241.052 213.598 240.799 213.722 240.602C213.846 240.405 214.059 240.278 214.292 240.278H235.995C236.179 240.278 236.356 240.354 236.483 240.487C236.55 240.557 236.601 240.64 236.632 240.73L246.422 232.831C246.576 232.707 246.776 232.656 246.974 232.693C252.273 233.699 261.295 235.53 262.164 236.502C267.936 242.968 266.805 261.397 265.896 276.206C265.666 279.947 265.45 283.481 265.394 286.268C265.405 286.468 265.673 287.738 268.703 295.29C270.668 300.186 270.839 305.292 270.769 309.194C270.687 313.758 271.735 318.382 273.801 322.565L274.666 324.318C275.531 326.068 275.82 327.926 275.503 329.69C275.476 329.84 275.446 329.988 275.411 330.137L275.626 335.892C275.638 336.226 275.405 336.519 275.077 336.582L267.297 338.077C265.146 338.492 259.432 339.59 255.312 339.59ZM245.046 336.034L252.395 337.936C253.114 338.136 254.091 338.237 255.312 338.237C259.303 338.237 264.926 337.156 267.042 336.748L274.252 335.363L274.055 330.095C274.052 330.032 274.059 329.969 274.074 329.908C274.111 329.756 274.143 329.604 274.171 329.451C274.436 327.975 274.188 326.407 273.453 324.917L272.587 323.165C270.426 318.788 269.33 313.948 269.416 309.169C269.484 305.395 269.322 300.465 267.447 295.794C264.021 287.256 264.035 286.545 264.041 286.241C264.097 283.426 264.314 279.878 264.545 276.123C265.391 262.333 266.551 243.448 261.154 237.404C260.453 236.885 253.47 235.311 247.029 234.081L236.369 242.682C236.161 242.849 235.876 242.88 235.64 242.76C235.402 242.64 235.257 242.393 235.268 242.127L235.289 241.632H215.138C215.163 242.056 215.105 242.592 214.841 243.201C212.939 247.577 206.354 276.415 206.617 289.705C206.677 292.8 207.179 297.044 207.711 301.538C208.45 307.794 209.289 314.885 209.148 320.658C208.843 333.089 209.815 335.634 210.028 336.037C212.657 337.188 215.447 337.772 218.321 337.772C219.995 337.772 221.667 337.568 223.291 337.166L226.27 336.428C227.956 336.011 229.693 335.794 231.432 335.784L235.49 335.759L236.059 334.755C237.44 332.317 237.48 329.36 236.164 327.038C234.487 324.077 233.89 320.586 234.484 317.207C235.622 310.734 236.591 302.469 233.959 295.958L232.838 293.186C232.802 293.096 232.785 293 232.789 292.904L233.442 277.541C233.456 277.19 233.739 276.909 234.09 276.894C234.429 276.879 234.746 277.137 234.789 277.487L237.022 295.544L241.506 313.514C242.224 316.391 242.307 319.444 242.388 322.398C242.44 324.264 242.492 326.193 242.708 328.022L245.046 336.034Z" fill="#263238"/>
<path d="M281.448 215.123C280.048 211.668 277.402 202.665 276.829 198.818C276.806 198.683 276.792 198.541 276.771 198.394C276.516 196.466 275.391 194.648 274.502 192.981C274.412 192.808 274.313 192.638 274.219 192.466C274.02 192.11 273.805 191.764 273.574 191.428C273.403 191.179 273.231 190.929 273.051 190.687C272.871 190.445 272.687 190.209 272.493 189.976C272.49 189.961 272.478 189.954 272.47 189.945C272.323 189.773 272.175 189.596 272.023 189.425C271.864 189.246 271.699 189.067 271.537 188.895C271.368 188.723 271.201 188.55 271.028 188.379C270.177 187.538 269.243 186.779 268.264 186.109C267.873 185.841 267.471 185.586 267.068 185.348C267.067 185.343 267.067 185.343 267.061 185.344C266.658 185.106 266.254 184.883 265.838 184.683C265.642 184.586 262.408 183.481 262.212 183.384C262.196 183.378 262.183 183.371 262.172 183.368C261.76 183.178 261.352 183.008 260.941 182.86C260.291 182.615 259.635 182.413 258.98 182.252C258.808 182.211 258.637 182.17 258.466 182.135C258.41 182.122 258.355 182.11 258.296 182.099C258.098 182.059 257.896 182.021 257.696 181.993C257.483 181.957 257.272 181.926 257.059 181.906C256.908 181.886 256.753 181.872 256.598 181.859C256.528 181.85 256.459 181.846 256.391 181.842C256.215 181.829 256.036 181.821 255.857 181.813C255.479 181.803 255.099 181.808 254.73 181.833C254.622 181.839 254.514 181.845 254.407 181.855C254.391 181.854 254.381 181.856 254.371 181.859C254.228 181.868 254.086 181.883 253.945 181.902C253.742 181.926 253.541 181.96 253.347 181.993C251.041 182.41 243.584 180.809 243.584 180.809L237.718 178.177C237.718 178.177 237.662 178.208 237.556 178.253C236.31 178.84 228.278 182.591 226.305 182.687C226.021 182.702 225.743 182.717 225.47 182.732C225.191 182.748 224.923 182.768 224.65 182.788C224.098 182.823 223.561 182.869 223.04 182.925C222.727 182.955 222.418 182.991 222.114 183.026C221.901 183.046 221.688 183.076 221.481 183.106C221.268 183.132 221.061 183.162 220.854 183.193C220.378 183.259 219.913 183.334 219.462 183.42C219.239 183.461 219.017 183.501 218.799 183.547C218.009 183.704 217.255 183.886 216.541 184.093C216.405 184.129 216.274 184.17 216.142 184.21C215.813 184.311 215.489 184.417 215.175 184.529C214.993 184.595 214.81 184.66 214.633 184.731C214.294 184.858 213.97 184.994 213.652 185.136C213.47 185.217 213.287 185.303 213.105 185.399C212.949 185.475 212.786 185.556 212.635 185.642C212.17 185.885 211.728 186.153 211.309 186.442C211.167 186.538 211.035 186.635 210.898 186.736C210.499 187.024 210.124 187.338 209.77 187.677C209.653 187.789 209.542 187.9 209.431 188.011C209.421 188.016 209.421 188.021 209.421 188.021C209.314 188.128 209.213 188.239 209.112 188.351C208.889 188.594 208.682 188.842 208.49 189.1C207.401 190.522 206.632 192.207 206.152 194.187C206.142 194.227 206.131 194.267 206.117 194.308C206.111 194.313 206.111 194.318 206.111 194.318C205.605 195.654 201.254 197.745 200.181 201.759L198.67 199.327V199.322C198.063 197.93 196.818 194.518 196.782 194.772C196.755 194.98 190.351 198.512 186.178 200.891V210.078C186.178 210.078 186.392 214.082 186.527 214.603C189.28 225.156 198.059 237.91 208.601 230.05C212.893 226.851 215.878 222.369 217.251 217.49C217.301 217.298 217.347 217.111 217.393 216.929C217.382 216.974 217.377 217.024 217.367 217.07C216.675 220.877 217.946 227.978 215.307 233.602C211.768 241.146 211.54 245.244 217.853 246.002L229.044 245.726C231.054 245.676 233.063 245.824 235.043 246.168L236.078 246.348C237.707 246.631 239.366 246.742 241.018 246.67C247.622 246.381 252.209 245.321 254.476 244.668C255.643 244.333 256.863 244.25 258.066 244.422L262.478 245.054C266.888 245.685 267.801 242.845 268.823 238.509C268.823 238.509 276.533 237.987 278.994 236.31C280.944 234.981 282.332 232.954 282.77 230.635C283.767 225.316 282.824 218.518 281.448 215.123Z" fill="#644BFD"/>
<path d="M216.223 236.667C218.861 231.043 217.094 223.377 217.787 219.57C217.797 219.525 217.076 219.15 218.308 219.994C218.154 219.888 218.217 220.363 218.167 220.556C217.879 221.578 217.517 222.581 217.09 223.56C217.035 226.809 216.788 230.44 215.304 233.603C212.866 238.8 212 242.36 213.76 244.321C213.848 242.365 214.745 239.818 216.223 236.667Z" fill="white"/>
<path d="M282.361 218.172C282.097 216.998 281.786 215.957 281.447 215.123C280.985 213.981 280.386 212.233 279.771 210.267C280.671 213.392 281.668 216.457 282.361 218.172Z" fill="white"/>
<path d="M276.77 198.394C276.515 196.466 275.39 194.648 274.501 192.981C274.411 192.808 274.313 192.638 274.218 192.466C274.019 192.11 273.804 191.764 273.573 191.428C273.402 191.179 273.231 190.929 273.05 190.687C272.871 190.445 272.686 190.209 272.493 189.976C272.489 189.961 272.477 189.954 272.469 189.945C272.323 189.773 272.174 189.596 272.022 189.425C271.863 189.246 271.699 189.067 271.536 188.895C271.368 188.723 271.2 188.55 271.028 188.379C270.177 187.538 269.242 186.779 268.263 186.109C267.873 185.841 267.471 185.586 267.067 185.348C267.066 185.343 267.066 185.343 267.061 185.344C266.657 185.106 266.253 184.883 265.838 184.683C265.642 184.586 262.408 183.481 262.212 183.384C262.195 183.378 262.182 183.371 262.172 183.368C261.759 183.178 261.352 183.008 260.94 182.86C260.29 182.615 259.634 182.413 258.979 182.252C258.808 182.211 258.636 182.17 258.465 182.135C258.41 182.122 258.355 182.11 258.295 182.099C258.098 182.059 257.895 182.021 257.695 181.993C257.482 181.957 257.272 181.926 257.058 181.906C256.907 181.886 256.753 181.872 256.597 181.859C256.527 181.849 256.459 181.846 256.39 181.842C256.215 181.829 256.035 181.821 255.856 181.813C255.478 181.803 255.099 181.808 254.73 181.833C254.621 181.839 254.514 181.845 254.406 181.855C254.39 181.854 254.38 181.856 254.371 181.859C254.227 181.868 254.085 181.883 253.944 181.902C253.741 181.926 253.541 181.96 253.346 181.993C251.04 182.41 243.583 180.809 243.583 180.809L237.717 178.177C237.717 178.177 237.661 178.208 237.555 178.253C236.31 178.84 228.278 182.591 226.304 182.687C226.021 182.702 225.742 182.717 225.469 182.732C225.191 182.748 224.922 182.768 224.649 182.788C224.097 182.823 223.561 182.869 223.039 182.925C222.726 182.955 222.417 182.991 222.113 183.026C221.9 183.046 221.688 183.076 221.48 183.106C221.267 183.132 221.061 183.162 220.853 183.193C220.377 183.259 219.911 183.334 219.461 183.42C219.238 183.461 219.016 183.501 218.798 183.547C218.008 183.704 217.254 183.886 216.54 184.093C216.404 184.129 216.273 184.17 216.141 184.21C215.812 184.311 215.488 184.417 215.174 184.529C214.992 184.595 214.81 184.66 214.633 184.731C214.294 184.858 213.969 184.994 213.651 185.136C213.469 185.217 213.287 185.303 213.104 185.399C212.948 185.475 212.786 185.556 212.634 185.642C212.169 185.885 211.728 186.153 211.308 186.442C211.166 186.538 211.035 186.635 210.898 186.736C210.498 187.024 210.124 187.338 209.77 187.677C209.653 187.789 209.541 187.9 209.43 188.011C209.42 188.016 209.42 188.021 209.42 188.021C209.314 188.128 209.212 188.239 209.111 188.351C208.889 188.594 208.681 188.842 208.489 189.1C207.401 190.522 206.631 192.207 206.151 194.187C206.141 194.227 206.131 194.267 206.116 194.308C206.11 194.313 206.11 194.318 206.11 194.318C205.604 195.654 201.253 197.745 200.18 201.759L198.669 199.327V199.322C198.062 197.93 196.817 194.518 196.782 194.772C196.754 194.98 190.35 198.512 186.177 200.891V204.404C186.482 204.383 186.789 204.386 187.096 204.403V203.955C191.269 201.577 197.673 198.044 197.7 197.836C197.736 197.583 198.981 200.994 199.588 202.386V202.391L201.099 204.824C202.172 200.81 206.524 198.719 207.03 197.383C207.03 197.383 207.03 197.378 207.035 197.372C207.05 197.332 207.06 197.291 207.07 197.251C207.55 195.272 208.32 193.586 209.408 192.164C209.6 191.906 209.807 191.658 210.03 191.415C210.132 191.303 210.233 191.192 210.339 191.086C210.339 191.086 210.339 191.081 210.349 191.076C210.46 190.964 210.572 190.853 210.688 190.742C211.042 190.403 211.417 190.089 211.817 189.8C211.954 189.699 212.085 189.603 212.227 189.507C212.647 189.218 213.088 188.95 213.553 188.707C213.705 188.621 213.867 188.54 214.024 188.464C214.206 188.368 214.388 188.282 214.57 188.201C214.889 188.059 215.213 187.923 215.552 187.796C215.729 187.725 215.911 187.66 216.093 187.594C216.407 187.482 216.731 187.376 217.06 187.275C217.192 187.234 217.323 187.194 217.46 187.159C218.173 186.951 218.928 186.769 219.717 186.612C219.935 186.566 220.157 186.526 220.38 186.485C220.831 186.399 221.296 186.323 221.772 186.257C221.979 186.227 222.187 186.197 222.399 186.171C222.607 186.141 222.819 186.11 223.032 186.09C223.336 186.055 223.645 186.02 223.958 185.989C224.479 185.933 225.016 185.888 225.568 185.853C225.841 185.832 226.109 185.812 226.388 185.797C226.662 185.782 226.94 185.767 227.223 185.752C229.197 185.655 237.229 181.905 238.474 181.318C238.58 181.273 238.636 181.242 238.636 181.242L244.502 183.874C244.502 183.874 251.959 185.475 254.265 185.058C254.46 185.025 254.66 184.991 254.863 184.967C255.004 184.948 255.146 184.933 255.29 184.923C255.3 184.921 255.309 184.918 255.326 184.919C255.432 184.909 255.54 184.903 255.648 184.897C256.018 184.873 256.397 184.867 256.775 184.877C256.955 184.885 257.134 184.892 257.309 184.906C257.378 184.91 257.447 184.914 257.516 184.923C257.671 184.936 257.826 184.95 257.977 184.97C258.19 184.99 258.402 185.021 258.614 185.057C258.814 185.086 259.017 185.124 259.214 185.163C259.274 185.174 259.329 185.186 259.385 185.199C259.555 185.235 259.726 185.276 259.898 185.316C260.554 185.477 261.209 185.679 261.859 185.924C262.271 186.072 262.678 186.242 263.09 186.432C263.102 186.434 263.114 186.441 263.131 186.448C263.327 186.545 266.561 187.65 266.757 187.748C267.172 187.947 267.577 188.17 267.98 188.409C267.985 188.407 267.985 188.407 267.986 188.412C268.39 188.651 268.792 188.906 269.182 189.174C270.162 189.843 271.097 190.602 271.947 191.443C272.119 191.614 272.287 191.787 272.455 191.959C272.618 192.132 272.782 192.31 272.941 192.489C273.093 192.66 273.242 192.837 273.389 193.009C273.396 193.018 273.408 193.025 273.412 193.04C273.606 193.274 273.789 193.509 273.969 193.751C274.149 193.993 274.321 194.243 274.492 194.492C274.724 194.828 274.938 195.174 275.137 195.53C275.233 195.701 275.331 195.872 275.42 196.045C275.872 196.892 276.383 197.778 276.812 198.698C276.798 198.599 276.785 198.5 276.77 198.394Z" fill="white"/>
<path d="M240.029 247.368C238.676 247.368 237.307 247.249 235.959 247.015L234.923 246.835C232.992 246.5 231.018 246.353 229.058 246.402L217.867 246.679C217.834 246.68 217.802 246.679 217.769 246.675C215.191 246.365 213.542 245.501 212.728 244.033C211.564 241.935 212.151 238.73 214.691 233.316C216.379 229.718 216.408 225.352 216.43 221.843C216.431 221.746 216.432 221.65 216.433 221.555C214.732 225.102 212.178 228.227 209.001 230.594C206.712 232.3 204.369 233.166 202.038 233.166C194.224 233.166 188.179 223.633 185.868 214.776C185.726 214.229 185.549 211.071 185.498 210.116L185.497 200.892C185.497 200.649 185.627 200.425 185.838 200.304C187.002 199.641 188.34 198.888 189.664 198.142C192.383 196.61 195.751 194.713 196.263 194.333C196.39 194.181 196.58 194.083 196.786 194.083C197.314 194.083 197.314 194.083 198.368 196.773C198.696 197.609 199.034 198.473 199.274 199.025L200.021 200.228C200.996 198.154 202.71 196.674 204.022 195.542C204.679 194.975 205.358 194.388 205.474 194.08C205.476 194.077 205.477 194.074 205.479 194.071C206.001 191.93 206.805 190.186 207.949 188.691C208.142 188.43 208.36 188.168 208.609 187.896C208.716 187.779 208.824 187.659 208.939 187.546C208.942 187.542 208.947 187.538 208.95 187.534C209.065 187.42 209.18 187.305 209.3 187.19C209.679 186.827 210.082 186.491 210.499 186.19C210.637 186.088 210.776 185.987 210.925 185.885C211.375 185.576 211.845 185.293 212.318 185.046C212.461 184.964 212.636 184.877 212.805 184.794C212.981 184.701 213.177 184.608 213.373 184.522C213.704 184.374 214.04 184.233 214.393 184.101C214.562 184.033 214.752 183.965 214.942 183.896C215.268 183.781 215.601 183.671 215.939 183.567C216.094 183.52 216.227 183.478 216.367 183.442C217.077 183.236 217.856 183.048 218.664 182.887C218.88 182.841 219.109 182.8 219.337 182.758C219.79 182.672 220.27 182.593 220.757 182.526C220.966 182.495 221.179 182.464 221.397 182.438C221.598 182.408 221.823 182.377 222.047 182.355C222.341 182.321 222.654 182.285 222.972 182.254C223.495 182.198 224.041 182.152 224.603 182.115C224.882 182.095 225.151 182.075 225.429 182.059L226.265 182.013C227.6 181.948 232.75 179.772 237.263 177.644C237.348 177.607 237.385 177.588 237.395 177.583C237.579 177.486 237.801 177.477 237.991 177.562L243.791 180.165C244.453 180.304 249.694 181.389 252.361 181.389C252.718 181.389 253.008 181.369 253.222 181.33C253.441 181.293 253.65 181.258 253.862 181.233C253.997 181.214 254.147 181.198 254.298 181.187C254.321 181.185 254.346 181.183 254.367 181.181C254.474 181.171 254.581 181.165 254.689 181.159C255.07 181.134 255.473 181.127 255.873 181.139C256.071 181.147 256.258 181.155 256.441 181.17C256.51 181.173 256.594 181.178 256.68 181.189C256.82 181.201 256.984 181.216 257.144 181.237C257.349 181.256 257.577 181.289 257.806 181.327C258.001 181.355 258.216 181.395 258.426 181.437C258.485 181.448 258.549 181.462 258.612 181.476C258.779 181.511 258.957 181.553 259.135 181.596C259.825 181.764 260.511 181.977 261.177 182.228C261.573 182.37 261.987 182.541 262.432 182.744C262.446 182.75 262.46 182.756 262.471 182.761C262.625 182.827 263.559 183.155 264.241 183.393C265.705 183.907 266.024 184.022 266.137 184.078C266.517 184.26 266.921 184.478 267.363 184.738C267.392 184.753 267.42 184.77 267.447 184.788C267.864 185.035 268.267 185.293 268.645 185.552C269.686 186.263 270.647 187.053 271.502 187.899C271.67 188.065 271.833 188.232 271.997 188.399C272.195 188.609 272.364 188.792 272.527 188.976C272.645 189.109 272.761 189.245 272.876 189.38L272.973 189.494C272.993 189.516 273.012 189.54 273.03 189.565C273.225 189.801 273.41 190.039 273.592 190.283C273.775 190.529 273.949 190.781 274.123 191.035C274.371 191.396 274.599 191.763 274.808 192.136L274.884 192.273C274.958 192.404 275.032 192.536 275.1 192.669C275.223 192.896 275.352 193.134 275.483 193.374C276.29 194.851 277.205 196.525 277.44 198.306L277.464 198.485C277.474 198.561 277.482 198.634 277.495 198.706C278.05 202.427 280.657 211.37 282.074 214.868C283.533 218.469 284.44 225.397 283.431 230.759C282.971 233.197 281.492 235.424 279.371 236.869C277.137 238.391 271.15 238.995 269.365 239.144C268.564 242.504 267.602 245.818 263.623 245.818C263.622 245.818 263.623 245.818 263.623 245.818C263.235 245.818 262.817 245.786 262.379 245.723L257.967 245.091C256.861 244.933 255.729 245.011 254.66 245.318C252.469 245.949 247.787 247.05 241.045 247.345C240.706 247.361 240.367 247.368 240.029 247.368ZM229.798 245.04C231.589 245.04 233.391 245.195 235.156 245.502L236.191 245.682C237.781 245.959 239.391 246.064 240.986 245.994C247.587 245.705 252.153 244.632 254.286 244.018C255.538 243.658 256.865 243.567 258.158 243.752L262.57 244.384C262.945 244.438 263.299 244.465 263.621 244.465C266.415 244.465 267.181 242.508 268.161 238.353C268.229 238.064 268.477 237.854 268.774 237.834C270.868 237.692 276.716 237.041 278.609 235.751C280.435 234.507 281.708 232.597 282.101 230.51C283.051 225.459 282.176 218.723 280.821 215.377C279.378 211.817 276.724 202.704 276.159 198.919C276.146 198.842 276.134 198.75 276.122 198.656L276.1 198.492C275.897 196.953 275.083 195.464 274.296 194.024C274.163 193.779 274.031 193.539 273.904 193.3C273.838 193.174 273.771 193.055 273.704 192.936L273.626 192.796C273.439 192.46 273.232 192.129 273.015 191.813C272.844 191.564 272.68 191.324 272.507 191.093C272.334 190.86 272.157 190.633 271.971 190.409C271.961 190.398 271.952 190.385 271.943 190.373L271.844 190.257C271.736 190.13 271.627 190.001 271.516 189.876C271.36 189.701 271.2 189.528 271.042 189.359C270.87 189.184 270.712 189.021 270.55 188.861C269.753 188.073 268.854 187.336 267.879 186.669C267.514 186.418 267.125 186.171 266.721 185.932C266.719 185.93 266.716 185.929 266.714 185.928C266.29 185.676 265.907 185.469 265.542 185.294C265.419 185.241 264.479 184.911 263.793 184.671C262.441 184.197 262.072 184.065 261.937 184.004C261.92 183.998 261.903 183.991 261.886 183.984C261.469 183.792 261.084 183.633 260.708 183.498C260.083 183.262 259.449 183.066 258.815 182.911C258.654 182.872 258.489 182.833 258.324 182.798C258.266 182.785 258.219 182.775 258.168 182.765C257.974 182.726 257.783 182.691 257.596 182.664C257.383 182.628 257.188 182.599 256.991 182.581C256.825 182.559 256.68 182.547 256.535 182.534C256.457 182.525 256.403 182.522 256.35 182.519C256.167 182.505 255.996 182.497 255.825 182.49C255.496 182.481 255.118 182.486 254.77 182.509C254.666 182.515 254.568 182.52 254.47 182.53C254.463 182.531 254.457 182.531 254.449 182.532C254.437 182.533 254.425 182.534 254.413 182.535C254.286 182.543 254.159 182.556 254.034 182.574C253.831 182.598 253.645 182.63 253.463 182.66C253.165 182.715 252.804 182.741 252.361 182.741C249.381 182.741 243.679 181.524 243.437 181.472C243.391 181.462 243.346 181.447 243.303 181.428L237.72 178.923C235.444 179.994 228.341 183.266 226.334 183.364L225.515 183.409C225.233 183.424 224.973 183.444 224.708 183.464C224.148 183.5 223.62 183.544 223.108 183.599C222.792 183.63 222.488 183.665 222.188 183.7C221.973 183.72 221.771 183.749 221.576 183.778C221.351 183.805 221.15 183.835 220.948 183.864C220.479 183.929 220.025 184.004 219.584 184.087C219.362 184.128 219.145 184.167 218.934 184.211C218.156 184.366 217.416 184.545 216.726 184.745C216.588 184.781 216.472 184.818 216.354 184.853C216.017 184.957 215.702 185.06 215.397 185.169C215.225 185.231 215.05 185.294 214.88 185.362C214.54 185.489 214.229 185.621 213.922 185.756C213.753 185.832 213.585 185.911 213.415 186C213.252 186.08 213.103 186.154 212.963 186.233C212.519 186.466 212.095 186.72 211.687 187.001C211.55 187.094 211.426 187.186 211.296 187.281C210.924 187.549 210.569 187.846 210.233 188.167C210.119 188.275 210.012 188.383 209.905 188.49C209.903 188.492 209.901 188.494 209.899 188.496C209.898 188.498 209.896 188.499 209.894 188.501C209.796 188.6 209.702 188.704 209.608 188.807C209.388 189.046 209.199 189.274 209.028 189.505C207.993 190.857 207.268 192.438 206.805 194.347C206.788 194.414 206.77 194.478 206.747 194.542C206.741 194.559 206.734 194.576 206.726 194.593C206.477 195.209 205.815 195.78 204.906 196.565C203.457 197.816 201.473 199.53 200.83 201.935C200.76 202.195 200.543 202.39 200.276 202.43C200.008 202.472 199.744 202.347 199.602 202.117L198.091 199.685C198.064 199.642 198.043 199.596 198.026 199.549C197.777 198.974 197.437 198.106 197.109 197.266C196.914 196.77 196.692 196.204 196.519 195.778C195.631 196.334 193.868 197.328 190.328 199.32C189.134 199.993 187.928 200.672 186.85 201.285V210.079C186.951 211.957 187.102 214.123 187.178 214.434C189.431 223.069 195.258 231.812 202.037 231.812C204.071 231.812 206.142 231.036 208.192 229.508C212.248 226.485 215.232 222.152 216.595 217.308L216.731 216.766C216.82 216.406 217.185 216.187 217.542 216.271C217.903 216.356 218.128 216.714 218.049 217.076C218.037 217.144 218.031 217.181 218.023 217.217C217.806 218.415 217.795 220.007 217.783 221.852C217.76 225.492 217.73 230.023 215.916 233.891C213.613 238.799 212.994 241.725 213.911 243.377C214.495 244.429 215.794 245.067 217.882 245.325L229.023 245.05C229.282 245.043 229.54 245.04 229.798 245.04Z" fill="#263238"/>
<path d="M234.101 183.852C234.669 185.876 236.856 186.518 239.268 185.542C239.56 185.422 239.855 185.277 240.154 185.112C240.242 185.06 240.333 185.009 240.425 184.954C240.631 184.827 240.84 184.686 241.034 184.545C243.505 182.739 244.975 179.738 244.367 177.571C244.004 176.278 242.982 175.543 241.666 175.44C241.603 175.435 241.537 175.433 241.469 175.435C241.378 175.43 241.281 175.433 241.185 175.434C240.222 175.46 239.136 175.798 238.044 176.465C235.211 178.203 233.443 181.508 234.101 183.852Z" fill="#263238"/>
<path d="M237.14 186.667C235.291 186.667 233.911 185.683 233.45 184.035C232.705 181.383 234.567 177.804 237.69 175.888C238.852 175.177 240.055 174.787 241.167 174.758L241.339 174.755C241.387 174.755 241.434 174.756 241.48 174.758C241.498 174.758 241.516 174.758 241.52 174.758C241.588 174.758 241.655 174.76 241.719 174.766C243.359 174.893 244.593 175.874 245.018 177.388C245.693 179.792 244.152 183.104 241.433 185.091C241.224 185.243 241 185.394 240.779 185.53L240.499 185.694C240.142 185.891 239.83 186.042 239.526 186.168C238.706 186.499 237.904 186.667 237.14 186.667ZM241.339 176.108L241.209 176.11C240.326 176.133 239.356 176.455 238.396 177.042C235.852 178.603 234.183 181.638 234.753 183.669C235.154 185.1 236.421 185.313 237.14 185.313C237.73 185.313 238.361 185.179 239.015 184.914C239.268 184.81 239.535 184.68 239.828 184.519L240.073 184.375C240.261 184.26 240.455 184.129 240.635 183.997C242.884 182.354 244.237 179.611 243.716 177.753C243.442 176.781 242.696 176.199 241.613 176.114C241.582 176.112 241.551 176.11 241.52 176.11C241.508 176.11 241.444 176.111 241.431 176.11L241.339 176.108Z" fill="#263238"/>
<path d="M233.969 182.134C236.94 184.311 241.113 183.683 244 180.868C244.347 180.525 244.674 180.148 244.987 179.745C245.077 179.621 245.172 179.497 245.262 179.367C245.464 179.072 245.657 178.758 245.825 178.452C247.962 174.552 247.275 169.805 244.091 167.474C242.191 166.083 239.799 165.828 237.577 166.563C237.47 166.598 237.363 166.639 237.254 166.687C237.103 166.741 236.95 166.806 236.797 166.872C235.274 167.537 233.87 168.677 232.793 170.234C230.005 174.286 230.523 179.612 233.969 182.134Z" fill="#FCD8C3"/>
<path d="M232.793 170.234C233.87 168.677 235.274 167.537 236.798 166.872C236.95 166.806 237.103 166.741 237.254 166.687C237.363 166.64 237.47 166.599 237.577 166.563C239.799 165.828 242.191 166.083 244.091 167.474C244.124 167.498 244.152 167.526 244.184 167.55C242.662 167.009 240.988 167.018 239.397 167.544C239.291 167.579 239.183 167.62 239.074 167.667C238.923 167.721 238.77 167.787 238.618 167.852C237.094 168.517 235.69 169.657 234.613 171.215C231.847 175.236 232.34 180.507 235.714 183.053C235.102 182.838 234.515 182.535 233.968 182.135C230.523 179.612 230.005 174.286 232.793 170.234Z" fill="white"/>
<path d="M238.018 184.117C236.39 184.117 234.851 183.62 233.568 182.68C229.843 179.952 229.245 174.198 232.236 169.851C233.354 168.233 234.838 166.989 236.527 166.252C236.696 166.179 236.864 166.108 237.029 166.049C237.112 166.011 237.24 165.962 237.367 165.921C239.843 165.102 242.498 165.469 244.49 166.928C247.917 169.437 248.746 174.531 246.418 178.778C246.238 179.106 246.031 179.443 245.82 179.751C245.76 179.838 245.698 179.922 245.636 180.005L245.537 180.14C245.175 180.609 244.832 180.997 244.476 181.35C242.671 183.11 240.319 184.117 238.018 184.117ZM240.024 166.838C239.279 166.838 238.528 166.962 237.789 167.206C237.7 167.235 237.613 167.269 237.525 167.307C237.343 167.374 237.204 167.434 237.065 167.494C235.61 168.128 234.324 169.21 233.35 170.619C230.771 174.367 231.227 179.289 234.368 181.588C235.418 182.358 236.68 182.764 238.018 182.764C239.968 182.764 241.977 181.896 243.528 180.383C243.838 180.077 244.142 179.731 244.452 179.33L244.548 179.2C244.6 179.129 244.653 179.057 244.705 178.982C244.89 178.712 245.073 178.416 245.232 178.126C247.234 174.473 246.572 170.128 243.691 168.02C242.635 167.247 241.366 166.838 240.024 166.838Z" fill="#263238"/>
<path d="M239.908 171.763C239.988 171.8 241.643 173.024 241.337 174.513C240.925 176.516 241.19 178.241 244.698 179.559C244.901 179.495 245.045 179.451 245.248 179.387C245.456 179.086 245.654 178.765 245.825 178.452C247.963 174.552 247.275 169.805 244.091 167.474C244.085 167.47 244.08 167.467 244.075 167.463C244.743 166.93 245.085 166.025 244.798 165.102C244.56 164.333 243.88 163.744 243.084 163.615C243.025 163.605 242.966 163.598 242.908 163.594C242.279 163.54 241.834 163.023 241.727 162.4C241.683 162.143 241.547 161.912 241.409 161.638C240.609 160.044 237.829 159.916 236.45 162.438C234.078 166.775 237.122 170.473 239.908 171.763Z" fill="#263238"/>
<path d="M244.698 180.236C244.617 180.236 244.536 180.221 244.46 180.192C240.385 178.661 240.26 176.394 240.674 174.376C240.876 173.398 239.735 172.477 239.574 172.353C237.984 171.602 236.031 169.97 235.251 167.605C234.662 165.815 234.871 163.916 235.857 162.114C236.646 160.67 237.965 159.808 239.385 159.808C240.534 159.808 241.541 160.393 242.015 161.335L242.077 161.459C242.207 161.71 242.34 161.968 242.395 162.287C242.445 162.582 242.641 162.893 242.965 162.92C243.039 162.926 243.115 162.935 243.192 162.947C244.245 163.117 245.129 163.884 245.445 164.902C245.714 165.769 245.561 166.682 245.061 167.394C248.006 170.049 248.606 174.787 246.419 178.777C246.233 179.114 246.022 179.458 245.805 179.771C245.719 179.895 245.594 179.987 245.451 180.031L244.9 180.204C244.834 180.225 244.766 180.236 244.698 180.236ZM239.385 161.162C238.467 161.162 237.592 161.761 237.044 162.763C236.231 164.25 236.061 165.736 236.537 167.181C237.189 169.161 238.853 170.529 240.192 171.149C240.427 171.257 242.392 172.743 242 174.65C241.676 176.226 241.661 177.632 244.721 178.843L244.819 178.812C244.965 178.59 245.106 178.357 245.232 178.126C247.234 174.474 246.572 170.129 243.691 168.021C243.521 167.896 243.411 167.694 243.406 167.483C243.402 167.273 243.488 167.066 243.653 166.935C244.15 166.538 244.341 165.913 244.152 165.304C243.99 164.781 243.517 164.372 242.977 164.284C242.935 164.278 242.894 164.272 242.853 164.269C241.945 164.192 241.226 163.488 241.06 162.516C241.041 162.403 240.963 162.253 240.874 162.079L240.804 161.944C240.563 161.461 240.019 161.162 239.385 161.162Z" fill="#263238"/>
<path d="M219.191 204.368C219.219 204.781 219.26 205.208 219.32 205.64C219.711 208.462 218.79 209.586 218.79 209.586" fill="#FCD8C3"/>
<path d="M218.789 210.263C218.639 210.263 218.487 210.212 218.361 210.109C218.072 209.872 218.03 209.446 218.266 209.157C218.266 209.157 218.986 208.161 218.65 205.733C218.591 205.309 218.546 204.865 218.516 204.413C218.491 204.04 218.774 203.718 219.146 203.693C219.517 203.665 219.841 203.951 219.866 204.323C219.894 204.742 219.936 205.154 219.991 205.547C220.41 208.575 219.427 209.877 219.313 210.015C219.179 210.178 218.985 210.263 218.789 210.263Z" fill="#263238"/>
<path d="M216.321 221.108C216.255 221.108 216.187 221.098 216.12 221.077C215.763 220.966 215.564 220.588 215.675 220.231C216.74 216.797 217.639 212.903 218.587 207.605C218.653 207.238 218.995 206.992 219.373 207.058C219.74 207.124 219.986 207.476 219.92 207.844C218.961 213.2 218.05 217.143 216.967 220.632C216.877 220.922 216.609 221.108 216.321 221.108Z" fill="#263238"/>
<path d="M218.79 209.93C218.584 209.93 218.38 209.836 218.247 209.657C217.44 208.573 217.21 207.905 216.829 206.799L216.705 206.441C216.582 206.088 216.768 205.702 217.121 205.579C217.471 205.456 217.859 205.642 217.983 205.996L218.108 206.357C218.47 207.406 218.651 207.933 219.333 208.85C219.556 209.15 219.494 209.574 219.193 209.797C219.072 209.887 218.93 209.93 218.79 209.93Z" fill="#263238"/>
<path d="M267.152 216.573H252.227C252.227 216.573 252.356 214.84 252.405 213.081C255.578 215.057 263 214.348 267.065 215.858L267.152 216.573Z" fill="white"/>
<path d="M268.466 217.25C268.332 217.25 268.196 217.21 268.078 217.127C267.729 216.883 267.31 216.669 266.831 216.493C265.079 215.843 262.573 215.614 260.149 215.393C256.964 215.102 253.955 214.828 252.075 213.673C252.016 213.643 251.956 213.606 251.898 213.567C251.588 213.362 251.478 212.931 251.68 212.619C251.883 212.308 252.277 212.204 252.59 212.402C252.592 212.404 252.64 212.435 252.643 212.437L252.695 212.47C252.706 212.476 252.753 212.501 252.763 212.507C254.368 213.506 257.37 213.78 260.273 214.045C262.785 214.274 265.383 214.511 267.301 215.224C267.888 215.439 268.412 215.707 268.856 216.019C269.161 216.234 269.236 216.656 269.021 216.962C268.889 217.149 268.68 217.25 268.466 217.25Z" fill="#263238"/>
<path d="M256.103 187.387C255.939 187.387 255.775 187.328 255.644 187.208C255.369 186.954 255.352 186.527 255.605 186.252C256.137 185.674 256.795 185.148 257.559 184.69C257.88 184.498 258.295 184.602 258.488 184.923C258.679 185.243 258.576 185.659 258.255 185.851C257.602 186.242 257.045 186.685 256.6 187.168C256.467 187.313 256.285 187.387 256.103 187.387Z" fill="#263238"/>
<path d="M236.324 189.386C235.112 189.386 233.94 188.947 233.056 188.097C232.786 187.838 232.777 187.41 233.037 187.14C233.295 186.87 233.725 186.862 233.994 187.121C235.058 188.144 236.727 188.325 238.147 187.569C238.475 187.393 238.886 187.518 239.061 187.849C239.237 188.179 239.112 188.589 238.782 188.764C237.996 189.182 237.151 189.386 236.324 189.386Z" fill="#263238"/>
<path d="M280.022 200.315C279.667 200.315 279.37 200.04 279.348 199.681C279.219 197.635 278.38 190.69 272.966 187.229C272.651 187.028 272.559 186.609 272.761 186.294C272.962 185.979 273.38 185.887 273.696 186.088C279.646 189.893 280.56 197.389 280.698 199.596C280.722 199.969 280.439 200.29 280.065 200.314C280.051 200.315 280.036 200.315 280.022 200.315Z" fill="#263238"/>
<path d="M282.507 199.732C282.164 199.732 281.87 199.472 281.835 199.123C281.682 197.609 281.337 196.07 280.809 194.548C280.686 194.195 280.873 193.81 281.226 193.687C281.577 193.564 281.965 193.752 282.087 194.104C282.649 195.726 283.017 197.368 283.181 198.987C283.218 199.359 282.947 199.69 282.576 199.728C282.553 199.731 282.53 199.732 282.507 199.732Z" fill="#263238"/>
<path d="M231.56 224.153C231.5 224.153 231.439 224.145 231.379 224.129C225.668 222.552 223.287 218.302 223.188 218.122C223.009 217.795 223.129 217.383 223.457 217.203C223.784 217.025 224.195 217.144 224.374 217.471C224.407 217.529 226.614 221.409 231.739 222.824C232.099 222.923 232.311 223.296 232.211 223.656C232.128 223.956 231.856 224.153 231.56 224.153Z" fill="#263238"/>
<path d="M257.488 209.397C257.379 209.397 257.268 209.371 257.165 209.315C256.448 208.925 254.738 207.242 253.184 204.724C252.987 204.406 253.086 203.989 253.404 203.792C253.721 203.597 254.139 203.695 254.335 204.013C255.892 206.535 257.45 207.929 257.812 208.126C258.14 208.305 258.262 208.715 258.084 209.044C257.961 209.269 257.728 209.397 257.488 209.397Z" fill="#263238"/>
<path d="M234.155 155.429C234.728 155.354 235.077 156.097 234.65 156.487C233.603 157.44 231.996 159.077 231.63 160.423C231.077 162.458 229.859 162.403 229.611 161.309C229.365 160.216 231.084 156.995 232.779 155.95C233.298 155.63 233.762 155.481 234.155 155.429Z" fill="#263238"/>
<path d="M230.344 162.737C229.674 162.737 229.127 162.235 228.952 161.458C228.616 159.97 230.595 156.502 232.423 155.374C232.97 155.037 233.522 154.831 234.066 154.759C234.674 154.679 235.21 155.022 235.426 155.582C235.62 156.082 235.494 156.633 235.105 156.987C233.55 158.404 232.522 159.721 232.283 160.6C231.92 161.938 231.195 162.737 230.344 162.737ZM234.028 156.139C233.743 156.207 233.441 156.337 233.134 156.526C231.572 157.489 230.112 160.448 230.272 161.16C230.298 161.277 230.337 161.344 230.362 161.374C230.465 161.322 230.759 161.047 230.977 160.246C231.356 158.851 232.81 157.27 234.028 156.139Z" fill="#263238"/>
<path d="M231.054 164.685C230.866 165.006 230.471 165.107 230.173 164.911C229.873 164.714 229.783 164.295 229.971 163.975C230.159 163.654 230.554 163.553 230.852 163.749C231.152 163.946 231.242 164.365 231.054 164.685Z" fill="#263238"/>
<path d="M230.504 165.688C230.254 165.688 230.011 165.614 229.8 165.476C229.195 165.079 229.013 164.269 229.387 163.632C229.754 163.006 230.625 162.791 231.224 163.184C231.829 163.581 232.011 164.391 231.637 165.028C231.4 165.435 230.965 165.688 230.504 165.688Z" fill="#263238"/>
<path d="M208.47 216.177C208.173 216.177 207.901 215.979 207.819 215.679C207.814 215.664 207.292 213.878 205.548 212.634C204.735 212.056 204.149 210.533 203.47 208.77C202.896 207.277 202.245 205.584 201.563 204.937C201.525 204.899 201.501 204.877 201.476 204.858C201.419 204.813 201.37 204.76 201.329 204.7C199.643 202.177 197.659 199.484 197.64 199.457C197.597 199.399 197.564 199.334 197.541 199.266L196.136 194.982C196.019 194.627 196.213 194.245 196.568 194.129C196.923 194.013 197.305 194.205 197.422 194.561L198.794 198.741C199.147 199.223 200.881 201.6 202.4 203.867C202.435 203.898 202.471 203.931 202.506 203.967C203.397 204.812 204.077 206.577 204.733 208.284C205.231 209.578 205.85 211.188 206.332 211.531C208.483 213.066 209.098 215.229 209.123 215.32C209.222 215.681 209.01 216.053 208.65 216.152C208.591 216.168 208.531 216.177 208.47 216.177Z" fill="#263238"/>
<path d="M210.242 214.713C209.869 214.713 209.566 214.41 209.566 214.036C209.566 213.587 208.189 212.761 205.941 212.761C205.567 212.761 205.264 212.457 205.264 212.084C205.264 211.71 205.567 211.407 205.941 211.407C208.779 211.407 210.919 212.537 210.919 214.036C210.919 214.411 210.616 214.713 210.242 214.713Z" fill="#263238"/>
<path d="M186.424 207.654C186.147 207.654 185.888 207.483 185.787 207.208C185.66 206.857 185.842 206.469 186.192 206.341C190.034 204.946 195.008 202.018 198.02 199.378C198.301 199.132 198.729 199.16 198.975 199.441C199.221 199.722 199.193 200.149 198.912 200.396C195.79 203.132 190.635 206.168 186.655 207.613C186.578 207.641 186.5 207.654 186.424 207.654Z" fill="#263238"/>
<path d="M260.135 214.754C259.815 214.754 259.53 214.526 259.47 214.2C259.14 212.403 258.9 212.035 258.009 210.665L257.418 209.752C256.068 207.668 254.538 205.305 254.946 202.592C255.002 202.221 255.353 201.969 255.716 202.023C256.085 202.078 256.34 202.423 256.284 202.792C255.953 205 257.335 207.134 258.554 209.017L259.143 209.927C260.074 211.357 260.422 211.892 260.801 213.955C260.869 214.322 260.626 214.675 260.258 214.743C260.216 214.751 260.175 214.754 260.135 214.754Z" fill="#263238"/>
<path d="M270.002 238.802C267.419 238.802 263.87 238.376 259.833 236.357C258.655 235.768 257.463 235.021 256.31 234.298C255.52 233.802 254.773 233.333 254.093 232.956C251.332 231.424 248.039 230.671 247.303 230.695C246.929 230.696 246.615 230.418 246.601 230.045C246.587 229.672 246.878 229.357 247.251 229.342C248.414 229.302 251.995 230.245 254.75 231.773C255.461 232.167 256.223 232.645 257.029 233.151C258.155 233.857 259.319 234.587 260.438 235.147C265.98 237.918 270.569 237.501 272.774 237.299C273.229 237.257 273.588 237.225 273.876 237.223C273.877 237.223 273.878 237.223 273.879 237.223C274.252 237.223 274.554 237.524 274.556 237.896C274.558 238.27 274.256 238.574 273.882 238.576C273.653 238.578 273.319 238.608 272.898 238.646C272.165 238.713 271.185 238.802 270.002 238.802Z" fill="#263238"/>
<path d="M204.928 197.835C204.843 197.835 204.758 197.818 204.674 197.785C204.327 197.645 204.161 197.25 204.301 196.904L205.358 194.298C205.499 193.95 205.894 193.785 206.24 193.925C206.586 194.066 206.753 194.46 206.612 194.807L205.555 197.412C205.449 197.675 205.195 197.835 204.928 197.835Z" fill="#263238"/>
<path d="M234.533 246.845C234.43 246.845 234.325 246.821 234.227 246.771C231.177 245.224 227.753 244.178 224.048 243.663C223.65 243.607 223.105 243.532 223.105 242.932C223.105 242.558 223.408 242.255 223.782 242.255C223.854 242.255 223.924 242.266 223.99 242.287C224.043 242.296 224.125 242.307 224.235 242.322C228.088 242.858 231.656 243.949 234.84 245.564C235.173 245.734 235.306 246.14 235.137 246.474C235.017 246.71 234.779 246.845 234.533 246.845Z" fill="#263238"/>
<path d="M239.76 230.699L216.762 229.245C215.564 229.17 214.654 228.137 214.73 226.939L213.274 198.224C213.35 197.026 214.382 196.117 215.58 196.193L238.578 197.646C239.776 197.722 240.686 198.754 240.61 199.952L242.066 228.667C241.991 229.865 240.958 230.775 239.76 230.699Z" fill="#263238"/>
<path d="M239.9 231.381C239.839 231.381 239.779 231.379 239.718 231.375L216.72 229.921C215.96 229.873 215.264 229.532 214.761 228.961C214.267 228.4 214.016 227.683 214.053 226.938L212.598 198.259C212.596 198.233 212.596 198.207 212.598 198.181C212.698 196.623 214.049 195.418 215.622 195.517L238.62 196.971C240.175 197.069 241.363 198.403 241.288 199.954L242.742 228.633C242.744 228.659 242.744 228.685 242.742 228.71C242.647 230.207 241.399 231.381 239.9 231.381ZM213.951 198.233L215.406 226.905C215.408 226.931 215.408 226.957 215.406 226.983C215.38 227.382 215.512 227.766 215.776 228.066C216.041 228.366 216.406 228.545 216.805 228.57L239.803 230.024C240.613 230.078 241.319 229.461 241.389 228.66L239.934 199.987C239.933 199.961 239.933 199.935 239.935 199.91C239.987 199.086 239.359 198.374 238.535 198.322L215.537 196.868C214.726 196.818 214.021 197.431 213.951 198.233Z" fill="#263238"/>
<path d="M226.274 207.89C227.576 207.89 228.631 206.835 228.631 205.533C228.631 204.231 227.576 203.175 226.274 203.175C224.972 203.175 223.916 204.231 223.916 205.533C223.916 206.835 224.972 207.89 226.274 207.89Z" fill="white"/>
<path d="M226.274 208.568C224.6 208.568 223.239 207.206 223.239 205.533C223.239 203.861 224.601 202.499 226.274 202.499C227.946 202.499 229.308 203.86 229.308 205.533C229.308 207.207 227.947 208.568 226.274 208.568ZM226.274 203.852C225.347 203.852 224.593 204.606 224.593 205.533C224.593 206.46 225.347 207.214 226.274 207.214C227.2 207.214 227.955 206.46 227.955 205.533C227.955 204.606 227.2 203.852 226.274 203.852Z" fill="#263238"/>
<path d="M248.969 210.882C248.969 210.882 245.854 208.463 242.995 207.262C242.395 207.01 241.858 206.8 241.36 206.617C241.367 208.054 241.696 213.047 241.696 213.047C241.696 213.047 241.294 213.057 240.62 212.978C240.607 212.978 240.594 212.981 240.581 212.981C240.496 212.981 240.412 212.964 240.329 212.94C239.432 212.813 238.167 212.538 236.747 211.94C235.312 211.336 232.33 209.492 230.891 210.105C229.195 210.825 229.682 212.452 230.672 213.721C230.824 213.917 228.267 213.886 229.867 217.147C230.508 218.453 231.322 219.313 231.322 219.313C231.322 219.313 229.532 222.282 235.423 225.545C242.083 229.235 247.4 229.879 247.4 229.879C249.582 226.238 251.013 222.094 251.591 217.749L252.226 212.975L248.969 210.882Z" fill="#FCD8C3"/>
<path d="M247.4 230.556C247.373 230.556 247.346 230.555 247.319 230.551C247.096 230.524 241.793 229.848 235.095 226.137C232.513 224.707 230.975 223.124 230.523 221.432C230.291 220.563 230.403 219.87 230.539 219.44C230.221 219.051 229.702 218.348 229.259 217.445C228.654 216.212 228.509 215.237 228.816 214.465C229.014 213.967 229.362 213.662 229.682 213.471C229.286 212.802 228.941 211.91 229.167 211.038C229.291 210.558 229.645 209.899 230.626 209.482C230.902 209.364 231.221 209.305 231.574 209.305C232.892 209.305 234.567 210.131 235.913 210.795C236.325 210.999 236.714 211.191 237.01 211.316C238.4 211.901 239.634 212.157 240.425 212.269C240.458 212.274 240.491 212.281 240.524 212.291C240.545 212.297 240.56 212.3 240.569 212.302C240.586 212.301 240.604 212.3 240.621 212.3C240.647 212.3 240.674 212.302 240.7 212.305C240.797 212.317 240.888 212.326 240.973 212.334C240.88 210.874 240.69 207.735 240.685 206.619C240.684 206.397 240.791 206.19 240.973 206.062C241.155 205.935 241.388 205.904 241.595 205.982C242.148 206.186 242.692 206.401 243.258 206.638C246.063 207.816 249.037 210.08 249.359 210.329L252.592 212.406C252.812 212.548 252.931 212.804 252.897 213.065L252.262 217.839C251.675 222.248 250.195 226.532 247.981 230.228C247.857 230.433 247.636 230.556 247.4 230.556ZM231.573 210.658C231.404 210.658 231.263 210.681 231.156 210.727C230.581 210.971 230.502 211.276 230.476 211.377C230.355 211.844 230.627 212.565 231.205 213.305C231.338 213.475 231.387 213.72 231.329 213.928C231.227 214.287 230.923 214.401 230.723 214.476C230.431 214.585 230.18 214.698 230.074 214.964C229.987 215.185 229.922 215.722 230.475 216.849C231.058 218.038 231.807 218.84 231.815 218.848C232.023 219.069 232.059 219.403 231.902 219.662C231.895 219.676 231.59 220.241 231.845 221.13C232.103 222.03 232.989 223.423 235.751 224.953C241.137 227.937 245.67 228.899 247.051 229.139C249.044 225.691 250.379 221.732 250.921 217.659L251.499 213.312L248.603 211.451C248.586 211.44 248.57 211.428 248.554 211.416C248.523 211.393 245.474 209.037 242.733 207.886C242.508 207.791 242.286 207.7 242.066 207.613C242.146 209.575 242.369 212.962 242.372 213.004C242.383 213.188 242.32 213.369 242.196 213.505C242.072 213.641 241.896 213.72 241.712 213.725C241.707 213.725 241.659 213.725 241.654 213.725C241.517 213.725 241.148 213.719 240.609 213.658C240.599 213.659 240.589 213.659 240.581 213.659C240.456 213.659 240.327 213.641 240.189 213.603C239.318 213.477 237.982 213.195 236.484 212.564C236.151 212.423 235.744 212.222 235.313 212.01C234.158 211.439 232.576 210.658 231.573 210.658Z" fill="#263238"/>
<path d="M237.532 218.229C237.464 218.229 237.393 218.219 237.324 218.196C235.021 217.451 231.492 215.554 229.909 213.916C229.649 213.648 229.656 213.219 229.925 212.959C230.195 212.7 230.622 212.708 230.882 212.975C232.262 214.403 235.641 216.229 237.741 216.908C238.096 217.023 238.291 217.405 238.177 217.761C238.083 218.047 237.818 218.229 237.532 218.229Z" fill="#263238"/>
<path d="M236.801 222.803C236.709 222.803 236.616 222.784 236.526 222.744C235.901 222.465 230.378 219.943 229.205 217.289C229.054 216.947 229.209 216.547 229.551 216.396C229.893 216.245 230.292 216.4 230.443 216.742C231.127 218.29 234.362 220.297 237.078 221.507C237.419 221.659 237.572 222.06 237.42 222.401C237.308 222.653 237.061 222.803 236.801 222.803Z" fill="#263238"/>
<path d="M233.603 215.452C233.262 215.452 232.968 215.193 232.931 214.846C232.823 213.815 232.423 212.782 231.835 212.01C231.301 211.309 230.768 211.025 230.467 211.059C230.092 211.095 229.762 210.829 229.723 210.457C229.684 210.085 229.953 209.752 230.324 209.713C231.187 209.622 232.126 210.16 232.911 211.189C233.645 212.152 234.143 213.433 234.277 214.704C234.316 215.075 234.047 215.408 233.675 215.448C233.651 215.451 233.627 215.452 233.603 215.452Z" fill="#263238"/>
<path d="M234.118 278.247C233.744 278.247 233.441 277.944 233.441 277.571C233.441 273.994 233.33 270.189 232.527 266.602C231.976 264.137 230.749 262.04 229.449 259.82C229.075 259.181 228.698 258.538 228.337 257.883C228.157 257.556 228.276 257.145 228.603 256.964C228.93 256.783 229.341 256.903 229.522 257.229C229.877 257.874 230.248 258.507 230.616 259.136C231.911 261.348 233.25 263.635 233.847 266.306C234.678 270.022 234.794 273.916 234.794 277.571C234.795 277.944 234.492 278.247 234.118 278.247Z" fill="#263238"/>
<path d="M230.365 292.635C230.312 292.635 230.258 292.628 230.203 292.615C227.672 291.994 225.488 290.138 224.641 287.886C224.509 287.536 224.686 287.146 225.036 287.014C225.386 286.883 225.776 287.059 225.907 287.409C226.602 289.256 228.415 290.783 230.525 291.3C230.888 291.389 231.11 291.755 231.021 292.118C230.947 292.428 230.67 292.635 230.365 292.635Z" fill="#263238"/>
<path d="M233.313 326.356C233.23 326.356 233.145 326.341 233.063 326.308C232.716 326.17 232.546 325.777 232.685 325.429C233.887 322.41 234.244 317.067 234.248 317.014C234.272 316.641 234.593 316.36 234.966 316.382C235.339 316.406 235.622 316.728 235.598 317.101C235.584 317.328 235.223 322.714 233.942 325.93C233.836 326.195 233.582 326.356 233.313 326.356Z" fill="#263238"/>
<path d="M244.155 325.175C243.904 325.175 243.663 325.035 243.546 324.794C243.446 324.589 241.098 319.729 240.623 316.3C240.572 315.929 240.83 315.588 241.2 315.536C241.57 315.489 241.912 315.743 241.963 316.114C242.408 319.329 244.739 324.154 244.763 324.202C244.926 324.539 244.786 324.943 244.45 325.107C244.355 325.154 244.254 325.175 244.155 325.175Z" fill="#263238"/>
<path d="M230.347 289.683C230.223 289.683 230.098 289.649 229.986 289.578C229.321 289.159 228.739 288.677 228.258 288.148C228.006 287.871 228.027 287.443 228.304 287.192C228.579 286.94 229.008 286.96 229.26 287.237C229.659 287.676 230.146 288.078 230.709 288.433C231.025 288.632 231.12 289.05 230.921 289.366C230.791 289.57 230.571 289.683 230.347 289.683Z" fill="#263238"/>
<path d="M195.769 195.438C195.769 195.438 192.781 186.71 190.251 183.909C187.72 181.108 180.803 179.503 180.803 181.825C180.803 184.148 185.101 186.291 185.567 187.499C186.033 188.708 184.896 192.402 185.926 194.523C187.15 197.04 186.394 200.49 186.394 200.49L195.769 195.438Z" fill="#FCD8C3"/>
<path d="M186.394 201.167C186.25 201.167 186.107 201.121 185.987 201.03C185.776 200.872 185.676 200.604 185.732 200.345C185.74 200.313 186.421 197.089 185.318 194.819C184.625 193.393 184.788 191.443 184.92 189.877C184.993 188.998 185.069 188.09 184.936 187.743C184.826 187.458 184.055 186.826 183.435 186.317C181.961 185.107 180.127 183.601 180.127 181.826C180.127 181.406 180.313 180.035 182.704 180.035C185.099 180.035 188.905 181.409 190.753 183.456C193.348 186.327 196.286 194.858 196.409 195.219C196.517 195.533 196.381 195.877 196.09 196.034L186.715 201.086C186.614 201.14 186.504 201.167 186.394 201.167ZM182.703 181.388C182.499 181.388 181.48 181.409 181.48 181.825C181.48 182.961 183.106 184.296 184.293 185.27C185.224 186.035 185.96 186.638 186.198 187.256C186.444 187.893 186.366 188.818 186.268 189.989C186.15 191.391 186.005 193.136 186.535 194.228C187.356 195.917 187.365 197.943 187.249 199.259L194.937 195.117C194.246 193.188 191.803 186.637 189.748 184.362C188.211 182.66 184.76 181.388 182.703 181.388Z" fill="#263238"/>
<path d="M184.353 183.801C183.335 183.801 182.048 183.339 180.461 182.409C180.139 182.22 180.031 181.805 180.22 181.483C180.409 181.16 180.823 181.053 181.146 181.241C183.681 182.727 184.658 182.484 184.96 182.311C185.381 182.07 185.402 181.495 185.402 181.382C185.402 181.009 185.706 180.705 186.079 180.705C186.453 180.705 186.756 181.009 186.756 181.382C186.756 182.088 186.461 183.011 185.633 183.485C185.266 183.696 184.841 183.801 184.353 183.801Z" fill="#263238"/>
<path d="M201.919 236.423C200.895 236.423 199.765 236.236 198.547 235.757C198.199 235.62 198.027 235.227 198.164 234.879C198.301 234.531 198.697 234.36 199.041 234.497C203.801 236.368 206.905 233.066 206.937 233.033C207.189 232.758 207.619 232.74 207.893 232.992C208.168 233.245 208.187 233.672 207.934 233.948C207.905 233.98 205.608 236.423 201.919 236.423Z" fill="#263238"/>
<path d="M201.938 238.986C201.482 238.986 201.024 238.95 200.568 238.878C200.199 238.819 199.948 238.472 200.006 238.104C200.065 237.734 200.411 237.482 200.781 237.541C202.072 237.746 203.378 237.606 204.56 237.136C204.905 236.998 205.3 237.167 205.439 237.515C205.577 237.862 205.407 238.255 205.06 238.393C204.071 238.786 203.011 238.986 201.938 238.986Z" fill="#263238"/>
<path d="M263.228 255.418C258.662 255.418 254.947 252.767 254.947 249.508C254.947 249.134 255.25 248.831 255.624 248.831C255.998 248.831 256.301 249.134 256.301 249.508C256.301 252.02 259.408 254.064 263.228 254.064C263.601 254.064 263.905 254.367 263.905 254.741C263.905 255.114 263.601 255.418 263.228 255.418Z" fill="#263238"/>
<path d="M153.58 290.981C131.568 290.834 83.351 290.599 70.2192 291.254C127.801 251.364 27.7526 211.474 57.7489 171.584C63.2616 164.254 72.0506 160.127 81.2218 160.219L165.317 161.062C111.888 198.075 199.21 238.194 179.21 275.945C174.221 285.362 164.236 291.053 153.58 290.981Z" fill="white"/>
<path d="M70.2188 291.931C69.9302 291.931 69.6715 291.747 69.5778 291.472C69.4804 291.186 69.5848 290.87 69.8333 290.697C80.241 283.488 85.9897 275.96 87.4097 267.684C89.7695 253.925 79.5513 239.768 69.6698 226.077C56.7291 208.148 43.3478 189.608 57.2072 171.176C62.6863 163.89 71.5516 159.54 80.9209 159.54L81.2279 159.541L165.323 160.384C165.617 160.386 165.876 160.58 165.963 160.862C166.049 161.143 165.944 161.449 165.702 161.616C152.155 171.001 146.794 180.997 148.831 193.073C150.641 203.803 158.222 214.924 165.553 225.68C176.91 242.34 188.652 259.568 179.808 276.26C174.776 285.757 164.802 291.657 153.778 291.657L153.575 291.656C142.35 291.581 125.634 291.492 109.751 291.492C89.3494 291.492 76.0606 291.638 70.2529 291.929C70.241 291.93 70.2301 291.931 70.2188 291.931ZM80.9215 160.894C71.9755 160.894 63.5151 165.043 58.2893 171.991C45.0292 189.625 57.5314 206.947 70.7677 225.285C80.8127 239.203 91.1998 253.594 88.7436 267.914C87.3474 276.053 82.0134 283.454 72.4616 290.485C79.1317 290.256 91.6469 290.14 109.751 290.14C125.638 290.14 142.356 290.23 153.585 290.304L153.778 290.305C164.3 290.305 173.816 284.681 178.612 275.628C187.074 259.657 175.565 242.772 164.435 226.443C149.785 204.951 134.646 182.743 163.233 161.717L80.9215 160.894Z" fill="#263238"/>
<path d="M70.2187 291.254C71.8292 291.174 73.9698 291.107 76.5228 291.052C127.37 251.904 31.5666 212.757 61.0047 173.61C66.5174 166.279 75.3058 162.153 84.477 162.244L162.618 163.027C163.476 162.371 164.372 161.716 165.316 161.061L81.2213 160.219C72.0501 160.127 63.2606 164.253 57.7484 171.583C27.7521 211.474 127.801 251.364 70.2187 291.254Z" fill="white"/>
<path d="M70.2188 291.931C69.9302 291.931 69.6715 291.747 69.5778 291.472C69.4804 291.186 69.5848 290.87 69.8333 290.697C80.241 283.488 85.9897 275.96 87.4097 267.684C89.7695 253.925 79.5513 239.768 69.6698 226.077C56.7291 208.148 43.3478 189.608 57.2072 171.176C62.6863 163.89 71.5516 159.54 80.9209 159.54L81.2279 159.541L165.323 160.384C165.617 160.386 165.876 160.58 165.963 160.862C166.049 161.143 165.944 161.449 165.702 161.616C152.155 171.001 146.794 180.997 148.831 193.073C150.641 203.803 158.222 214.924 165.553 225.68C176.91 242.34 188.652 259.568 179.808 276.26C174.776 285.757 164.802 291.657 153.778 291.657L153.575 291.656C142.35 291.581 125.634 291.492 109.751 291.492C89.3494 291.492 76.0606 291.638 70.2529 291.929C70.241 291.93 70.2301 291.931 70.2188 291.931ZM80.9215 160.894C71.9755 160.894 63.5151 165.043 58.2893 171.991C45.0292 189.625 57.5314 206.947 70.7677 225.285C80.8127 239.203 91.1998 253.594 88.7436 267.914C87.3474 276.053 82.0134 283.454 72.4616 290.485C79.1317 290.256 91.6469 290.14 109.751 290.14C125.638 290.14 142.356 290.23 153.585 290.304L153.778 290.305C164.3 290.305 173.816 284.681 178.612 275.628C187.074 259.657 175.565 242.772 164.435 226.443C149.785 204.951 134.646 182.743 163.233 161.717L80.9215 160.894Z" fill="#263238"/>
<path d="M163.254 265.165H136.658C136.284 265.165 135.981 264.862 135.981 264.489C135.981 264.115 136.284 263.812 136.658 263.812H163.254C163.627 263.812 163.93 264.115 163.93 264.489C163.93 264.862 163.627 265.165 163.254 265.165Z" fill="#263238"/>
<path d="M171.274 265.165H165.538C165.165 265.165 164.862 264.862 164.862 264.489C164.862 264.115 165.165 263.812 165.538 263.812H171.274C171.648 263.812 171.951 264.115 171.951 264.489C171.951 264.862 171.648 265.165 171.274 265.165Z" fill="#263238"/>
<path d="M160.744 269.344H134.148C133.775 269.344 133.471 269.04 133.471 268.667C133.471 268.293 133.775 267.99 134.148 267.99H160.744C161.117 267.99 161.42 268.293 161.42 268.667C161.42 269.04 161.117 269.344 160.744 269.344Z" fill="#263238"/>
<path d="M168.764 269.344H163.029C162.655 269.344 162.352 269.04 162.352 268.667C162.352 268.293 162.655 267.99 163.029 267.99H168.764C169.138 267.99 169.441 268.293 169.441 268.667C169.441 269.04 169.139 269.344 168.764 269.344Z" fill="#263238"/>
<path d="M158.777 274.406H132.181C131.808 274.406 131.505 274.103 131.505 273.729C131.505 273.356 131.808 273.052 132.181 273.052H158.777C159.15 273.052 159.453 273.356 159.453 273.729C159.453 274.103 159.151 274.406 158.777 274.406Z" fill="#263238"/>
<path d="M166.798 274.406H161.062C160.689 274.406 160.386 274.103 160.386 273.729C160.386 273.356 160.689 273.052 161.062 273.052H166.798C167.172 273.052 167.475 273.356 167.475 273.729C167.475 274.103 167.172 274.406 166.798 274.406Z" fill="#263238"/>
<path d="M152.979 167.009C151.957 167.798 150.985 168.644 150.079 169.545C149.736 169.889 149.391 170.248 149.057 170.623H94.4577C94.4577 170.623 89.7202 171.377 84.3299 175.967C82.6398 177.41 80.8933 179.697 79.5827 181.686H58.8518C59.3683 180.279 62.5975 174.945 65.6334 172.359C71.0189 167.763 75.7612 167.009 75.7612 167.009H152.979Z" fill="#3018CC"/>
<path d="M79.5827 182.363H58.8518C58.6309 182.363 58.4236 182.254 58.2969 182.073C58.1708 181.892 58.1404 181.66 58.2168 181.452C58.7982 179.87 62.1238 174.46 65.1955 171.843C70.6627 167.178 75.4543 166.372 75.6556 166.34C75.6903 166.334 75.7266 166.331 75.7617 166.331H152.98C153.27 166.331 153.527 166.515 153.62 166.789C153.714 167.063 153.623 167.366 153.393 167.543C152.375 168.33 151.421 169.164 150.557 170.023C150.185 170.396 149.859 170.739 149.563 171.072C149.435 171.216 149.251 171.298 149.058 171.298H94.5178C94.0229 171.392 89.6525 172.322 84.7684 176.481C82.8872 178.086 81.066 180.664 80.1479 182.057C80.0228 182.248 79.8101 182.363 79.5827 182.363ZM59.9194 181.009H79.22C80.228 179.508 82.015 177.052 83.8903 175.452C89.3629 170.791 94.1496 169.986 94.351 169.954C94.3857 169.949 94.4219 169.945 94.4571 169.945H148.756C149.014 169.664 149.292 169.375 149.601 169.066C150.072 168.596 150.569 168.135 151.086 167.685H75.8218C75.327 167.779 70.9528 168.709 66.073 172.872C63.5616 175.012 60.9691 179.032 59.9194 181.009Z" fill="#263238"/>
<path d="M142.618 280.034H49.6768C50.0563 280.529 50.4542 281.023 50.8748 281.517C55.8878 287.402 63.3007 291.468 71.0307 291.415C92.3225 291.269 155.798 290.908 155.798 290.908C149.685 289.189 145.459 284.834 142.618 280.034Z" fill="#3018CC"/>
<path d="M70.8819 292.092C63.4381 292.092 55.766 288.303 50.3599 281.955C49.9507 281.476 49.5403 280.967 49.1397 280.445C48.9832 280.241 48.9556 279.965 49.0699 279.735C49.1841 279.503 49.4196 279.357 49.6767 279.357H142.618C142.857 279.357 143.079 279.483 143.201 279.689C146.485 285.24 150.786 288.795 155.982 290.257C156.306 290.348 156.514 290.665 156.468 290.999C156.423 291.333 156.139 291.583 155.802 291.585C155.167 291.589 92.0832 291.947 71.0356 292.092H70.8819ZM51.081 280.711C51.1839 280.835 51.2873 280.957 51.3896 281.078C56.5428 287.127 63.8295 290.739 70.8819 290.739L71.0264 290.738C89.1463 290.614 138.414 290.331 152.182 290.253C148.259 288.337 144.925 285.14 142.235 280.711H51.081Z" fill="#263238"/>
<path d="M171.476 253.555C164.166 234.728 144.118 215.62 140.283 196.87H60.365C64.6547 215.765 85.8479 234.66 93.3745 253.555H171.476Z" fill="#FCFCFC"/>
<path d="M171.475 254.231H93.3743C93.0972 254.231 92.8481 254.063 92.7458 253.805C89.4121 245.435 83.2385 236.881 77.2683 228.609C69.8143 218.281 62.1075 207.602 59.7055 197.019C59.66 196.818 59.7082 196.608 59.8365 196.447C59.9648 196.286 60.1597 196.193 60.3654 196.193H140.283C140.605 196.193 140.881 196.419 140.946 196.734C143.067 207.101 150.381 217.834 157.455 228.214C163.063 236.444 168.863 244.954 172.107 253.309C172.187 253.518 172.161 253.752 172.034 253.937C171.908 254.121 171.698 254.231 171.475 254.231ZM93.8307 252.878H170.477C167.226 244.957 161.693 236.838 156.335 228.976C149.308 218.664 142.045 208.006 139.735 197.547H61.2235C63.7727 207.597 71.1877 217.871 78.3657 227.817C84.2838 236.017 90.4001 244.492 93.8307 252.878Z" fill="#263238"/>
<path d="M99.9204 211.971H73.6677C73.2941 211.971 72.991 211.667 72.991 211.294C72.991 210.92 73.2941 210.617 73.6677 210.617H99.9204C100.294 210.617 100.597 210.92 100.597 211.294C100.597 211.667 100.295 211.971 99.9204 211.971Z" fill="#263238"/>
<path d="M120.718 211.971H107.355C106.981 211.971 106.678 211.667 106.678 211.294C106.678 210.92 106.981 210.617 107.355 210.617H120.718C121.092 210.617 121.395 210.92 121.395 211.294C121.395 211.667 121.093 211.971 120.718 211.971Z" fill="#263238"/>
<path d="M137.927 211.971H129.393C129.019 211.971 128.716 211.667 128.716 211.294C128.716 210.92 129.019 210.617 129.393 210.617H137.927C138.301 210.617 138.604 210.92 138.604 211.294C138.604 211.667 138.301 211.971 137.927 211.971Z" fill="#263238"/>
<path d="M104.623 221.339H79.4885C79.1149 221.339 78.8118 221.036 78.8118 220.663C78.8118 220.289 79.1149 219.986 79.4885 219.986H104.623C104.997 219.986 105.3 220.289 105.3 220.663C105.3 221.036 104.997 221.339 104.623 221.339Z" fill="#263238"/>
<path d="M125.422 221.339H112.058C111.684 221.339 111.381 221.036 111.381 220.663C111.381 220.289 111.684 219.986 112.058 219.986H125.422C125.795 219.986 126.099 220.289 126.099 220.663C126.099 221.036 125.795 221.339 125.422 221.339Z" fill="#263238"/>
<path d="M142.629 221.339H134.095C133.721 221.339 133.418 221.036 133.418 220.663C133.418 220.289 133.721 219.986 134.095 219.986H142.629C143.003 219.986 143.306 220.289 143.306 220.663C143.306 221.036 143.003 221.339 142.629 221.339Z" fill="#263238"/>
<path d="M111.484 228.944H86.7946C86.4211 228.944 86.1179 228.641 86.1179 228.268C86.1179 227.894 86.4211 227.591 86.7946 227.591H111.484C111.857 227.591 112.161 227.894 112.161 228.268C112.161 228.641 111.857 228.944 111.484 228.944Z" fill="#263238"/>
<path d="M132.282 228.944H118.918C118.544 228.944 118.241 228.641 118.241 228.268C118.241 227.894 118.544 227.591 118.918 227.591H132.282C132.655 227.591 132.959 227.894 132.959 228.268C132.959 228.641 132.655 228.944 132.282 228.944Z" fill="#263238"/>
<path d="M149.49 228.944H140.955C140.582 228.944 140.279 228.641 140.279 228.268C140.279 227.894 140.582 227.591 140.955 227.591H149.49C149.863 227.591 150.167 227.894 150.167 228.268C150.167 228.641 149.863 228.944 149.49 228.944Z" fill="#263238"/>
<path d="M115.959 236.576H92.9125C92.539 236.576 92.2358 236.273 92.2358 235.899C92.2358 235.526 92.539 235.223 92.9125 235.223H115.959C116.333 235.223 116.636 235.526 116.636 235.899C116.636 236.273 116.333 236.576 115.959 236.576Z" fill="#263238"/>
<path d="M136.758 236.576H123.394C123.021 236.576 122.718 236.273 122.718 235.899C122.718 235.526 123.021 235.223 123.394 235.223H136.758C137.132 235.223 137.435 235.526 137.435 235.899C137.435 236.273 137.132 236.576 136.758 236.576Z" fill="#263238"/>
<path d="M153.966 236.576H145.431C145.058 236.576 144.754 236.273 144.754 235.899C144.754 235.526 145.058 235.223 145.431 235.223H153.966C154.339 235.223 154.642 235.526 154.642 235.899C154.642 236.273 154.34 236.576 153.966 236.576Z" fill="#263238"/>
<path d="M121.984 244.818H98.5773C98.2038 244.818 97.9006 244.514 97.9006 244.141C97.9006 243.767 98.2038 243.464 98.5773 243.464H121.984C122.358 243.464 122.661 243.767 122.661 244.141C122.661 244.514 122.358 244.818 121.984 244.818Z" fill="#263238"/>
<path d="M142.783 244.818H129.419C129.045 244.818 128.742 244.514 128.742 244.141C128.742 243.767 129.045 243.464 129.419 243.464H142.783C143.156 243.464 143.459 243.767 143.459 244.141C143.459 244.514 143.157 244.818 142.783 244.818Z" fill="#263238"/>
<path d="M159.991 244.818H151.456C151.082 244.818 150.779 244.514 150.779 244.141C150.779 243.767 151.082 243.464 151.456 243.464H159.991C160.364 243.464 160.667 243.767 160.667 244.141C160.667 244.514 160.365 244.818 159.991 244.818Z" fill="#263238"/>
<path d="M141.702 202.437C141.035 200.578 140.493 198.722 140.113 196.869H60.1965C60.6177 198.725 61.2051 200.581 61.9235 202.437H141.702Z" fill="#644BFD"/>
<path d="M141.702 203.113H61.9234C61.6435 203.113 61.3934 202.942 61.2922 202.681C60.537 200.73 59.9469 198.825 59.5365 197.019C59.4911 196.818 59.5392 196.608 59.6675 196.447C59.7958 196.286 59.9907 196.193 60.1964 196.193H140.114C140.435 196.193 140.712 196.418 140.777 196.734C141.136 198.489 141.647 200.279 142.34 202.208C142.414 202.416 142.383 202.646 142.256 202.826C142.13 203.007 141.922 203.113 141.702 203.113ZM62.3895 201.76H140.75C140.258 200.302 139.867 198.911 139.565 197.546H61.055C61.4004 198.905 61.8476 200.317 62.3895 201.76Z" fill="#263238"/>
<path d="M81.7485 172.241H72.6396C72.2661 172.241 71.9629 171.938 71.9629 171.564C71.9629 171.19 72.2661 170.887 72.6396 170.887H81.7485C82.1221 170.887 82.4252 171.19 82.4252 171.564C82.4252 171.938 82.1226 172.241 81.7485 172.241Z" fill="#263238"/>
<path d="M137.849 188.942H129.777C129.404 188.942 129.1 188.638 129.1 188.265C129.1 187.891 129.404 187.588 129.777 187.588H137.849C138.223 187.588 138.526 187.891 138.526 188.265C138.526 188.638 138.223 188.942 137.849 188.942Z" fill="#263238"/>
<path d="M126.865 188.942H119.874C119.501 188.942 119.198 188.638 119.198 188.265C119.198 187.891 119.501 187.588 119.874 187.588H126.865C127.239 187.588 127.542 187.891 127.542 188.265C127.542 188.638 127.239 188.942 126.865 188.942Z" fill="#263238"/>
<path d="M116.729 188.942H112.534C112.161 188.942 111.857 188.638 111.857 188.265C111.857 187.891 112.161 187.588 112.534 187.588H116.729C117.102 187.588 117.405 187.891 117.405 188.265C117.405 188.638 117.103 188.942 116.729 188.942Z" fill="#263238"/>
<path d="M138.079 191.922H111.484C111.11 191.922 110.807 191.619 110.807 191.245C110.807 190.872 111.11 190.568 111.484 190.568H138.079C138.453 190.568 138.756 190.872 138.756 191.245C138.756 191.619 138.453 191.922 138.079 191.922Z" fill="#263238"/>
<path d="M109.198 191.922H103.463C103.089 191.922 102.786 191.619 102.786 191.245C102.786 190.872 103.089 190.568 103.463 190.568H109.198C109.572 190.568 109.875 190.872 109.875 191.245C109.875 191.619 109.572 191.922 109.198 191.922Z" fill="#263238"/>
<path d="M77.6999 175.724H68.5866C68.2131 175.724 67.9099 175.421 67.9099 175.048C67.9099 174.674 68.2131 174.371 68.5866 174.371H77.6999C78.0734 174.371 78.3766 174.674 78.3766 175.048C78.3766 175.421 78.0734 175.724 77.6999 175.724Z" fill="#263238"/>
</g>
<defs>
<clipPath id="clip0_1547_73897">
<rect width="430" height="352.712" fill="white"/>
</clipPath>
</defs>
</svg>
