<svg width="430" height="349" viewBox="0 0 430 349" fill="none" xmlns="http://www.w3.org/2000/svg">
<g clip-path="url(#clip0_1547_73896)">
<circle cx="148" cy="41" r="282" fill="#F2F6FF"/>
<path d="M116.318 334.04C116.318 334.04 57.3596 330.648 58.0696 266.481C58.4746 229.907 108.581 220.592 108.581 220.592" stroke="#9ABAE3" stroke-width="2.5" stroke-miterlimit="10" stroke-linecap="round" stroke-linejoin="round" stroke-dasharray="6.51 6.51"/>
<path d="M140.418 334.735C140.418 334.735 249.506 354.288 243.582 266.481C241.119 229.973 194.305 218.46 194.305 218.46" stroke="#9ABAE3" stroke-width="2.5" stroke-miterlimit="10" stroke-linecap="round" stroke-linejoin="round" stroke-dasharray="6.29 6.29"/>
<path d="M214.979 115.234C214.979 115.234 239.147 128.44 235.166 163.372C231.024 199.714 192.319 209.262 192.319 209.262" stroke="#9ABAE3" stroke-width="2.5" stroke-miterlimit="10" stroke-linecap="round" stroke-linejoin="round" stroke-dasharray="6 6"/>
<path d="M83.3026 118.428C43.7241 145.077 66.1431 205.245 105.963 212.457" stroke="#9ABAE3" stroke-width="2.5" stroke-miterlimit="10" stroke-linecap="round" stroke-linejoin="round" stroke-dasharray="6 6"/>
<path d="M210.526 229.449C210.739 230.425 211.123 231.337 211.646 232.152L209.987 233.811L212.508 236.332L214.168 234.673C214.982 235.196 215.894 235.58 216.87 235.793V238.139H220.436V235.793C221.412 235.58 222.323 235.196 223.138 234.673L224.797 236.332L227.319 233.811L225.659 232.152C226.182 231.337 226.566 230.425 226.78 229.449H229.125V225.883H226.78C226.567 224.907 226.182 223.996 225.659 223.181L227.319 221.522L224.797 219L223.138 220.66C222.323 220.137 221.411 219.753 220.436 219.539V217.194H216.87V219.539C215.894 219.753 214.982 220.137 214.168 220.66L212.508 219L209.987 221.522L211.646 223.181C211.124 223.996 210.739 224.907 210.526 225.883H208.18V229.449H210.526ZM214.931 227.667C214.931 225.611 216.598 223.945 218.653 223.945C220.709 223.945 222.375 225.611 222.375 227.667C222.375 229.722 220.709 231.388 218.653 231.388C216.598 231.388 214.931 229.722 214.931 227.667Z" fill="#9ABAE3" stroke="#263238" stroke-width="2.5" stroke-miterlimit="10" stroke-linecap="round" stroke-linejoin="round"/>
<path d="M84.902 233.102C86.414 232.893 87.76 232.255 88.8475 231.334L96.894 238.551C98.034 239.573 99.8045 239.403 100.728 238.182C101.656 236.956 101.333 235.198 100.029 234.383L90.887 228.665C91.4975 227.355 91.756 225.863 91.5435 224.328C90.956 220.078 87.0195 217.098 82.7695 217.686C78.5205 218.274 75.5395 222.21 76.1275 226.46C76.7155 230.711 80.6515 233.69 84.902 233.102ZM79.5335 225.989C79.3695 224.803 79.7035 223.661 80.3745 222.774C81.0455 221.887 82.0545 221.256 83.241 221.092C85.613 220.764 87.81 222.427 88.138 224.799C88.4655 227.171 86.804 229.367 84.4305 229.696C82.0585 230.025 79.8615 228.362 79.5335 225.989Z" fill="#EC644E" stroke="#263238" stroke-width="2.5" stroke-miterlimit="10" stroke-linecap="round" stroke-linejoin="round"/>
<path d="M192.48 176.337H184.379C180.599 176.337 177.535 173.273 177.535 169.493V161.392C177.535 157.612 180.599 154.548 184.379 154.548H192.48C196.26 154.548 199.324 157.612 199.324 161.392V169.493C199.324 173.273 196.26 176.337 192.48 176.337Z" fill="white" stroke="#263238" stroke-width="2.5" stroke-miterlimit="10" stroke-linecap="round" stroke-linejoin="round"/>
<path d="M187.698 169.513L192.277 166.885C193.069 166.431 193.063 165.286 192.267 164.84L187.648 162.251C186.861 161.81 185.89 162.384 185.897 163.286L185.937 168.502C185.944 169.403 186.917 169.961 187.698 169.513Z" fill="#EC644E" stroke="#263238" stroke-width="2.5" stroke-miterlimit="10" stroke-linecap="round" stroke-linejoin="round"/>
<path d="M126.477 167.312H97.323V138.158H118.351L126.477 147.299V167.312Z" fill="white" stroke="#263238" stroke-width="2.5" stroke-miterlimit="10" stroke-linecap="round" stroke-linejoin="round"/>
<path d="M109.637 145.718H121.726" stroke="#263238" stroke-width="2.5" stroke-miterlimit="10" stroke-linecap="round" stroke-linejoin="round"/>
<path d="M101.74 150.189H121.726" stroke="#263238" stroke-width="2.5" stroke-miterlimit="10" stroke-linecap="round" stroke-linejoin="round"/>
<path d="M101.74 154.66H121.726" stroke="#263238" stroke-width="2.5" stroke-miterlimit="10" stroke-linecap="round" stroke-linejoin="round"/>
<path d="M101.74 159.132H121.726" stroke="#263238" stroke-width="2.5" stroke-miterlimit="10" stroke-linecap="round" stroke-linejoin="round"/>
<path d="M119.039 138.158C119.039 138.158 119.272 140.49 118.038 142.391C116.349 144.993 116.317 145.717 116.317 145.717C116.317 145.717 118.061 146.609 122.822 147.207C125.571 147.553 126.476 147.299 126.476 147.299L119.039 138.158Z" fill="white" stroke="#263238" stroke-width="2.5" stroke-miterlimit="10" stroke-linecap="round" stroke-linejoin="round"/>
<path d="M106.91 142.516V143.985H106.766C106.681 143.646 106.586 143.402 106.482 143.254C106.378 143.106 106.235 142.988 106.054 142.9C105.953 142.852 105.775 142.828 105.522 142.828H105.118V147.013C105.118 147.291 105.133 147.464 105.164 147.533C105.195 147.603 105.255 147.664 105.344 147.715C105.433 147.767 105.555 147.793 105.71 147.793H105.89V147.941H103.049V147.793H103.228C103.386 147.793 103.512 147.765 103.609 147.709C103.678 147.672 103.733 147.608 103.773 147.517C103.802 147.453 103.817 147.285 103.817 147.013V142.827H103.425C103.059 142.827 102.794 142.905 102.628 143.06C102.396 143.276 102.249 143.584 102.188 143.984H102.036V142.515L106.91 142.516Z" fill="#EC644E"/>
<path d="M160.938 121.556H138.986V135.507H160.938V121.556Z" fill="white" stroke="#263238" stroke-width="2.5" stroke-miterlimit="10" stroke-linecap="round" stroke-linejoin="round"/>
<path d="M160.938 121.556V122.15L149.962 129.853L138.986 122.147V121.556H160.938Z" fill="white" stroke="#263238" stroke-width="2.5" stroke-miterlimit="10" stroke-linecap="round" stroke-linejoin="round"/>
<path d="M232.697 201.638H217.23C213.45 201.638 210.387 198.574 210.387 194.794V179.327C210.387 175.547 213.45 172.483 217.23 172.483H232.697C236.477 172.483 239.541 175.547 239.541 179.327V194.794C239.541 198.574 236.477 201.638 232.697 201.638Z" fill="#9ABAE3"/>
<path d="M212.117 198.38V179.64C212.117 176.764 214.449 174.433 217.325 174.433H236.064C236.652 174.433 237.215 174.535 237.742 174.715C236.491 173.347 234.697 172.484 232.697 172.484H217.23C213.451 172.484 210.387 175.548 210.387 179.328V194.795C210.387 196.598 211.09 198.235 212.23 199.457C212.157 199.109 212.117 198.749 212.117 198.38Z" fill="white"/>
<path d="M232.697 201.638H217.23C213.45 201.638 210.387 198.574 210.387 194.794V179.327C210.387 175.547 213.45 172.483 217.23 172.483H232.697C236.477 172.483 239.541 175.547 239.541 179.327V194.794C239.541 198.574 236.477 201.638 232.697 201.638Z" stroke="#263238" stroke-width="2.5" stroke-miterlimit="10" stroke-linecap="round" stroke-linejoin="round"/>
<path d="M232.212 184.319C232.201 184.316 231.085 183.988 230.649 182.89C229.875 180.943 229.139 180.068 228.108 179.869C227.95 179.838 227.793 179.847 227.638 179.87C227.617 179.24 227.103 178.735 226.468 178.735C225.819 178.735 225.293 179.261 225.293 179.91V187.16C224.034 186.839 222.491 187.107 221.145 188.006C220.1 188.704 219.322 189.676 218.954 190.742C218.57 191.856 218.674 192.941 219.247 193.798C219.947 194.848 220.924 195.388 222.103 195.388C222.377 195.388 222.662 195.358 222.956 195.3C223.586 195.175 224.732 194.719 225.261 194.297C225.282 194.287 225.303 194.275 225.323 194.262C227.138 193.049 228.032 191.069 227.642 189.444V183.314C227.797 183.35 227.963 183.457 228.135 183.636C228.535 184.049 228.74 184.355 228.921 184.624C229.212 185.057 229.463 185.43 230.24 185.889C230.607 186.105 230.946 186.213 231.255 186.213C231.448 186.213 231.629 186.17 231.797 186.085C232.453 185.754 232.555 184.933 232.565 184.841C232.589 184.604 232.441 184.384 232.212 184.319Z" fill="white" stroke="#263238" stroke-width="2.5" stroke-miterlimit="10" stroke-linecap="round" stroke-linejoin="round"/>
<path d="M80.3735 197.952H64.9065C61.127 197.952 58.063 194.888 58.063 191.108V175.641C58.063 171.861 61.1265 168.797 64.9065 168.797H80.3735C84.1535 168.797 87.2175 171.861 87.2175 175.641V191.108C87.2175 194.888 84.1535 197.952 80.3735 197.952Z" fill="#644BFD"/>
<path d="M60.322 195.035V176.17C60.322 173.328 62.625 171.025 65.4665 171.025H84.3315C84.753 171.025 85.1605 171.082 85.553 171.177C84.298 169.723 82.4455 168.799 80.374 168.799H64.907C61.127 168.799 58.063 171.863 58.063 175.643V191.11C58.063 193.207 59.0085 195.081 60.494 196.336C60.3855 195.92 60.322 195.485 60.322 195.035Z" fill="white"/>
<path d="M80.3735 197.952H64.9065C61.127 197.952 58.063 194.888 58.063 191.108V175.641C58.063 171.861 61.1265 168.797 64.9065 168.797H80.3735C84.1535 168.797 87.2175 171.861 87.2175 175.641V191.108C87.2175 194.888 84.1535 197.952 80.3735 197.952Z" stroke="#263238" stroke-width="2.5" stroke-miterlimit="10" stroke-linecap="round" stroke-linejoin="round"/>
<path d="M66.9895 180.12L62.959 183.635L66.9895 187.149" stroke="#263238" stroke-width="2.5" stroke-miterlimit="10" stroke-linecap="round" stroke-linejoin="round"/>
<path d="M78.7915 180.12L82.8215 183.635L78.7915 187.149" stroke="#263238" stroke-width="2.5" stroke-miterlimit="10" stroke-linecap="round" stroke-linejoin="round"/>
<path d="M74.5915 180.12L71.1975 187.149" stroke="#263238" stroke-width="2.5" stroke-miterlimit="10" stroke-linecap="round" stroke-linejoin="round"/>
<path d="M250.155 112.344H210.43V152.069H250.155V112.344Z" fill="white" stroke="#263238" stroke-width="2.5" stroke-miterlimit="10" stroke-linecap="round" stroke-linejoin="round"/>
<path d="M246.371 116.125H214.211V148.285H246.371V116.125Z" fill="white" stroke="#263238" stroke-width="2.5" stroke-miterlimit="10" stroke-linecap="round" stroke-linejoin="round"/>
<path d="M246.372 143.166V148.286H214.211V142.696L220.816 136.086L228.741 144.006L237.977 134.771L246.372 143.166Z" fill="#9ABAE3" stroke="#263238" stroke-width="2.5" stroke-miterlimit="10" stroke-linecap="round" stroke-linejoin="round"/>
<path d="M230.291 133.893C233.294 133.893 235.727 131.459 235.727 128.457C235.727 125.455 233.294 123.021 230.291 123.021C227.289 123.021 224.855 125.455 224.855 128.457C224.855 131.459 227.289 133.893 230.291 133.893Z" fill="#EC644E" stroke="#263238" stroke-width="2.5" stroke-miterlimit="10" stroke-linecap="round" stroke-linejoin="round"/>
<path d="M237.977 134.771L225.431 147.929" stroke="#263238" stroke-width="2.5" stroke-miterlimit="10" stroke-linecap="round" stroke-linejoin="round"/>
<path d="M79.5684 141.773H65.7119C61.9324 141.773 58.8684 138.709 58.8684 134.93V121.073C58.8684 117.293 61.9324 114.229 65.7119 114.229H79.5684C83.3479 114.229 86.4119 117.293 86.4119 121.073V134.93C86.4119 138.709 83.3479 141.773 79.5684 141.773Z" fill="white" stroke="#263238" stroke-width="2.5" stroke-miterlimit="10" stroke-linecap="round" stroke-linejoin="round"/>
<path d="M68.3439 128.531H64.2664V135.881H68.3439V128.531Z" fill="#EC644E" stroke="#263238" stroke-width="2.5" stroke-miterlimit="10" stroke-linecap="round" stroke-linejoin="round"/>
<path d="M74.8983 123.823H70.8208V135.88H74.8983V123.823Z" fill="#EC644E" stroke="#263238" stroke-width="2.5" stroke-miterlimit="10" stroke-linecap="round" stroke-linejoin="round"/>
<path d="M81.453 120.915H77.3755V135.881H81.453V120.915Z" fill="#EC644E" stroke="#263238" stroke-width="2.5" stroke-miterlimit="10" stroke-linecap="round" stroke-linejoin="round"/>
<path d="M192.086 196.407C186.04 190.354 180.326 189.418 175.389 190.531C175.024 177.161 164.08 166.432 150.621 166.432C139.065 166.432 129.356 174.34 126.612 185.041C121.05 183.835 114.633 184.917 108.02 190.91C107.774 191.133 107.553 191.395 107.375 191.675C97.8895 206.649 108.416 222.312 122.601 222.312C124.759 222.312 130.395 222.312 137.333 222.312V230.043H129.492L143.18 243.73L156.867 230.043H149.027V215.955H148.695V213.335H140.855L154.543 199.647L168.23 213.335H160.39V222.313C169.049 222.313 176.426 222.313 178.937 222.313C190.967 222.313 199.914 209.114 192.086 196.407Z" fill="#644BFD"/>
<path d="M109.972 193.1C110.149 192.819 110.371 192.558 110.617 192.335C117.23 186.342 123.646 185.259 129.208 186.466C131.953 175.766 141.661 167.857 153.218 167.857C156.986 167.857 160.556 168.699 163.753 170.203C159.946 167.817 155.447 166.432 150.621 166.432C139.065 166.432 129.356 174.34 126.612 185.041C121.05 183.835 114.633 184.917 108.02 190.91C107.774 191.133 107.553 191.395 107.375 191.675C99.7335 203.739 105.081 216.248 114.865 220.655C106.799 215.361 103.037 204.047 109.972 193.1Z" fill="white"/>
<path d="M144.347 242.563L133.75 231.468H139.343V221.737H137.333V230.043H129.492L143.18 243.731L143.287 243.624C143.181 243.26 144.35 242.943 144.347 242.563Z" fill="white"/>
<path d="M192.086 196.407C186.04 190.354 180.326 189.418 175.389 190.531C175.024 177.161 164.08 166.432 150.621 166.432C139.065 166.432 129.356 174.34 126.612 185.041C121.05 183.835 114.633 184.917 108.02 190.91C107.774 191.133 107.553 191.395 107.375 191.675C97.8895 206.649 108.416 222.312 122.601 222.312C124.759 222.312 130.395 222.312 137.333 222.312V230.043H129.492L143.18 243.73L156.867 230.043H149.027L148.695 213.335H140.855L154.543 199.647L168.23 213.335H160.39V222.312C169.049 222.312 176.426 222.312 178.937 222.312C190.967 222.313 199.914 209.114 192.086 196.407Z" stroke="#263238" stroke-width="2.5" stroke-miterlimit="10" stroke-linecap="round" stroke-linejoin="round"/>
<path d="M40.2725 337.467H255.81" stroke="#263238" stroke-width="2.5" stroke-miterlimit="10" stroke-linecap="round" stroke-linejoin="round"/>
<path d="M106.635 299.055L104.112 296.276" stroke="#263238" stroke-width="2.5" stroke-miterlimit="10" stroke-linecap="round" stroke-linejoin="round"/>
<path d="M206.484 288.045C207.507 287.251 210.323 285.068 210.322 285.067C210.294 285.052 209.109 285.824 206.484 288.045Z" fill="#9ABAE3" stroke="#263238" stroke-width="2.5" stroke-miterlimit="10" stroke-linecap="round" stroke-linejoin="round"/>
<path d="M206.116 288.332L206.131 288.345C206.252 288.242 206.369 288.142 206.484 288.045C206.257 288.221 206.116 288.332 206.116 288.332Z" fill="#9ABAE3" stroke="#263238" stroke-width="2.5" stroke-miterlimit="10" stroke-linecap="round" stroke-linejoin="round"/>
<path d="M206.132 288.345C203.97 290.191 200.913 292.948 196.815 296.947C196.707 297.053 195.739 295.726 194.61 294.085C192.206 290.592 190.317 289.695 188.969 285.675C188.964 285.663 188.97 285.678 188.969 285.675C186.844 280.544 180.47 267.576 163.675 268.778C163.675 268.778 165.389 258.576 154.991 257.169C120.656 252.523 131.446 268.712 131.446 268.712C131.946 268.559 131.541 270.989 124.147 271.782C110.251 273.271 109.872 278.908 106.394 288.045C104.984 291.749 104.499 297.323 104.11 296.277L97.5481 288.72C92.0166 291.651 85.0501 294.73 82.3751 298.337C78.7366 303.244 81.2111 305.966 81.2231 305.982C82.0281 307.037 89.4491 314.974 99.1646 322.111C103.185 325.063 111.362 327.199 114.905 325.424C116.124 324.379 117.643 324.602 120.929 317.279C120.95 317.231 119.729 325.972 119.013 330.08L117.644 337.068H177.833C177.833 337.068 177.849 336.778 177.882 336.252C177.888 336.186 177.888 336.12 177.893 336.049C177.904 335.913 177.91 335.765 177.921 335.606V335.578C177.926 335.496 177.931 335.403 177.937 335.316C178.251 330.267 179.133 315.607 179.26 308.902C187.941 323.282 194.467 325.285 201.931 321.956C208.67 318.95 217.545 311.416 218.679 307.472C218.679 307.472 217.177 308.656 214.131 305.247C212.954 303.931 212.034 302.406 211.351 300.778L206.132 288.345Z" fill="#9ABAE3"/>
<path d="M163.976 270.531C172.255 269.938 179.35 272.719 183.304 276.376C179.605 272.242 172.602 268.663 164.08 268.779C164.092 269.832 163.976 270.531 163.976 270.531Z" fill="white"/>
<path d="M215.784 306.928C216.67 307.918 217.42 308.514 218.046 308.87C218.337 308.37 218.556 307.899 218.678 307.472C218.678 307.472 217.616 308.295 215.475 306.547C215.579 306.674 215.675 306.806 215.784 306.928Z" fill="white"/>
<path d="M198.469 298.628C202.148 295.037 204.982 292.454 207.089 290.626L206.131 288.345C203.999 290.166 197.911 295.772 193.897 299.684C194.697 300.814 198.385 298.711 198.469 298.628Z" fill="white"/>
<path d="M105.764 297.958C106.152 299.004 106.638 293.43 108.048 289.726C111.526 280.589 111.904 274.951 125.8 273.463C133.195 272.67 133.6 270.24 133.099 270.393C133.099 270.393 122.309 254.204 156.645 258.85C158.933 259.16 160.634 259.896 161.896 260.855C160.613 259.114 158.489 257.643 154.991 257.17C120.655 252.524 131.445 268.713 131.445 268.713C131.946 268.559 131.541 270.99 124.146 271.782C110.25 273.271 109.872 278.908 106.394 288.045C105.217 291.138 104.685 295.53 104.314 296.289L105.764 297.958Z" fill="white"/>
<path d="M180.914 310.583C180.909 310.873 180.901 311.182 180.893 311.5C183.08 314.834 185.135 317.358 187.113 319.205C185.15 317.04 183.1 314.205 180.914 310.583Z" fill="white"/>
<path d="M120.667 331.76C121.383 327.653 123.063 310.535 123.042 310.583C122.023 312.854 121.313 316.94 120.59 318.023C120.257 320.267 119.297 328.454 119.014 330.08L117.644 337.068H119.628L120.667 331.76Z" fill="white"/>
<path d="M188.969 285.675C190.317 289.695 192.206 290.592 194.61 294.085C195.739 295.726 196.707 297.053 196.815 296.947C200.913 292.948 203.97 290.191 206.132 288.345L211.351 300.778C212.034 302.406 212.954 303.931 214.131 305.247C217.177 308.656 218.679 307.472 218.679 307.472C217.545 311.416 208.67 318.95 201.931 321.956C194.467 325.285 187.941 323.282 179.26 308.902C179.133 315.607 178.251 330.267 177.937 335.316C177.931 335.403 177.926 335.496 177.921 335.578V335.606C177.91 335.765 177.904 335.913 177.893 336.049C177.888 336.12 177.888 336.186 177.882 336.252C177.849 336.778 177.833 337.068 177.833 337.068H117.644L119.013 330.08C119.729 325.972 120.95 317.231 120.929 317.279C117.643 324.602 116.124 324.379 114.905 325.424C111.362 327.199 103.185 325.063 99.1646 322.111C89.4491 314.974 82.0281 307.037 81.2231 305.982C81.2111 305.966 78.7366 303.244 82.3751 298.337C85.0501 294.73 92.0166 291.651 97.5481 288.72L104.11 296.277C104.499 297.323 104.984 291.749 106.394 288.045C109.872 278.908 110.251 273.271 124.147 271.782C131.541 270.989 131.946 268.559 131.446 268.712C131.446 268.712 120.656 252.523 154.991 257.169C165.389 258.576 163.675 268.778 163.675 268.778C180.47 267.576 186.844 280.544 188.969 285.675ZM188.969 285.675C188.964 285.663 188.97 285.678 188.969 285.675Z" stroke="#263238" stroke-width="2.5" stroke-miterlimit="10" stroke-linecap="round" stroke-linejoin="round"/>
<path d="M104.112 296.276C107.581 301.398 108.677 300.302 108.677 300.302L104.112 296.276Z" fill="#9ABAE3"/>
<path d="M104.112 296.276C107.581 301.398 108.677 300.302 108.677 300.302" stroke="#263238" stroke-width="2.5" stroke-miterlimit="10" stroke-linecap="round" stroke-linejoin="round"/>
<path d="M179.111 314.288C179.111 306.438 180.484 298.148 180.611 293.294L179.111 314.288Z" fill="#9ABAE3"/>
<path d="M179.111 314.288C179.111 306.438 180.484 298.148 180.611 293.294" stroke="#263238" stroke-width="2.5" stroke-miterlimit="10" stroke-linecap="round" stroke-linejoin="round"/>
<path d="M154.977 278.908C155.6 281.97 136.193 266.892 131.446 268.712" stroke="#263238" stroke-width="2.5" stroke-miterlimit="10" stroke-linecap="round" stroke-linejoin="round"/>
<path d="M193.897 299.684L196.815 296.948" stroke="#263238" stroke-width="2.5" stroke-miterlimit="10" stroke-linecap="round" stroke-linejoin="round"/>
<path d="M160.088 277.734C160.088 277.734 161.411 277.041 162.612 272.828C164.344 266.751 163.16 262.853 163.16 262.853" stroke="#263238" stroke-width="2.5" stroke-miterlimit="10" stroke-linecap="round" stroke-linejoin="round"/>
<path d="M137.956 260.257C137.956 260.257 135.54 261.489 137.956 263.472C140.372 265.455 154.708 272.92 154.992 272.828" stroke="#263238" stroke-width="2.5" stroke-miterlimit="10" stroke-linecap="round" stroke-linejoin="round"/>
<path d="M127.364 297.665C125.28 303.258 120.93 317.28 120.93 317.28" stroke="#263238" stroke-width="2.5" stroke-miterlimit="10" stroke-linecap="round" stroke-linejoin="round"/>
<path d="M91.2262 296.7C91.2262 296.7 81.4102 308.012 80.6322 304.875C79.8542 301.738 82.3757 298.338 82.3757 298.338C82.3757 298.338 85.3017 302.178 86.5992 301.599C87.8967 301.02 91.2262 296.7 91.2262 296.7Z" fill="#263238" stroke="#263238" stroke-width="2.5" stroke-miterlimit="10" stroke-linecap="round" stroke-linejoin="round"/>
<path d="M216.516 303.015L214.13 305.248C214.13 305.248 215.078 307.472 218.678 307.472C220.389 307.472 216.516 303.015 216.516 303.015Z" fill="#263238" stroke="#263238" stroke-width="2.5" stroke-miterlimit="10" stroke-linecap="round" stroke-linejoin="round"/>
<path d="M144.349 271.036C144.349 271.036 152.867 273.94 152.617 285.066C152.486 290.914 152.356 297.665 152.356 297.665" stroke="#263238" stroke-width="2.5" stroke-miterlimit="10" stroke-linecap="round" stroke-linejoin="round"/>
<path d="M161.822 272.828C161.822 272.828 164.176 274.656 164.025 285.782C163.946 291.63 163.867 298.381 163.867 298.381" stroke="#263238" stroke-width="2.5" stroke-miterlimit="10" stroke-linecap="round" stroke-linejoin="round"/>
<path d="M139.388 333.347L194.236 333.765L206.3 299.534C207.155 297.107 205.366 294.558 202.792 294.539L155.874 294.181C154.273 294.169 152.841 295.174 152.309 296.684L139.388 333.347Z" fill="#3018CC"/>
<path d="M154.654 299.813C155.186 298.303 156.618 297.298 158.219 297.31L205.137 297.668C205.621 297.671 206.076 297.764 206.492 297.929C206.315 296.101 204.794 294.554 202.792 294.539L155.873 294.181C154.272 294.169 152.841 295.174 152.309 296.684L139.388 333.347L142.826 333.373L154.654 299.813Z" fill="white"/>
<path d="M139.388 333.347L194.236 333.765L206.3 299.534C207.155 297.107 205.366 294.558 202.792 294.539L155.874 294.181C154.273 294.169 152.841 295.174 152.309 296.684L139.388 333.347Z" stroke="#263238" stroke-width="2.5" stroke-miterlimit="10" stroke-linecap="round" stroke-linejoin="round"/>
<path d="M172.575 315.42C172.575 316.711 173.626 317.762 174.917 317.762C176.208 317.762 177.259 316.711 177.259 315.42C177.259 314.128 176.208 313.077 174.917 313.077C173.625 313.077 172.575 314.128 172.575 315.42Z" fill="#263238"/>
<path d="M130.478 337.298L192.424 337.77C193.408 337.778 194.211 336.986 194.219 336.003L194.223 335.545C194.23 334.562 193.439 333.758 192.455 333.751L130.508 333.279C129.525 333.271 128.721 334.062 128.714 335.046L128.711 335.504C128.703 336.487 129.494 337.291 130.478 337.298Z" fill="#3018CC" stroke="#263238" stroke-width="2.5" stroke-miterlimit="10" stroke-linecap="round" stroke-linejoin="round"/>
<path d="M97.5485 288.721L94.0385 285.676C94.0385 285.676 93.43 281.441 92.295 279.074C91.1595 276.707 88.2115 276.085 88.2115 276.085C88.2115 276.085 80.277 266.291 77.2635 269.382C75.3315 271.364 79.738 275.73 79.738 275.73C79.738 275.73 78.341 274.306 76.4555 276.151C75.4995 277.086 75.215 278.908 75.215 278.908C75.215 278.908 70.93 278.842 72.9975 284.874C73.2875 285.719 74.0815 287.292 74.919 288.855C76.4455 291.704 78.3835 294.312 80.659 296.608L84.9905 300.401C86.599 301.6 94.915 294.481 97.5485 288.721Z" fill="#FCD8C3"/>
<path d="M82.148 275.425C82.148 275.425 77.7415 271.059 79.6735 269.077C79.715 269.034 79.762 269.003 79.8055 268.964C78.813 268.648 77.9215 268.708 77.264 269.383C75.6555 271.033 81.1705 277.832 82.1485 278.893C83.748 277.781 82.148 275.425 82.148 275.425Z" fill="white"/>
<path d="M83.0695 296.302C80.794 294.007 78.8555 291.399 77.329 288.55C76.492 286.987 75.6975 285.414 75.4075 284.568C73.34 278.536 75.9805 280.184 75.9805 280.184C75.9805 280.184 77.9105 276.781 78.866 275.846C79.0285 275.687 79.1855 275.561 79.3395 275.447C78.795 275.154 77.7395 274.895 76.4565 276.151C75.5005 277.086 75.216 278.908 75.216 278.908C75.216 278.908 70.931 278.842 72.9985 284.874C73.288 285.719 74.0825 287.292 74.92 288.855C76.446 291.704 78.385 294.312 80.66 296.608L84.9915 300.401C85.386 300.695 86.185 300.486 87.204 299.922L83.0695 296.302Z" fill="white"/>
<path d="M97.5485 288.721L94.0385 285.676C94.0385 285.676 93.43 281.441 92.295 279.074C91.1595 276.707 88.2115 276.085 88.2115 276.085C88.2115 276.085 80.277 266.291 77.2635 269.382C75.3315 271.364 79.738 275.73 79.738 275.73C79.738 275.73 78.341 274.306 76.4555 276.151C75.4995 277.086 75.215 278.908 75.215 278.908C75.215 278.908 70.93 278.842 72.9975 284.874C73.2875 285.719 74.0815 287.292 74.919 288.855C76.4455 291.704 78.3835 294.312 80.659 296.608L84.9905 300.401C86.599 301.6 94.915 294.481 97.5485 288.721Z" stroke="#263238" stroke-width="2.5" stroke-miterlimit="10" stroke-linecap="round" stroke-linejoin="round"/>
<path d="M79.7386 275.73C79.7386 275.73 83.9476 280.033 82.7651 282.269C81.5221 284.619 78.2891 281.961 78.2891 281.961" stroke="#263238" stroke-width="2.5" stroke-miterlimit="10" stroke-linecap="round" stroke-linejoin="round"/>
<path d="M74.87 284.532C74.87 284.532 74.509 283.195 76.463 283.616C77.949 283.936 78.737 285.676 78.737 285.676" stroke="#263238" stroke-width="2.5" stroke-miterlimit="10" stroke-linecap="round" stroke-linejoin="round"/>
<path d="M77.425 280.678C77.425 280.678 78.691 279.856 80.632 280.333C82.036 280.678 82.3755 282.25 82.3755 282.25" stroke="#263238" stroke-width="2.5" stroke-miterlimit="10" stroke-linecap="round" stroke-linejoin="round"/>
<path d="M75.2156 278.908C75.2156 278.908 80.3461 283.419 79.1636 285.654C77.9201 288.005 72.6201 283.534 72.6201 283.534" stroke="#263238" stroke-width="2.5" stroke-miterlimit="10" stroke-linecap="round" stroke-linejoin="round"/>
<path d="M88.7295 276.359C88.7295 276.359 83.5675 274.764 82.6285 276.463C81.1215 279.19 86.826 281.639 86.826 281.639C86.826 281.639 84.5455 284.167 85.552 286.337" fill="#FCD8C3"/>
<path d="M88.7295 276.359C88.7295 276.359 83.5675 274.764 82.6285 276.463C81.1215 279.19 86.826 281.639 86.826 281.639C86.826 281.639 84.5455 284.167 85.552 286.337" stroke="#263238" stroke-width="2.5" stroke-miterlimit="10" stroke-linecap="round" stroke-linejoin="round"/>
<path d="M206.116 288.332C206.116 288.332 207.771 284.296 208.502 282.007C210.891 274.532 214.943 275.922 218.271 275.433C220.329 275.13 225.056 268.217 227.478 268.46C231.39 268.852 225.681 276.223 225.681 276.223C225.681 276.223 232.851 275.21 228.002 282.543C227.761 282.907 229.305 282.453 230.258 282.967C235.787 285.946 214.954 304.384 214.13 305.249C212.59 304.306 210.382 300.035 209.764 298.339L206.116 288.332Z" fill="#FCD8C3" stroke="#263238" stroke-width="2.5" stroke-miterlimit="10" stroke-linecap="round" stroke-linejoin="round"/>
<path d="M215.077 275.619C215.077 275.619 220.584 275.74 221.46 276.264C223.432 277.444 222.155 280.284 220.035 280.629C218.494 280.88 217.098 280.628 217.674 281.268C218.811 282.53 218.287 285.488 217.403 286.729" fill="#FCD8C3"/>
<path d="M215.077 275.619C215.077 275.619 220.584 275.74 221.46 276.264C223.432 277.444 222.155 280.284 220.035 280.629C218.494 280.88 217.098 280.628 217.674 281.268C218.811 282.53 218.287 285.488 217.403 286.729" stroke="#263238" stroke-width="2.5" stroke-miterlimit="10" stroke-linecap="round" stroke-linejoin="round"/>
<path d="M225.828 276.25C225.828 276.25 219.425 282.379 223.8 284.156C226.294 285.169 228.154 281.73 228.154 281.73" fill="#FCD8C3"/>
<path d="M225.828 276.25C225.828 276.25 219.425 282.379 223.8 284.156C226.294 285.169 228.154 281.73 228.154 281.73" stroke="#263238" stroke-width="2.5" stroke-miterlimit="10" stroke-linecap="round" stroke-linejoin="round"/>
<path d="M228.001 282.542C228.001 282.542 222.794 288.396 225.872 290.099C227.477 290.987 230.689 286.728 230.689 286.728" fill="#FCD8C3"/>
<path d="M228.001 282.542C228.001 282.542 222.794 288.396 225.872 290.099C227.477 290.987 230.689 286.728 230.689 286.728" stroke="#263238" stroke-width="2.5" stroke-miterlimit="10" stroke-linecap="round" stroke-linejoin="round"/>
<path d="M157.353 271.38C157.504 272.93 156.049 273.249 153.965 272.27C153.712 272.15 153.45 272.01 153.179 271.854C153.098 271.805 153.016 271.758 152.931 271.706C152.741 271.588 152.545 271.459 152.359 271.33C149.995 269.69 148.04 267.192 147.879 265.531C147.783 264.541 148.338 264.047 149.295 264.08C149.341 264.081 149.39 264.086 149.441 264.092C149.508 264.096 149.581 264.106 149.653 264.116C150.382 264.219 151.291 264.58 152.299 265.201C154.915 266.819 157.179 269.583 157.353 271.38Z" fill="#263238" stroke="#263238" stroke-width="2.5" stroke-miterlimit="10" stroke-linecap="round" stroke-linejoin="round"/>
<path d="M163.155 259.085C163.149 259.228 163.144 259.37 163.133 259.512C163.111 259.797 163.078 260.082 163.035 260.361C163.013 260.503 162.985 260.646 162.958 260.783C162.903 261.067 162.832 261.353 162.75 261.632C162.602 262.141 162.405 262.645 162.164 263.116C162.12 263.214 162.076 263.308 162.021 263.4C161.923 263.587 161.819 263.773 161.698 263.953C161.578 264.134 161.457 264.315 161.326 264.49C161.194 264.665 161.063 264.83 160.92 265C160.772 265.175 160.613 265.339 160.455 265.498C160.422 265.531 160.394 265.558 160.362 265.591C160.279 265.673 160.192 265.755 160.099 265.838C160.077 265.854 160.049 265.876 160.027 265.903C159.94 265.975 159.852 266.046 159.764 266.117C159.688 266.177 159.616 266.232 159.54 266.293C159.496 266.32 159.457 266.353 159.414 266.386C159.32 266.452 159.222 266.518 159.129 266.583C159.046 266.633 158.97 266.687 158.888 266.737C158.827 266.769 158.773 266.803 158.712 266.841C158.652 266.874 158.592 266.912 158.526 266.945C158.504 266.961 158.482 266.972 158.455 266.983C158.411 267.011 158.361 267.033 158.312 267.06C158.12 267.158 157.918 267.252 157.721 267.339C157.518 267.421 157.315 267.504 157.107 267.575C156.899 267.646 156.691 267.712 156.477 267.767C156.307 267.811 156.143 267.849 155.973 267.887C155.634 267.958 155.289 268.007 154.938 268.046C154.763 268.062 154.588 268.073 154.407 268.084C154.231 268.095 154.051 268.095 153.881 268.095C153.7 268.095 153.519 268.089 153.339 268.078C153.174 268.073 153.01 268.056 152.84 268.046C152.802 268.04 152.764 268.035 152.725 268.035C152.572 268.013 152.413 267.997 152.26 267.969C152.084 267.942 151.904 267.915 151.723 267.876C151.362 267.804 151 267.712 150.644 267.602C150.288 267.492 149.932 267.366 149.576 267.224C149.395 267.147 149.226 267.076 149.05 266.994C149.028 266.983 149.001 266.972 148.968 266.956C148.896 266.923 148.831 266.884 148.76 266.852C148.749 266.846 148.738 266.835 148.721 266.83C148.656 266.802 148.595 266.769 148.53 266.736L148.349 266.638C148.267 266.594 148.201 266.556 148.168 266.539C148.042 266.479 147.922 266.408 147.807 266.331C147.401 266.079 147.007 265.805 146.624 265.499C146.492 265.4 146.366 265.301 146.229 265.192C146.196 265.16 146.158 265.127 146.12 265.094C146.081 265.066 146.049 265.034 146.01 265.006C146.005 265.001 146.005 265.001 145.999 264.995C145.923 264.93 145.846 264.864 145.769 264.804C145.6 264.634 145.43 264.47 145.266 264.305C145.096 264.135 144.937 263.966 144.789 263.796C144.696 263.692 144.603 263.582 144.515 263.473C143.42 262.17 142.626 260.712 142.133 259.207C142.067 259.004 142.012 258.801 141.957 258.599C141.947 258.566 141.941 258.544 141.935 258.511C141.875 258.308 141.831 258.1 141.793 257.897C141.738 257.684 141.7 257.459 141.667 257.235C141.639 257.037 141.617 256.835 141.601 256.643C141.596 256.61 141.596 256.583 141.591 256.55C141.574 256.358 141.563 256.166 141.558 255.975C141.552 255.953 141.552 255.915 141.552 255.881C141.547 255.701 141.547 255.531 141.552 255.356C141.547 255.323 141.552 255.295 141.558 255.262C141.563 255.049 141.574 254.83 141.596 254.616C141.613 254.435 141.629 254.266 141.656 254.09C141.662 254.041 141.667 253.992 141.678 253.942C141.706 253.756 141.75 253.564 141.782 253.378C141.793 253.34 141.799 253.301 141.81 253.263C141.853 253.077 141.903 252.896 141.957 252.721C141.99 252.606 142.023 252.491 142.067 252.381C142.078 252.354 142.089 252.321 142.1 252.294C142.121 252.228 142.143 252.173 142.16 252.113L142.166 252.107C142.215 251.971 142.264 251.834 142.324 251.702C142.324 251.696 142.33 251.691 142.33 251.686C142.395 251.516 142.472 251.351 142.554 251.193C142.593 251.121 142.625 251.056 142.664 250.985C142.68 250.952 142.697 250.919 142.713 250.886C142.806 250.728 142.905 250.563 143.004 250.399H143.009C143.086 250.273 143.168 250.158 143.245 250.043C143.327 249.917 143.415 249.807 143.508 249.692C143.59 249.577 143.688 249.468 143.782 249.352C143.847 249.281 143.908 249.21 143.973 249.139C144.023 249.084 144.067 249.035 144.116 248.985C144.209 248.887 144.307 248.788 144.406 248.695C144.609 248.509 144.817 248.333 145.025 248.163C145.233 247.999 145.452 247.846 145.677 247.703C145.792 247.632 145.901 247.561 146.016 247.495C146.23 247.369 146.449 247.249 146.673 247.15C146.81 247.085 146.942 247.025 147.073 246.97C147.227 246.91 147.38 246.855 147.522 246.794L148.086 246.608V246.619C148.125 246.597 148.163 246.591 148.201 246.581L148.431 246.526C148.563 246.494 148.7 246.46 148.837 246.438C148.974 246.411 149.111 246.384 149.247 246.362C149.368 246.34 149.494 246.324 149.62 246.312C149.74 246.296 149.866 246.285 149.992 246.274C150.042 246.274 150.096 246.269 150.151 246.263C150.409 246.247 150.672 246.242 150.934 246.247C151.213 246.242 151.498 246.263 151.778 246.285C151.937 246.307 152.084 246.318 152.227 246.351C152.325 246.357 152.407 246.373 152.495 246.389H152.501C152.621 246.406 152.736 246.428 152.862 246.444C152.868 246.444 152.868 246.444 152.868 246.444C152.928 246.455 152.988 246.472 153.049 246.482C153.109 246.499 153.175 246.51 153.24 246.526C153.251 246.526 153.257 246.526 153.262 246.532C153.377 246.564 153.498 246.592 153.613 246.625L153.925 246.707C154.029 246.735 154.133 246.767 154.237 246.801C154.281 246.811 154.325 246.828 154.369 246.844C154.533 246.894 154.692 246.954 154.851 247.014C155.114 247.113 155.376 247.222 155.628 247.343C156.023 247.523 156.401 247.721 156.773 247.945C157.523 248.394 158.246 248.931 158.931 249.55C159.15 249.747 159.364 249.955 159.561 250.169C159.763 250.371 159.955 250.585 160.141 250.809C160.322 251.023 160.497 251.253 160.673 251.477C160.837 251.707 161.001 251.938 161.155 252.178C161.319 252.436 161.478 252.693 161.62 252.961C161.763 253.224 161.9 253.493 162.026 253.761C162.152 254.035 162.267 254.303 162.371 254.577C162.524 254.993 162.661 255.41 162.771 255.826C162.809 255.968 162.842 256.105 162.875 256.248C163.089 257.196 163.182 258.149 163.155 259.085Z" fill="#FCD8C3"/>
<path d="M160.358 265.447C160.155 265.529 159.952 265.611 159.744 265.683C159.536 265.754 159.328 265.819 159.114 265.874C158.945 265.918 158.78 265.956 158.61 265.995C158.271 266.066 157.926 266.115 157.575 266.153C157.4 266.17 157.224 266.181 157.044 266.192C156.868 266.202 156.688 266.202 156.518 266.202C156.337 266.202 156.157 266.197 155.976 266.186C155.812 266.18 155.648 266.164 155.478 266.153C155.439 266.148 155.401 266.143 155.363 266.143C155.209 266.121 155.051 266.104 154.897 266.077C154.722 266.049 154.541 266.022 154.36 265.983C153.999 265.912 153.637 265.819 153.282 265.71C152.926 265.6 152.57 265.474 152.214 265.332C152.033 265.255 151.863 265.184 151.688 265.102C151.666 265.091 151.639 265.08 151.606 265.063C151.534 265.031 151.469 264.992 151.397 264.959C151.386 264.954 151.375 264.943 151.359 264.937C151.293 264.91 151.233 264.877 151.167 264.844L150.986 264.746C150.904 264.702 150.839 264.663 150.806 264.647C150.68 264.587 150.559 264.516 150.444 264.439C150.039 264.187 149.645 263.913 149.261 263.606C149.13 263.508 149.004 263.409 148.867 263.3C148.834 263.267 148.796 263.234 148.758 263.202C148.719 263.174 148.686 263.141 148.648 263.114C148.643 263.108 148.643 263.108 148.637 263.103C148.561 263.037 148.484 262.971 148.407 262.911C148.237 262.741 148.068 262.577 147.903 262.413C147.733 262.243 147.575 262.073 147.427 261.903C147.334 261.799 147.241 261.69 147.153 261.58C146.058 260.277 145.264 258.82 144.771 257.314C144.705 257.111 144.65 256.908 144.595 256.706C144.585 256.673 144.579 256.651 144.574 256.618C144.513 256.415 144.47 256.207 144.431 256.004C144.376 255.791 144.338 255.566 144.305 255.342C144.278 255.144 144.256 254.942 144.239 254.75C144.234 254.717 144.234 254.69 144.229 254.657C144.212 254.465 144.201 254.273 144.196 254.082C144.19 254.06 144.19 254.022 144.19 253.989C144.185 253.808 144.185 253.638 144.19 253.463C144.185 253.43 144.19 253.402 144.196 253.369C144.201 253.156 144.212 252.937 144.234 252.723C144.25 252.543 144.267 252.373 144.294 252.197C144.3 252.148 144.305 252.099 144.316 252.049C144.344 251.863 144.387 251.671 144.42 251.485C144.431 251.447 144.437 251.409 144.448 251.37C144.491 251.184 144.541 251.004 144.595 250.828C144.628 250.713 144.661 250.598 144.705 250.488C144.716 250.461 144.727 250.428 144.738 250.401C144.76 250.335 144.782 250.28 144.798 250.22L144.804 250.215C144.853 250.078 144.902 249.941 144.962 249.809C144.962 249.803 144.968 249.798 144.968 249.793C145.034 249.623 145.11 249.459 145.192 249.3C145.231 249.229 145.264 249.163 145.302 249.092C145.318 249.059 145.335 249.026 145.351 248.993C145.445 248.835 145.543 248.67 145.642 248.506H145.647C145.724 248.38 145.806 248.265 145.883 248.15C145.965 248.024 146.053 247.914 146.146 247.799C146.228 247.685 146.327 247.575 146.42 247.46C146.485 247.388 146.546 247.317 146.611 247.246C146.648 247.205 146.683 247.168 146.719 247.13C146.704 247.138 146.69 247.143 146.675 247.15C146.451 247.248 146.232 247.369 146.018 247.495C145.903 247.561 145.793 247.631 145.678 247.703C145.454 247.845 145.235 247.999 145.027 248.163C144.818 248.333 144.61 248.508 144.408 248.694C144.309 248.788 144.211 248.886 144.118 248.985C144.068 249.034 144.025 249.083 143.975 249.138C143.91 249.21 143.849 249.281 143.784 249.352C143.691 249.467 143.592 249.576 143.51 249.692C143.417 249.806 143.329 249.916 143.247 250.042C143.17 250.157 143.088 250.272 143.011 250.398H143.006C142.907 250.562 142.809 250.727 142.716 250.886C142.699 250.918 142.683 250.952 142.666 250.984C142.628 251.056 142.595 251.121 142.557 251.192C142.475 251.351 142.398 251.515 142.332 251.685C142.332 251.691 142.327 251.696 142.327 251.701C142.267 251.833 142.217 251.97 142.168 252.107L142.163 252.112C142.146 252.173 142.124 252.227 142.102 252.293C142.091 252.321 142.081 252.353 142.069 252.381C142.026 252.49 141.993 252.605 141.96 252.721C141.905 252.896 141.856 253.077 141.812 253.263C141.801 253.301 141.796 253.339 141.785 253.377C141.752 253.564 141.708 253.755 141.681 253.942C141.67 253.991 141.664 254.04 141.659 254.09C141.631 254.265 141.615 254.434 141.599 254.615C141.577 254.829 141.566 255.048 141.56 255.262C141.555 255.294 141.549 255.322 141.555 255.355C141.549 255.531 141.549 255.7 141.555 255.881C141.555 255.914 141.555 255.952 141.56 255.974C141.566 256.166 141.577 256.358 141.593 256.549C141.599 256.582 141.599 256.609 141.604 256.642C141.621 256.834 141.642 257.037 141.67 257.234C141.703 257.459 141.741 257.683 141.796 257.897C141.834 258.099 141.878 258.307 141.938 258.51C141.944 258.543 141.949 258.565 141.96 258.598C142.015 258.801 142.069 259.004 142.135 259.206C142.628 260.712 143.422 262.169 144.518 263.472C144.606 263.582 144.699 263.691 144.792 263.795C144.94 263.965 145.098 264.135 145.268 264.305C145.433 264.469 145.602 264.633 145.772 264.803C145.849 264.863 145.925 264.929 146.002 264.995C146.008 265.001 146.008 265.001 146.013 265.006C146.051 265.033 146.084 265.066 146.123 265.093C146.161 265.126 146.199 265.159 146.232 265.192C146.369 265.301 146.495 265.4 146.627 265.498C147.01 265.805 147.405 266.079 147.81 266.331C147.925 266.407 148.045 266.479 148.171 266.539C148.204 266.555 148.27 266.593 148.352 266.637L148.533 266.736C148.598 266.768 148.659 266.802 148.724 266.829C148.741 266.835 148.752 266.845 148.763 266.851C148.834 266.884 148.9 266.923 148.971 266.955C149.004 266.971 149.031 266.983 149.053 266.993C149.228 267.076 149.398 267.147 149.579 267.223C149.935 267.366 150.291 267.492 150.647 267.601C151.002 267.711 151.364 267.804 151.726 267.875C151.907 267.914 152.087 267.941 152.263 267.969C152.416 267.996 152.575 268.013 152.728 268.034C152.766 268.034 152.805 268.04 152.843 268.045C153.013 268.056 153.177 268.073 153.341 268.078C153.522 268.089 153.703 268.094 153.884 268.094C154.053 268.094 154.234 268.094 154.409 268.083C154.59 268.073 154.765 268.062 154.94 268.045C155.291 268.007 155.636 267.957 155.976 267.887C156.145 267.848 156.31 267.81 156.479 267.766C156.693 267.712 156.901 267.646 157.109 267.574C157.317 267.503 157.52 267.421 157.723 267.339C157.92 267.251 158.122 267.158 158.314 267.059C158.364 267.032 158.413 267.01 158.457 266.983C158.484 266.972 158.506 266.961 158.528 266.944C158.594 266.912 158.654 266.873 158.714 266.84C158.774 266.802 158.829 266.769 158.89 266.736C158.972 266.687 159.048 266.632 159.13 266.583C159.224 266.517 159.322 266.451 159.415 266.385C159.459 266.353 159.497 266.32 159.541 266.292C159.618 266.232 159.689 266.177 159.766 266.117C159.853 266.045 159.941 265.974 160.029 265.903C160.05 265.875 160.078 265.853 160.1 265.837C160.193 265.755 160.281 265.673 160.363 265.591C160.396 265.558 160.423 265.531 160.456 265.497C160.512 265.442 160.564 265.38 160.619 265.323C160.53 265.365 160.445 265.408 160.358 265.447Z" fill="white"/>
<path d="M163.155 259.085C163.149 259.228 163.144 259.37 163.133 259.512C163.111 259.797 163.078 260.082 163.035 260.361C163.013 260.503 162.985 260.646 162.958 260.783C162.903 261.067 162.832 261.353 162.75 261.632C162.602 262.141 162.405 262.645 162.164 263.116C162.12 263.214 162.076 263.308 162.021 263.4C161.917 263.587 161.813 263.773 161.698 263.953C161.578 264.134 161.457 264.315 161.326 264.49C161.194 264.665 161.063 264.83 160.92 265C160.772 265.175 160.613 265.339 160.455 265.498C160.422 265.531 160.394 265.558 160.362 265.591C160.279 265.673 160.192 265.755 160.099 265.838C160.077 265.854 160.049 265.876 160.027 265.903C159.94 265.975 159.852 266.046 159.764 266.117C159.688 266.177 159.616 266.232 159.54 266.293C159.496 266.32 159.457 266.353 159.414 266.386C159.32 266.452 159.222 266.518 159.129 266.583C159.046 266.633 158.97 266.687 158.888 266.737C158.827 266.769 158.773 266.803 158.712 266.841C158.652 266.874 158.592 266.912 158.526 266.945C158.504 266.961 158.482 266.972 158.455 266.983C158.411 267.011 158.361 267.033 158.312 267.06C158.12 267.158 157.918 267.252 157.721 267.339C157.518 267.421 157.315 267.504 157.107 267.575C156.899 267.646 156.691 267.712 156.477 267.767C156.307 267.811 156.143 267.849 155.973 267.887C155.634 267.958 155.289 268.007 154.938 268.046C154.763 268.062 154.588 268.073 154.407 268.084C154.231 268.095 154.051 268.095 153.881 268.095C153.7 268.095 153.519 268.089 153.339 268.078C153.174 268.073 153.01 268.056 152.84 268.046C152.802 268.04 152.764 268.035 152.725 268.035C152.572 268.013 152.413 267.997 152.26 267.969C152.084 267.942 151.904 267.915 151.723 267.876C151.367 267.799 151.006 267.712 150.644 267.602C150.288 267.492 149.932 267.366 149.576 267.224C149.395 267.147 149.226 267.076 149.05 266.994C149.028 266.983 149.001 266.972 148.968 266.956C148.896 266.923 148.831 266.884 148.76 266.852C148.749 266.846 148.738 266.835 148.721 266.83C148.595 266.764 148.458 266.693 148.349 266.638C148.267 266.594 148.201 266.556 148.168 266.539C148.042 266.479 147.922 266.408 147.807 266.331C147.401 266.079 147.007 265.805 146.624 265.499C146.492 265.4 146.372 265.296 146.235 265.187C146.196 265.154 146.158 265.127 146.12 265.093C146.081 265.066 146.049 265.033 146.01 265.006C146.005 265 146.005 265 145.999 264.995C145.923 264.929 145.846 264.863 145.769 264.803C145.6 264.633 145.43 264.469 145.266 264.305C145.096 264.135 144.937 263.965 144.789 263.795C144.696 263.691 144.603 263.581 144.515 263.472C143.42 262.169 142.626 260.712 142.133 259.206C142.067 259.004 142.012 258.801 141.957 258.598C141.947 258.565 141.941 258.544 141.935 258.51C141.875 258.308 141.831 258.1 141.793 257.897C141.738 257.683 141.7 257.459 141.667 257.234C141.639 257.037 141.617 256.834 141.601 256.642C141.596 256.61 141.596 256.582 141.591 256.549C141.574 256.357 141.563 256.166 141.558 255.974C141.552 255.952 141.552 255.914 141.552 255.881C141.547 255.7 141.547 255.531 141.552 255.355C141.547 255.322 141.552 255.295 141.558 255.262C141.563 255.048 141.574 254.829 141.596 254.615C141.613 254.435 141.629 254.265 141.656 254.09C141.662 254.04 141.667 253.991 141.678 253.942C141.706 253.755 141.75 253.564 141.782 253.377C141.793 253.339 141.799 253.301 141.81 253.263C141.853 253.077 141.903 252.896 141.957 252.721C141.974 252.627 142.001 252.545 142.029 252.458C142.067 252.343 142.105 252.228 142.16 252.113C142.171 252.053 142.198 251.987 142.22 251.927C142.253 251.85 142.292 251.779 142.324 251.702C142.324 251.697 142.33 251.692 142.33 251.686C142.384 251.566 142.439 251.44 142.499 251.319C142.516 251.275 142.532 251.237 142.554 251.193C142.565 251.171 142.576 251.144 142.587 251.122C142.614 251.072 142.636 251.029 142.663 250.985C142.68 250.953 142.696 250.919 142.713 250.887C142.806 250.728 142.904 250.564 143.003 250.399H143.009C143.086 250.273 143.168 250.158 143.244 250.043C143.327 249.917 143.414 249.807 143.507 249.693C143.589 249.578 143.688 249.468 143.781 249.353C143.847 249.282 143.907 249.211 143.973 249.139C144.022 249.085 144.066 249.035 144.115 248.986C144.208 248.887 144.307 248.788 144.406 248.695C144.608 248.509 144.816 248.334 145.025 248.164C145.233 248 145.452 247.846 145.676 247.704C145.791 247.632 145.901 247.562 146.016 247.496C146.229 247.37 146.448 247.249 146.673 247.151C146.81 247.085 146.941 247.025 147.073 246.97C147.226 246.91 147.379 246.856 147.522 246.795L148.086 246.609V246.619C148.124 246.598 148.163 246.592 148.201 246.581C148.278 246.559 148.354 246.543 148.431 246.532C148.562 246.499 148.699 246.466 148.836 246.438C148.973 246.411 149.11 246.384 149.247 246.362C149.367 246.34 149.493 246.324 149.619 246.312C149.74 246.296 149.866 246.285 149.992 246.274C150.047 246.263 150.096 246.263 150.151 246.258C150.408 246.242 150.671 246.242 150.934 246.247C151.213 246.242 151.498 246.263 151.777 246.285C151.936 246.307 152.084 246.318 152.226 246.351C152.325 246.357 152.407 246.373 152.495 246.389H152.5C152.621 246.406 152.736 246.428 152.862 246.444C152.862 246.45 152.867 246.45 152.867 246.45C152.928 246.46 152.988 246.472 153.048 246.488C153.114 246.499 153.18 246.51 153.24 246.526C153.251 246.526 153.256 246.526 153.262 246.532C153.486 246.581 153.705 246.636 153.924 246.707C154.028 246.735 154.132 246.767 154.236 246.801C154.28 246.811 154.324 246.828 154.368 246.844C154.532 246.894 154.691 246.954 154.85 247.014C155.113 247.113 155.375 247.222 155.627 247.343C156.022 247.523 156.4 247.721 156.772 247.945C157.522 248.394 158.245 248.931 158.93 249.55C159.149 249.747 159.363 249.955 159.56 250.169C159.762 250.371 159.954 250.585 160.14 250.809C160.321 251.023 160.496 251.253 160.672 251.477C160.836 251.707 161 251.938 161.154 252.178C161.318 252.436 161.477 252.693 161.619 252.961C161.767 253.224 161.904 253.493 162.025 253.761C162.151 254.035 162.266 254.303 162.37 254.577C162.529 254.993 162.66 255.41 162.77 255.826C162.808 255.968 162.841 256.105 162.874 256.248C163.089 257.196 163.182 258.149 163.155 259.085Z" stroke="#263238" stroke-width="2.5" stroke-miterlimit="10" stroke-linecap="round" stroke-linejoin="round"/>
<path d="M154.213 245.23C154.213 243.696 152.969 242.451 151.434 242.451C149.899 242.451 148.655 243.695 148.655 245.23C148.655 245.658 148.76 246.059 148.933 246.422C148.902 246.428 148.87 246.433 148.839 246.439C148.702 246.461 148.565 246.494 148.433 246.527L148.203 246.582C148.165 246.592 148.126 246.598 148.088 246.62V246.609L147.524 246.795C147.382 246.856 147.228 246.91 147.075 246.971C146.944 247.026 146.812 247.086 146.675 247.151C146.451 247.25 146.232 247.37 146.018 247.496C145.903 247.562 145.793 247.633 145.678 247.704C145.454 247.847 145.235 248 145.027 248.164C144.818 248.334 144.61 248.509 144.408 248.696C144.309 248.789 144.211 248.888 144.118 248.986C144.068 249.036 144.025 249.085 143.975 249.14C143.91 249.211 143.849 249.282 143.784 249.353C143.691 249.468 143.592 249.578 143.51 249.693C143.417 249.808 143.329 249.918 143.247 250.044C143.17 250.158 143.088 250.274 143.011 250.4H143.006C142.907 250.564 142.809 250.728 142.716 250.887C142.699 250.92 142.683 250.953 142.666 250.986C142.639 251.03 142.617 251.073 142.59 251.122C142.579 251.144 142.568 251.172 142.557 251.194C142.475 251.352 142.398 251.517 142.332 251.687C142.332 251.692 142.327 251.697 142.327 251.703C142.294 251.779 142.256 251.851 142.223 251.927C142.201 251.987 142.174 252.053 142.163 252.113C142.108 252.228 142.069 252.344 142.031 252.458C142.004 252.546 141.976 252.628 141.96 252.721C141.905 252.896 141.856 253.077 141.812 253.263C141.801 253.301 141.796 253.34 141.785 253.378C141.752 253.564 141.708 253.756 141.681 253.942C141.67 253.992 141.664 254.041 141.659 254.09C141.631 254.266 141.615 254.435 141.599 254.616C141.577 254.83 141.566 255.049 141.56 255.262C141.555 255.295 141.549 255.322 141.555 255.356C141.549 255.531 141.549 255.7 141.555 255.881C141.555 255.914 141.555 255.953 141.56 255.975C141.566 256.167 141.577 256.358 141.593 256.55C141.599 256.582 141.599 256.61 141.604 256.643C141.621 256.835 141.642 257.037 141.67 257.235C141.703 257.459 141.741 257.684 141.796 257.897C141.834 258.1 141.878 258.308 141.938 258.511C141.944 258.544 141.949 258.565 141.96 258.599C142.015 258.801 142.069 259.004 142.135 259.207C142.628 260.713 143.422 262.17 144.518 263.473C147.207 262.126 149.568 258.511 150.422 253.954C150.499 253.527 150.564 253.1 150.614 252.678C150.812 250.933 151.501 249.316 152.419 247.821C153.466 247.422 154.213 246.417 154.213 245.23Z" fill="#263238" stroke="#263238" stroke-width="2.5" stroke-miterlimit="10" stroke-linecap="round" stroke-linejoin="round"/>
<path d="M247.16 272.966L224.11 273.243L221.007 255.129H247.16V272.966Z" fill="#263238" stroke="#263238" stroke-width="2.5" stroke-miterlimit="10" stroke-linecap="round" stroke-linejoin="round"/>
<path d="M248.49 263.908L225.44 264.186L222.337 246.072H245.609L248.49 263.908Z" fill="white" stroke="#263238" stroke-width="2.5" stroke-miterlimit="10" stroke-linecap="round" stroke-linejoin="round"/>
<path d="M254.477 250.285H243.864L243.152 253.829H227.215L224.11 273.243H250.485L254.477 250.285Z" fill="#644BFD"/>
<path d="M228.717 255.914H244.654L245.366 252.37H254.019L254.477 250.285H243.864L243.152 253.829H227.215L224.11 273.243H226.032L228.717 255.914Z" fill="white"/>
<path d="M254.477 250.285H243.864L243.152 253.829H227.215L224.11 273.243H250.485L254.477 250.285Z" stroke="#263238" stroke-width="2.5" stroke-miterlimit="10" stroke-linecap="round" stroke-linejoin="round"/>
<path d="M76.973 274.21L55.855 274.465L53.012 257.869H76.973V274.21Z" fill="#263238" stroke="#263238" stroke-width="2.5" stroke-miterlimit="10" stroke-linecap="round" stroke-linejoin="round"/>
<path d="M71.6659 259.546L68.0669 256.498C64.1204 253.156 59.4369 250.8 54.4014 249.624L58.2314 233.228L61.4359 234.291C66.0054 235.808 70.1824 238.317 73.6684 241.637L75.5844 243.462L71.6659 259.546Z" fill="white" stroke="#263238" stroke-width="2.5" stroke-miterlimit="10" stroke-linecap="round" stroke-linejoin="round"/>
<path d="M83.676 253.43H73.953L73.3005 256.677H58.6995L55.855 274.465H80.019L83.676 253.43Z" fill="#9ABAE3"/>
<path d="M60.365 258.401H74.966L75.6185 255.154H83.2895L83.676 253.43H73.953L73.3005 256.677H58.6995L55.855 274.465H57.876L60.365 258.401Z" fill="white"/>
<path d="M83.676 253.43H73.953L73.3005 256.677H58.6995L55.855 274.465H80.019L83.676 253.43Z" stroke="#263238" stroke-width="2.5" stroke-miterlimit="10" stroke-linecap="round" stroke-linejoin="round"/>
</g>
<defs>
<clipPath id="clip0_1547_73896">
<rect width="430" height="349" fill="white"/>
</clipPath>
</defs>
</svg>
