<svg width="259" height="173" viewBox="0 0 259 173" fill="none" xmlns="http://www.w3.org/2000/svg">
<path d="M242.628 0.207764H118.477C115.031 0.207764 112.237 3.00166 112.237 6.44799V95.2766C112.237 98.723 115.031 101.517 118.477 101.517H248.868V6.44799C248.869 3.00166 246.075 0.207764 242.628 0.207764Z" fill="white"/>
<path d="M248.868 101.725H118.477C114.921 101.725 112.029 98.8323 112.029 95.2766V6.448C112.029 2.89263 114.921 0 118.477 0H242.628C246.184 0 249.076 2.89254 249.076 6.448V101.517C249.076 101.632 248.983 101.725 248.868 101.725ZM118.477 0.415556C115.151 0.415556 112.444 3.12167 112.444 6.4479V95.2765C112.444 98.6027 115.151 101.309 118.477 101.309H248.66V6.448C248.66 3.12167 245.954 0.415648 242.628 0.415648L118.477 0.415556Z" fill="black"/>
<path d="M179.027 97.939H137.26C137.145 97.939 137.052 97.8461 137.052 97.7312C137.052 97.6163 137.145 97.5234 137.26 97.5234H179.027C179.141 97.5234 179.234 97.6163 179.234 97.7312C179.234 97.8461 179.141 97.939 179.027 97.939Z" fill="black"/>
<path d="M244.623 73.4643C244.508 73.4643 244.415 73.3714 244.415 73.2565V7.60425C244.415 5.72783 242.888 4.2012 241.012 4.2012H120.093C118.217 4.2012 116.69 5.72774 116.69 7.60425V69.3313C116.69 69.4462 116.597 69.539 116.482 69.539C116.367 69.539 116.274 69.4462 116.274 69.3313V7.60425C116.274 5.4987 117.988 3.78564 120.093 3.78564H241.012C243.118 3.78564 244.831 5.4987 244.831 7.60425V73.2564C244.831 73.3713 244.738 73.4643 244.623 73.4643Z" fill="black"/>
<path d="M240.113 8.96277H120.992V25.1537H240.113V8.96277Z" fill="#E2EAFF"/>
<path d="M203.642 38.3236H222.644V54.0695C222.644 56.689 221.293 59.1233 219.07 60.5091L213.143 64.204L207.216 60.5091C204.993 59.1233 203.642 56.689 203.642 54.0695L203.642 38.3236Z" fill="white"/>
<path d="M213.144 64.4117C213.105 64.4117 213.067 64.4013 213.034 64.3803L207.107 60.6854C204.807 59.2521 203.435 56.7787 203.435 54.0694V38.3236C203.435 38.2087 203.528 38.1158 203.642 38.1158H222.644C222.759 38.1158 222.852 38.2087 222.852 38.3236V54.0695C222.852 56.7789 221.479 59.2522 219.18 60.6856L213.253 64.3805C213.22 64.4013 213.182 64.4117 213.144 64.4117ZM203.85 38.5314V54.0695C203.85 56.6343 205.15 58.9757 207.327 60.3327L213.144 63.959L218.96 60.3327C221.137 58.9759 222.437 56.6343 222.437 54.0695V38.5314H203.85Z" fill="black"/>
<path d="M218.197 59.1082C219.948 58.0166 220.993 56.1328 220.993 54.0695V39.9744H205.293V54.0694C205.293 56.1327 206.339 58.0165 208.09 59.1081L213.144 62.2584L218.197 59.1082Z" fill="#E2EAFF"/>
<path d="M215.889 55.7004H210.397C209.601 55.7004 208.954 55.0528 208.954 54.2568V49.2451C208.954 48.4491 209.601 47.8015 210.397 47.8015H215.889C216.685 47.8015 217.333 48.4491 217.333 49.2451V54.2568C217.333 55.0528 216.685 55.7004 215.889 55.7004ZM210.397 48.2173C209.83 48.2173 209.369 48.6784 209.369 49.2452V54.2569C209.369 54.8237 209.83 55.2848 210.397 55.2848H215.889C216.456 55.2848 216.917 54.8237 216.917 54.2569V49.2452C216.917 48.6784 216.456 48.2173 215.889 48.2173H210.397Z" fill="black"/>
<path d="M213.519 51.4024L213.761 53.5993C213.776 53.7332 213.671 53.85 213.536 53.85H212.751C212.616 53.85 212.512 53.7331 212.526 53.5993L212.768 51.4024C212.415 51.2398 212.184 50.8586 212.255 50.4303C212.32 50.0449 212.644 49.737 213.032 49.6904C213.58 49.6247 214.045 50.0506 214.045 50.5851C214.045 50.9486 213.829 51.2598 213.519 51.4024Z" fill="black"/>
<path d="M216.483 48.2542C216.368 48.2542 216.275 48.1613 216.275 48.0465C216.275 45.5746 214.87 43.5636 213.143 43.5636C211.416 43.5636 210.011 45.5746 210.011 48.0465C210.011 48.1613 209.918 48.2542 209.803 48.2542C209.689 48.2542 209.596 48.1613 209.596 48.0465C209.596 45.3454 211.187 43.1479 213.143 43.1479C215.099 43.1479 216.69 45.3454 216.69 48.0465C216.69 48.1613 216.597 48.2542 216.483 48.2542Z" fill="black"/>
<path d="M191.193 55.0058H135.121C135.006 55.0058 134.914 54.913 134.914 54.7981V47.7339C134.914 47.619 135.006 47.5261 135.121 47.5261H191.193C191.308 47.5261 191.401 47.619 191.401 47.7339V54.7981C191.401 54.913 191.308 55.0058 191.193 55.0058ZM135.329 54.5903H190.986V47.9418H135.329V54.5903Z" fill="black"/>
<path d="M139.699 52.7648C138.871 52.7648 138.198 52.0915 138.198 51.2637C138.198 50.4361 138.871 49.7628 139.699 49.7628C140.527 49.7628 141.2 50.4361 141.2 51.2637C141.2 52.0914 140.527 52.7648 139.699 52.7648ZM139.699 50.1785C139.1 50.1785 138.613 50.6653 138.613 51.2637C138.613 51.8622 139.1 52.3491 139.699 52.3491C140.297 52.3491 140.784 51.8622 140.784 51.2637C140.784 50.6653 140.297 50.1785 139.699 50.1785Z" fill="black"/>
<path d="M145.116 52.7648C144.288 52.7648 143.615 52.0915 143.615 51.2637C143.615 50.4361 144.288 49.7628 145.116 49.7628C145.943 49.7628 146.617 50.4361 146.617 51.2637C146.617 52.0914 145.943 52.7648 145.116 52.7648ZM145.116 50.1785C144.517 50.1785 144.03 50.6653 144.03 51.2637C144.03 51.8622 144.517 52.3491 145.116 52.3491C145.714 52.3491 146.201 51.8622 146.201 51.2637C146.201 50.6653 145.714 50.1785 145.116 50.1785Z" fill="black"/>
<path d="M150.532 52.7648C149.704 52.7648 149.031 52.0915 149.031 51.2637C149.031 50.4361 149.704 49.7628 150.532 49.7628C151.36 49.7628 152.033 50.4361 152.033 51.2637C152.033 52.0914 151.359 52.7648 150.532 52.7648ZM150.532 50.1785C149.933 50.1785 149.446 50.6653 149.446 51.2637C149.446 51.8622 149.933 52.3491 150.532 52.3491C151.13 52.3491 151.617 51.8622 151.617 51.2637C151.617 50.6653 151.13 50.1785 150.532 50.1785Z" fill="black"/>
<path d="M155.948 52.7648C155.121 52.7648 154.447 52.0915 154.447 51.2637C154.447 50.4361 155.121 49.7628 155.948 49.7628C156.776 49.7628 157.449 50.4361 157.449 51.2637C157.449 52.0914 156.776 52.7648 155.948 52.7648ZM155.948 50.1785C155.35 50.1785 154.863 50.6653 154.863 51.2637C154.863 51.8622 155.35 52.3491 155.948 52.3491C156.547 52.3491 157.034 51.8622 157.034 51.2637C157.034 50.6653 156.547 50.1785 155.948 50.1785Z" fill="black"/>
<path d="M161.364 52.7648C160.537 52.7648 159.863 52.0915 159.863 51.2637C159.863 50.4361 160.537 49.7628 161.364 49.7628C162.192 49.7628 162.865 50.4361 162.865 51.2637C162.865 52.0914 162.192 52.7648 161.364 52.7648ZM161.364 50.1785C160.766 50.1785 160.279 50.6653 160.279 51.2637C160.279 51.8622 160.766 52.3491 161.364 52.3491C161.963 52.3491 162.45 51.8622 162.45 51.2637C162.45 50.6653 161.963 50.1785 161.364 50.1785Z" fill="black"/>
<path d="M166.781 52.7648C165.953 52.7648 165.279 52.0915 165.279 51.2637C165.279 50.4361 165.953 49.7628 166.781 49.7628C167.608 49.7628 168.282 50.4361 168.282 51.2637C168.282 52.0914 167.608 52.7648 166.781 52.7648ZM166.781 50.1785C166.182 50.1785 165.695 50.6653 165.695 51.2637C165.695 51.8622 166.182 52.3491 166.781 52.3491C167.379 52.3491 167.866 51.8622 167.866 51.2637C167.866 50.6653 167.379 50.1785 166.781 50.1785Z" fill="black"/>
<path d="M191.193 41.9716H135.121C135.006 41.9716 134.914 41.8788 134.914 41.7639V34.6997C134.914 34.5848 135.006 34.4919 135.121 34.4919H191.193C191.308 34.4919 191.401 34.5848 191.401 34.6997V41.7639C191.401 41.8788 191.308 41.9716 191.193 41.9716ZM135.329 41.5561H190.986V34.9076H135.329V41.5561Z" fill="black"/>
<path d="M139.699 39.7306C138.871 39.7306 138.198 39.0573 138.198 38.2296C138.198 37.4019 138.871 36.7286 139.699 36.7286C140.527 36.7286 141.2 37.4019 141.2 38.2296C141.2 39.0573 140.527 39.7306 139.699 39.7306ZM139.699 37.1443C139.1 37.1443 138.613 37.6311 138.613 38.2296C138.613 38.828 139.1 39.3149 139.699 39.3149C140.297 39.3149 140.784 38.828 140.784 38.2296C140.784 37.6311 140.297 37.1443 139.699 37.1443Z" fill="black"/>
<path d="M145.116 39.7306C144.288 39.7306 143.615 39.0573 143.615 38.2296C143.615 37.4019 144.288 36.7286 145.116 36.7286C145.943 36.7286 146.617 37.4019 146.617 38.2296C146.617 39.0573 145.943 39.7306 145.116 39.7306ZM145.116 37.1443C144.517 37.1443 144.03 37.6311 144.03 38.2296C144.03 38.828 144.517 39.3149 145.116 39.3149C145.714 39.3149 146.201 38.828 146.201 38.2296C146.201 37.6311 145.714 37.1443 145.116 37.1443Z" fill="black"/>
<path d="M150.532 39.7306C149.704 39.7306 149.031 39.0573 149.031 38.2296C149.031 37.4019 149.704 36.7286 150.532 36.7286C151.36 36.7286 152.033 37.4019 152.033 38.2296C152.033 39.0573 151.359 39.7306 150.532 39.7306ZM150.532 37.1443C149.933 37.1443 149.446 37.6311 149.446 38.2296C149.446 38.828 149.933 39.3149 150.532 39.3149C151.13 39.3149 151.617 38.828 151.617 38.2296C151.617 37.6311 151.13 37.1443 150.532 37.1443Z" fill="black"/>
<path d="M155.948 39.7306C155.121 39.7306 154.447 39.0573 154.447 38.2296C154.447 37.4019 155.121 36.7286 155.948 36.7286C156.776 36.7286 157.449 37.4019 157.449 38.2296C157.449 39.0573 156.776 39.7306 155.948 39.7306ZM155.948 37.1443C155.35 37.1443 154.863 37.6311 154.863 38.2296C154.863 38.828 155.35 39.3149 155.948 39.3149C156.547 39.3149 157.034 38.828 157.034 38.2296C157.034 37.6311 156.547 37.1443 155.948 37.1443Z" fill="black"/>
<path d="M161.364 39.7306C160.537 39.7306 159.863 39.0573 159.863 38.2296C159.863 37.4019 160.537 36.7286 161.364 36.7286C162.192 36.7286 162.865 37.4019 162.865 38.2296C162.865 39.0573 162.192 39.7306 161.364 39.7306ZM161.364 37.1443C160.766 37.1443 160.279 37.6311 160.279 38.2296C160.279 38.828 160.766 39.3149 161.364 39.3149C161.963 39.3149 162.45 38.828 162.45 38.2296C162.45 37.6311 161.963 37.1443 161.364 37.1443Z" fill="black"/>
<path d="M166.781 39.7306C165.953 39.7306 165.279 39.0573 165.279 38.2296C165.279 37.4019 165.953 36.7286 166.781 36.7286C167.608 36.7286 168.282 37.4019 168.282 38.2296C168.282 39.0573 167.608 39.7306 166.781 39.7306ZM166.781 37.1443C166.182 37.1443 165.695 37.6311 165.695 38.2296C165.695 38.828 166.182 39.3149 166.781 39.3149C167.379 39.3149 167.866 38.828 167.866 38.2296C167.866 37.6311 167.379 37.1443 166.781 37.1443Z" fill="black"/>
<path d="M172.317 39.7328C171.489 39.7328 170.816 39.0595 170.816 38.2319C170.816 37.4043 171.489 36.731 172.317 36.731C173.145 36.731 173.818 37.4043 173.818 38.2319C173.818 39.0595 173.145 39.7328 172.317 39.7328ZM172.317 37.1465C171.719 37.1465 171.232 37.6334 171.232 38.2319C171.232 38.8304 171.719 39.3173 172.317 39.3173C172.915 39.3173 173.402 38.8304 173.402 38.2319C173.402 37.6334 172.915 37.1465 172.317 37.1465Z" fill="black"/>
<path d="M177.733 39.7328C176.905 39.7328 176.232 39.0595 176.232 38.2319C176.232 37.4043 176.905 36.731 177.733 36.731C178.561 36.731 179.234 37.4043 179.234 38.2319C179.234 39.0595 178.561 39.7328 177.733 39.7328ZM177.733 37.1465C177.135 37.1465 176.648 37.6334 176.648 38.2319C176.648 38.8304 177.135 39.3173 177.733 39.3173C178.332 39.3173 178.819 38.8304 178.819 38.2319C178.819 37.6334 178.332 37.1465 177.733 37.1465Z" fill="black"/>
<path d="M195.586 21.9793H180.631C180.516 21.9793 180.423 21.8864 180.423 21.7715C180.423 21.6566 180.516 21.5637 180.631 21.5637H195.586C195.701 21.5637 195.794 21.6566 195.794 21.7715C195.794 21.8864 195.701 21.9793 195.586 21.9793Z" fill="white"/>
<path d="M214.699 21.9793H199.745C199.63 21.9793 199.537 21.8864 199.537 21.7715C199.537 21.6566 199.63 21.5637 199.745 21.5637H214.699C214.814 21.5637 214.907 21.6566 214.907 21.7715C214.907 21.8864 214.814 21.9793 214.699 21.9793Z" fill="white"/>
<path d="M234.073 21.9793H219.118C219.004 21.9793 218.911 21.8864 218.911 21.7715C218.911 21.6566 219.004 21.5637 219.118 21.5637H234.073C234.188 21.5637 234.281 21.6566 234.281 21.7715C234.281 21.8864 234.188 21.9793 234.073 21.9793Z" fill="white"/>
<path d="M190.154 61.7551H136.16C135.586 61.7551 135.121 62.2204 135.121 62.7942V68.2922C135.121 68.8661 135.586 69.3313 136.16 69.3313H190.154C190.728 69.3313 191.193 68.8661 191.193 68.2922V62.7942C191.193 62.2204 190.728 61.7551 190.154 61.7551Z" fill="#3018CC"/>
<path d="M195.37 70.882L192.048 71.5945L190.525 74.6324L188.108 66.5061L195.37 70.882Z" fill="black"/>
<path d="M63.0615 170.101C62.8198 171.377 63.9172 172.474 65.1927 172.232C65.9052 172.097 66.48 171.523 66.6151 170.81C66.857 169.534 65.7594 168.437 64.4839 168.679C63.7712 168.814 63.1966 169.389 63.0615 170.101Z" fill="black"/>
<path d="M1.81047 172.592C2.81036 172.592 3.62094 171.781 3.62094 170.782C3.62094 169.782 2.81036 168.971 1.81047 168.971C0.810573 168.971 0 169.782 0 170.782C0 171.781 0.810573 172.592 1.81047 172.592Z" fill="black"/>
<path d="M65.2515 170.783C65.1366 170.783 65.0437 170.69 65.0437 170.575C65.0437 160.64 50.9201 152.558 33.5599 152.558C16.1999 152.558 2.0762 160.64 2.0762 170.575C2.0762 170.69 1.98332 170.783 1.86842 170.783C1.75362 170.783 1.66064 170.69 1.66064 170.575C1.66064 160.411 15.9707 152.142 33.5599 152.142C51.1492 152.142 65.4593 160.411 65.4593 170.575C65.4593 170.69 65.3664 170.783 65.2515 170.783Z" fill="black"/>
<path d="M27.7357 170.783C27.6208 170.783 27.5278 170.69 27.5278 170.575C27.5278 164.046 29.4066 158.214 33.4403 152.22C33.5046 152.125 33.6335 152.1 33.7288 152.163C33.8241 152.227 33.8492 152.357 33.7853 152.452C29.7997 158.374 27.9436 164.133 27.9436 170.575C27.9435 170.69 27.8506 170.783 27.7357 170.783Z" fill="black"/>
<path d="M27.6424 172.587C28.679 172.587 29.5192 171.747 29.5192 170.711C29.5192 169.674 28.679 168.834 27.6424 168.834C26.6059 168.834 25.7656 169.674 25.7656 170.711C25.7656 171.747 26.6059 172.587 27.6424 172.587Z" fill="black"/>
<path d="M33.7137 152.611C33.5987 152.611 33.5059 152.518 33.5059 152.403V146.282C33.5059 146.167 33.5987 146.074 33.7137 146.074C33.8285 146.074 33.9215 146.167 33.9215 146.282V152.403C33.9215 152.518 33.8284 152.611 33.7137 152.611Z" fill="black"/>
<path d="M38.5689 132.505H29.0513V146.275H38.5689V132.505Z" fill="white"/>
<path d="M38.5692 146.483H29.0515C28.9366 146.483 28.8438 146.39 28.8438 146.275V132.505C28.8438 132.39 28.9366 132.297 29.0515 132.297H38.5692C38.6841 132.297 38.777 132.39 38.777 132.505V146.275C38.777 146.39 38.6841 146.483 38.5692 146.483ZM29.2593 146.067H38.3614V132.713H29.2593V146.067Z" fill="black"/>
<path d="M50.2126 128.05H17.4072V133.72H50.2126V128.05Z" fill="white"/>
<path d="M50.213 133.928H17.4076C17.2927 133.928 17.1997 133.835 17.1997 133.72V128.05C17.1997 127.935 17.2927 127.842 17.4076 127.842H50.2129C50.3277 127.842 50.4207 127.935 50.4207 128.05V133.72C50.4208 133.835 50.3278 133.928 50.213 133.928ZM17.6155 133.512H50.0051V128.258H17.6155V133.512Z" fill="black"/>
<path d="M34.8653 131.074H11.7088C7.8213 131.074 4.97468 127.412 5.93354 123.645L9.21092 110.768C9.89208 108.091 9.92043 105.291 9.29369 102.601L0.656044 65.5352C-0.205869 61.8363 2.56573 58.2858 6.36336 58.2241L40.1476 57.6765C43.6376 57.6199 46.6737 60.0521 47.3776 63.4708C49.5198 73.875 53.8582 95.0003 55.0734 101.319C56.7067 109.814 34.8653 131.074 34.8653 131.074Z" fill="white"/>
<path d="M34.8653 131.282H11.7089C9.79115 131.282 8.01667 130.414 6.83983 128.899C5.663 127.386 5.25925 125.452 5.73235 123.593L9.00973 110.716C9.67965 108.084 9.7079 105.294 9.09146 102.648L0.453723 65.5824C0.0285306 63.7579 0.445788 61.8644 1.59872 60.3877C2.75147 58.9109 4.48682 58.0467 6.35984 58.0163L40.1442 57.4685C43.7317 57.4134 46.8583 59.9171 47.5813 63.4289C49.9432 74.901 54.0839 95.0732 55.2777 101.28C56.9135 109.786 35.9055 130.352 35.0103 131.223C34.9714 131.261 34.9195 131.282 34.8653 131.282ZM40.2661 57.8833C40.2278 57.8833 40.1893 57.8836 40.151 57.8842L6.36673 58.4319C4.61976 58.4601 3.00129 59.2663 1.92621 60.6434C0.851041 62.0206 0.462039 63.7864 0.858224 65.4881L9.49606 102.554C10.1276 105.264 10.0986 108.122 9.41225 110.819L6.13477 123.696C5.6938 125.429 6.07024 127.233 7.1678 128.644C8.26536 130.056 9.9204 130.866 11.7088 130.866H34.7805C36.0493 129.619 56.4213 109.429 54.8691 101.358C53.676 95.154 49.5358 74.9837 47.1742 63.5126C46.499 60.2344 43.6044 57.8833 40.2661 57.8833Z" fill="black"/>
<path d="M14.4093 123.852C14.3923 123.852 14.3751 123.85 14.3579 123.846C14.2466 123.818 14.1794 123.705 14.2078 123.593L17.4852 110.716C18.1552 108.084 18.1834 105.294 17.567 102.648L8.92937 65.5824C8.9031 65.4708 8.97274 65.3589 9.08452 65.3329C9.19582 65.3071 9.30798 65.3762 9.33397 65.4882L17.9718 102.554C18.6034 105.264 18.5743 108.122 17.8879 110.819L14.6105 123.696C14.5865 123.79 14.502 123.852 14.4093 123.852Z" fill="black"/>
<path d="M82.0868 172.404H53.3023C49.4498 172.404 46.7984 168.535 48.1885 164.942L64.3657 123.127H94.2074L78.0749 164.827L83.0671 170.137C83.8746 170.996 83.2655 172.404 82.0868 172.404Z" fill="white"/>
<path d="M82.0866 172.612H53.3022C51.4241 172.612 49.6693 171.687 48.6076 170.138C47.5463 168.589 47.3169 166.619 47.9945 164.867L64.1715 123.052C64.2026 122.972 64.2795 122.919 64.3654 122.919H94.2073C94.2759 122.919 94.3399 122.953 94.3787 123.009C94.4174 123.066 94.4258 123.138 94.401 123.202L78.3158 164.78L83.2181 169.995C83.6494 170.453 83.762 171.097 83.5122 171.675C83.2623 172.253 82.7161 172.612 82.0866 172.612ZM64.5079 123.335L48.3823 165.017C47.7448 166.665 47.952 168.446 48.9507 169.903C49.9494 171.36 51.5353 172.196 53.3023 172.196H82.0866C82.5477 172.196 82.9479 171.933 83.131 171.51C83.3139 171.087 83.2314 170.615 82.9156 170.279L77.9235 164.969C77.8687 164.911 77.8523 164.827 77.8811 164.752L93.9043 123.335H64.5079Z" fill="black"/>
<path d="M78.0175 164.99H52.822C52.7072 164.99 52.6143 164.897 52.6143 164.782C52.6143 164.667 52.7072 164.574 52.822 164.574H78.0175C78.1324 164.574 78.2253 164.667 78.2253 164.782C78.2253 164.897 78.1324 164.99 78.0175 164.99Z" fill="black"/>
<path d="M24.4014 109.662L21.4819 118.136C19.2988 124.473 24.0066 131.074 30.709 131.074H72.4067L90.9544 169.063C92.0423 171.291 94.3049 172.704 96.7843 172.704H127.018C127.873 172.704 128.229 171.61 127.537 171.107L119.456 165.222L101.781 123.788C98.1269 115.221 89.712 109.662 80.3981 109.662L24.4014 109.662Z" fill="white"/>
<path d="M127.017 172.912H96.7841C94.2436 172.912 91.8819 171.437 90.7673 169.154L72.2767 131.282H30.7088C27.446 131.282 24.4883 129.758 22.5939 127.102C20.6995 124.446 20.2225 121.153 21.2853 118.068L24.2048 109.594C24.2336 109.51 24.3125 109.454 24.4012 109.454H80.3978C89.8107 109.454 98.2792 115.048 101.972 123.706L119.624 165.088L127.66 170.939C128.049 171.222 128.204 171.701 128.055 172.158C127.906 172.616 127.499 172.912 127.017 172.912ZM24.5493 109.87L21.6783 118.204C20.6599 121.16 21.1169 124.315 22.9322 126.861C24.7476 129.406 27.5821 130.866 30.7087 130.866H72.4065C72.4859 130.866 72.5582 130.912 72.5933 130.983L91.1409 168.971C92.1862 171.112 94.4014 172.496 96.7842 172.496H127.017C127.379 172.496 127.586 172.255 127.66 172.03C127.733 171.804 127.707 171.488 127.415 171.275L119.333 165.39C119.303 165.368 119.279 165.338 119.264 165.303L101.59 123.869C97.9622 115.365 89.6439 109.87 80.3979 109.87H24.5493Z" fill="black"/>
<path d="M119.456 165.43H94.2074C94.0925 165.43 93.9995 165.337 93.9995 165.222C93.9995 165.107 94.0925 165.014 94.2074 165.014H119.456C119.571 165.014 119.664 165.107 119.664 165.222C119.664 165.337 119.571 165.43 119.456 165.43Z" fill="black"/>
<path d="M69.5722 70.6869L66.0969 80.7049C66.0969 80.7049 59.4323 74.703 59.3906 74.6196C59.3488 74.5361 62.2502 66.0023 62.2502 66.0023C62.2502 66.0023 64.5032 63.4128 69.5722 70.6869Z" fill="white"/>
<path d="M66.0966 80.9125C66.0459 80.9125 65.9962 80.8939 65.9576 80.8592C59.2636 74.8309 59.2281 74.7594 59.2046 74.7122C59.1526 74.6086 59.124 74.5515 62.0531 65.9352C62.0618 65.9096 62.0754 65.886 62.093 65.8658C62.1135 65.8427 62.6012 65.2967 63.595 65.3501C64.7853 65.4143 66.8179 66.3713 69.7424 70.5681C69.7805 70.6225 69.7902 70.6921 69.7681 70.7551L66.2927 80.773C66.27 80.8387 66.2159 80.8887 66.1482 80.9061C66.1313 80.9104 66.1139 80.9125 66.0966 80.9125ZM59.6184 74.5536C60.1607 75.0683 63.5698 78.1489 66.0028 80.3406L69.3409 70.7188C66.5581 66.751 64.6796 65.8341 63.5914 65.7663C62.901 65.7233 62.5295 66.0218 62.4314 66.1139C61.375 69.2218 59.8273 73.8192 59.6184 74.5536Z" fill="black"/>
<path d="M75.6977 57.6912L74.9797 69.8203C74.9797 69.8203 66.8673 71.1396 66.7772 68.6055C66.6872 66.0713 66.5088 59.6273 66.5088 59.6273L75.6977 57.6912Z" fill="white"/>
<path d="M70.8156 70.372C69.3144 70.372 67.8129 70.195 67.0731 69.5882C66.7526 69.3255 66.5834 68.9973 66.5698 68.6129C66.481 66.1069 66.3031 59.6977 66.3013 59.6332C66.2987 59.5329 66.368 59.4449 66.4663 59.4241L75.655 57.4879C75.7188 57.4745 75.7846 57.4915 75.8335 57.5337C75.8826 57.5761 75.9092 57.6388 75.9053 57.7036L75.1873 69.8328C75.1815 69.9299 75.1092 70.01 75.0132 70.0257C74.8681 70.049 72.8426 70.372 70.8156 70.372ZM66.7215 59.7951C66.7507 60.8406 66.9044 66.326 66.9849 68.5982C66.9945 68.8616 67.1093 69.0804 67.3366 69.2667C68.7822 70.4529 73.8071 69.7833 74.7823 69.6401L75.4744 57.9507L66.7215 59.7951Z" fill="black"/>
<path d="M59.4615 60.0262C59.6956 58.7827 61.0029 57.845 62.2559 58.0222C61.7771 55.5644 63.2771 52.9844 65.4713 51.778C67.6656 50.5716 70.3835 50.5915 72.7621 51.3739C74.0813 51.8077 75.3477 52.4785 76.3048 53.4847C77.262 54.4909 77.8845 55.8592 77.8128 57.2461C77.7412 58.6329 76.9022 60.0005 75.6166 60.5258C75.5411 60.0618 75.4656 59.5977 75.3902 59.1337C74.6358 60.3227 73.2904 61.0371 71.9138 61.3331C70.5372 61.6292 69.1114 61.5566 67.7053 61.4825C67.8143 62.3612 67.6561 63.2483 67.6126 64.1326C67.569 65.0169 67.6599 65.9611 68.1903 66.67C68.9284 67.6565 70.3109 67.9155 71.5384 67.8094C72.7659 67.7033 73.9643 67.3123 75.1963 67.309C75.4226 68.3463 75.6501 69.3992 75.5892 70.4591C75.5281 71.5189 75.1412 72.6052 74.327 73.2866C73.0957 74.3172 71.2962 74.1706 69.7033 73.9679C68.4391 73.8071 67.1074 73.6192 66.1031 72.8349C64.85 71.8565 64.3915 70.1583 64.3382 68.5693C64.2849 66.9804 64.5575 65.3877 64.4186 63.8039C63.7144 63.6409 63.0101 63.4779 62.3059 63.3149C61.6623 63.166 61.2717 63.0487 60.7763 62.6932C59.9026 62.0666 59.2466 61.1693 59.4615 60.0262Z" fill="black"/>
<path d="M64.7437 63.277C64.7437 63.277 63.995 59.5348 61.3613 61.5897C58.7277 63.6446 61.6873 68.0688 64.6065 65.8374L64.7437 63.277Z" fill="white"/>
<path d="M62.9521 66.6635C62.0801 66.6635 61.3123 66.1964 60.8031 65.5371C59.9211 64.3951 59.7719 62.5661 61.2332 61.426C62.0105 60.8194 62.7215 60.6286 63.3465 60.861C64.5482 61.3069 64.9316 63.158 64.9472 63.2365C64.9507 63.2536 64.9519 63.271 64.9511 63.2885L64.8139 65.8487C64.8105 65.9093 64.7808 65.9656 64.7325 66.0027C64.1234 66.4679 63.5159 66.6635 62.9521 66.6635ZM62.8128 61.1818C62.4199 61.1818 61.9765 61.3729 61.4887 61.7534C60.226 62.7389 60.3535 64.2751 61.1321 65.2829C61.831 66.1881 63.1065 66.6655 64.4039 65.7288L64.5345 63.2938C64.4873 63.085 64.1211 61.5909 63.2011 61.2502C63.0779 61.2045 62.9484 61.1818 62.8128 61.1818Z" fill="black"/>
<path d="M63.4007 65.2724C63.3013 65.2724 63.2134 65.201 63.1961 65.0997C63.0766 64.4036 62.604 63.787 61.9629 63.4906C61.8586 63.4425 61.8133 63.3191 61.8617 63.2148C61.9095 63.1108 62.0332 63.065 62.1375 63.1135C62.9006 63.4662 63.4634 64.2005 63.6057 65.0295C63.6252 65.1425 63.5492 65.2501 63.436 65.2694C63.4243 65.2714 63.4123 65.2724 63.4007 65.2724Z" fill="black"/>
<path d="M70.761 66.3408C70.2611 66.3408 69.7871 66.1193 69.42 65.7119C69.0466 65.2973 68.8279 64.7378 68.8048 64.1363C68.7815 63.5349 68.9563 62.9603 69.2968 62.518C69.646 62.0646 70.1268 61.8038 70.6506 61.7837C71.7269 61.7424 72.6237 62.7312 72.6721 63.9869C72.7207 65.2429 71.8924 66.2986 70.8263 66.3396C70.8044 66.3404 70.7828 66.3408 70.761 66.3408ZM70.7149 62.1981C70.6987 62.1981 70.6827 62.1983 70.6665 62.199C70.2682 62.2144 69.8987 62.4177 69.6261 62.7717C69.3446 63.137 69.2005 63.6159 69.2201 64.1202C69.2395 64.6247 69.4202 65.0911 69.7288 65.4337C70.0275 65.7651 70.4077 65.9384 70.8103 65.9243C71.6474 65.8921 72.2965 65.0302 72.2569 64.0029C72.218 62.9959 71.531 62.1981 70.7149 62.1981Z" fill="black"/>
<path d="M75.5369 65.9499C76.4901 65.913 77.2271 64.9562 77.1829 63.8127C77.1387 62.6692 76.3302 61.7721 75.3769 61.8089C74.4236 61.8458 73.6867 62.8026 73.7309 63.9461C73.775 65.0896 74.5836 65.9867 75.5369 65.9499Z" fill="white"/>
<path d="M75.4718 66.1592C74.4336 66.1593 73.5617 65.1854 73.5142 63.9546C73.4657 62.6984 74.2939 61.643 75.3601 61.602C75.8811 61.5859 76.3833 61.8048 76.7664 62.2298C77.1398 62.6444 77.3585 63.204 77.3815 63.8055C77.4303 65.0613 76.6023 66.1168 75.536 66.158C75.5144 66.1589 75.4931 66.1592 75.4718 66.1592ZM75.425 62.0165C75.4087 62.0165 75.3925 62.0166 75.3762 62.0172C74.5389 62.0495 73.8899 62.9114 73.9294 63.9385C73.9689 64.9656 74.6831 65.7742 75.5199 65.7428C76.357 65.7102 77.0061 64.8483 76.9663 63.8214C76.9468 63.3169 76.7662 62.8504 76.4575 62.508C76.1707 62.1898 75.8057 62.0165 75.425 62.0165Z" fill="black"/>
<path d="M72.4649 64.2028C72.405 64.2028 72.3457 64.1772 72.3045 64.1275C72.2315 64.0389 72.2436 63.9081 72.3321 63.8347C72.6135 63.6022 73.2946 63.2931 73.859 63.7905C73.9451 63.8662 73.9534 63.9974 73.8776 64.0838C73.8016 64.1704 73.6706 64.1782 73.5843 64.1022C73.1418 63.7124 72.619 64.1365 72.5972 64.155C72.5584 64.1872 72.5115 64.2028 72.4649 64.2028Z" fill="black"/>
<path d="M69.0127 64.3361C68.9956 64.3361 68.9782 64.3341 68.9609 64.3296L64.736 63.2488C64.6247 63.2205 64.5577 63.1072 64.5861 62.996C64.6144 62.8848 64.7286 62.8172 64.8391 62.8462L69.064 63.9269C69.1752 63.9554 69.2422 64.0686 69.2137 64.1798C69.1898 64.2738 69.1053 64.3361 69.0127 64.3361Z" fill="black"/>
<path d="M68.1245 82.19L69.2014 75.4532H57.2136L41.9971 106.094L60.6021 105.465L68.1245 82.19Z" fill="#3018CC"/>
<path d="M68.9294 75.4404H72.8148C77.4903 75.4404 81.713 78.2355 83.5397 82.5394L93.5623 106.153H58.7578L68.9294 75.4404Z" fill="#3018CC"/>
<path d="M70.4276 101.066C70.4039 101.066 70.3799 101.062 70.3564 101.053C70.2486 101.014 70.193 100.894 70.2323 100.787L75.541 86.2341C75.7795 85.5802 76.0655 84.9182 76.6989 84.6373C76.8041 84.5903 76.9266 84.6384 76.973 84.7431C77.0195 84.848 76.9721 84.9708 76.8672 85.0173C76.3828 85.232 76.1393 85.8065 75.9315 86.3766L70.6229 100.929C70.592 101.013 70.5125 101.066 70.4276 101.066Z" fill="black"/>
<path d="M57.2139 75.4532L37.8384 124.562L24.7503 123.645C21.6357 123.427 19.47 120.454 20.22 117.423C20.8967 114.687 21.9109 111.341 23.3647 108.188C25.5341 103.483 31.5682 93.1401 35.3415 84.9215C40.5746 73.5235 57.0428 75.4083 57.2139 75.4532Z" fill="#3018CC"/>
<path d="M100.766 107.386H76.1602L83.8468 86.2394C84.1404 85.4316 84.9081 84.8938 85.7676 84.8938H106.024C107.442 84.8938 108.43 86.303 107.945 87.6359L100.766 107.386Z" fill="black"/>
<path d="M68.7221 104.7H101.832L100.766 107.582H67.481L68.7221 104.7Z" fill="black"/>
<path d="M93.6421 97.251C94.2559 97.251 94.7535 96.7535 94.7535 96.1397C94.7535 95.5259 94.2559 95.0283 93.6421 95.0283C93.0283 95.0283 92.5308 95.5259 92.5308 96.1397C92.5308 96.7535 93.0283 97.251 93.6421 97.251Z" fill="#E2EAFF"/>
<path d="M45.2001 96.168L50.4294 83.3658L36.1262 87.883L31.8929 98.6814C30.2093 102.976 33.3559 107.625 37.9688 107.657C44.6967 107.703 53.0642 107.753 59.4203 107.746C60.0957 103.256 62.1596 98.7606 63.3681 96.4152C54.0921 96.281 45.2001 96.168 45.2001 96.168Z" fill="#3018CC"/>
<path d="M48.5044 96.3757H45.2C45.1308 96.3757 45.066 96.3412 45.0275 96.2838C44.989 96.2263 44.9814 96.1535 45.0076 96.0893L50.2369 83.2871C50.2804 83.1808 50.4017 83.1298 50.5078 83.1732C50.6142 83.2166 50.6651 83.338 50.6216 83.4441L45.5093 95.96H48.5044C48.6193 95.96 48.7121 96.0529 48.7121 96.1678C48.7121 96.2827 48.6192 96.3757 48.5044 96.3757Z" fill="black"/>
<path d="M58.2487 107.955C51.8188 107.955 43.671 107.904 37.9674 107.864C35.6993 107.849 33.6692 106.763 32.3978 104.884C31.1259 103.006 30.8714 100.717 31.6994 98.6053L35.9326 87.8069C35.9744 87.7003 36.0954 87.6475 36.202 87.6895C36.3088 87.7313 36.3615 87.8519 36.3196 87.9589L32.0862 98.7572C31.3091 100.74 31.548 102.888 32.7419 104.651C33.9355 106.415 35.8411 107.434 37.9702 107.449C44.0253 107.49 52.8336 107.544 59.4201 107.538C59.5348 107.538 59.628 107.631 59.6281 107.746C59.6283 107.861 59.5355 107.954 59.4206 107.954C59.0376 107.954 58.646 107.955 58.2487 107.955Z" fill="black"/>
<path d="M63.3682 96.4152C62.1597 98.7606 60.0958 103.256 59.4204 107.746C64.6374 107.741 75.6731 107.697 76.1602 107.582C77.7308 107.211 75.2446 96.4152 63.3682 96.4152Z" fill="white"/>
<path d="M41.9971 96.5865C41.8861 96.5865 41.794 96.4986 41.7897 96.3868C41.7853 96.2721 41.8745 96.1756 41.9892 96.1711L44.267 96.0825C44.3794 96.0792 44.4783 96.1673 44.4827 96.282C44.4872 96.3966 44.3979 96.4931 44.2833 96.4977L42.0054 96.5863C42.0025 96.5865 41.9999 96.5865 41.9971 96.5865Z" fill="black"/>
<path d="M73.8697 107.445C73.7705 107.445 73.6826 107.374 73.6651 107.273C73.3514 105.461 72.3742 103.732 70.9846 102.529C69.5951 101.326 67.744 100.605 65.9061 100.554C65.7915 100.55 65.701 100.455 65.7042 100.34C65.7074 100.225 65.8099 100.142 65.9179 100.138C67.8783 100.193 69.7744 100.931 71.2566 102.215C72.739 103.498 73.7398 105.269 74.0747 107.202C74.0944 107.315 74.0184 107.422 73.9054 107.442C73.8934 107.444 73.8815 107.445 73.8697 107.445Z" fill="black"/>
<path d="M70.8596 107.2C70.7848 107.2 70.7128 107.159 70.6755 107.089C69.6027 105.057 67.5178 103.633 65.2347 103.374C65.1207 103.361 65.0388 103.258 65.0516 103.144C65.0645 103.03 65.1651 102.946 65.2814 102.961C67.6993 103.235 69.9071 104.743 71.0432 106.895C71.0967 106.996 71.0577 107.122 70.9563 107.176C70.9256 107.192 70.8923 107.2 70.8596 107.2Z" fill="black"/>
<path d="M59.4401 72.0286L66.8325 75.5097L68.5027 74.2552L71.0581 77.5217L69.0173 82.009L66.799 77.6751L64.8452 82.5439L56.478 76.0638L59.4401 72.0286Z" fill="white"/>
<path d="M70.0192 76.4009C69.9573 76.4009 69.8962 76.3735 69.8553 76.3211L68.4649 74.5437L66.9578 75.6758C66.8961 75.7218 66.8143 75.7308 66.7445 75.6974L59.5069 72.2894L56.6458 76.1866C56.5781 76.2789 56.4482 76.2989 56.3553 76.231C56.2628 76.1633 56.2429 76.0331 56.3108 75.9406L59.2731 71.9055C59.3317 71.8253 59.4391 71.7979 59.529 71.8405L66.8083 75.2683L68.3782 74.089C68.469 74.021 68.5972 74.0381 68.6668 74.1272L70.1828 76.0651C70.2535 76.1556 70.2374 76.2861 70.1471 76.357C70.1092 76.3865 70.0638 76.4009 70.0192 76.4009Z" fill="black"/>
<path d="M125.387 95.0845C125.387 95.0845 128.71 91.8778 128.354 89.0649C127.998 86.252 128.155 84.9451 128.409 83.6392C128.943 80.8826 131.158 78.9911 129.481 76.8007C127.286 73.9315 127.167 72.3563 127.879 70.4435C128.591 68.5308 127.098 66.8579 124.615 67.5743C121.885 68.362 121.766 71.1748 122.3 72.9751C122.835 74.7754 123.013 76.7444 122.716 77.9258C122.419 79.1073 120.461 81.3575 119.274 83.6079C118.087 85.8582 118.383 89.8525 119.036 92.4404C119.689 95.0283 120.104 95.3095 120.104 95.3095L125.387 95.0845Z" fill="white"/>
<path d="M120.105 95.5174C120.063 95.5174 120.023 95.505 119.988 95.4817C119.908 95.4273 119.475 95.0274 118.835 92.4911C118.137 89.7229 117.919 85.732 119.09 83.5109C119.633 82.4812 120.34 81.4457 120.964 80.5323C121.714 79.4342 122.361 78.4856 122.515 77.8751C122.795 76.7586 122.629 74.8131 122.101 73.0343C121.679 71.6103 121.771 70.1309 122.348 69.077C122.807 68.2381 123.55 67.6654 124.557 67.3748C125.849 67.0022 126.987 67.2181 127.682 67.967C128.281 68.6134 128.428 69.5664 128.074 70.5162C127.407 72.3065 127.461 73.8183 129.646 76.6746C130.829 78.2196 130.186 79.653 129.505 81.1705C129.153 81.9553 128.789 82.7666 128.613 83.6788C128.371 84.9273 128.2 86.1923 128.56 89.0388C128.925 91.9219 125.67 95.1002 125.531 95.234C125.494 95.2694 125.446 95.2899 125.395 95.292L120.114 95.5171C120.111 95.5174 120.108 95.5174 120.105 95.5174ZM125.744 67.612C125.409 67.612 125.049 67.6656 124.673 67.7742C123.776 68.0329 123.116 68.5383 122.712 69.2765C121.935 70.6973 122.353 72.4216 122.5 72.9161C123.055 74.7889 123.219 76.7753 122.918 77.9764C122.746 78.6587 122.079 79.6357 121.307 80.7667C120.69 81.6711 119.99 82.6961 119.458 83.705C118.337 85.829 118.558 89.6957 119.238 92.3897C119.731 94.343 120.077 94.9398 120.193 95.0977L125.297 94.8804C125.723 94.4501 128.462 91.5725 128.148 89.091C127.78 86.1874 127.965 84.8366 128.205 83.5996C128.391 82.6403 128.765 81.8065 129.126 81.0003C129.809 79.478 130.349 78.2756 129.317 76.9269C127.013 73.9175 126.966 72.301 127.685 70.3712C127.982 69.5714 127.867 68.7784 127.377 68.2494C126.987 67.8289 126.417 67.612 125.744 67.612Z" fill="black"/>
<path d="M117.849 95.1969C117.849 95.1969 115.594 92.3841 114.407 90.0774C113.22 87.7709 113.586 86.0846 114.012 85.2317C115.35 82.5564 115.573 81.3445 114.267 78.9254C112.961 76.5063 116.128 73.5376 118.977 74.8316C121.825 76.1256 121.351 79.051 120.935 80.2324C120.52 81.4139 120.504 83.1013 121.707 84.7331C124.733 88.8399 121.529 95.1407 121.529 95.1407L117.849 95.1969Z" fill="white"/>
<path d="M117.849 95.4049C117.786 95.4049 117.727 95.3763 117.687 95.3272C117.664 95.2988 115.405 92.4711 114.222 90.1727C112.889 87.5815 113.501 85.7891 113.826 85.1387C115.152 82.4874 115.347 81.3633 114.084 79.0242C113.49 77.924 113.717 76.6029 114.676 75.5764C115.631 74.5533 117.358 73.8679 119.063 74.6426C122.464 76.1874 121.278 79.8849 121.132 80.3016C120.895 80.9733 120.495 82.7381 121.874 84.6097C124.942 88.772 121.847 94.9732 121.714 95.2349C121.679 95.3038 121.609 95.3473 121.532 95.3486L117.853 95.405C117.851 95.4049 117.85 95.4049 117.849 95.4049ZM117.544 74.7254C116.514 74.7254 115.578 75.2188 114.979 75.8601C114.146 76.7519 113.943 77.8887 114.45 78.8269C115.791 81.3118 115.577 82.5676 114.198 85.3246C113.901 85.9183 113.346 87.5607 114.592 89.9824C115.645 92.0297 117.576 94.5152 117.948 94.9876L121.397 94.9348C121.8 94.079 124.237 88.5169 121.54 84.8563C120.042 82.8248 120.481 80.8977 120.739 80.1634C120.873 79.7837 121.955 76.4129 118.891 75.0208C118.438 74.8151 117.982 74.7254 117.544 74.7254Z" fill="black"/>
<path d="M129.244 95.422C129.244 95.422 132.389 94.0718 132.508 91.1465C132.627 88.2211 132.686 87.8272 134.585 87.0396C136.484 86.2519 138.854 84.9226 137.731 82.0327C136.484 78.826 136.662 77.3632 137.256 74.9442C137.849 72.5251 135.95 70.331 133.992 70.5561C132.033 70.7811 130.49 72.8626 130.965 76.1255C131.44 79.3885 127.998 80.6262 126.633 83.7767C125.268 86.9271 125.03 95.1407 125.03 95.1407L129.244 95.422Z" fill="white"/>
<path d="M129.244 95.6298C129.239 95.6298 129.235 95.6296 129.23 95.6294L125.016 95.348C124.905 95.3406 124.819 95.2464 124.822 95.1345C124.832 94.7977 125.077 86.8448 126.442 83.6942C127 82.405 127.877 81.4514 128.724 80.529C129.962 79.1822 131.03 78.0192 130.759 76.1555C130.5 74.3705 130.819 72.7863 131.659 71.6946C132.247 70.9307 133.067 70.4532 133.968 70.3496C134.909 70.2415 135.895 70.658 136.606 71.4638C137.447 72.4187 137.765 73.7382 137.458 74.9937C136.855 77.4499 136.717 78.8509 137.924 81.9573C139.237 85.3353 135.915 86.713 134.665 87.2317C132.895 87.9658 132.833 88.2551 132.716 91.1549C132.593 94.1762 129.459 95.5555 129.326 95.6128C129.3 95.6241 129.272 95.6298 129.244 95.6298ZM125.245 94.9467L129.205 95.2111C129.577 95.036 132.196 93.712 132.3 91.1383C132.42 88.1933 132.497 87.6811 134.505 86.8478C136.459 86.0375 138.57 84.7664 137.537 82.108C136.292 78.9053 136.443 77.3826 137.054 74.8948C137.33 73.7715 137.045 72.5915 136.294 71.7388C135.674 71.035 134.823 70.6701 134.015 70.7626C133.227 70.8533 132.508 71.2742 131.989 71.9482C131.218 72.9499 130.927 74.4229 131.171 76.096C131.47 78.1549 130.285 79.4447 129.031 80.8102C128.206 81.7072 127.354 82.635 126.824 83.8594C125.607 86.6664 125.293 93.6724 125.245 94.9467Z" fill="black"/>
<path d="M127.048 95.2329C127.047 95.2329 127.045 95.2329 127.043 95.2329C126.93 95.2303 126.84 95.1412 126.84 95.0283C126.84 94.7152 128.231 87.0416 130.52 84.7004C130.833 84.3804 131.12 84.0971 131.384 83.8371C133.011 82.2358 133.685 81.573 133.784 78.6502C133.902 75.1867 134.259 73.2379 134.262 73.2186C134.283 73.1056 134.392 73.0323 134.504 73.0522C134.617 73.0734 134.692 73.1817 134.671 73.2945C134.667 73.3136 134.316 75.2358 134.199 78.6644C134.094 81.7529 133.336 82.4989 131.676 84.1334C131.414 84.3915 131.128 84.673 130.817 84.9911C128.655 87.2021 127.273 94.6713 127.256 95.0318C127.251 95.1428 127.159 95.2329 127.048 95.2329Z" fill="black"/>
<path d="M125.386 89.7791C125.288 89.7791 125.201 89.7095 125.182 89.6097C125.131 89.3358 123.934 82.8775 124.965 80.9232C125.582 79.7534 125.384 78.788 125.084 77.3267C124.918 76.518 124.73 75.6015 124.645 74.4533C124.405 71.2071 125.641 69.4913 125.694 69.4199C125.762 69.3276 125.892 69.3079 125.985 69.3761C126.077 69.4443 126.097 69.5742 126.029 69.6665C126.014 69.6862 124.832 71.3444 125.06 74.4224C125.143 75.5443 125.328 76.4467 125.491 77.2431C125.798 78.7366 126.019 79.8157 125.333 81.1171C124.369 82.9445 125.579 89.4671 125.591 89.5327C125.612 89.6456 125.538 89.7542 125.425 89.7753C125.412 89.7779 125.399 89.7791 125.386 89.7791Z" fill="black"/>
<path d="M119.689 95.3485C119.601 95.3485 119.519 95.2918 119.491 95.2032C119.475 95.154 117.938 90.2524 117.642 87.172C117.495 85.6342 117.736 84.5907 117.991 83.4861C118.186 82.6415 118.387 81.7681 118.413 80.6215C118.47 78.1019 117.424 77.1337 117.414 77.1242C117.328 77.0474 117.321 76.9162 117.398 76.8308C117.475 76.7456 117.607 76.7383 117.691 76.8149C117.74 76.8589 118.889 77.9224 118.829 80.631C118.802 81.8202 118.595 82.7146 118.396 83.5797C118.149 84.6505 117.915 85.6618 118.056 87.1323C118.347 90.1691 119.872 95.0295 119.887 95.0783C119.922 95.1876 119.861 95.3046 119.752 95.3391C119.731 95.3455 119.71 95.3485 119.689 95.3485Z" fill="black"/>
<path d="M116.381 94.4183H132.876L131.752 106.987H117.505L116.381 94.4183Z" fill="white"/>
<path d="M131.752 107.195H117.505C117.397 107.195 117.307 107.113 117.298 107.006L116.174 94.4367C116.168 94.3787 116.188 94.321 116.227 94.278C116.267 94.235 116.322 94.2103 116.381 94.2103H132.876C132.934 94.2103 132.99 94.235 133.029 94.278C133.068 94.321 133.088 94.3786 133.083 94.4367L131.959 107.006C131.949 107.113 131.859 107.195 131.752 107.195ZM117.695 106.78H131.562L132.648 94.6261H116.608L117.695 106.78Z" fill="black"/>
<path d="M132.468 99.1821H125.03C124.915 99.1821 124.822 99.0892 124.822 98.9743C124.822 98.8594 124.915 98.7665 125.03 98.7665H132.468C132.583 98.7665 132.676 98.8594 132.676 98.9743C132.676 99.0892 132.583 99.1821 132.468 99.1821Z" fill="black"/>
<path d="M145.984 106.872H34.8545V109.961H145.984V106.872Z" fill="white"/>
<path d="M145.984 110.17H43.136C43.0211 110.17 42.9282 110.077 42.9282 109.962C42.9282 109.847 43.0211 109.754 43.136 109.754H145.777V107.08H60.2279C60.113 107.08 60.0201 106.987 60.0201 106.872C60.0201 106.757 60.113 106.664 60.2279 106.664H145.985C146.099 106.664 146.192 106.757 146.192 106.872V109.962C146.192 110.076 146.099 110.17 145.984 110.17Z" fill="black"/>
<path d="M135.399 172.703C136.436 172.703 137.276 171.863 137.276 170.826C137.276 169.79 136.436 168.95 135.399 168.95C134.363 168.95 133.522 169.79 133.522 170.826C133.522 171.863 134.363 172.703 135.399 172.703Z" fill="black"/>
<path d="M135.399 171.034C135.284 171.034 135.191 170.942 135.191 170.827V109.962C135.191 109.847 135.284 109.754 135.399 109.754C135.514 109.754 135.607 109.847 135.607 109.962V170.827C135.607 170.941 135.514 171.034 135.399 171.034Z" fill="black"/>
<path d="M97.5419 16.2125H78.0713V34.1854H97.5419V16.2125Z" fill="white"/>
<path d="M97.5418 34.3933H78.0711C77.9562 34.3933 77.8633 34.3004 77.8633 34.1856V16.2127C77.8633 16.0978 77.9562 16.0049 78.0711 16.0049H97.5418C97.6568 16.0049 97.7496 16.0978 97.7496 16.2127V34.1856C97.7496 34.3004 97.6568 34.3933 97.5418 34.3933ZM78.2789 33.9777H97.334V16.4204H78.2789V33.9777Z" fill="black"/>
<path d="M94.6086 19.1456H81.0044V31.2524H94.6086V19.1456Z" fill="#E2EAFF"/>
<path d="M67.5864 16.2125H48.1157V34.1854H67.5864V16.2125Z" fill="white"/>
<path d="M67.5866 34.3933H48.116C48.0011 34.3933 47.9082 34.3004 47.9082 34.1856V16.2127C47.9082 16.0978 48.0011 16.0049 48.116 16.0049H67.5865C67.7014 16.0049 67.7944 16.0978 67.7944 16.2127V34.1856C67.7945 34.3004 67.7015 34.3933 67.5866 34.3933ZM48.3238 33.9777H67.3787V16.4204H48.3238V33.9777Z" fill="black"/>
<path d="M64.653 19.1456H51.0488V31.2524H64.653V19.1456Z" fill="#E2EAFF"/>
<path d="M37.6317 16.2125H18.1611V34.1854H37.6317V16.2125Z" fill="white"/>
<path d="M37.632 34.3933H18.1614C18.0465 34.3933 17.9536 34.3004 17.9536 34.1856V16.2127C17.9536 16.0978 18.0465 16.0049 18.1614 16.0049H37.632C37.7468 16.0049 37.8398 16.0978 37.8398 16.2127V34.1856C37.8399 34.3004 37.7468 34.3933 37.632 34.3933ZM18.3693 33.9777H37.4241V16.4204H18.3693V33.9777Z" fill="black"/>
<path d="M34.6985 19.1456H21.0942V31.2524H34.6985V19.1456Z" fill="#E2EAFF"/>
<path d="M256.051 77.8813H185.352C183.875 77.8813 182.677 79.0791 182.677 80.5566V85.7987V89.4512V122.917C182.677 124.395 183.875 125.592 185.352 125.592H256.051C257.528 125.592 258.726 124.395 258.726 122.917V89.4512V85.7987V80.5566C258.726 79.0791 257.528 77.8813 256.051 77.8813Z" fill="white"/>
<path d="M256.051 125.8H185.352C183.763 125.8 182.469 124.507 182.469 122.917V80.5567C182.469 78.9668 183.763 77.6735 185.352 77.6735H256.051C257.641 77.6735 258.934 78.9668 258.934 80.5567V122.917C258.934 124.507 257.641 125.8 256.051 125.8ZM185.352 78.0891C183.992 78.0891 182.885 79.196 182.885 80.5567V122.917C182.885 124.278 183.992 125.385 185.352 125.385H256.051C257.412 125.385 258.518 124.278 258.518 122.917V80.5567C258.518 79.196 257.412 78.0891 256.051 78.0891H185.352Z" fill="black"/>
<path d="M258.726 86.0066H182.677C182.562 86.0066 182.469 85.9137 182.469 85.7988C182.469 85.6839 182.562 85.5909 182.677 85.5909H258.726C258.841 85.5909 258.934 85.6839 258.934 85.7988C258.934 85.9137 258.841 86.0066 258.726 86.0066Z" fill="black"/>
<path d="M189.741 83.8544C188.795 83.8544 188.025 83.0848 188.025 82.1387C188.025 81.1926 188.795 80.423 189.741 80.423C190.687 80.423 191.457 81.1926 191.457 82.1387C191.457 83.0848 190.687 83.8544 189.741 83.8544ZM189.741 80.8386C189.024 80.8386 188.441 81.4219 188.441 82.1387C188.441 82.8555 189.024 83.4387 189.741 83.4387C190.458 83.4387 191.041 82.8555 191.041 82.1387C191.041 81.4219 190.458 80.8386 189.741 80.8386Z" fill="black"/>
<path d="M194.141 83.8544C193.195 83.8544 192.426 83.0848 192.426 82.1387C192.426 81.1926 193.195 80.423 194.141 80.423C195.088 80.423 195.857 81.1926 195.857 82.1387C195.857 83.0848 195.088 83.8544 194.141 83.8544ZM194.141 80.8386C193.425 80.8386 192.841 81.4219 192.841 82.1387C192.841 82.8555 193.425 83.4387 194.141 83.4387C194.858 83.4387 195.442 82.8555 195.442 82.1387C195.442 81.4219 194.858 80.8386 194.141 80.8386Z" fill="black"/>
<path d="M198.542 83.6466C199.375 83.6466 200.05 82.9715 200.05 82.1387C200.05 81.3059 199.375 80.6307 198.542 80.6307C197.709 80.6307 197.034 81.3059 197.034 82.1387C197.034 82.9715 197.709 83.6466 198.542 83.6466Z" fill="#3018CC"/>
<path d="M234.422 93.7983H206.844C206.729 93.7983 206.636 93.7054 206.636 93.5905C206.636 93.4756 206.729 93.3827 206.844 93.3827H234.422C234.537 93.3827 234.63 93.4756 234.63 93.5905C234.63 93.7054 234.537 93.7983 234.422 93.7983Z" fill="black"/>
<path d="M247.298 99.2893H207.327C207.212 99.2893 207.119 99.1964 207.119 99.0815C207.119 98.9666 207.212 98.8737 207.327 98.8737H247.298C247.412 98.8737 247.505 98.9666 247.505 99.0815C247.505 99.1964 247.412 99.2893 247.298 99.2893Z" fill="black"/>
<path d="M196.925 93.5905H189.153V119.255H196.925V93.5905Z" fill="white"/>
<path d="M196.925 119.463H189.153C189.038 119.463 188.945 119.37 188.945 119.255V93.5905C188.945 93.4756 189.038 93.3827 189.153 93.3827H196.925C197.04 93.3827 197.133 93.4756 197.133 93.5905V119.255C197.133 119.37 197.04 119.463 196.925 119.463ZM189.361 119.048H196.717V93.7983H189.361V119.048Z" fill="black"/>
<path d="M194.419 98.0945H189.153C189.038 98.0945 188.945 98.0016 188.945 97.8866C188.945 97.7718 189.038 97.6788 189.153 97.6788H194.419C194.534 97.6788 194.627 97.7718 194.627 97.8866C194.627 98.0015 194.534 98.0945 194.419 98.0945Z" fill="black"/>
<path d="M194.419 101.359H189.153C189.038 101.359 188.945 101.266 188.945 101.151C188.945 101.036 189.038 100.943 189.153 100.943H194.419C194.534 100.943 194.627 101.036 194.627 101.151C194.627 101.266 194.534 101.359 194.419 101.359Z" fill="black"/>
<path d="M194.419 104.623H189.153C189.038 104.623 188.945 104.53 188.945 104.416C188.945 104.301 189.038 104.208 189.153 104.208H194.419C194.534 104.208 194.627 104.301 194.627 104.416C194.627 104.53 194.534 104.623 194.419 104.623Z" fill="black"/>
<path d="M194.419 107.888H189.153C189.038 107.888 188.945 107.795 188.945 107.68C188.945 107.565 189.038 107.472 189.153 107.472H194.419C194.534 107.472 194.627 107.565 194.627 107.68C194.627 107.795 194.534 107.888 194.419 107.888Z" fill="black"/>
<path d="M202.324 119.255H195.425V95.7544L202.324 100.42V119.255Z" fill="white"/>
<path d="M202.324 119.463H195.425C195.31 119.463 195.217 119.37 195.217 119.255V95.7545C195.217 95.6776 195.26 95.6068 195.328 95.571C195.395 95.5349 195.478 95.5391 195.542 95.5823L202.44 100.247C202.498 100.286 202.532 100.351 202.532 100.42V119.255C202.532 119.37 202.439 119.463 202.324 119.463ZM195.633 119.048H202.116V100.53L195.633 96.146V119.048Z" fill="black"/>
<path d="M196.925 119.463C196.81 119.463 196.717 119.37 196.717 119.255V111.222C196.717 111.107 196.81 111.014 196.925 111.014H200.816C200.93 111.014 201.023 111.107 201.023 111.222V113.792C201.023 113.906 200.93 113.999 200.816 113.999C200.701 113.999 200.608 113.906 200.608 113.792V111.429H197.133V119.255C197.133 119.37 197.04 119.463 196.925 119.463Z" fill="black"/>
<path d="M253.524 103.999H206.844V119.255H253.524V103.999Z" fill="#E2EAFF"/>
<path d="M215.349 108.658H210.852V115.683H215.349V108.658Z" fill="white"/>
<path d="M222.183 108.658H217.686V115.683H222.183V108.658Z" fill="white"/>
<path d="M229.016 108.658H224.519V115.683H229.016V108.658Z" fill="white"/>
<path d="M236.021 108.658H231.523V115.683H236.021V108.658Z" fill="white"/>
<path d="M243.086 108.658H238.589V115.683H243.086V108.658Z" fill="white"/>
<path d="M249.921 108.658H245.423V115.683H249.921V108.658Z" fill="white"/>
</svg>
