<svg width="179" height="32" viewBox="0 0 179 32" fill="none" xmlns="http://www.w3.org/2000/svg">
<path d="M49.0783 10.1968C48.9972 9.37838 48.6488 8.74256 48.0333 8.28937C47.4177 7.83617 46.5824 7.60958 45.5272 7.60958C44.8102 7.60958 44.2048 7.71104 43.711 7.91396C43.2173 8.11012 42.8385 8.38406 42.5747 8.73579C42.3176 9.08753 42.1891 9.48661 42.1891 9.93303C42.1756 10.3051 42.2534 10.6297 42.4225 10.9071C42.5984 11.1844 42.8385 11.4245 43.1429 11.6274C43.4472 11.8236 43.799 11.9961 44.1981 12.1449C44.5971 12.2869 45.0233 12.4087 45.4765 12.5101L47.3433 12.9566C48.2497 13.1595 49.0817 13.4301 49.8393 13.7683C50.5969 14.1065 51.253 14.5225 51.8076 15.0162C52.3623 15.51 52.7918 16.0917 53.0962 16.7614C53.4073 17.431 53.5663 18.1987 53.5731 19.0645C53.5663 20.3362 53.2416 21.4387 52.599 22.3722C51.9632 23.2988 51.0433 24.0192 49.8393 24.5333C48.642 25.0406 47.1979 25.2942 45.5069 25.2942C43.8294 25.2942 42.3684 25.0372 41.1238 24.5231C39.886 24.0091 38.9187 23.2481 38.222 22.2403C37.5321 21.2256 37.1702 19.9709 37.1364 18.4761H41.3876C41.4349 19.1728 41.6345 19.7545 41.9862 20.2212C42.3447 20.6811 42.8216 21.0295 43.4168 21.2662C44.0188 21.4962 44.6986 21.6112 45.4562 21.6112C46.2002 21.6112 46.8462 21.503 47.3941 21.2865C47.9487 21.0701 48.3782 20.7691 48.6826 20.3835C48.987 19.998 49.1392 19.5549 49.1392 19.0544C49.1392 18.5877 49.0005 18.1953 48.7232 17.8774C48.4527 17.5595 48.0536 17.289 47.526 17.0657C47.0051 16.8425 46.3659 16.6396 45.6084 16.457L43.3458 15.8888C41.5939 15.4627 40.2106 14.7964 39.196 13.89C38.1814 12.9836 37.6775 11.7627 37.6843 10.2273C37.6775 8.96915 38.0123 7.86999 38.6887 6.92979C39.3719 5.98958 40.3087 5.25568 41.4992 4.72808C42.6897 4.20049 44.0425 3.93669 45.5576 3.93669C47.0998 3.93669 48.4459 4.20049 49.5958 4.72808C50.7524 5.25568 51.6521 5.98958 52.2946 6.92979C52.9372 7.86999 53.2687 8.95901 53.289 10.1968H49.0783ZM56.4469 25V9.41558H60.7692V25H56.4469ZM58.6182 7.40665C57.9756 7.40665 57.4243 7.19359 56.9644 6.76745C56.5112 6.33455 56.2846 5.8171 56.2846 5.2151C56.2846 4.61986 56.5112 4.10917 56.9644 3.68303C57.4243 3.25013 57.9756 3.03368 58.6182 3.03368C59.2608 3.03368 59.8087 3.25013 60.2619 3.68303C60.7218 4.10917 60.9518 4.61986 60.9518 5.2151C60.9518 5.8171 60.7218 6.33455 60.2619 6.76745C59.8087 7.19359 59.2608 7.40665 58.6182 7.40665ZM71.2526 31.1688C69.8525 31.1688 68.6519 30.9761 67.6508 30.5905C66.6565 30.2117 65.8651 29.6943 65.2766 29.0381C64.6881 28.382 64.3059 27.6448 64.1301 26.8263L68.1276 26.2886C68.2494 26.5997 68.4422 26.8906 68.706 27.1611C68.9698 27.4317 69.3181 27.6481 69.751 27.8105C70.1907 27.9796 70.725 28.0641 71.3541 28.0641C72.2943 28.0641 73.0688 27.8341 73.6776 27.3742C74.2931 26.921 74.6009 26.16 74.6009 25.0913V22.2403H74.4182C74.2288 22.6732 73.9447 23.0824 73.566 23.4679C73.1872 23.8535 72.7002 24.168 72.1049 24.4115C71.5097 24.655 70.7994 24.7768 69.9742 24.7768C68.804 24.7768 67.7387 24.5062 66.7782 23.9651C65.8245 23.4172 65.0635 22.5818 64.4953 21.459C63.9339 20.3294 63.6532 18.9022 63.6532 17.1774C63.6532 15.4119 63.9407 13.9374 64.5156 12.7537C65.0906 11.5699 65.8549 10.6838 66.8086 10.0954C67.7691 9.5069 68.821 9.21266 69.9641 9.21266C70.8367 9.21266 71.5672 9.36147 72.1556 9.65909C72.7441 9.94994 73.2176 10.3152 73.5761 10.7549C73.9414 11.1878 74.2221 11.6139 74.4182 12.0333H74.5806V9.41558H78.8724V25.1522C78.8724 26.4779 78.5477 27.5873 77.8983 28.4801C77.249 29.373 76.3494 30.0426 75.1995 30.489C74.0563 30.9422 72.7407 31.1688 71.2526 31.1688ZM71.344 21.53C72.0407 21.53 72.6291 21.3575 73.1094 21.0126C73.5964 20.6608 73.9684 20.1603 74.2254 19.511C74.4892 18.8548 74.6211 18.0702 74.6211 17.1571C74.6211 16.2439 74.4926 15.4525 74.2356 14.7829C73.9786 14.1065 73.6065 13.5822 73.1195 13.2102C72.6325 12.8382 72.0407 12.6522 71.344 12.6522C70.6337 12.6522 70.0351 12.845 69.5481 13.2305C69.0611 13.6093 68.6924 14.1369 68.4422 14.8133C68.1919 15.4897 68.0668 16.271 68.0668 17.1571C68.0668 18.0567 68.1919 18.8346 68.4422 19.4907C68.6992 20.14 69.0678 20.6439 69.5481 21.0024C70.0351 21.3542 70.6337 21.53 71.344 21.53ZM86.6341 15.9903V25H82.3119V9.41558H86.4312V12.1652H86.6138C86.9588 11.2588 87.5371 10.5418 88.3488 10.0142C89.1605 9.47984 90.1447 9.21266 91.3013 9.21266C92.3836 9.21266 93.3272 9.4494 94.1321 9.92289C94.937 10.3964 95.5627 11.0728 96.0091 11.9521C96.4556 12.8247 96.6788 13.8663 96.6788 15.0771V25H92.3565V15.8482C92.3633 14.8945 92.1198 14.1504 91.626 13.6161C91.1322 13.0749 90.4525 12.8044 89.5867 12.8044C89.0049 12.8044 88.4909 12.9295 88.0444 13.1798C87.6048 13.4301 87.2598 13.7953 87.0095 14.2756C86.766 14.7491 86.6409 15.3206 86.6341 15.9903ZM110.079 18.3644V9.41558H114.401V25H110.252V22.1692H110.089C109.738 23.0824 109.153 23.8163 108.334 24.3709C107.522 24.9256 106.531 25.2029 105.361 25.2029C104.32 25.2029 103.403 24.9662 102.612 24.4927C101.82 24.0192 101.201 23.3462 100.755 22.4736C100.315 21.6011 100.092 20.556 100.085 19.3385V9.41558H104.408V18.5674C104.414 19.4873 104.661 20.2144 105.148 20.7488C105.635 21.2831 106.288 21.5503 107.106 21.5503C107.627 21.5503 108.114 21.432 108.567 21.1952C109.021 20.9517 109.386 20.5932 109.663 20.1197C109.947 19.6462 110.086 19.0611 110.079 18.3644ZM117.859 25V9.41558H122.049V12.1347H122.211C122.496 11.1675 122.972 10.437 123.642 9.94318C124.312 9.44264 125.083 9.19237 125.955 9.19237C126.172 9.19237 126.405 9.2059 126.655 9.23295C126.906 9.26001 127.126 9.29721 127.315 9.34456V13.1798C127.112 13.1189 126.831 13.0648 126.473 13.0175C126.114 12.9701 125.786 12.9464 125.489 12.9464C124.853 12.9464 124.285 13.0851 123.784 13.3624C123.29 13.633 122.898 14.0118 122.607 14.4988C122.323 14.9858 122.181 15.5472 122.181 16.183V25H117.859Z" fill="#3018CC"/>
<path d="M135.82 25.3247C134.542 25.3247 133.422 24.9865 132.462 24.3101C131.501 23.6337 130.75 22.6901 130.209 21.4793C129.675 20.2685 129.408 18.8582 129.408 17.2484C129.408 15.6453 129.675 14.2417 130.209 13.0377C130.75 11.827 131.504 10.8868 132.472 10.2171C133.439 9.54072 134.565 9.20252 135.85 9.20252C136.797 9.20252 137.585 9.37162 138.214 9.70982C138.843 10.0413 139.347 10.4539 139.726 10.9476C140.105 11.4414 140.399 11.9217 140.609 12.3884H140.771V4.22078H142.587V25H140.822V22.1084H140.609C140.399 22.5818 140.102 23.0689 139.716 23.5694C139.33 24.0632 138.82 24.4792 138.184 24.8174C137.555 25.1556 136.767 25.3247 135.82 25.3247ZM136.033 23.6709C137.041 23.6709 137.9 23.3969 138.61 22.849C139.32 22.2944 139.861 21.5334 140.233 20.5662C140.612 19.5921 140.802 18.4761 140.802 17.2179C140.802 15.9733 140.616 14.8742 140.244 13.9205C139.872 12.96 139.33 12.2091 138.62 11.668C137.91 11.1201 137.048 10.8462 136.033 10.8462C134.991 10.8462 134.112 11.1303 133.395 11.6985C132.685 12.2599 132.144 13.0208 131.772 13.9813C131.406 14.9418 131.224 16.0207 131.224 17.2179C131.224 18.4287 131.41 19.5211 131.782 20.4951C132.154 21.4692 132.695 22.2436 133.405 22.8186C134.122 23.3868 134.998 23.6709 136.033 23.6709ZM153.789 25.3247C152.443 25.3247 151.252 24.9831 150.217 24.2999C149.189 23.6167 148.384 22.6732 147.802 21.4692C147.221 20.2584 146.93 18.8616 146.93 17.2788C146.93 15.6825 147.221 14.2789 147.802 13.0682C148.384 11.8506 149.189 10.9037 150.217 10.2273C151.252 9.5441 152.443 9.20252 153.789 9.20252C155.135 9.20252 156.322 9.5441 157.35 10.2273C158.378 10.9104 159.183 11.8574 159.765 13.0682C160.353 14.2789 160.647 15.6825 160.647 17.2788C160.647 18.8616 160.357 20.2584 159.775 21.4692C159.193 22.6732 158.385 23.6167 157.35 24.2999C156.322 24.9831 155.135 25.3247 153.789 25.3247ZM153.789 23.6709C154.871 23.6709 155.787 23.38 156.538 22.7983C157.289 22.2166 157.857 21.4421 158.243 20.4748C158.635 19.5076 158.831 18.4422 158.831 17.2788C158.831 16.1154 158.635 15.0467 158.243 14.0726C157.857 13.0986 157.289 12.3174 156.538 11.7289C155.787 11.1404 154.871 10.8462 153.789 10.8462C152.713 10.8462 151.797 11.1404 151.039 11.7289C150.288 12.3174 149.717 13.0986 149.324 14.0726C148.939 15.0467 148.746 16.1154 148.746 17.2788C148.746 18.4422 148.939 19.5076 149.324 20.4748C149.717 21.4421 150.288 22.2166 151.039 22.7983C151.79 23.38 152.706 23.6709 153.789 23.6709ZM170.7 25.3247C169.306 25.3247 168.092 24.9763 167.057 24.2796C166.029 23.5829 165.231 22.6292 164.663 21.4184C164.095 20.2077 163.81 18.8278 163.81 17.2788C163.81 15.7163 164.098 14.3263 164.673 13.1088C165.255 11.8912 166.06 10.9375 167.088 10.2476C168.116 9.55086 169.31 9.20252 170.669 9.20252C171.711 9.20252 172.654 9.40544 173.5 9.81128C174.346 10.2104 175.042 10.7752 175.59 11.5057C176.145 12.2294 176.493 13.0749 176.635 14.0422H174.809C174.619 13.1629 174.163 12.4121 173.439 11.7898C172.722 11.1607 171.809 10.8462 170.7 10.8462C169.705 10.8462 168.826 11.1167 168.062 11.6579C167.297 12.1922 166.699 12.9397 166.266 13.9002C165.84 14.8539 165.627 15.9598 165.627 17.2179C165.627 18.4828 165.836 19.6023 166.256 20.5763C166.675 21.5436 167.264 22.3011 168.021 22.849C168.785 23.3969 169.678 23.6709 170.7 23.6709C171.39 23.6709 172.019 23.5423 172.587 23.2853C173.162 23.0215 173.642 22.6495 174.028 22.1692C174.42 21.689 174.684 21.1174 174.819 20.4545H176.645C176.51 21.3948 176.175 22.2335 175.641 22.9708C175.113 23.7013 174.427 24.2762 173.581 24.6956C172.742 25.115 171.782 25.3247 170.7 25.3247Z" fill="#3D3D3D"/>
<path fill-rule="evenodd" clip-rule="evenodd" d="M31.4268 6.50282C30.7534 7.87645 30.0776 9.24867 29.4076 10.6241C28.3651 12.7636 27.3277 14.9054 26.2862 17.0451C26.0661 17.4971 25.7505 17.6715 25.3662 17.5659C24.9727 17.4576 24.7485 17.0887 24.849 16.6917C24.8862 16.5448 24.9473 16.402 25.0135 16.2653C26.1581 13.9029 27.3049 11.5417 28.4511 9.18005C28.5044 9.07068 28.5552 8.9605 28.6251 8.81299C28.438 8.72137 28.2604 8.6344 28.0572 8.53471C28.0013 8.64287 27.9488 8.73893 27.901 8.8374C25.1883 14.4237 22.4743 20.0095 19.7656 25.5976C19.5737 25.994 19.3166 26.3162 18.9566 26.5755C17.8118 27.4003 16.6755 28.2371 15.5416 29.077C15.1521 29.3654 14.7312 29.5385 14.244 29.5714C14.1423 29.5783 14.0166 29.6777 13.9571 29.7702C13.8305 29.9665 13.752 30.1931 13.6324 30.3945C13.4146 30.7602 12.9931 30.8863 12.6559 30.7023C12.2928 30.5043 12.157 30.0967 12.3239 29.7034C12.3399 29.6658 12.3554 29.6273 12.377 29.593C12.6369 29.1817 12.7955 28.7923 12.426 28.3277C12.2854 28.151 12.2789 27.8426 12.268 27.5918C12.2032 26.0997 12.1409 24.6074 12.1126 23.1143C12.1066 22.7898 12.1819 22.433 12.3229 22.1408C15.5559 15.4446 18.7996 8.75366 22.0505 2.06612C22.8303 0.461836 24.7318 -0.333647 26.5903 0.131898C28.3928 0.583115 29.6601 2.06592 29.8058 3.9063C29.857 4.55568 29.6794 5.16168 29.4054 5.74245C29.1798 6.22071 28.9463 6.69533 28.7052 7.19458C28.8987 7.28821 29.0706 7.37155 29.2803 7.47306C29.5218 6.98108 29.7537 6.49717 29.9959 6.01831C30.1755 5.66314 30.4981 5.50937 30.8525 5.58747C31.1558 5.65467 31.2977 5.88734 31.4272 6.13474C31.4268 6.25723 31.4268 6.37992 31.4268 6.50282ZM25.0464 11.2961C23.4587 10.5285 21.9014 9.77556 20.3409 9.02144C20.303 9.08158 20.2781 9.11387 20.2608 9.14999C18.1125 13.5766 15.9659 18.004 13.8118 22.4276C13.7226 22.6106 13.7825 22.6984 13.9042 22.8155C15.0902 23.955 16.4922 24.6466 18.1209 24.8909C18.3554 24.9262 18.4606 24.8778 18.5633 24.6633C19.4195 22.8774 20.2894 21.0984 21.1543 19.3169C22.4473 16.6538 23.7392 13.9905 25.0464 11.2961ZM25.6962 9.94809C25.7563 9.83024 25.8039 9.74105 25.8481 9.65004C26.5665 8.17127 27.2708 6.68565 28.0074 5.21616C28.414 4.40514 28.4158 3.62883 27.9492 2.85575C27.379 1.91033 26.4977 1.47687 25.4322 1.49241C24.4432 1.50674 23.7176 2.02374 23.2815 2.92194C22.5588 4.40999 21.8378 5.89844 21.1166 7.38709C21.0738 7.47528 21.0377 7.56649 20.9917 7.67183C22.5645 8.4328 24.1165 9.18369 25.6962 9.94809ZM13.6378 24.5679C13.6378 24.7323 13.6346 24.8304 13.6382 24.9281C13.6699 25.7651 13.7058 26.6024 13.7329 27.4396C13.7405 27.6765 13.7734 27.9017 14.0063 28.0133C14.2458 28.1282 14.4571 28.0271 14.6575 27.8789C15.3555 27.3625 16.058 26.8526 16.7578 26.3384C16.8107 26.2995 16.8543 26.2478 16.9307 26.1744C15.7177 25.8608 14.6527 25.3246 13.6378 24.5679Z" fill="#3D3D3D"/>
<path fill-rule="evenodd" clip-rule="evenodd" d="M0.000201686 9.75574C0.266573 9.29201 0.651601 9.19031 1.16578 9.29645C2.40562 9.55253 3.66039 9.73859 4.89619 10.0118C6.18204 10.2962 7.4017 10.7617 8.43349 11.6203C9.98349 12.9098 10.3895 14.5642 9.97965 16.4786C9.68745 17.8429 9.06814 19.0753 8.43167 20.2988C7.54074 22.0109 6.62216 23.7086 5.7397 25.425C5.36496 26.1537 5.11837 26.9343 5.0098 27.7532C4.92525 28.3909 5.12765 28.7668 5.71488 29.0247C6.5592 29.3952 7.46143 29.4214 8.36023 29.4501C8.88147 29.4666 9.40332 29.4495 9.92496 29.4559C10.3675 29.4612 10.6795 29.7485 10.7027 30.157C10.7257 30.563 10.4327 30.9194 9.996 30.9242C8.57676 30.9391 7.14885 31.0182 5.76089 30.6189C4.81204 30.3457 4.0099 29.8761 3.64808 28.8814C3.4027 28.2068 3.50501 27.5322 3.65393 26.8586C3.89649 25.7612 4.36143 24.7494 4.87783 23.7624C5.76311 22.0702 6.6833 20.3961 7.56213 18.7006C8.0087 17.8393 8.37819 16.9437 8.56082 15.9783C8.86089 14.391 8.25994 13.1104 6.84918 12.3234C5.70519 11.6851 4.45789 11.3943 3.18697 11.1697C2.35214 11.0222 1.51791 10.8711 0.681266 10.7336C0.341844 10.678 0.162244 10.4485 0 10.1856C0.000201797 10.0423 0.000201686 9.89902 0.000201686 9.75574Z" fill="#644BFD"/>
</svg>
