<svg width="202" height="107" viewBox="0 0 202 107" fill="none" xmlns="http://www.w3.org/2000/svg">
<path d="M18.3392 77.3015C18.2272 76.1556 17.7408 75.2647 16.8799 74.629C16.0191 73.9933 14.85 73.6744 13.3728 73.6723C12.369 73.6709 11.5212 73.8118 10.8295 74.0949C10.1379 74.3685 9.60701 74.7513 9.237 75.2432C8.87645 75.7351 8.69573 76.2935 8.69485 76.9185C8.67517 77.4393 8.78342 77.894 9.01962 78.2826C9.26528 78.6712 9.60097 79.0079 10.0267 79.2926C10.4525 79.5678 10.9445 79.81 11.5029 80.0191C12.0614 80.2188 12.6577 80.3901 13.292 80.533L15.9047 81.1617C17.1733 81.4476 18.3375 81.8281 19.3974 82.3031C20.4574 82.778 21.3751 83.3617 22.1506 84.0541C22.9262 84.7465 23.5263 85.5618 23.9511 86.4999C24.3854 87.438 24.6064 88.5131 24.6142 89.7252C24.6022 91.5055 24.1455 93.0484 23.244 94.354C22.352 95.6501 21.0627 96.6568 19.376 97.3741C17.6989 98.0819 15.6766 98.4342 13.3092 98.4308C10.9607 98.4275 8.91578 98.0647 7.17438 97.3425C5.44245 96.6204 4.08979 95.5531 3.11642 94.1408C2.15253 92.7189 1.64839 90.9616 1.60401 88.8687L7.55571 88.8772C7.62061 89.8526 7.89881 90.6674 8.39031 91.3215C8.89129 91.9662 9.55821 92.4548 10.3911 92.7874C11.2334 93.1106 12.1849 93.2729 13.2455 93.2744C14.2872 93.2759 15.1917 93.1257 15.9592 92.8238C16.7362 92.5218 17.3381 92.1013 17.765 91.5621C18.1919 91.0229 18.4058 90.403 18.4068 89.7022C18.4078 89.0488 18.2144 88.4993 17.8268 88.0537C17.4486 87.6081 16.8904 87.2285 16.1523 86.9149C15.4235 86.6014 14.5291 86.316 13.4688 86.0588L10.3023 85.2589C7.85053 84.6588 5.9153 83.7233 4.49665 82.4524C3.07799 81.1814 2.37493 79.4711 2.38745 77.3215C2.38048 75.5601 2.85141 74.022 3.80025 72.707C4.75856 71.3921 6.07157 70.3665 7.73928 69.6302C9.407 68.894 11.3015 68.5273 13.4227 68.5304C15.5818 68.5334 17.4657 68.9054 19.0745 69.6463C20.6928 70.3873 21.9508 71.4165 22.8485 72.7341C23.7463 74.0516 24.2081 75.5769 24.2341 77.3099L18.3392 77.3015ZM28.6258 98.0406L28.6568 76.2224L34.7079 76.231L34.677 98.0492L28.6258 98.0406ZM31.7006 73.4143C30.8009 73.413 30.0296 73.1136 29.3865 72.5161C28.7529 71.9091 28.4367 71.1842 28.4379 70.3414C28.439 69.5081 28.7573 68.7936 29.3926 68.1979C30.0374 67.5928 30.8096 67.2908 31.7092 67.2921C32.6089 67.2934 33.3755 67.5975 34.0091 68.2045C34.6522 68.802 34.9731 69.5174 34.972 70.3507C34.9708 71.1935 34.6478 71.9175 34.003 72.5226C33.3676 73.1183 32.6002 73.4155 31.7006 73.4143ZM49.3415 106.706C47.3813 106.704 45.7008 106.431 44.3001 105.89C42.9088 105.357 41.8018 104.631 40.9793 103.712C40.1567 102.792 39.6232 101.759 39.3786 100.613L44.9762 99.8678C45.1461 100.304 45.4154 100.711 45.7842 101.091C46.1529 101.47 46.6402 101.774 47.2459 102.002C47.8611 102.239 48.6091 102.359 49.4897 102.36C50.806 102.362 51.8908 102.041 52.7439 101.399C53.6066 100.765 54.039 99.7007 54.0411 98.2045L54.0468 94.213L53.7911 94.2127C53.5251 94.8184 53.1265 95.3907 52.5955 95.9297C52.0644 96.4688 51.3819 96.9081 50.5481 97.2479C49.7143 97.5876 48.7198 97.7566 47.5645 97.755C45.9262 97.7527 44.4353 97.3718 43.0916 96.6123C41.7575 95.8433 40.6938 94.6723 39.9006 93.0992C39.1169 91.5167 38.7267 89.518 38.7301 87.1032C38.7336 84.6316 39.139 82.5678 39.9463 80.9118C40.7536 79.2557 41.8254 78.0167 43.1618 77.1947C44.5077 76.3728 45.9808 75.9629 47.5812 75.9652C48.8028 75.9669 49.8252 76.1767 50.6485 76.5946C51.4718 77.0029 52.1339 77.5152 52.6349 78.1315C53.1454 78.7383 53.5376 79.3354 53.8114 79.9229L54.0386 79.9232L54.0438 76.2585L60.0524 76.267L60.0211 98.2982C60.0184 100.154 59.5617 101.707 58.6508 102.955C57.74 104.204 56.4792 105.14 54.8684 105.763C53.2672 106.395 51.4249 106.709 49.3415 106.706ZM49.4885 93.2123C50.4639 93.2136 51.2881 92.9733 51.9611 92.4913C52.6437 91.9999 53.1655 91.2999 53.5266 90.3913C53.8972 89.4732 54.0835 88.375 54.0853 87.0966C54.0871 85.8182 53.9087 84.71 53.5502 83.772C53.1917 82.8245 52.6719 82.0899 51.9908 81.5681C51.3098 81.0463 50.4815 80.7847 49.5062 80.7833C48.5118 80.7819 47.6734 81.0506 46.9908 81.5894C46.3082 82.1187 45.7911 82.8566 45.4394 83.8031C45.0876 84.7496 44.9109 85.8431 44.9091 87.0836C44.9074 88.3431 45.081 89.4323 45.4301 90.3514C45.7886 91.261 46.3037 91.9672 46.9754 92.4701C47.6565 92.9634 48.4942 93.2108 49.4885 93.2123ZM70.9058 85.487L70.8879 98.1006L64.8367 98.092L64.8677 76.2738L70.6347 76.282L70.6293 80.1315L70.8849 80.1318C71.3697 78.8636 72.1808 77.8609 73.3182 77.1239C74.4556 76.3774 75.834 76.0053 77.4533 76.0076C78.9685 76.0098 80.289 76.3431 81.415 77.0076C82.5409 77.672 83.4155 78.6202 84.0388 79.8522C84.662 81.0747 84.9725 82.5334 84.9701 84.2285L84.9503 98.1206L78.8992 98.112L78.9174 85.2995C78.9288 83.9643 78.5893 82.9221 77.8991 82.173C77.2089 81.4145 76.2577 81.0343 75.0456 81.0326C74.2312 81.0315 73.5113 81.2056 72.8858 81.5551C72.2697 81.9046 71.7861 82.4153 71.4347 83.0871C71.0929 83.7495 70.9166 84.5495 70.9058 85.487ZM103.724 88.8574L103.742 76.329L109.793 76.3376L109.762 98.1558L103.952 98.1475L103.958 94.1845L103.731 94.1841C103.237 95.4618 102.416 96.4881 101.269 97.263C100.132 98.0379 98.7437 98.4242 97.1055 98.4219C95.6471 98.4198 94.3645 98.0866 93.2574 97.4221C92.1504 96.7577 91.2853 95.8142 90.662 94.5917C90.0482 93.3693 89.7378 91.9058 89.7308 90.2012L89.7505 76.3092L95.8016 76.3178L95.7834 89.1302C95.7911 90.4181 96.1353 91.4366 96.816 92.1857C97.4968 92.9348 98.4101 93.3101 99.5559 93.3117C100.285 93.3128 100.967 93.148 101.602 92.8175C102.237 92.4775 102.749 91.9763 103.138 91.314C103.537 90.6517 103.732 89.8328 103.724 88.8574ZM114.602 98.1626L114.633 76.3445L120.5 76.3528L120.494 80.1596L120.722 80.1599C121.121 78.8063 121.79 77.7846 122.729 77.0946C123.667 76.3952 124.747 76.0463 125.969 76.0481C126.272 76.0485 126.599 76.0679 126.949 76.1063C127.299 76.1447 127.607 76.1972 127.872 76.2638L127.864 81.6332C127.58 81.5475 127.188 81.4712 126.686 81.4042C126.184 81.3372 125.725 81.3034 125.308 81.3028C124.418 81.3016 123.622 81.4946 122.921 81.8818C122.229 82.2596 121.679 82.7892 121.271 83.4704C120.872 84.1516 120.672 84.9373 120.671 85.8275L120.653 98.1712L114.602 98.1626Z" fill="#3018CC"/>
<path d="M139.747 98.6529C137.957 98.6503 136.391 98.1746 135.048 97.2258C133.704 96.2769 132.655 94.9544 131.9 93.2582C131.154 91.5621 130.783 89.5871 130.786 87.3333C130.789 85.089 131.166 83.1246 131.917 81.44C132.677 79.746 133.734 78.4313 135.09 77.4957C136.445 76.5506 138.023 76.0794 139.822 76.0819C141.148 76.0838 142.251 76.3221 143.131 76.7969C144.011 77.2621 144.715 77.8408 145.245 78.5328C145.774 79.2249 146.185 79.8978 146.477 80.5516L146.705 80.5519L146.721 69.1173L149.264 69.1209L149.222 98.2118L146.751 98.2083L146.756 94.16L146.458 94.1596C146.164 94.822 145.746 95.5033 145.205 96.2032C144.664 96.8938 143.949 97.4751 143.058 97.9474C142.177 98.4196 141.073 98.6548 139.747 98.6529ZM140.049 96.338C141.46 96.34 142.663 95.9582 143.658 95.1925C144.654 94.4174 145.413 93.3532 145.936 91.9997C146.468 90.6368 146.735 89.0747 146.738 87.3134C146.74 85.5709 146.482 84.0317 145.963 82.6958C145.444 81.3503 144.688 80.2981 143.695 79.5391C142.702 78.7707 141.495 78.3855 140.074 78.3834C138.616 78.3814 137.384 78.7774 136.379 79.5714C135.384 80.356 134.625 81.4202 134.102 82.7642C133.589 84.1081 133.331 85.6182 133.329 87.2943C133.326 88.9894 133.585 90.5191 134.103 91.8835C134.622 93.2479 135.378 94.3332 136.372 95.1396C137.374 95.9364 138.6 96.3359 140.049 96.338ZM164.903 98.6886C163.019 98.6859 161.353 98.2053 159.905 97.2468C158.467 96.2884 157.342 94.9657 156.53 93.279C155.718 91.5827 155.314 89.6267 155.317 87.4108C155.32 85.1759 155.73 83.2115 156.547 81.5176C157.364 79.8142 158.493 78.4901 159.933 77.5452C161.384 76.5908 163.051 76.1149 164.935 76.1176C166.82 76.1203 168.481 76.6008 169.919 77.5593C171.357 78.5178 172.482 79.8452 173.294 81.5414C174.116 83.2376 174.525 85.2032 174.522 87.438C174.519 89.6539 174.109 91.6088 173.292 93.3028C172.475 94.9872 171.341 96.3066 169.891 97.261C168.451 98.2154 166.788 98.6913 164.903 98.6886ZM164.907 96.3733C166.422 96.3754 167.706 95.97 168.758 95.1571C169.81 94.3442 170.607 93.2611 171.149 91.9077C171.7 90.5543 171.977 89.0632 171.979 87.4344C171.981 85.8056 171.709 84.309 171.162 82.9446C170.624 81.5802 169.83 80.4853 168.78 79.66C167.73 78.8346 166.447 78.4209 164.932 78.4187C163.427 78.4166 162.143 78.8267 161.081 79.6491C160.029 80.4714 159.227 81.564 158.676 82.9269C158.134 84.2898 157.862 85.7856 157.86 87.4144C157.857 89.0432 158.125 90.535 158.663 91.89C159.21 93.2449 160.009 94.3303 161.059 95.1462C162.109 95.9621 163.392 96.3711 164.907 96.3733ZM188.579 98.7222C186.628 98.7194 184.929 98.2293 183.481 97.2519C182.043 96.2745 180.928 94.9377 180.135 93.2415C179.342 91.5453 178.947 89.6129 178.95 87.4443C178.953 85.2568 179.358 83.3114 180.166 81.608C180.982 79.9046 182.111 78.571 183.552 77.6071C184.993 76.6338 186.665 76.1484 188.568 76.1511C190.027 76.1532 191.347 76.4392 192.53 77.009C193.713 77.5694 194.687 78.3615 195.453 79.3853C196.228 80.3997 196.714 81.5841 196.911 82.9386L194.354 82.9349C194.091 81.7035 193.453 80.6514 192.441 79.7788C191.438 78.8967 190.161 78.4545 188.608 78.4523C187.216 78.4504 185.984 78.8274 184.913 79.5835C183.842 80.33 183.002 81.3752 182.394 82.7191C181.796 84.0535 181.495 85.6013 181.493 87.3627C181.49 89.1335 181.782 90.7012 182.367 92.0656C182.952 93.4206 183.774 94.4824 184.834 95.251C185.903 96.0195 187.152 96.4048 188.582 96.4069C189.548 96.4082 190.429 96.2296 191.225 95.8708C192.03 95.5027 192.703 94.9828 193.244 94.3112C193.794 93.6396 194.165 92.84 194.356 91.9122L196.912 91.9158C196.721 93.2319 196.251 94.4054 195.501 95.4366C194.761 96.4582 193.799 97.2618 192.614 97.8472C191.439 98.4327 190.094 98.7243 188.579 98.7222Z" fill="#3D3D3D"/>
<path fill-rule="evenodd" clip-rule="evenodd" d="M127.039 11.1431C125.901 13.4572 124.758 15.769 123.625 18.0862C121.863 21.6905 120.109 25.2989 118.348 28.9035C117.975 29.665 117.443 29.9582 116.795 29.7794C116.132 29.5957 115.755 28.9733 115.926 28.3044C115.989 28.0568 116.092 27.8161 116.204 27.5859C118.139 23.606 120.078 19.628 122.016 15.6494C122.106 15.4651 122.192 15.2795 122.31 15.031C121.995 14.8761 121.696 14.729 121.354 14.5605C121.259 14.7427 121.171 14.9045 121.09 15.0704C116.503 24.4817 111.914 33.8919 107.334 43.3063C107.01 43.974 106.576 44.5167 105.968 44.953C104.036 46.3406 102.119 47.7487 100.205 49.1619C99.5477 49.6471 98.8376 49.938 98.0163 49.9923C97.8448 50.0036 97.6326 50.171 97.532 50.3267C97.3183 50.6574 97.1854 51.0393 96.9832 51.3785C96.6152 51.9944 95.9042 52.206 95.3362 51.895C94.7247 51.5604 94.4967 50.8728 94.779 50.2102C94.8059 50.147 94.8322 50.082 94.8687 50.0242C95.3079 49.3315 95.5762 48.6753 94.9544 47.8913C94.7177 47.5929 94.7076 47.0731 94.6898 46.6502C94.5841 44.1346 94.4826 41.6187 94.4385 39.1015C94.4291 38.5544 94.5569 37.9531 94.7954 37.4608C100.262 26.1797 105.746 14.9075 111.243 3.641C112.561 0.938271 115.769 -0.398249 118.901 0.39104C121.938 1.15604 124.071 3.65887 124.313 6.76184C124.397 7.85673 124.097 8.87792 123.633 9.85637C123.252 10.6621 122.857 11.4617 122.449 12.3028C122.775 12.4611 123.065 12.602 123.418 12.7736C123.827 11.9448 124.219 11.1295 124.628 10.3228C124.932 9.72451 125.476 9.46605 126.073 9.59855C126.584 9.71257 126.823 10.1052 127.041 10.5226C127.04 10.7291 127.04 10.9359 127.039 11.1431ZM116.271 19.2086C113.596 17.9107 110.973 16.6377 108.344 15.3626C108.28 15.4639 108.238 15.5183 108.209 15.5791C104.576 23.0366 100.947 30.4955 97.3047 37.9478C97.1539 38.2562 97.2547 38.4043 97.4596 38.6019C99.4562 40.5259 101.818 41.6951 104.563 42.111C104.959 42.1711 105.136 42.0897 105.31 41.7283C106.757 38.7196 108.228 35.7224 109.691 32.7212C111.877 28.2347 114.061 23.7478 116.271 19.2086ZM117.37 16.9376C117.472 16.7391 117.552 16.5888 117.627 16.4355C118.841 13.9442 120.032 11.4414 121.278 8.96578C121.965 7.59949 121.97 6.29074 121.185 4.98632C120.226 3.39111 118.742 2.65825 116.945 2.6819C115.278 2.70369 114.053 3.57354 113.316 5.08673C112.094 7.59364 110.875 10.1012 109.656 12.6092C109.583 12.7577 109.522 12.9114 109.444 13.0889C112.094 14.3755 114.709 15.6451 117.37 16.9376ZM97.0063 41.5556C97.0059 41.8328 97.0002 41.9982 97.0061 42.1628C97.0575 43.5741 97.1161 44.9856 97.1597 46.3972C97.172 46.7966 97.2269 47.1764 97.6193 47.365C98.0228 47.5592 98.3792 47.3893 98.7174 47.14C99.8954 46.2711 101.081 45.4131 102.262 44.548C102.351 44.4824 102.425 44.3954 102.554 44.2718C100.51 43.7402 98.7154 42.8338 97.0063 41.5556Z" fill="#3D3D3D"/>
<path fill-rule="evenodd" clip-rule="evenodd" d="M74.051 16.5518C74.5012 15.7707 75.1506 15.6001 76.0172 15.7803C78.1068 16.215 80.2218 16.5317 82.3046 16.9953C84.4717 17.4777 86.5268 18.2655 88.2643 19.7155C90.8743 21.8932 91.5549 24.6832 90.8593 27.9098C90.3634 30.2092 89.3164 32.2854 88.2404 34.3466C86.7343 37.2308 85.1816 40.0908 83.6898 42.9825C83.0563 44.2101 82.6387 45.5254 82.4537 46.9057C82.3096 47.9806 82.6499 48.6149 83.6393 49.0511C85.0619 49.6777 86.5829 49.7241 88.0981 49.7746C88.9768 49.8037 89.8566 49.776 90.7361 49.7882C91.4821 49.7981 92.0074 50.2833 92.0456 50.9719C92.0834 51.6565 91.5885 52.2566 90.8523 52.2637C88.4596 52.2855 86.0521 52.4154 83.7131 51.7388C82.114 51.2759 80.7628 50.4823 80.1552 48.8046C79.7431 47.6667 79.9172 46.5296 80.1699 45.3943C80.5815 43.5449 81.3678 41.8402 82.2407 40.1774C83.7373 37.3265 85.2926 34.5064 86.7783 31.65C87.5332 30.1991 88.1583 28.6901 88.4685 27.063C88.9782 24.3876 87.9681 22.2272 85.5916 20.897C83.6645 19.8182 81.5623 19.325 79.4202 18.9433C78.0131 18.6926 76.6071 18.4358 75.1969 18.2021C74.6248 18.1074 74.3226 17.7201 74.0497 17.2765C74.0503 17.0349 74.0507 16.7934 74.051 16.5518Z" fill="#644BFD"/>
</svg>
