<svg width="210" height="192" viewBox="0 0 210 192" fill="none" xmlns="http://www.w3.org/2000/svg">
<path d="M123.846 192C123.82 192 123.794 191.995 123.768 191.985L105.058 184.274C104.954 184.231 104.904 184.111 104.947 184.006C104.99 183.902 105.11 183.851 105.215 183.895L123.735 191.527L133.24 168.643C133.283 168.539 133.404 168.489 133.508 168.532C133.613 168.576 133.662 168.696 133.619 168.8L124.035 191.873C124.003 191.952 123.926 192 123.846 192Z" fill="black"/>
<path d="M117.701 159.568L111.738 162.333L103.918 181.159L122.345 188.753L132 165.507L117.701 159.568Z" fill="white"/>
<path d="M122.345 188.957C122.319 188.957 122.292 188.952 122.267 188.942L103.84 181.349C103.79 181.329 103.75 181.288 103.729 181.238C103.708 181.188 103.708 181.132 103.729 181.081L111.549 162.255C111.569 162.207 111.605 162.169 111.652 162.148L117.614 159.382C117.666 159.358 117.726 159.356 117.779 159.378L132.078 165.318C132.183 165.361 132.232 165.481 132.189 165.586L122.533 188.831C122.501 188.91 122.425 188.957 122.345 188.957ZM104.186 181.049L122.234 188.485L131.732 165.617L117.705 159.791L111.897 162.485L104.186 181.049Z" fill="black"/>
<path d="M111.739 162.333L115.929 163.959L117.701 159.568L111.739 162.333Z" fill="#644BFD"/>
<path d="M115.928 164.164C115.903 164.164 115.878 164.159 115.854 164.15L111.664 162.524C111.587 162.495 111.536 162.422 111.533 162.34C111.53 162.258 111.577 162.182 111.652 162.148L117.614 159.382C117.69 159.346 117.78 159.361 117.841 159.419C117.903 159.477 117.921 159.566 117.891 159.644L116.118 164.035C116.086 164.115 116.01 164.164 115.928 164.164ZM112.261 162.316L115.815 163.695L117.317 159.971L112.261 162.316Z" fill="black"/>
<path d="M127.108 167.534C127.099 167.534 127.09 167.532 127.082 167.529L123.722 166.134C123.687 166.119 123.671 166.079 123.685 166.044C123.7 166.01 123.74 165.992 123.775 166.008L127.134 167.403C127.169 167.417 127.186 167.457 127.171 167.492C127.16 167.518 127.135 167.534 127.108 167.534Z" fill="black"/>
<path d="M126.654 168.628C126.645 168.628 126.636 168.626 126.628 168.623L121.886 166.653C121.851 166.638 121.834 166.599 121.849 166.564C121.863 166.529 121.903 166.512 121.938 166.526L126.68 168.496C126.715 168.511 126.731 168.551 126.717 168.586C126.706 168.612 126.681 168.628 126.654 168.628Z" fill="black"/>
<path d="M124.643 173.467C124.634 173.467 124.626 173.466 124.617 173.462L112.959 168.62C112.925 168.605 112.908 168.565 112.923 168.53C112.937 168.496 112.977 168.479 113.012 168.494L124.67 173.336C124.704 173.35 124.721 173.39 124.706 173.425C124.696 173.451 124.67 173.467 124.643 173.467Z" fill="black"/>
<path d="M123.158 177.043C123.15 177.043 123.141 177.041 123.132 177.037L111.474 172.195C111.44 172.181 111.423 172.141 111.437 172.106C111.452 172.071 111.492 172.055 111.527 172.069L123.185 176.911C123.22 176.926 123.236 176.966 123.222 177.001C123.211 177.026 123.185 177.043 123.158 177.043Z" fill="black"/>
<path d="M121.673 180.618C121.664 180.618 121.656 180.617 121.647 180.613L109.989 175.77C109.954 175.756 109.937 175.716 109.953 175.681C109.967 175.646 110.007 175.629 110.041 175.644L121.7 180.486C121.734 180.501 121.751 180.541 121.736 180.576C121.725 180.602 121.7 180.618 121.673 180.618Z" fill="black"/>
<path d="M177.035 126.779C176.847 126.779 176.656 126.747 176.472 126.678L175.213 126.213C174.346 125.893 173.91 124.936 174.218 124.035L178.841 110.522C179.023 109.988 179.418 109.547 179.924 109.314C180.413 109.088 180.955 109.071 181.448 109.267L184.521 110.485C185.008 110.678 185.389 111.055 185.593 111.547C185.803 112.054 185.798 112.639 185.577 113.152L180.121 125.802C180.071 125.92 179.934 125.975 179.816 125.924C179.698 125.873 179.643 125.736 179.694 125.618L185.149 112.968C185.324 112.565 185.329 112.124 185.163 111.726C185.008 111.351 184.719 111.064 184.35 110.918L181.277 109.701C180.903 109.552 180.491 109.565 180.118 109.737C179.728 109.917 179.422 110.258 179.28 110.673L174.658 124.186C174.432 124.846 174.746 125.545 175.374 125.777L176.633 126.242C177.252 126.472 177.965 126.137 178.219 125.495L182.384 114.984C182.673 114.255 182.34 113.435 181.64 113.158C181.299 113.023 180.924 113.036 180.585 113.193C180.229 113.357 179.951 113.669 179.822 114.048L176.734 123.128C176.693 123.25 176.561 123.315 176.439 123.273C176.318 123.232 176.253 123.1 176.294 122.978L179.382 113.898C179.551 113.399 179.919 112.988 180.39 112.77C180.847 112.56 181.352 112.544 181.811 112.726C182.749 113.097 183.201 114.188 182.817 115.155L178.652 125.666C178.38 126.351 177.72 126.779 177.035 126.779Z" fill="black"/>
<path d="M155.952 31.5194H153.105V34.3662H155.952V31.5194Z" fill="black"/>
<path d="M155.952 34.5994H153.105C152.977 34.5994 152.872 34.495 152.872 34.3668V31.52C152.872 31.3913 152.977 31.2869 153.105 31.2869H155.952C156.08 31.2869 156.185 31.3913 156.185 31.52V34.3668C156.185 34.495 156.08 34.5994 155.952 34.5994ZM153.338 34.1343H155.72V31.7525H153.338V34.1343Z" fill="black"/>
<path d="M27.5248 56.5831H24.678V59.43H27.5248V56.5831Z" fill="black"/>
<path d="M27.5247 59.6625H24.6779C24.5491 59.6625 24.4453 59.5587 24.4453 59.43V56.5831C24.4453 56.455 24.5491 56.3506 24.6779 56.3506H27.5247C27.6534 56.3506 27.7572 56.455 27.7572 56.5831V59.43C27.7572 59.5587 27.6534 59.6625 27.5247 59.6625ZM24.9104 59.1974H27.2922V56.8157H24.9104V59.1974Z" fill="black"/>
<path d="M154.528 71.2689C154.849 71.2689 155.109 71.0091 155.109 70.6887C155.109 70.3683 154.849 70.1085 154.528 70.1085C154.208 70.1085 153.948 70.3683 153.948 70.6887C153.948 71.0091 154.208 71.2689 154.528 71.2689Z" fill="black"/>
<path d="M154.529 71.5014C154.081 71.5014 153.716 71.1366 153.716 70.6887C153.716 70.2408 154.081 69.876 154.529 69.876C154.977 69.876 155.341 70.2408 155.341 70.6887C155.341 71.1366 154.977 71.5014 154.529 71.5014ZM154.529 70.3411C154.337 70.3411 154.181 70.4971 154.181 70.6887C154.181 70.8803 154.337 71.0363 154.529 71.0363C154.72 71.0363 154.876 70.8803 154.876 70.6887C154.876 70.4971 154.72 70.3411 154.529 70.3411Z" fill="black"/>
<path d="M160.557 71.269C160.878 71.269 161.137 71.0092 161.137 70.6888C161.137 70.3684 160.878 70.1086 160.557 70.1086C160.237 70.1086 159.977 70.3684 159.977 70.6888C159.977 71.0092 160.237 71.269 160.557 71.269Z" fill="black"/>
<path d="M160.558 71.5014C160.109 71.5014 159.745 71.1366 159.745 70.6887C159.745 70.2408 160.109 69.876 160.558 69.876C161.006 69.876 161.371 70.2408 161.371 70.6887C161.371 71.1366 161.006 71.5014 160.558 71.5014ZM160.558 70.3411C160.366 70.3411 160.21 70.4971 160.21 70.6887C160.21 70.8803 160.366 71.0363 160.558 71.0363C160.749 71.0363 160.905 70.8803 160.905 70.6887C160.905 70.4971 160.749 70.3411 160.558 70.3411Z" fill="black"/>
<path d="M186.832 136.604C187.152 136.604 187.412 136.344 187.412 136.024C187.412 135.704 187.152 135.444 186.832 135.444C186.511 135.444 186.251 135.704 186.251 136.024C186.251 136.344 186.511 136.604 186.832 136.604Z" fill="black"/>
<path d="M186.832 136.837C186.383 136.837 186.019 136.472 186.019 136.024C186.019 135.576 186.383 135.211 186.832 135.211C187.28 135.211 187.644 135.576 187.644 136.024C187.644 136.471 187.28 136.837 186.832 136.837ZM186.832 135.676C186.64 135.676 186.484 135.832 186.484 136.024C186.484 136.215 186.64 136.372 186.832 136.372C187.023 136.372 187.179 136.215 187.179 136.024C187.179 135.832 187.023 135.676 186.832 135.676Z" fill="black"/>
<path d="M81.516 31.899C81.8364 31.899 82.0961 31.6392 82.0961 31.3188C82.0961 30.9984 81.8364 30.7386 81.516 30.7386C81.1956 30.7386 80.9358 30.9984 80.9358 31.3188C80.9358 31.6392 81.1956 31.899 81.516 31.899Z" fill="black"/>
<path d="M81.5157 32.1315C81.0679 32.1315 80.7036 31.7667 80.7036 31.3188C80.7036 30.8709 81.0679 30.5061 81.5157 30.5061C81.9642 30.5061 82.3284 30.8709 82.3284 31.3188C82.3284 31.7667 81.9642 32.1315 81.5157 32.1315ZM81.5157 30.9712C81.3247 30.9712 81.1687 31.1272 81.1687 31.3188C81.1687 31.5104 81.3247 31.6664 81.5157 31.6664C81.7073 31.6664 81.8634 31.5104 81.8634 31.3188C81.8634 31.1266 81.7073 30.9712 81.5157 30.9712Z" fill="black"/>
<path d="M79.2552 154.542C79.5756 154.542 79.8354 154.283 79.8354 153.962C79.8354 153.642 79.5756 153.382 79.2552 153.382C78.9348 153.382 78.675 153.642 78.675 153.962C78.675 154.283 78.9348 154.542 79.2552 154.542Z" fill="black"/>
<path d="M79.2544 154.775C78.8065 154.775 78.4417 154.411 78.4417 153.962C78.4417 153.514 78.8065 153.15 79.2544 153.15C79.7028 153.15 80.0671 153.514 80.0671 153.962C80.0671 154.411 79.7028 154.775 79.2544 154.775ZM79.2544 153.615C79.0633 153.615 78.9067 153.771 78.9067 153.962C78.9067 154.154 79.0633 154.31 79.2544 154.31C79.446 154.31 79.602 154.154 79.602 153.962C79.602 153.771 79.446 153.615 79.2544 153.615Z" fill="black"/>
<path d="M18.2652 138.855C18.5856 138.855 18.8454 138.595 18.8454 138.275C18.8454 137.954 18.5856 137.695 18.2652 137.695C17.9448 137.695 17.6851 137.954 17.6851 138.275C17.6851 138.595 17.9448 138.855 18.2652 138.855Z" fill="black"/>
<path d="M18.2651 139.088C17.8172 139.088 17.4524 138.723 17.4524 138.275C17.4524 137.827 17.8172 137.462 18.2651 137.462C18.7136 137.462 19.0778 137.827 19.0778 138.275C19.0778 138.723 18.7136 139.088 18.2651 139.088ZM18.2651 137.927C18.0735 137.927 17.9175 138.083 17.9175 138.275C17.9175 138.466 18.0735 138.622 18.2651 138.622C18.4567 138.622 18.6127 138.466 18.6127 138.275C18.6127 138.083 18.4567 137.927 18.2651 137.927Z" fill="black"/>
<path d="M2.01498 89.2201C2.33539 89.2201 2.59514 88.9604 2.59514 88.64C2.59514 88.3196 2.33539 88.0598 2.01498 88.0598C1.69456 88.0598 1.43481 88.3196 1.43481 88.64C1.43481 88.9604 1.69456 89.2201 2.01498 89.2201Z" fill="black"/>
<path d="M2.01509 89.4527C1.56722 89.4527 1.20239 89.0879 1.20239 88.64C1.20239 88.1921 1.56722 87.8273 2.01509 87.8273C2.46297 87.8273 2.82779 88.1921 2.82779 88.64C2.82779 89.0879 2.46297 89.4527 2.01509 89.4527ZM2.01509 88.2923C1.82348 88.2923 1.66747 88.4484 1.66747 88.64C1.66747 88.8316 1.82348 88.987 2.01509 88.987C2.2067 88.987 2.36212 88.831 2.36212 88.64C2.36212 88.449 2.2067 88.2923 2.01509 88.2923Z" fill="black"/>
<path d="M50.7672 78.0077C51.0876 78.0077 51.3474 77.748 51.3474 77.4276C51.3474 77.1072 51.0876 76.8474 50.7672 76.8474C50.4468 76.8474 50.187 77.1072 50.187 77.4276C50.187 77.748 50.4468 78.0077 50.7672 78.0077Z" fill="black"/>
<path d="M50.7678 78.2403C50.3193 78.2403 49.9551 77.8755 49.9551 77.4276C49.9551 76.9791 50.3193 76.6149 50.7678 76.6149C51.2157 76.6149 51.5805 76.9791 51.5805 77.4276C51.5805 77.8755 51.2157 78.2403 50.7678 78.2403ZM50.7678 77.08C50.5762 77.08 50.4202 77.236 50.4202 77.4276C50.4202 77.6192 50.5762 77.7752 50.7678 77.7752C50.9588 77.7752 51.1148 77.6192 51.1148 77.4276C51.1148 77.2354 50.9588 77.08 50.7678 77.08Z" fill="black"/>
<path d="M45.1119 82.5999C45.4323 82.5999 45.6921 82.3402 45.6921 82.0197C45.6921 81.6993 45.4323 81.4396 45.1119 81.4396C44.7915 81.4396 44.5317 81.6993 44.5317 82.0197C44.5317 82.3402 44.7915 82.5999 45.1119 82.5999Z" fill="black"/>
<path d="M45.1115 82.8324C44.6637 82.8324 44.2988 82.4676 44.2988 82.0197C44.2988 81.5719 44.6637 81.207 45.1115 81.207C45.56 81.207 45.9242 81.5719 45.9242 82.0197C45.9242 82.4676 45.56 82.8324 45.1115 82.8324ZM45.1115 81.6721C44.9205 81.6721 44.7639 81.8281 44.7639 82.0197C44.7639 82.2113 44.9205 82.3674 45.1115 82.3674C45.3031 82.3674 45.4592 82.2113 45.4592 82.0197C45.4592 81.8281 45.3037 81.6721 45.1115 81.6721Z" fill="black"/>
<path d="M204.784 91.0709H165.273C165.169 91.0709 165.085 90.9665 165.085 90.8384C165.085 90.7096 165.169 90.6058 165.273 90.6058H204.784C204.887 90.6058 204.972 90.7096 204.972 90.8384C204.971 90.9665 204.887 91.0709 204.784 91.0709Z" fill="black"/>
<g opacity="0.5">
<path d="M51.2411 0.233154H26.208V9.41492H51.2411V0.233154Z" fill="white"/>
<path d="M51.2415 9.64744H26.2085C26.0798 9.64744 25.9753 9.54304 25.9753 9.4149V0.233136C25.9753 0.104409 26.0798 0 26.2085 0H51.2415C51.3703 0 51.4746 0.104409 51.4746 0.233136V9.4149C51.474 9.54304 51.3697 9.64744 51.2415 9.64744ZM26.4404 9.18177H51.009V0.465675H26.4404V9.18177Z" fill="black"/>
<path d="M51.2408 9.35083H26.2078V18.5326H51.2408V9.35083Z" fill="white"/>
<path d="M51.2415 18.7645H26.2085C26.0798 18.7645 25.9753 18.6607 25.9753 18.532V9.35021C25.9753 9.22208 26.0798 9.11768 26.2085 9.11768H51.2415C51.3703 9.11768 51.4746 9.22208 51.4746 9.35021V18.532C51.474 18.6607 51.3697 18.7645 51.2415 18.7645ZM26.4404 18.2994H51.009V9.58335H26.4404V18.2994Z" fill="black"/>
<path d="M51.2408 18.532H26.2078V27.7137H51.2408V18.532Z" fill="white"/>
<path d="M51.2415 27.9463H26.2085C26.0798 27.9463 25.9753 27.8419 25.9753 27.7131V18.5314C25.9753 18.4032 26.0798 18.2988 26.2085 18.2988H51.2415C51.3703 18.2988 51.4746 18.4032 51.4746 18.5314V27.7131C51.474 27.8425 51.3697 27.9463 51.2415 27.9463ZM26.4404 27.4812H51.009V18.7645H26.4404V27.4812Z" fill="black"/>
<path d="M31.3997 5.55737C31.8047 5.55737 32.1329 5.2291 32.1329 4.82416C32.1329 4.41921 31.8047 4.09094 31.3997 4.09094C30.9948 4.09094 30.6665 4.41921 30.6665 4.82416C30.6665 5.2291 30.9948 5.55737 31.3997 5.55737Z" fill="black"/>
<path d="M31.3997 5.78978C30.867 5.78978 30.4333 5.35673 30.4333 4.82403C30.4333 4.29132 30.8664 3.85828 31.3997 3.85828C31.9318 3.85828 32.3655 4.29132 32.3655 4.82403C32.3655 5.35673 31.9324 5.78978 31.3997 5.78978ZM31.3997 4.32335C31.1233 4.32335 30.8984 4.54818 30.8984 4.82403C30.8984 5.09987 31.1233 5.3247 31.3997 5.3247C31.6756 5.3247 31.9004 5.09987 31.9004 4.82403C31.9004 4.54818 31.6756 4.32335 31.3997 4.32335Z" fill="black"/>
<path d="M31.3997 14.6743C31.8047 14.6743 32.1329 14.346 32.1329 13.9411C32.1329 13.5362 31.8047 13.2079 31.3997 13.2079C30.9948 13.2079 30.6665 13.5362 30.6665 13.9411C30.6665 14.346 30.9948 14.6743 31.3997 14.6743Z" fill="black"/>
<path d="M31.3997 14.9075C30.867 14.9075 30.4333 14.4744 30.4333 13.9417C30.4333 13.409 30.8664 12.976 31.3997 12.976C31.9318 12.976 32.3655 13.409 32.3655 13.9417C32.3655 14.4744 31.9324 14.9075 31.3997 14.9075ZM31.3997 13.4404C31.1233 13.4404 30.8984 13.6653 30.8984 13.9411C30.8984 14.217 31.1233 14.4418 31.3997 14.4418C31.6756 14.4418 31.9004 14.217 31.9004 13.9411C31.9004 13.6653 31.6756 13.4404 31.3997 13.4404Z" fill="black"/>
<path d="M30.6665 23.1229C30.6665 22.7177 30.9946 22.3896 31.3997 22.3896C32.369 22.3896 32.353 23.8567 31.3997 23.8567C30.9946 23.8561 30.6665 23.528 30.6665 23.1229Z" fill="black"/>
<path d="M31.3997 24.0887C30.867 24.0887 30.4333 23.6557 30.4333 23.123C30.4333 22.5903 30.8664 22.1572 31.3997 22.1572C32.0261 22.1572 32.353 22.6407 32.353 23.1188C32.353 23.368 32.2682 23.6023 32.1151 23.7791C31.9407 23.9784 31.6868 24.0887 31.3997 24.0887ZM31.3997 22.6223C31.1233 22.6223 30.8984 22.8465 30.8984 23.123C30.8984 23.3994 31.1233 23.6237 31.3997 23.6237C31.5545 23.6237 31.6773 23.5732 31.7639 23.473C31.8428 23.3822 31.8879 23.2529 31.8879 23.1182C31.8885 22.8892 31.7604 22.6223 31.3997 22.6223Z" fill="black"/>
<path d="M47.8852 4.90176H36.5174C36.4747 4.90176 36.4397 4.86676 36.4397 4.82405C36.4397 4.78134 36.4747 4.74634 36.5174 4.74634H47.8852C47.9279 4.74634 47.9623 4.78134 47.9623 4.82405C47.9623 4.86676 47.9285 4.90176 47.8852 4.90176Z" fill="black"/>
<path d="M47.8852 14.0188H36.5174C36.4747 14.0188 36.4397 13.9838 36.4397 13.9411C36.4397 13.8984 36.4747 13.8634 36.5174 13.8634H47.8852C47.9279 13.8634 47.9623 13.8984 47.9623 13.9411C47.9623 13.9838 47.9285 14.0188 47.8852 14.0188Z" fill="black"/>
<path d="M47.8852 23.1365H36.5174C36.4747 23.1365 36.4397 23.1015 36.4397 23.0594C36.4397 23.0161 36.4747 22.9817 36.5174 22.9817H47.8852C47.9279 22.9817 47.9623 23.0161 47.9623 23.0594C47.9623 23.1015 47.9285 23.1365 47.8852 23.1365Z" fill="black"/>
</g>
<g opacity="0.5">
<path d="M155.077 8.31917C156.622 7.04851 158.526 6.74122 159.982 8.14595C161.437 9.55068 161.633 12.5162 160.177 13.9209C158.594 15.4484 154.83 15.4271 152.774 15.3915C148.815 15.3227 144.789 15.5137 140.83 15.5137C133.411 15.5137 134.215 9.14076 136.194 7.7823C137.155 7.12265 138.463 7.22884 139.336 8.03739C138.965 5.35488 140.613 2.50448 142.892 1.88872C145.17 1.27237 147.732 2.98499 148.419 5.58267C149.444 4.34523 151.146 3.94125 152.507 4.61158C153.869 5.28132 154.745 6.71037 155.077 8.31917Z" fill="white"/>
<path d="M140.83 15.7461C136.5 15.7461 135.198 13.6307 134.807 12.3695C134.208 10.4374 134.973 8.33863 136.063 7.58999C136.955 6.9778 138.141 6.97423 139.056 7.53482C138.933 4.88731 140.573 2.27361 142.83 1.66319C143.889 1.37786 145.049 1.55345 146.097 2.15912C147.223 2.80987 148.091 3.87706 148.522 5.12578C149.633 4.0402 151.259 3.73707 152.61 4.40147C153.86 5.01663 154.798 6.28492 155.221 7.91211C156.934 6.6622 158.794 6.67703 160.143 7.97795C160.935 8.7426 161.408 9.96641 161.408 11.2513C161.408 12.3974 161.018 13.4314 160.337 14.0875C158.64 15.7253 154.676 15.6571 152.769 15.6239C150.492 15.5847 148.151 15.6316 145.888 15.6773C144.226 15.7117 142.508 15.7461 140.83 15.7461ZM137.591 7.58702C137.146 7.58702 136.704 7.71398 136.326 7.9738C135.392 8.61447 134.721 10.5205 135.252 12.2313C135.861 14.1972 137.842 15.2804 140.83 15.2804C142.503 15.2804 144.219 15.2454 145.879 15.2122C148.146 15.1659 150.49 15.1191 152.777 15.1588C154.476 15.1885 158.456 15.2573 160.015 13.7529C160.605 13.184 160.943 12.2722 160.943 11.2513C160.943 10.0898 160.524 8.99117 159.82 8.31253C158.56 7.09763 156.842 7.16643 155.225 8.4982C155.162 8.54981 155.076 8.56464 155 8.53794C154.923 8.51066 154.866 8.4454 154.85 8.36532C154.507 6.70728 153.616 5.41468 152.405 4.8185C151.149 4.20037 149.548 4.58358 148.598 5.72967C148.543 5.79671 148.454 5.82696 148.369 5.80857C148.284 5.78958 148.217 5.72492 148.194 5.64068C147.851 4.34155 147.002 3.21919 145.864 2.56191C144.925 2.01853 143.891 1.85895 142.953 2.11225C140.795 2.69538 139.213 5.44908 139.567 8.00464C139.58 8.10252 139.53 8.19744 139.443 8.24252C139.357 8.2882 139.25 8.27396 139.177 8.20693C138.735 7.79761 138.161 7.58702 137.591 7.58702Z" fill="black"/>
</g>
<path d="M167.374 149.96L153.683 136.989L156.461 134.061L170.153 147.032L170.765 150.494L167.374 149.96Z" fill="white"/>
<path d="M170.765 150.728C170.753 150.728 170.741 150.726 170.729 150.725L167.338 150.189C167.292 150.182 167.248 150.161 167.214 150.128L153.523 137.158C153.478 137.116 153.452 137.057 153.45 136.996C153.448 136.935 153.471 136.874 153.514 136.83L156.292 133.902C156.38 133.808 156.527 133.804 156.621 133.893L170.312 146.863C170.348 146.897 170.373 146.942 170.381 146.991L170.994 150.454C171.007 150.528 170.984 150.604 170.931 150.658C170.887 150.703 170.827 150.728 170.765 150.728ZM167.482 149.742L170.479 150.214L169.937 147.148L156.47 134.39L154.012 136.98L167.482 149.742Z" fill="black"/>
<path d="M167.3 150.138C167.242 150.138 167.185 150.117 167.139 150.075C167.046 149.987 167.043 149.84 167.131 149.746L169.823 146.908C169.911 146.815 170.058 146.812 170.152 146.9C170.245 146.988 170.248 147.135 170.16 147.229L167.469 150.066C167.423 150.114 167.362 150.138 167.3 150.138Z" fill="black"/>
<path d="M171.49 151.414C171.433 151.414 171.376 151.392 171.33 151.35L170.57 150.63C170.477 150.542 170.473 150.395 170.561 150.301C170.65 150.207 170.796 150.204 170.89 150.292L171.65 151.012C171.743 151.1 171.747 151.248 171.659 151.341C171.614 151.39 171.552 151.414 171.49 151.414Z" fill="black"/>
<path d="M156.266 134.524L153.541 131.942L151.408 134.193L154.132 136.775L156.266 134.524Z" fill="black"/>
<path d="M11.1566 128.751C11.0617 128.751 10.9721 128.693 10.9383 128.599L0.252698 99.4068C0.231342 99.3487 0.233711 99.2852 0.259813 99.2289C0.285914 99.1725 0.33338 99.1298 0.391515 99.1084L24.3823 90.3585C24.4404 90.3372 24.5039 90.3401 24.5602 90.3662C24.6166 90.3923 24.6593 90.4398 24.6807 90.4973L27.5631 98.4025C27.607 98.5235 27.5453 98.657 27.4249 98.7009C27.305 98.7442 27.1704 98.6831 27.1265 98.5621L24.323 90.8758L0.768791 99.4661L11.2948 128.221L34.808 119.624L33.109 114.965C33.0651 114.844 33.1268 114.711 33.2473 114.667C33.3677 114.623 33.5018 114.684 33.5457 114.805L35.3247 119.683C35.3686 119.803 35.3069 119.937 35.1865 119.981L11.2361 128.738C11.21 128.747 11.1827 128.751 11.1566 128.751Z" fill="black"/>
<path d="M17.132 98.2073C17.0999 98.2073 17.0703 98.1877 17.059 98.1557C17.0448 98.116 17.0649 98.0709 17.1053 98.0566L21.4779 96.4621C21.5176 96.4472 21.5633 96.468 21.5775 96.5083C21.5917 96.5481 21.5716 96.5932 21.5312 96.6074L17.1581 98.202C17.1504 98.2055 17.1409 98.2073 17.132 98.2073Z" fill="black"/>
<path d="M15.8314 100.232C15.7994 100.232 15.7697 100.213 15.7585 100.181C15.7442 100.141 15.7644 100.096 15.8047 100.082L21.9771 97.8306C22.0169 97.8158 22.062 97.8365 22.0768 97.8769C22.091 97.9166 22.0703 97.9617 22.0305 97.9759L15.8575 100.227C15.8492 100.231 15.8403 100.232 15.8314 100.232Z" fill="black"/>
<path d="M9.03869 109.572C9.00725 109.572 8.97701 109.553 8.96573 109.521C8.9515 109.481 8.97167 109.436 9.01201 109.421L22.4696 104.514C22.5088 104.499 22.5545 104.52 22.5687 104.56C22.5836 104.6 22.5628 104.645 22.5225 104.659L9.06539 109.567C9.0565 109.57 9.04759 109.572 9.03869 109.572Z" fill="black"/>
<path d="M10.7229 113.976C10.6915 113.976 10.6618 113.957 10.6505 113.925C10.6357 113.885 10.6565 113.84 10.6968 113.826L22.0052 109.701C22.0444 109.686 22.0901 109.707 22.1043 109.747C22.1191 109.787 22.0984 109.832 22.058 109.846L10.7496 113.971C10.7407 113.974 10.7318 113.976 10.7229 113.976Z" fill="black"/>
<path d="M12.3028 118.522C12.2708 118.522 12.2411 118.502 12.2298 118.471C12.2156 118.431 12.2364 118.385 12.2761 118.371L24.364 113.962C24.4038 113.948 24.4488 113.968 24.4637 114.009C24.4779 114.048 24.4572 114.094 24.4174 114.108L12.3295 118.517C12.3206 118.52 12.3111 118.522 12.3028 118.522Z" fill="black"/>
<path d="M35.992 105.835C35.3229 105.624 34.9243 105.746 34.3791 105.592C34.1537 105.097 33.7022 104.275 33.4555 103.786C33.7841 103.177 34 102.98 34.2895 102.461C34.2652 102.392 34.197 102.34 34.1282 102.288C33.9638 102.165 33.7989 102.041 33.631 101.922C33.0117 101.484 32.3456 101.115 31.6485 100.824C31.3282 101.436 31.0879 102.007 30.8477 102.58C30.1756 102.567 29.5023 102.646 28.8533 102.817C28.5692 102.257 28.2494 101.716 27.897 101.198C27.1087 101.624 26.3487 102.153 25.7271 102.818C26.0604 103.321 26.3238 103.608 26.6916 104.018C26.3648 104.646 26.0379 105.238 25.8214 105.859C25.1386 105.752 24.613 105.773 23.9705 105.665C23.7089 106.712 23.6656 107.793 24.021 108.768C24.6563 108.626 25.0033 108.473 25.574 108.312C25.8854 108.915 26.3185 109.481 26.7978 109.983C26.5 110.566 26.3855 111.028 26.1085 111.492C26.6999 112.119 27.4569 112.57 28.2737 112.815C28.5163 112.255 28.6736 111.906 28.9008 111.414C29.5064 111.427 30.2853 111.465 30.8785 111.327C31.2576 111.816 31.3982 112.112 31.6473 112.611C32.5757 112.434 33.4501 112.052 34.2397 111.537C33.9425 110.962 33.8749 110.595 33.5515 110.124C33.9271 109.587 34.2468 108.908 34.4105 108.339C35.0198 108.23 35.2956 108.265 35.8497 108.24C36.0834 107.422 36.1065 106.619 35.992 105.835ZM31.2944 108.391C30.9598 108.667 30.6169 108.926 29.3801 108.65C28.8942 108.542 27.6556 107.794 28.2198 106.1C28.4001 105.561 28.8705 105.109 29.4329 105C29.9929 104.89 30.4467 104.874 30.8601 105.03C31.5044 105.271 31.9736 105.9 32.0507 106.578C32.1278 107.255 31.8229 107.955 31.2944 108.391Z" fill="#644BFD"/>
<path d="M28.2742 113.048C28.2522 113.048 28.2297 113.045 28.2077 113.038C27.331 112.776 26.5473 112.296 25.9399 111.652C25.8687 111.576 25.8562 111.462 25.9096 111.373C26.0514 111.135 26.1517 110.888 26.2584 110.626C26.3362 110.435 26.4156 110.24 26.5183 110.025C26.0858 109.555 25.7305 109.073 25.46 108.587C25.32 108.63 25.1906 108.672 25.0649 108.713C24.7623 108.811 24.4776 108.904 24.0724 108.994C23.9585 109.02 23.8429 108.957 23.8031 108.847C23.462 107.909 23.443 106.819 23.7462 105.608C23.7758 105.491 23.8897 105.416 24.0096 105.435C24.324 105.487 24.6081 105.508 24.9089 105.531C25.1503 105.548 25.3977 105.566 25.6688 105.602C25.8568 105.111 26.1024 104.642 26.3611 104.149L26.4115 104.053C26.0989 103.704 25.8426 103.412 25.5341 102.947C25.4742 102.857 25.4843 102.737 25.5579 102.659C26.1386 102.038 26.8884 101.478 27.7872 100.993C27.8922 100.936 28.0227 100.968 28.0903 101.067C28.4124 101.54 28.7102 102.037 28.9766 102.546C29.5395 102.413 30.1161 102.346 30.6945 102.345C30.914 101.823 31.1453 101.284 31.4431 100.715C31.4989 100.608 31.627 100.561 31.7385 100.608C32.451 100.906 33.1338 101.284 33.7661 101.731C33.9358 101.851 34.1025 101.977 34.2692 102.102C34.3558 102.166 34.4632 102.247 34.51 102.385C34.532 102.447 34.5261 102.516 34.494 102.574C34.3546 102.824 34.2295 103.004 34.109 103.179C33.9886 103.353 33.8646 103.533 33.7199 103.79C33.7976 103.94 33.8884 104.113 33.9833 104.295C34.1772 104.664 34.3944 105.077 34.5439 105.394C34.7295 105.435 34.9045 105.445 35.0878 105.455C35.3619 105.471 35.6716 105.49 36.0631 105.614C36.1485 105.641 36.2102 105.714 36.2232 105.802C36.352 106.684 36.3033 107.503 36.0744 108.306C36.0465 108.402 35.961 108.469 35.8608 108.474C35.7018 108.481 35.5654 108.484 35.4372 108.486C35.1578 108.491 34.9306 108.494 34.5919 108.546C34.4228 109.077 34.1476 109.649 33.832 110.128C33.9845 110.375 34.0776 110.599 34.1761 110.835C34.2532 111.018 34.3321 111.208 34.4478 111.431C34.5029 111.537 34.4685 111.667 34.3683 111.733C33.5093 112.294 32.6088 112.666 31.6917 112.84C31.5891 112.859 31.4864 112.809 31.4402 112.716L31.404 112.644C31.1975 112.232 31.0664 111.967 30.7823 111.586C30.249 111.682 29.6107 111.666 29.0892 111.653L29.0489 111.651C28.8437 112.098 28.6948 112.432 28.4889 112.908C28.4504 112.995 28.3643 113.048 28.2742 113.048ZM26.3972 111.454C26.8831 111.932 27.4811 112.3 28.1449 112.53C28.3305 112.102 28.4788 111.775 28.69 111.318C28.728 111.234 28.8146 111.18 28.906 111.182L29.1005 111.187C29.6457 111.201 30.3231 111.219 30.8262 111.102C30.914 111.082 31.0065 111.115 31.0617 111.186C31.4117 111.638 31.5683 111.934 31.7747 112.348C32.5115 112.187 33.2382 111.886 33.9376 111.454C33.8611 111.292 33.8006 111.147 33.7448 111.014C33.6339 110.748 33.5378 110.518 33.3592 110.257C33.3041 110.177 33.3046 110.072 33.3604 109.992C33.7086 109.495 34.0248 108.838 34.1867 108.277C34.2111 108.191 34.2822 108.128 34.37 108.112C34.825 108.031 35.1044 108.026 35.4283 108.022C35.5043 108.02 35.5838 108.019 35.6692 108.016C35.8299 107.375 35.8673 106.718 35.7813 106.018C35.509 105.947 35.2812 105.933 35.0599 105.921C34.828 105.908 34.589 105.894 34.3155 105.817C34.2496 105.798 34.1951 105.752 34.1666 105.689C34.0242 105.376 33.7834 104.917 33.5698 104.513C33.4494 104.283 33.3349 104.067 33.2477 103.892C33.2127 103.824 33.2139 103.743 33.2501 103.677C33.4334 103.338 33.5817 103.123 33.7246 102.916C33.819 102.78 33.9091 102.649 34.0058 102.488C33.9993 102.483 33.9934 102.479 33.9886 102.475C33.8261 102.353 33.6629 102.231 33.4968 102.113C32.9511 101.727 32.3662 101.395 31.7563 101.125C31.4876 101.659 31.2717 102.173 31.0623 102.671C31.0249 102.759 30.9389 102.811 30.8434 102.813C30.192 102.801 29.5425 102.877 28.9125 103.043C28.8063 103.071 28.696 103.021 28.6461 102.924C28.3994 102.438 28.1223 101.961 27.8222 101.506C27.1139 101.906 26.5112 102.356 26.0253 102.845C26.2869 103.22 26.5129 103.473 26.8125 103.806L26.8647 103.864C26.9288 103.936 26.9424 104.041 26.8979 104.126L26.7722 104.366C26.4904 104.904 26.2246 105.411 26.0413 105.937C26.0039 106.043 25.8966 106.107 25.7856 106.09C25.4576 106.038 25.161 106.017 24.8745 105.996C24.6407 105.979 24.4017 105.961 24.1478 105.928C23.9378 106.88 23.9461 107.742 24.1739 108.494C24.4569 108.423 24.6823 108.35 24.9196 108.272C25.1017 108.213 25.2897 108.152 25.511 108.089C25.6172 108.059 25.7299 108.108 25.7809 108.206C26.0627 108.75 26.4607 109.295 26.9655 109.824C27.0338 109.896 27.0498 110.003 27.0041 110.091C26.8736 110.346 26.7793 110.578 26.6885 110.802C26.5978 111.026 26.5111 111.24 26.3972 111.454ZM30.2828 109.001C30.0277 109.001 29.7187 108.964 29.3289 108.877C29.0359 108.812 28.4462 108.536 28.0974 107.919C27.7972 107.388 27.7634 106.734 27.9995 106.027C28.2119 105.388 28.7571 104.895 29.3882 104.772C30.0556 104.641 30.5201 104.653 30.9419 104.812C31.6555 105.079 32.1941 105.779 32.2819 106.551C32.3668 107.301 32.0452 108.074 31.4419 108.571C31.1501 108.811 30.857 109.001 30.2828 109.001ZM30.1849 105.147C29.9815 105.147 29.7507 105.174 29.4772 105.228C29.0157 105.318 28.5993 105.698 28.4403 106.174C28.2445 106.761 28.2653 107.272 28.502 107.69C28.7517 108.132 29.1937 108.37 29.4298 108.423C30.5776 108.679 30.8535 108.453 31.1459 108.212C31.6211 107.821 31.8857 107.189 31.8192 106.604C31.751 106 31.3328 105.455 30.7781 105.247C30.602 105.181 30.4103 105.147 30.1849 105.147Z" fill="black"/>
<path d="M135.393 40.964C135.353 40.964 135.311 40.9533 135.274 40.9308C133.929 40.1234 132.976 38.6854 132.658 36.9871C132.517 36.2337 132.51 35.4839 132.63 34.7738C131.471 34.7566 130.317 34.3674 129.439 33.6081C128.326 32.6459 127.738 31.1605 127.757 29.6929C127.757 29.6929 127.755 29.6923 127.754 29.6923C124.3 28.9194 121.703 25.4188 121.964 21.8886C121.975 21.7605 122.086 21.6655 122.214 21.6738C122.342 21.6833 122.438 21.7955 122.428 21.923C122.185 25.2082 124.582 28.4656 127.784 29.2219C127.857 28.5059 128.08 27.8083 128.462 27.1937C128.759 26.7168 129.263 26.1384 129.981 26.0927C130.504 26.0601 130.979 26.3573 131.247 26.89C131.588 27.5698 131.516 28.4104 131.072 28.9342C130.476 29.636 129.431 29.9385 128.217 29.776C128.22 31.084 128.751 32.3992 129.743 33.2569C130.558 33.9617 131.634 34.3146 132.709 34.3146C132.716 34.3146 132.721 34.3146 132.727 34.3146C132.909 33.598 133.225 32.9342 133.667 32.3642C134.124 31.7721 134.598 31.4417 135.114 31.3521C135.482 31.2881 135.882 31.3865 136.183 31.6149C136.431 31.803 136.584 32.0616 136.614 32.344C136.659 32.7812 136.422 33.2326 135.927 33.6497C135.137 34.3158 134.134 34.6854 133.104 34.7607C132.977 35.4435 132.977 36.1708 133.114 36.9022C133.408 38.4701 134.283 39.7936 135.513 40.5333C135.623 40.5997 135.659 40.7427 135.593 40.8525C135.549 40.9236 135.472 40.964 135.393 40.964ZM135.337 31.7976C135.289 31.7976 135.241 31.8018 135.194 31.8101C134.797 31.8783 134.418 32.1524 134.035 32.6483C133.661 33.13 133.386 33.6864 133.216 34.288C134.096 34.1966 134.949 33.8656 135.627 33.2937C135.887 33.0748 136.187 32.7414 136.151 32.3914C136.131 32.1951 136.005 32.0622 135.903 31.9845C135.744 31.8647 135.537 31.7976 135.337 31.7976ZM128.24 29.3067C128.904 29.3981 130.054 29.4147 130.717 28.6328C131.082 28.2022 131.051 27.5348 130.831 27.0982C130.744 26.925 130.496 26.5269 130.01 26.5566C129.462 26.5916 129.053 27.1243 128.858 27.4387C128.507 28.004 128.304 28.6471 128.24 29.3067Z" fill="black"/>
<path d="M30.0326 181.782C29.933 181.782 29.8404 181.718 29.8102 181.618C29.7728 181.495 29.8422 181.365 29.965 181.327C31.5489 180.847 32.7626 179.261 33.1031 177.514C32.0318 177.161 31.1028 176.309 31.1135 175.114C31.117 174.692 31.2594 174.322 31.5038 174.099C31.8781 173.758 32.4778 173.778 32.8978 174.145C33.1915 174.402 33.3985 174.8 33.5314 175.363C33.6708 175.954 33.6963 176.567 33.6233 177.17C33.6767 177.182 33.7301 177.19 33.7829 177.198C35.3757 177.431 37.0367 176.799 38.1181 175.55C38.6858 174.893 39.0768 174.073 39.2624 173.215C38.8519 172.995 38.4586 172.737 38.0885 172.444C37.6714 172.112 37.169 171.646 36.9815 170.967C36.8024 170.316 37.0177 169.433 37.678 169.141C37.9591 169.018 38.2605 169.022 38.5506 169.155C39.0151 169.369 39.441 169.922 39.6356 170.564C39.8645 171.321 39.9073 172.147 39.7815 172.958C41.1115 173.598 42.6105 173.836 44.071 173.616C44.1992 173.596 44.3166 173.685 44.3356 173.811C44.3546 173.938 44.2674 174.057 44.1404 174.076C42.626 174.304 41.0753 174.07 39.689 173.429C39.4772 174.32 39.0619 175.17 38.4699 175.854C37.2853 177.223 35.4641 177.915 33.7159 177.659C33.6601 177.651 33.6044 177.641 33.5492 177.631C33.163 179.528 31.8318 181.248 30.1002 181.773C30.0777 181.78 30.0552 181.782 30.0326 181.782ZM32.1427 174.322C32.0246 174.322 31.909 174.358 31.8164 174.443C31.6699 174.576 31.5809 174.828 31.5785 175.117C31.5708 176.043 32.3171 176.732 33.1731 177.043C33.2271 176.517 33.1998 175.984 33.0782 175.469C32.9684 175.004 32.8089 174.686 32.5911 174.495C32.4713 174.39 32.3046 174.322 32.1427 174.322ZM38.095 169.515C38.0179 169.515 37.9419 169.532 37.8654 169.566C37.4519 169.749 37.3036 170.385 37.4294 170.842C37.5807 171.391 38.0155 171.791 38.3768 172.077C38.684 172.321 39.0079 172.538 39.3449 172.729C39.4315 172.038 39.384 171.34 39.1895 170.697C39.034 170.185 38.6995 169.734 38.356 169.577C38.267 169.536 38.1804 169.515 38.095 169.515Z" fill="black"/>
<path d="M131.84 152.96C131.6 152.96 131.35 152.895 131.124 152.763C130.667 152.498 130.383 152.034 130.209 151.707C129.701 150.754 129.424 149.631 129.386 148.419C129.365 148.413 129.343 148.407 129.322 148.401C127.807 147.985 126.172 148.139 124.73 148.274C124.603 148.286 124.488 148.191 124.476 148.064C124.464 147.936 124.558 147.823 124.686 147.811C126.15 147.674 127.806 147.518 129.384 147.936C129.397 147.248 129.486 146.536 129.65 145.813C130.107 143.81 131.047 141.957 131.879 140.322C131.937 140.209 132.077 140.162 132.191 140.22C132.306 140.279 132.352 140.419 132.293 140.533C131.475 142.144 130.547 143.97 130.104 145.916C129.936 146.655 129.851 147.382 129.847 148.079C131.142 148.539 132.529 149.543 132.923 151.143C133.084 151.8 132.966 152.364 132.599 152.689C132.395 152.868 132.124 152.96 131.84 152.96ZM129.858 148.579C129.914 149.652 130.169 150.643 130.62 151.488C130.767 151.764 131.003 152.155 131.358 152.361C131.63 152.52 132.038 152.563 132.29 152.34C132.631 152.038 132.515 151.433 132.471 151.255C132.189 150.109 131.189 149.1 129.858 148.579Z" fill="black"/>
<path d="M128.293 70.8477C127.745 73.8956 129.13 77.3113 131.862 78.7695C133.35 79.5632 135.087 79.7554 136.633 80.4275C138.179 81.0996 139.633 82.5702 139.383 84.2377C139.217 85.3452 138.198 87.7578 141.282 89.7457C143.825 91.3859 142.148 97.8472 133.252 99.2852C130.526 99.7253 132.53 97.8597 129.898 97.0238C127.3 96.1981 125.12 94.3158 123.591 92.0586C122.062 89.8015 121.139 87.183 120.516 84.529C119.798 81.4727 119.479 78.1703 120.671 75.2659C121.863 72.3616 124.948 70.051 128.293 70.8477Z" fill="black"/>
<path d="M132.552 99.5835C131.678 99.5835 131.474 99.1902 131.294 98.6284C131.14 98.1497 130.966 97.6069 129.828 97.2457C127.36 96.462 125.076 94.6658 123.398 92.1897C122.036 90.1787 121.019 87.6908 120.29 84.5829C119.373 80.676 119.425 77.6874 120.455 75.1781C121.622 72.336 124.785 69.7733 128.347 70.6216C128.467 70.6501 128.544 70.7676 128.522 70.8892C127.968 73.9739 129.419 77.2021 131.971 78.5648C132.778 78.9948 133.687 79.2517 134.567 79.4991C135.284 79.7014 136.026 79.9102 136.725 80.2151C138.306 80.9026 139.883 82.4651 139.613 84.2733C139.591 84.4192 139.555 84.5853 139.518 84.7615C139.249 86.0108 138.844 87.8996 141.408 89.5511C142.379 90.1769 142.796 91.4553 142.496 92.8873C141.983 95.3414 139.264 98.5495 133.289 99.5153C133.001 99.5616 132.757 99.5835 132.552 99.5835ZM126.956 70.9218C124.185 70.9218 121.836 73.0407 120.886 75.3543C119.895 77.7698 119.849 80.6683 120.742 84.4761C121.459 87.5276 122.454 89.9651 123.784 91.9287C125.403 94.3187 127.6 96.0497 129.969 96.8025C131.336 97.2362 131.567 97.9587 131.736 98.4867C131.901 98.998 131.983 99.2549 133.215 99.0561C138.956 98.1278 141.558 95.1012 142.041 92.7912C142.3 91.5526 141.96 90.4605 141.155 89.9414C138.322 88.1149 138.804 85.8696 139.063 84.663C139.101 84.4868 139.133 84.3349 139.153 84.2038C139.387 82.6389 137.962 81.2603 136.54 80.6416C135.869 80.3497 135.143 80.1451 134.441 79.9469C133.538 79.6925 132.603 79.4291 131.753 78.9747C129.088 77.5527 127.546 74.2379 128.028 71.0274C127.665 70.9556 127.307 70.9218 126.956 70.9218Z" fill="black"/>
<path d="M117.592 63.4729C118.494 67.8728 113.559 74.1069 111.757 78.2208C111.172 79.5579 110.32 80.7752 109.839 82.1532C109.268 83.7911 109.25 85.5725 109.406 87.3005C109.702 90.5668 110.683 93.9184 112.98 96.2592C115.277 98.6007 119.12 99.6216 121.954 97.9701C124.44 96.5209 125.575 93.4071 125.42 90.533C125.263 87.6588 124.037 84.9621 122.742 82.3911C119.634 76.2157 121.817 68.7988 117.592 63.4729Z" fill="black"/>
<path d="M118.824 99.0052C116.703 99.0052 114.458 98.0988 112.813 96.4224C110.755 94.3248 109.531 91.2632 109.174 87.3219C108.979 85.1715 109.121 83.5051 109.619 82.0773C109.905 81.2598 110.321 80.4928 110.722 79.7513C111.007 79.2251 111.302 78.6805 111.544 78.1282C112.065 76.9388 112.841 75.5816 113.662 74.1436C115.691 70.5956 117.99 66.5742 117.363 63.5203C117.341 63.4148 117.395 63.3086 117.493 63.2623C117.59 63.2166 117.706 63.2445 117.774 63.3287C120.139 66.3114 120.521 69.8422 120.925 73.5812C121.242 76.5141 121.57 79.5466 122.949 82.2873C124.227 84.8268 125.489 87.5538 125.651 90.5211C125.829 93.7968 124.424 96.7996 122.07 98.1718C121.105 98.7347 119.982 99.0052 118.824 99.0052ZM117.929 64.3289C118.057 67.3958 115.948 71.085 114.067 74.3744C113.252 75.8011 112.482 77.1482 111.971 78.3145C111.721 78.8846 111.422 79.4381 111.132 79.9725C110.739 80.698 110.332 81.4479 110.059 82.2303C109.583 83.5935 109.449 85.1982 109.638 87.2798C109.985 91.1113 111.165 94.078 113.145 96.0967C115.543 98.5407 119.28 99.2597 121.836 97.769C124.04 96.4841 125.356 93.6491 125.186 90.5454C125.029 87.6677 123.79 84.9905 122.534 82.4955C121.116 79.6789 120.784 76.6037 120.463 73.6299C120.099 70.2587 119.753 67.0583 117.929 64.3289Z" fill="black"/>
<path d="M123.634 86.1449C123.553 83.7999 123.593 81.4858 123.687 79.7323C122.74 79.2583 121.719 78.9285 120.674 78.76C120.204 78.6841 119.674 78.655 119.313 78.9385C119.086 79.1159 118.014 78.1697 117.903 78.4307C117.139 80.2211 116.362 84.5337 115.597 86.3241C115.539 86.4617 111.952 86.9535 111.892 87.0917C111.644 87.6748 113.477 90.0287 113.662 90.1521C123.45 96.6608 128.734 86.9137 128.734 86.9137C128.734 86.9137 126.39 86.6723 123.634 86.1449Z" fill="white"/>
<path d="M120.151 92.6253C118.033 92.6253 115.814 91.863 113.534 90.3462C113.318 90.2026 111.356 87.7568 111.679 87.001C111.747 86.8403 111.758 86.8153 113.71 86.4784C114.336 86.3704 115.171 86.2263 115.418 86.1533C115.782 85.2635 116.16 83.768 116.525 82.3212C116.906 80.812 117.3 79.2519 117.688 78.3401C117.724 78.2582 117.789 78.1977 117.874 78.1698C118.072 78.1046 118.302 78.2309 118.693 78.4599C118.85 78.5513 119.102 78.699 119.211 78.7251C119.651 78.4101 120.242 78.4552 120.711 78.5311C121.784 78.7043 122.82 79.0389 123.791 79.5253C123.874 79.5669 123.925 79.6535 123.92 79.746C123.817 81.6526 123.796 83.9033 123.861 85.9522C126.495 86.447 128.735 86.6813 128.758 86.6831C128.835 86.6914 128.903 86.737 128.94 86.8059C128.977 86.8747 128.976 86.9571 128.939 87.0254C128.844 87.1992 126.583 91.2906 122.238 92.3708C121.554 92.5405 120.858 92.6253 120.151 92.6253ZM112.095 87.2567C112.108 87.777 113.484 89.7025 113.799 89.9641C116.719 91.9045 119.521 92.5654 122.122 91.9194C125.599 91.0568 127.737 88.0682 128.347 87.1042C127.581 87.0147 125.696 86.7762 123.59 86.3734C123.483 86.3532 123.405 86.2619 123.401 86.1527C123.331 84.0961 123.347 81.8175 123.446 79.8736C122.557 79.4447 121.612 79.1475 120.636 78.9897C120.245 78.9268 119.758 78.8847 119.456 79.1214C119.22 79.307 118.884 79.1101 118.457 78.8609C118.338 78.7909 118.173 78.6943 118.065 78.6462C117.706 79.5408 117.335 81.0107 116.975 82.4345C116.594 83.943 116.2 85.5038 115.812 86.4155C115.743 86.5763 115.732 86.6012 113.789 86.9364C113.178 87.042 112.367 87.1814 112.095 87.2567Z" fill="black"/>
<path d="M114.609 63.3726C114.078 65.4981 113.646 67.7778 112.328 69.5818C111.609 70.5654 109.429 76.1499 113.273 79.5081C115.294 81.2735 118.062 82.1704 121.07 81.6602C123.11 81.3138 126.335 79.005 127.156 75.7708C128.368 76.6873 130.077 76.3023 130.578 75.0839C130.866 74.3821 130.438 73.1897 129.6 72.9044C128.951 72.6837 128.873 72.66 128.242 72.838C128.483 71.2636 128.865 69.7147 129.549 68.065C128.677 65.7485 126.541 63.8958 124.207 62.5415C123.436 62.0937 122.624 61.6849 121.75 61.4589C119.25 60.8135 115.156 61.1896 114.609 63.3726Z" fill="white"/>
<path d="M119.382 82.0369C117.065 82.0369 114.888 81.2277 113.12 79.683C109.247 76.2987 111.254 70.6567 112.14 69.4435C113.272 67.8964 113.74 65.9649 114.192 64.0975C114.256 63.8353 114.319 63.5743 114.384 63.3156C114.541 62.6886 114.961 62.1678 115.633 61.7685C117.255 60.8046 120.025 60.7731 121.807 61.2341C122.781 61.4856 123.663 61.9572 124.323 62.341C126.259 63.4645 128.776 65.3557 129.765 67.9836C129.786 68.0388 129.785 68.0999 129.762 68.1551C129.188 69.539 128.792 70.9367 128.527 72.5271C128.937 72.4422 129.129 72.4998 129.674 72.6855C130.102 72.8308 130.475 73.1944 130.697 73.6832C130.926 74.1881 130.962 74.7593 130.792 75.174C130.542 75.7803 130.01 76.2353 129.329 76.4215C128.651 76.6066 127.912 76.5016 127.293 76.1427C126.311 79.3775 123.118 81.5493 121.109 81.8904C120.527 81.9882 119.951 82.0369 119.382 82.0369ZM119.332 61.4067C118.074 61.4067 116.776 61.6303 115.871 62.1684C115.31 62.5023 114.961 62.9265 114.835 63.4289C114.771 63.6864 114.708 63.9462 114.645 64.2078C114.182 66.1198 113.702 68.0969 112.516 69.7188C112.026 70.3897 109.544 75.9416 113.426 79.333C115.521 81.1625 118.222 81.9076 121.031 81.4312C122.931 81.1091 126.125 78.8869 126.93 75.7138C126.949 75.6385 127.005 75.5774 127.079 75.5519C127.152 75.5258 127.233 75.5388 127.296 75.5857C127.848 76.0033 128.562 76.1475 129.206 75.9713C129.746 75.8236 130.168 75.4682 130.361 74.996C130.483 74.7006 130.448 74.2604 130.273 73.8743C130.104 73.5023 129.831 73.2288 129.524 73.1244C128.895 72.9103 128.871 72.902 128.304 73.0621C128.228 73.0835 128.146 73.0645 128.087 73.0129C128.028 72.9607 128 72.8812 128.011 72.8035C128.278 71.063 128.687 69.5539 129.297 68.0625C128.334 65.6066 125.94 63.8169 124.089 62.7438C123.455 62.3754 122.609 61.9222 121.691 61.6849C121.011 61.5087 120.18 61.4067 119.332 61.4067Z" fill="black"/>
<path d="M122.195 75.6641C121.959 75.6641 121.719 75.635 121.481 75.5751C120.655 75.3651 119.969 74.8134 119.551 74.0208C119.137 73.236 119.035 72.3088 119.263 71.4089C119.492 70.509 120.024 69.7426 120.762 69.2502C121.508 68.7537 122.374 68.5953 123.2 68.8047C124.027 69.0147 124.712 69.567 125.129 70.3589C125.543 71.1438 125.646 72.071 125.418 72.9709C125.01 74.5755 123.648 75.6641 122.195 75.6641ZM122.48 69.1796C121.975 69.1796 121.473 69.335 121.02 69.637C120.378 70.0653 119.914 70.735 119.714 71.5228C119.513 72.3106 119.602 73.1204 119.962 73.8031C120.318 74.4776 120.898 74.9469 121.596 75.1236C123.043 75.4908 124.556 74.4741 124.967 72.8564C125.167 72.068 125.078 71.2583 124.718 70.5761C124.362 69.9016 123.783 69.4323 123.085 69.2556C122.886 69.2045 122.683 69.1796 122.48 69.1796Z" fill="black"/>
<path d="M113.971 72.8343C113.73 72.8343 113.489 72.8047 113.249 72.7442C112.423 72.5342 111.738 71.9825 111.32 71.19C110.906 70.4057 110.803 69.4779 111.032 68.578C111.505 66.7118 113.27 65.5432 114.969 65.9744C115.796 66.1844 116.481 66.7361 116.899 67.5286C117.313 68.3129 117.415 69.2407 117.187 70.1406C116.958 71.0405 116.426 71.8069 115.688 72.2993C115.157 72.6522 114.566 72.8343 113.971 72.8343ZM114.253 66.3499C113.009 66.3499 111.836 67.2979 111.482 68.6919C111.282 69.4803 111.371 70.2901 111.731 70.9723C112.087 71.6467 112.667 72.1154 113.364 72.2927C114.062 72.4695 114.795 72.3343 115.429 71.9113C116.071 71.4836 116.535 70.8139 116.735 70.0255C116.935 69.2371 116.846 68.4274 116.487 67.7452C116.13 67.0707 115.551 66.6015 114.853 66.4247C114.654 66.3742 114.453 66.3499 114.253 66.3499Z" fill="black"/>
<path d="M130.856 62.796C133.911 62.796 136.389 60.3189 136.389 57.2631C136.389 54.2074 133.911 51.7302 130.856 51.7302C127.8 51.7302 125.323 54.2074 125.323 57.2631C125.323 60.3189 127.8 62.796 130.856 62.796Z" fill="black"/>
<path d="M130.866 63.0297C130.706 63.0297 130.545 63.0232 130.383 63.0095C127.215 62.7491 124.849 59.9592 125.109 56.7909C125.369 53.6225 128.162 51.2556 131.328 51.5166C132.863 51.6424 134.257 52.359 135.253 53.5335C136.249 54.7081 136.727 56.2006 136.602 57.7353C136.475 59.2699 135.759 60.664 134.584 61.66C133.534 62.5516 132.228 63.0297 130.866 63.0297ZM130.853 51.9621C128.125 51.9621 125.801 54.0627 125.574 56.8289C125.335 59.7415 127.509 62.306 130.423 62.5457C131.832 62.6631 133.205 62.2212 134.285 61.3058C135.365 60.3899 136.024 59.1086 136.139 57.6973C136.255 56.2867 135.815 54.9145 134.899 53.8349C133.984 52.7552 132.702 52.0962 131.291 51.9805C131.143 51.9681 130.997 51.9621 130.853 51.9621Z" fill="black"/>
<path d="M127.981 72.9792C127.478 70.4373 127.257 68.663 127.804 66.0285C121.854 66.9741 117.102 65.6061 112.557 63.6028C112.77 62.7789 113.623 61.1066 114.244 60.492C115.766 58.9847 117.389 57.8 120.668 57.6582C122.967 57.5586 125.824 58.0189 127.817 59.1597C129.797 60.2939 131.154 62.1435 132.083 64.0893C132.822 65.637 133.106 67.8075 132.758 69.7034C132.459 71.3277 131.651 72.2922 130.368 73.5593C130.07 73.2052 129.796 72.8582 129.323 72.7686C128.85 72.679 128.479 72.7905 127.981 72.9792Z" fill="black"/>
<path d="M130.367 73.7925C130.364 73.7925 130.36 73.7925 130.357 73.7925C130.292 73.7895 130.231 73.7593 130.189 73.7101L130.152 73.6656C129.883 73.3446 129.65 73.0676 129.279 72.9982C128.887 72.924 128.574 73.0035 128.063 73.1975C127.999 73.2218 127.927 73.2165 127.867 73.1833C127.807 73.1501 127.765 73.0919 127.752 73.0249C127.302 70.7517 127.02 68.9181 127.51 66.3085C121.297 67.212 116.422 65.5611 112.462 63.8158C112.358 63.7696 112.302 63.6551 112.331 63.5447C112.559 62.6638 113.428 60.972 114.079 60.3271C115.785 58.6377 117.48 57.5634 120.657 57.4257C122.723 57.3379 125.72 57.6921 127.932 58.958C129.72 59.9813 131.186 61.6743 132.292 63.9891C133.072 65.6222 133.339 67.8283 132.986 69.7456C132.662 71.5039 131.724 72.5462 130.531 73.7249C130.487 73.7682 130.429 73.7925 130.367 73.7925ZM128.995 72.5052C129.113 72.5052 129.236 72.5159 129.366 72.5408C129.826 72.6274 130.119 72.9122 130.383 73.2171C131.622 71.9719 132.267 71.0869 132.528 69.662C132.859 67.8639 132.602 65.7159 131.873 64.1896C130.809 61.9615 129.405 60.3372 127.702 59.3614C125.577 58.1447 122.679 57.803 120.678 57.8908C117.324 58.0362 115.741 59.3371 114.408 60.6576C113.874 61.1867 113.111 62.6264 112.838 63.4724C116.771 65.1903 121.614 66.7772 127.767 65.799C127.843 65.7865 127.92 65.8126 127.973 65.8684C128.025 65.9241 128.047 66.0012 128.032 66.076C127.493 68.6719 127.732 70.4776 128.158 72.6684C128.436 72.5717 128.703 72.5052 128.995 72.5052Z" fill="black"/>
<path d="M118.695 78.1246C117.978 78.1246 117.38 77.8096 117.09 77.2763C117.028 77.1636 117.07 77.0218 117.183 76.9607C117.295 76.8996 117.437 76.9411 117.498 77.0539C117.812 77.6311 118.517 77.6631 118.731 77.6595C119.364 77.6477 119.985 77.3861 120.477 76.9216C120.571 76.8338 120.717 76.8373 120.806 76.9311C120.894 77.0248 120.89 77.1719 120.796 77.2603C120.219 77.8043 119.489 78.111 118.739 78.1252C118.724 78.1246 118.709 78.1246 118.695 78.1246Z" fill="black"/>
<path d="M121.511 72.6293C121.791 72.7004 122.073 72.5429 122.14 72.2775C122.208 72.012 122.035 71.7391 121.755 71.668C121.475 71.5969 121.193 71.7544 121.126 72.0198C121.059 72.2853 121.231 72.5582 121.511 72.6293Z" fill="black"/>
<path d="M114.161 70.1574C114.441 70.2286 114.723 70.0708 114.791 69.805C114.858 69.5392 114.686 69.2661 114.406 69.195C114.126 69.1238 113.844 69.2816 113.776 69.5474C113.709 69.8132 113.881 70.0863 114.161 70.1574Z" fill="black"/>
<path d="M116.405 73.8754C116.349 73.8754 116.293 73.8553 116.248 73.8143L115.69 73.3047C115.621 73.2419 115.478 73.1114 115.48 72.9168C115.483 72.6801 115.688 72.5537 115.786 72.4926C116.531 72.0329 117.028 71.251 117.115 70.4027C117.128 70.2746 117.244 70.1833 117.371 70.1951C117.499 70.2082 117.591 70.3227 117.578 70.4508C117.476 71.4415 116.898 72.3532 116.031 72.8889C116.019 72.8966 115.993 72.9126 115.97 72.9287C115.979 72.9376 115.99 72.9482 116.005 72.9613L116.562 73.4709C116.657 73.5575 116.664 73.7046 116.577 73.7995C116.531 73.8499 116.469 73.8754 116.405 73.8754Z" fill="black"/>
<path d="M119.852 70.3974C119.768 70.3974 119.687 70.3517 119.645 70.2716C119.353 69.7063 118.743 69.2869 118.09 69.2032C117.771 69.1623 117.405 69.2406 117.319 69.4696C117.273 69.59 117.138 69.6505 117.018 69.6054C116.899 69.5603 116.837 69.4263 116.883 69.3058C117.063 68.8271 117.648 68.6776 118.149 68.7417C118.949 68.8443 119.698 69.3604 120.059 70.058C120.117 70.1719 120.072 70.3125 119.958 70.3713C119.925 70.3891 119.888 70.3974 119.852 70.3974Z" fill="black"/>
<path d="M127.818 72.9713C127.79 72.9713 127.761 72.966 127.733 72.9553L125.348 72.0186C125.229 71.9718 125.17 71.8365 125.216 71.7173C125.263 71.5974 125.399 71.5387 125.518 71.5856L127.904 72.5217C128.024 72.5685 128.082 72.7038 128.035 72.823C127.999 72.9156 127.912 72.9713 127.818 72.9713Z" fill="black"/>
<path d="M127.598 74.7979C127.568 74.7979 127.539 74.7926 127.51 74.7807C127.391 74.7321 127.334 74.5962 127.383 74.4776C127.617 73.9051 127.732 73.2763 127.717 72.6582C127.714 72.5295 127.816 72.4233 127.944 72.4197C128.073 72.4173 128.179 72.5188 128.182 72.6469C128.198 73.3285 128.071 74.0226 127.813 74.6538C127.776 74.7433 127.69 74.7979 127.598 74.7979Z" fill="black"/>
<path d="M132.543 106.696C134.86 105.349 138.704 100.572 137.651 96.6999C137.091 94.6373 136.101 87.212 125.273 86.5174C125.055 89.9693 121.69 91.5271 119.541 91.7839C118.371 91.9233 113.959 91.7928 113.959 86.6704C111.037 86.8312 107.347 87.282 101.669 89.5439C97.3662 91.2577 90.0293 92.3914 90.0293 92.3914C90.0293 92.3914 82.6118 82.9017 79.9482 79.0102C78.4859 76.8741 75.8467 85.7278 74.2142 81.9894C73.9669 81.4222 81.8127 97.1139 82.4498 98.2998C85.7825 104.502 101.166 100.577 104.142 100.577C103.852 104.898 105.696 107.454 107.198 108.765C107.661 118.741 105.222 125.645 105.222 125.645C105.222 125.645 118.866 130.714 132.993 126.542C134.077 126.221 130.288 117.486 132.543 106.696Z" fill="#644BFD"/>
<path d="M121.059 128.416C118.302 128.416 115.814 128.181 113.777 127.888C108.635 127.147 105.176 125.875 105.141 125.863C105.023 125.819 104.96 125.687 105.003 125.567C105.027 125.499 107.406 118.633 106.97 108.874C105.685 107.725 103.681 105.208 103.896 100.817C103.271 100.851 102.27 100.996 101.043 101.174C95.4286 101.987 84.9791 103.5 82.2444 98.4107C81.9158 97.7991 79.7399 93.4681 77.6345 89.2794C76.2322 86.4877 74.7901 83.6189 74.2402 82.5399C74.1559 82.4088 74.0764 82.2563 74.0005 82.0831C73.9293 81.92 74.0266 81.8031 74.1097 81.7646C74.3149 81.6679 74.4033 81.8399 74.4976 82.022C74.535 82.0938 74.5842 82.1899 74.6447 82.3079C74.8002 82.544 74.9615 82.671 75.1288 82.6876C75.7161 82.7463 76.5234 81.5872 77.2359 80.5645C78.0314 79.4249 78.7183 78.4402 79.4237 78.4402C79.4248 78.4402 79.426 78.4402 79.4272 78.4402C79.7013 78.4414 79.9409 78.5891 80.1391 78.8792C82.6157 82.4972 89.2977 91.0774 90.1276 92.1399C91.145 91.9761 97.6715 90.8852 101.583 89.328C107.255 87.0691 111.015 86.5992 113.945 86.4385C114.009 86.4361 114.072 86.4581 114.118 86.5014C114.164 86.5453 114.191 86.6064 114.191 86.6704C114.191 88.3344 114.67 89.6033 115.615 90.4427C116.85 91.5389 118.646 91.6558 119.512 91.5532C121.328 91.3367 124.819 90.0019 125.041 86.5031C125.044 86.4415 125.073 86.3839 125.119 86.343C125.165 86.302 125.227 86.2819 125.287 86.2854C135.523 86.9421 137.139 93.6199 137.748 96.1346C137.795 96.3262 137.835 96.4958 137.875 96.64C138.958 100.626 135.105 105.411 132.748 106.844C131.306 113.857 132.445 120.106 133.059 123.47C133.45 125.616 133.629 126.596 133.057 126.765C128.87 128.001 124.726 128.416 121.059 128.416ZM105.515 125.501C107.295 126.109 119.981 130.139 132.916 126.321C133.069 126.114 132.832 124.813 132.603 123.555C131.98 120.143 130.822 113.792 132.315 106.649C132.328 106.585 132.369 106.529 132.426 106.496C134.755 105.143 138.421 100.419 137.428 96.7616C137.388 96.6151 137.345 96.4407 137.298 96.2443C136.661 93.6134 135.177 87.4808 125.487 86.7659C125.111 90.397 121.477 91.7875 119.569 92.0159C119.309 92.0467 116.98 92.2757 115.307 90.7915C114.306 89.9029 113.776 88.6008 113.73 86.9178C110.872 87.0898 107.21 87.5881 101.755 89.7611C97.4776 91.4648 90.1383 92.6103 90.0647 92.6222C89.9811 92.6346 89.898 92.602 89.8464 92.5355C89.7723 92.4406 82.3939 82.9955 79.7565 79.142C79.5951 78.9065 79.4682 78.9059 79.4255 78.9059H79.4243C78.9616 78.9059 78.2479 79.9286 77.6179 80.8314C76.785 82.0256 75.9967 83.155 75.1715 83.155C75.1424 83.155 75.1128 83.1539 75.0837 83.1509C75.0796 83.1509 75.0754 83.1503 75.0712 83.1497C75.2077 83.4202 75.3625 83.7275 75.5328 84.0644C76.2043 85.3974 77.1095 87.199 78.0504 89.0712C80.0554 93.0617 82.3286 97.585 82.6543 98.1907C85.2354 102.994 95.4754 101.511 100.977 100.714C102.399 100.508 103.523 100.345 104.142 100.345C104.206 100.345 104.269 100.372 104.312 100.419C104.356 100.466 104.378 100.53 104.374 100.594C104.075 105.031 106.111 107.509 107.35 108.591C107.398 108.632 107.427 108.692 107.43 108.755C107.845 117.678 105.919 124.236 105.515 125.501Z" fill="black"/>
<path d="M81.5242 57.7223L74.2134 65.4792L71.0635 101.013L100.493 103.97L104.383 60.0957L81.5242 57.7223Z" fill="white"/>
<path d="M100.493 104.202C100.485 104.202 100.477 104.202 100.47 104.201L71.0402 101.245C70.9133 101.232 70.8207 101.12 70.8314 100.993L73.9819 65.4584C73.9867 65.4068 74.0087 65.3576 74.0442 65.3196L81.355 57.5622C81.4048 57.5094 81.4766 57.4839 81.5478 57.4904L104.406 59.8638C104.532 59.8769 104.625 59.989 104.614 60.116L100.724 103.99C100.719 104.052 100.688 104.109 100.64 104.149C100.599 104.183 100.547 104.202 100.493 104.202ZM71.3149 100.805L100.282 103.715L104.13 60.3034L81.6142 57.9656L74.4375 65.58L71.3149 100.805Z" fill="black"/>
<path d="M74.2139 65.4792L80.8638 65.9828L81.5246 57.7223L74.2139 65.4792Z" fill="#644BFD"/>
<path d="M80.8634 66.2154C80.8575 66.2154 80.8516 66.2154 80.8456 66.2148L74.1963 65.7111C74.1073 65.704 74.0296 65.6471 73.997 65.5628C73.9644 65.4792 73.9833 65.3843 74.0444 65.3196L81.3552 57.5621C81.4228 57.4898 81.529 57.469 81.6186 57.5093C81.7088 57.5491 81.7639 57.6422 81.7556 57.7407L81.0948 66.0012C81.0853 66.1228 80.9839 66.2154 80.8634 66.2154ZM74.7177 65.284L80.6499 65.7337L81.2395 58.3636L74.7177 65.284Z" fill="black"/>
<path d="M98.2539 66.0202C98.2509 66.0202 98.248 66.0202 98.2456 66.0202L92.8746 65.4626C92.8325 65.4584 92.8016 65.4199 92.8058 65.3772C92.8105 65.3344 92.8491 65.3036 92.8912 65.3083L98.2616 65.8654C98.3043 65.8695 98.3352 65.9081 98.331 65.9508C98.3263 65.9905 98.293 66.0202 98.2539 66.0202Z" fill="black"/>
<path d="M98.0709 68.0846C98.0679 68.0846 98.065 68.0846 98.0626 68.084L90.4819 67.2968C90.4398 67.2926 90.4083 67.2541 90.4131 67.2114C90.4172 67.1687 90.4558 67.1372 90.4985 67.1426L98.0786 67.9298C98.1213 67.9339 98.1521 67.9725 98.148 68.0152C98.1432 68.0543 98.1094 68.0846 98.0709 68.0846Z" fill="black"/>
<path d="M97.2607 77.2182C97.2577 77.2182 97.2553 77.2182 97.2524 77.2176L78.6171 75.2825C78.575 75.2784 78.5436 75.2398 78.5483 75.1971C78.5531 75.1544 78.5904 75.1229 78.6337 75.1283L97.2684 77.0633C97.3111 77.0675 97.3419 77.1061 97.3378 77.1488C97.3336 77.1879 97.2998 77.2182 97.2607 77.2182Z" fill="black"/>
<path d="M96.6618 83.9666C96.6594 83.9666 96.6564 83.9666 96.6535 83.966L78.0183 82.0309C77.9761 82.0268 77.9447 81.9882 77.9494 81.9455C77.9542 81.9028 77.991 81.872 78.0349 81.8767L96.6701 83.8118C96.7122 83.8159 96.7437 83.8545 96.7389 83.8972C96.7348 83.9369 96.7009 83.9666 96.6618 83.9666Z" fill="black"/>
<path d="M96.0639 90.715C96.0609 90.715 96.058 90.715 96.055 90.715L77.4198 88.7799C77.3777 88.7752 77.3468 88.7372 77.351 88.6945C77.3557 88.6518 77.3948 88.6204 77.4364 88.6251L96.0716 90.5602C96.1143 90.5643 96.1452 90.6029 96.1404 90.6456C96.1363 90.6853 96.1031 90.715 96.0639 90.715Z" fill="black"/>
<path d="M110.922 91.7804C109.932 90.7909 108.805 89.8655 107.767 87.4565C107.104 85.9183 104.877 82.5316 104.057 82.1175C102.683 81.4229 101.853 80.7941 100.56 80.6191C99.4811 80.4725 97.3574 80.7514 97.2963 81.1275C97.1059 82.3002 99.9242 81.5564 100.163 81.6406C100.996 81.9348 101.818 82.267 102.56 83.2102C101.407 83.2541 99.3909 83.5134 98.8784 83.8325C98.3391 84.1683 96.9362 85.9094 96.7754 86.2184C96.4972 86.7547 96.7879 87.2832 97.4559 86.7238C97.4927 86.6936 98.8511 85.7373 99.3429 85.1317C99.5416 84.8873 101.568 84.6998 102.496 84.8807C101.54 84.5645 99.7303 84.7763 99.3316 85.137C99.2373 85.223 97.7371 86.8573 97.6433 87.0222C97.2512 87.7115 97.9209 87.9702 98.4513 87.5733C99.0522 87.1243 99.6863 86.3893 99.8424 86.3098C100.694 85.8738 101.572 86.1223 102.303 86.2107C101.585 86.0725 100.758 85.9289 99.8803 86.2635C99.7237 86.3234 98.1209 87.6036 98.4916 88.2365C98.6909 88.5764 99.4526 88.3955 100.384 87.3521C100.936 87.4304 101.249 87.5603 101.71 87.67C102.033 87.7465 103.123 90.171 104.364 90.8775C104.612 91.0187 105.457 93.1217 106.972 95.9679C107.299 96.5819 108.808 97.5441 110.462 95.2454C111.06 94.416 111.857 92.7159 110.922 91.7804Z" fill="white"/>
<path d="M108.296 96.9332C108.254 96.9332 108.214 96.9314 108.175 96.929C107.495 96.8833 106.97 96.455 106.768 96.0766C106.042 94.714 105.465 93.5115 105.044 92.633C104.688 91.8909 104.352 91.1885 104.238 91.0716C103.412 90.5947 102.689 89.4652 102.159 88.64C101.967 88.3399 101.729 87.9691 101.634 87.8896C101.483 87.8529 101.348 87.8149 101.214 87.7769C100.981 87.7111 100.761 87.6482 100.474 87.6001C99.8275 88.296 99.1993 88.6673 98.7319 88.6205C98.5379 88.6009 98.3819 88.5066 98.2923 88.3529C98.2229 88.2343 98.1944 88.1002 98.2074 87.9525C97.9352 88.0308 97.6647 87.9934 97.4837 87.8339C97.4043 87.7639 97.1836 87.5183 97.3597 87.0751C96.9771 87.2917 96.7369 87.1635 96.6414 87.0876C96.4005 86.8942 96.3709 86.4926 96.5684 86.1112C96.747 85.7683 98.1849 83.9904 98.7556 83.6351C99.283 83.3065 100.98 83.0846 102.072 83.0051C101.47 82.3888 100.819 82.1188 100.103 81.8661C100.034 81.8632 99.8311 81.8916 99.6484 81.916C98.6601 82.0482 97.6605 82.142 97.2417 81.7113C97.1331 81.6004 97.0151 81.4022 97.0661 81.0896C97.1782 80.4015 99.7593 80.2751 100.59 80.3878C101.607 80.5255 102.36 80.9378 103.233 81.4153C103.524 81.5743 103.825 81.7386 104.161 81.9088C105.095 82.381 107.369 85.9474 107.979 87.3634C108.882 89.4587 109.829 90.3835 110.744 91.2787C110.86 91.3914 110.973 91.5029 111.086 91.615C112.13 92.6597 111.304 94.4725 110.652 95.3801C109.744 96.6437 108.888 96.9332 108.296 96.9332ZM100.385 87.119C100.396 87.119 100.407 87.1196 100.418 87.1214C100.797 87.1754 101.073 87.2537 101.341 87.3296C101.476 87.3682 101.612 87.4073 101.767 87.4435C101.967 87.4916 102.124 87.7241 102.551 88.3891C103.028 89.1336 103.749 90.2583 104.481 90.6748C104.666 90.7798 104.851 91.1535 105.464 92.4325C105.883 93.3069 106.458 94.504 107.179 95.8577C107.298 96.0819 107.67 96.4284 108.206 96.4639C108.889 96.509 109.604 96.041 110.275 95.1085C110.803 94.3752 111.583 92.7694 110.757 91.9437C110.646 91.8327 110.533 91.723 110.419 91.6109C109.516 90.7282 108.492 89.7268 107.552 87.5473C106.874 85.9718 104.68 82.6919 103.952 82.3235C103.609 82.1503 103.304 81.9836 103.011 81.8228C102.144 81.3489 101.459 80.9739 100.529 80.8482C99.4835 80.707 97.7697 80.9745 97.5217 81.194C97.5098 81.3032 97.5437 81.3542 97.5751 81.3862C97.8658 81.6846 99.0279 81.5292 99.5867 81.4538C99.999 81.3987 100.135 81.3827 100.241 81.4194C101.122 81.7303 101.977 82.0898 102.744 83.065C102.798 83.1338 102.809 83.227 102.772 83.3065C102.735 83.3859 102.658 83.4382 102.57 83.4417C101.304 83.4892 99.4307 83.762 99.0024 84.029C98.5159 84.3321 97.1278 86.0453 96.9825 86.3247C96.8703 86.5424 96.9018 86.6985 96.9338 86.724C96.9475 86.7346 97.0667 86.7465 97.3081 86.5442C97.3129 86.5401 97.3378 86.5211 97.3793 86.4914C98.1268 85.948 98.5824 85.566 98.8612 85.3026C99.0457 85.1033 99.1726 84.9675 99.1762 84.9639C99.6727 84.5148 101.608 84.3404 102.571 84.659C102.687 84.6975 102.754 84.8197 102.723 84.939C102.692 85.0576 102.574 85.1312 102.453 85.1086C101.541 84.9319 99.7587 85.13 99.5155 85.2884C99.4384 85.3827 99.3239 85.5061 99.1542 85.6651C98.6933 86.1658 97.9239 87.0182 97.8456 87.1398C97.7566 87.297 97.7347 87.434 97.7928 87.4857C97.8676 87.5515 98.09 87.5545 98.3136 87.3866C98.3937 87.3273 98.4744 87.262 98.5545 87.1932C98.9786 86.6225 99.6591 86.0987 99.7996 86.0453C99.9402 85.9919 100.079 85.9498 100.215 85.9178C100.465 85.8508 100.711 85.8258 100.951 85.8258C101.477 85.8134 101.955 85.9059 102.349 85.9813C102.472 86.005 102.554 86.1218 102.534 86.2458C102.515 86.3698 102.399 86.4552 102.276 86.441C102.151 86.4262 102.021 86.406 101.889 86.3858C101.569 86.3372 101.24 86.2874 100.917 86.2915C100.733 86.2974 100.548 86.3188 100.361 86.3609C100.224 86.3959 100.086 86.4469 99.9485 86.5169C99.9058 86.5442 99.7439 86.705 99.6015 86.8468C99.4058 87.0413 99.1578 87.2869 98.8985 87.5112C98.7995 87.6482 98.723 87.7834 98.6886 87.905C98.6494 88.0433 98.6826 88.1002 98.6939 88.1192C98.6992 88.1281 98.7129 88.1524 98.7787 88.1584C98.9727 88.1773 99.4977 87.9976 100.212 87.1973C100.256 87.1469 100.319 87.119 100.385 87.119Z" fill="black"/>
<path d="M69.309 83.25C68.9916 81.605 69.7913 78.5636 70.4723 77.9467C71.6136 76.9133 72.2472 76.0869 73.4472 75.5756C74.4492 75.1491 76.5711 74.8548 76.7289 75.2019C77.223 76.2821 74.3086 76.3118 74.1004 76.4559C73.3743 76.9601 72.6707 77.4982 72.2044 78.6045C73.3286 78.3411 75.3408 78.0576 75.9197 78.2296C76.529 78.4105 78.343 79.7174 78.5791 79.9731C78.989 80.4168 78.8496 81.0035 78.0565 80.641C78.0138 80.6215 76.4507 80.0591 75.8159 79.6053C75.5597 79.422 73.5558 79.7785 72.7081 80.1985C73.5475 79.6403 75.3479 79.365 75.8278 79.6077C75.9417 79.6652 77.821 80.8439 77.9551 80.9786C78.5156 81.5398 77.9391 81.9663 77.3227 81.7242C76.6239 81.4502 75.8177 80.9098 75.6469 80.8736C74.7102 80.6784 73.9289 81.1506 73.2467 81.4294C73.9022 81.1061 74.6633 80.749 75.597 80.8386C75.7631 80.8546 77.649 81.6649 77.4586 82.3732C77.3565 82.7535 76.5741 82.7808 75.3995 82.0214C74.8882 82.2433 74.62 82.4515 74.2042 82.6793C73.9141 82.8389 73.5042 85.4651 72.4951 86.4741C72.2922 86.677 72.1161 88.5426 71.9256 90.2523C71.7073 92.2063 69.6477 85.0071 69.309 83.25Z" fill="white"/>
<path d="M71.7562 90.8195C71.5432 90.8195 71.2057 90.6706 70.2364 87.5782C69.6983 85.859 69.2261 84.0503 69.0802 83.294C68.7521 81.5932 69.5607 78.4581 70.3159 77.7741C70.5953 77.5214 70.8415 77.2835 71.0787 77.0534C71.7948 76.3611 72.4129 75.7637 73.3561 75.3621C74.1285 75.0329 76.6508 74.4717 76.9409 75.1046C77.0726 75.393 77.0109 75.6154 76.9361 75.7513C76.6466 76.2774 75.6578 76.4518 74.6701 76.5853C74.4873 76.6102 74.2827 76.6375 74.2174 76.6577C73.5951 77.0907 73.0387 77.5238 72.6211 78.2772C73.696 78.0648 75.3902 77.8293 75.9864 78.0067C76.6306 78.1983 78.4886 79.5324 78.7502 79.8154C79.0421 80.1309 79.1198 80.526 78.9382 80.7764C78.867 80.8754 78.6695 81.0617 78.2418 80.9543C78.5301 81.3358 78.3824 81.6312 78.3243 81.7202C78.1926 81.9219 77.941 82.0334 77.6581 82.0257C77.7097 82.1645 77.7186 82.3015 77.6824 82.4344C77.6367 82.6058 77.511 82.7387 77.3288 82.8087C76.8922 82.976 76.1863 82.7856 75.3801 82.2861C75.1156 82.4083 74.9192 82.5275 74.7128 82.6521C74.5935 82.7245 74.4731 82.7975 74.3367 82.8728C74.2667 82.9736 74.135 83.3948 74.0294 83.7353C73.7369 84.6726 73.3377 85.9545 72.6662 86.6326C72.5297 86.8645 72.3571 88.4401 72.2314 89.5927C72.2064 89.8217 72.1815 90.0519 72.156 90.2797C72.1418 90.4102 72.0967 90.807 71.7894 90.8195C71.7793 90.8195 71.7675 90.8195 71.7562 90.8195ZM76.1442 75.279C75.5035 75.279 74.2934 75.4689 73.5388 75.7898C72.6745 76.1582 72.1133 76.7004 71.4026 77.3879C71.1618 77.6205 70.9132 77.8613 70.6279 78.1188C70.0299 78.6604 69.2279 81.5997 69.537 83.2062C69.8371 84.764 71.1215 89.1597 71.6998 90.1764C71.723 89.9658 71.7461 89.7535 71.7692 89.5417C72.0231 87.2193 72.1276 86.5139 72.3298 86.3111C72.9248 85.7161 73.3223 84.4406 73.5851 83.5959C73.82 82.8413 73.9107 82.575 74.0917 82.4759C74.2299 82.4 74.3515 82.3258 74.4719 82.2535C74.7092 82.1099 74.9542 81.961 75.3066 81.8086C75.3778 81.7777 75.4602 81.7842 75.5249 81.827C76.4266 82.4095 76.9783 82.4451 77.1622 82.3739C77.2233 82.3502 77.2304 82.3235 77.2333 82.3128C77.2387 82.292 77.2559 82.228 77.1811 82.1052C77.1153 81.9978 77.0055 81.8875 76.8733 81.7813C76.5642 81.6336 76.2611 81.4627 76.0208 81.3275C75.8458 81.2284 75.6471 81.1169 75.5925 81.1003C75.4359 81.0676 75.284 81.0558 75.1351 81.0605C74.9619 81.07 74.7946 81.0961 74.6297 81.1341C74.3052 81.2159 73.9962 81.3536 73.6924 81.4894C73.5697 81.544 73.4498 81.5974 73.333 81.6454C73.2167 81.6923 73.0844 81.6395 73.0328 81.5256C72.9812 81.4111 73.0298 81.277 73.1425 81.2213C73.5008 81.0445 73.9374 80.8292 74.4458 80.7022C74.6795 80.6381 74.9251 80.596 75.1838 80.5954C75.3244 80.5901 75.4685 80.5942 75.6174 80.6079C75.7669 80.6221 76.5618 80.9466 77.1218 81.385C77.2173 81.4301 77.3122 81.4716 77.4054 81.5078C77.6652 81.6098 77.8794 81.5487 77.9345 81.4651C77.9766 81.4004 77.9203 81.2741 77.7892 81.1436C77.683 81.0487 76.7184 80.4317 76.1406 80.071C75.9585 79.9749 75.8072 79.8854 75.691 79.8029C75.4151 79.7139 73.6432 79.9945 72.8109 80.4074C72.7006 80.462 72.5677 80.4216 72.506 80.3154C72.4443 80.2093 72.4758 80.0734 72.5784 80.0058C73.4231 79.444 75.3345 79.0993 75.9312 79.4007C75.936 79.4031 76.095 79.5004 76.3257 79.6439C76.6639 79.8248 77.2049 80.0722 78.0698 80.3985C78.1172 80.4163 78.1463 80.4276 78.1522 80.4299C78.4387 80.5616 78.5509 80.5177 78.5604 80.5041C78.5841 80.4709 78.5734 80.3119 78.4067 80.1315C78.1938 79.9008 76.4016 78.6165 75.8517 78.4527C75.3677 78.3086 73.489 78.5417 72.2557 78.8312C72.1703 78.852 72.0813 78.8217 72.0243 78.7553C71.968 78.6883 71.9537 78.5951 71.9875 78.515C72.4698 77.3719 73.1977 76.7989 73.9653 76.2656C74.0573 76.2021 74.1919 76.1807 74.6048 76.125C75.163 76.0496 76.3251 75.8918 76.5262 75.527C76.5476 75.4879 76.5666 75.4297 76.5268 75.3277C76.4639 75.2945 76.3275 75.279 76.1442 75.279Z" fill="black"/>
<path d="M121.505 101.223C121.494 101.223 121.485 101.223 121.475 101.222C120.923 101.158 112.721 93.8453 110.76 91.947C110.668 91.858 110.665 91.7109 110.755 91.6178C110.844 91.5258 110.991 91.5235 111.084 91.6125C113.72 94.1656 120.839 100.385 121.545 100.757C122.363 100.638 129.029 95.5342 131.549 93.6045C131.651 93.5262 131.797 93.5457 131.875 93.6478C131.953 93.7498 131.934 93.8957 131.832 93.974C124.958 99.237 122.13 101.223 121.505 101.223Z" fill="black"/>
<path d="M120.275 113.088C119.869 113.088 119.505 113.033 119.182 112.926C117.617 112.403 113.725 107.809 107.285 98.88L107.009 98.4992C106.418 97.6806 105.825 95.9573 106.302 94.9814C106.359 94.8664 106.498 94.8189 106.613 94.8747C106.729 94.931 106.776 95.0698 106.72 95.1855C106.343 95.9573 106.863 97.5014 107.387 98.2257L107.662 98.6078C113.954 107.331 117.88 112 119.33 112.484C121.601 113.242 126.458 110.904 133.766 105.536C133.869 105.46 134.015 105.482 134.091 105.586C134.167 105.689 134.145 105.835 134.041 105.911C127.49 110.724 122.962 113.088 120.275 113.088Z" fill="black"/>
<path d="M108.33 98.2186C108.292 98.2186 108.259 98.1901 108.253 98.1515C108.247 98.1094 108.277 98.0697 108.319 98.0643C109.642 97.881 110.642 96.8488 111.634 95.7158C111.662 95.6832 111.711 95.6802 111.743 95.7081C111.775 95.7366 111.779 95.7852 111.751 95.8178C110.739 96.974 109.717 98.0282 108.341 98.218C108.337 98.218 108.334 98.2186 108.33 98.2186Z" fill="black"/>
<path d="M109.08 99.2401C109.044 99.2401 109.012 99.2151 109.004 99.179C108.995 99.1368 109.021 99.0953 109.064 99.0864C109.617 98.9648 110.124 98.6925 110.532 98.2992C110.564 98.2702 110.613 98.2702 110.642 98.3016C110.673 98.3324 110.671 98.3817 110.64 98.4113C110.212 98.8242 109.678 99.1107 109.097 99.2383C109.091 99.2395 109.086 99.2401 109.08 99.2401Z" fill="black"/>
<path d="M121.356 126.155C114.678 126.155 108.78 124.913 106.561 124.381C106.519 124.371 106.494 124.33 106.503 124.288C106.513 124.247 106.554 124.22 106.597 124.231C109.929 125.03 121.584 127.433 131.671 124.799C131.713 124.788 131.755 124.814 131.765 124.855C131.776 124.896 131.751 124.939 131.71 124.949C128.31 125.838 124.733 126.155 121.356 126.155Z" fill="black"/>
<path d="M104.054 100.997C104.026 100.997 103.998 100.992 103.97 100.981C103.85 100.935 103.79 100.8 103.837 100.68L105.215 97.1318C105.262 97.0126 105.397 96.9527 105.517 96.9989C105.636 97.0458 105.696 97.1805 105.65 97.3003L104.271 100.848C104.235 100.94 104.147 100.997 104.054 100.997Z" fill="black"/>
<path d="M103.107 154.139C102.978 154.139 102.874 154.035 102.874 153.906C102.874 147.369 105.092 132.753 105.927 127.25C105.996 126.798 106.054 126.412 106.101 126.102C106.12 125.974 106.236 125.886 106.365 125.906C106.492 125.925 106.579 126.044 106.56 126.171C106.514 126.48 106.455 126.867 106.386 127.32C105.553 132.813 103.339 147.404 103.339 153.906C103.34 154.035 103.235 154.139 103.107 154.139Z" fill="black"/>
<path d="M133.043 131.007C132.942 131.007 132.85 130.942 132.82 130.842C132.531 129.887 132.091 128.624 131.472 126.983C131.427 126.862 131.488 126.728 131.608 126.683C131.728 126.638 131.863 126.698 131.908 126.819C132.53 128.47 132.973 129.741 133.265 130.707C133.303 130.829 133.233 130.96 133.11 130.997C133.087 131.004 133.065 131.007 133.043 131.007Z" fill="black"/>
<path d="M74.9004 59.6918C74.7782 59.6918 74.6755 59.5963 74.6684 59.4729C74.5593 57.5983 75.2539 55.6543 76.5264 54.2727C76.6136 54.1784 76.7607 54.1725 76.855 54.2591C76.9499 54.3463 76.9558 54.4934 76.8686 54.5877C75.6804 55.878 75.0309 57.6944 75.1323 59.4456C75.14 59.5737 75.0421 59.6835 74.914 59.6912C74.9099 59.6918 74.9051 59.6918 74.9004 59.6918Z" fill="black"/>
<path d="M71.9513 59.3293C71.9317 59.3293 71.911 59.3275 71.889 59.3252C71.6191 59.3002 71.6482 58.9805 71.6695 58.7468C71.7591 57.7603 71.8997 56.766 72.086 55.7926C72.1097 55.6704 72.2242 55.5891 72.347 55.6063C72.4698 55.6235 72.557 55.7344 72.5463 55.8578C72.2503 59.0766 72.1773 59.3293 71.9513 59.3293Z" fill="black"/>
<path d="M96.2852 159.41C96.2757 159.41 96.2656 159.41 96.2561 159.409C96.1944 159.4 96.1393 159.369 96.1013 159.32L35.5211 80.924C35.4837 80.8754 35.4665 80.8137 35.4742 80.752C35.4825 80.6909 35.514 80.6351 35.5626 80.5977L106.436 25.8304C106.538 25.7521 106.684 25.7705 106.763 25.8726L167.343 104.269C167.421 104.37 167.403 104.516 167.301 104.595L96.4276 159.362C96.3866 159.393 96.3368 159.41 96.2852 159.41ZM36.0318 80.8238L96.3279 158.852L166.833 104.369L106.537 26.3412L36.0318 80.8238Z" fill="black"/>
<path d="M116.279 143.758C116.252 143.758 116.224 143.753 116.197 143.744C116.077 143.699 116.016 143.564 116.061 143.444L118.724 136.324C118.757 136.237 118.839 136.177 118.934 136.173C119.026 136.171 119.114 136.222 119.153 136.307C119.793 137.674 120.28 139.115 120.602 140.59C120.629 140.715 120.549 140.839 120.424 140.867C120.296 140.894 120.174 140.814 120.147 140.689C119.872 139.431 119.474 138.198 118.962 137.017L116.497 143.607C116.462 143.7 116.373 143.758 116.279 143.758Z" fill="black"/>
<path d="M115.846 136.721C115.724 136.721 115.621 136.625 115.614 136.501C115.607 136.372 115.705 136.263 115.834 136.256L118.895 136.091C119.022 136.087 119.133 136.182 119.14 136.31C119.148 136.438 119.049 136.548 118.921 136.555L115.859 136.721C115.855 136.721 115.851 136.721 115.846 136.721Z" fill="black"/>
<path d="M86.2038 127.374L76.236 146.266L51.5916 140.108L52.5704 120.303L86.2038 127.374Z" fill="black"/>
<path d="M76.236 146.498C76.2176 146.498 76.1986 146.496 76.1797 146.491L51.5352 140.334C51.4266 140.307 51.353 140.207 51.359 140.097L52.3372 120.291C52.3401 120.224 52.3734 120.16 52.4274 120.119C52.4807 120.077 52.5501 120.061 52.6166 120.076L86.2507 127.146C86.3218 127.161 86.3823 127.208 86.4126 127.275C86.444 127.341 86.4422 127.418 86.4078 127.483L76.4401 146.374C76.4009 146.452 76.3208 146.498 76.236 146.498ZM51.8335 139.929L76.1162 145.996L85.8544 127.538L52.7898 120.587L51.8335 139.929Z" fill="black"/>
<path d="M82.5576 116.625L75.964 146.359L49.3792 140.766L55.4513 110.994L82.5576 116.625Z" fill="white"/>
<path d="M75.9639 146.592C75.9485 146.592 75.9319 146.59 75.9159 146.586L49.3316 140.993C49.2058 140.967 49.1257 140.844 49.1512 140.719L55.2228 110.946C55.2352 110.886 55.2708 110.833 55.323 110.798C55.3746 110.764 55.4375 110.753 55.498 110.764L82.6038 116.396C82.6655 116.408 82.7183 116.445 82.7521 116.498C82.7859 116.55 82.7971 116.614 82.7841 116.675L76.1911 146.41C76.1668 146.518 76.0713 146.592 75.9639 146.592ZM49.6531 140.585L75.7871 146.084L82.2787 116.805L55.6321 111.269L49.6531 140.585Z" fill="black"/>
<path d="M75.2708 127.694C75.2655 127.694 75.2601 127.693 75.2548 127.692L64.4897 125.455C64.4482 125.446 64.4209 125.406 64.4292 125.364C64.4381 125.322 64.4797 125.294 64.5206 125.303L75.2862 127.54C75.3278 127.549 75.3551 127.59 75.3467 127.632C75.339 127.669 75.307 127.694 75.2708 127.694Z" fill="black"/>
<path d="M74.3172 132.284C74.3118 132.284 74.3065 132.284 74.3018 132.283L64.8281 130.315C64.786 130.306 64.7593 130.265 64.7676 130.224C64.7765 130.181 64.8186 130.154 64.859 130.163L74.3326 132.131C74.3747 132.14 74.4014 132.181 74.3931 132.223C74.3854 132.259 74.3528 132.284 74.3172 132.284Z" fill="black"/>
<path d="M73.3633 136.875C73.358 136.875 73.3526 136.875 73.3479 136.874L63.8737 134.906C63.8322 134.897 63.8055 134.856 63.8138 134.815C63.8227 134.773 63.8642 134.745 63.9051 134.754L73.3787 136.722C73.4203 136.731 73.4476 136.772 73.4393 136.813C73.4321 136.851 73.3995 136.875 73.3633 136.875Z" fill="black"/>
<path d="M57.1851 116.91L60.4021 122.051L76.0339 125.088L75.9639 146.359L45.634 139.987L45.7195 114.496L57.1851 116.91Z" fill="white"/>
<path d="M75.964 146.592C75.948 146.592 75.932 146.59 75.916 146.586L45.5867 140.214C45.4781 140.191 45.401 140.096 45.4016 139.986L45.487 114.495C45.487 114.425 45.5191 114.359 45.5737 114.315C45.6282 114.27 45.6988 114.254 45.7676 114.268L57.2333 116.682C57.295 116.695 57.3489 116.733 57.3828 116.786L60.5458 121.841L76.0785 124.859C76.1888 124.881 76.2671 124.977 76.2665 125.089L76.1965 146.359C76.1965 146.429 76.1645 146.495 76.1099 146.539C76.0684 146.574 76.0168 146.592 75.964 146.592ZM45.8679 139.798L75.7327 146.073L75.8009 125.28L60.3577 122.279C60.2949 122.266 60.2397 122.229 60.2047 122.174L57.0405 117.117L45.9515 114.782L45.8679 139.798Z" fill="black"/>
<path d="M76.1604 120.464C76.155 120.464 76.1497 120.463 76.1443 120.462L61.0286 117.321C60.9871 117.312 60.9598 117.271 60.9687 117.23C60.9776 117.188 61.0191 117.161 61.0601 117.169L76.1758 120.31C76.2173 120.319 76.2446 120.36 76.2363 120.401C76.2292 120.438 76.1965 120.464 76.1604 120.464Z" fill="black"/>
<path d="M75.6811 122.773C75.6758 122.773 75.6698 122.772 75.6651 122.771L67.4953 121.074C67.4538 121.065 67.4265 121.025 67.4348 120.982C67.4443 120.94 67.4853 120.913 67.5268 120.922L75.6965 122.619C75.7381 122.628 75.7653 122.669 75.7564 122.711C75.7487 122.748 75.7167 122.773 75.6811 122.773Z" fill="black"/>
<path d="M170.751 91.1244C170.623 91.1244 170.519 91.0206 170.519 90.8919V65.8778C170.519 65.7491 170.623 65.6453 170.751 65.6453C170.88 65.6453 170.984 65.7491 170.984 65.8778V90.8919C170.984 91.0206 170.88 91.1244 170.751 91.1244Z" fill="black"/>
<path d="M172.949 88.64H168.553V93.0357H172.949V88.64Z" fill="#3018CC"/>
<path d="M172.95 93.2683H168.554C168.426 93.2683 168.321 93.1639 168.321 93.0351V88.64C168.321 88.5119 168.426 88.4075 168.554 88.4075H172.95C173.078 88.4075 173.183 88.5119 173.183 88.64V93.0351C173.182 93.1639 173.078 93.2683 172.95 93.2683ZM168.786 92.8032H172.716V88.8731H168.786V92.8032Z" fill="#3018CC"/>
<path d="M79.2545 40.6674H41.9823C41.8542 40.6674 41.7498 40.5629 41.7498 40.4348C41.7498 40.3067 41.8542 40.2023 41.9823 40.2023H79.2545C79.3833 40.2023 79.4877 40.3067 79.4877 40.4348C79.4877 40.5629 79.3833 40.6674 79.2545 40.6674Z" fill="black"/>
<path d="M64.7671 40.7214C64.6383 40.7214 64.5339 40.6175 64.5339 40.4888V22.2154C64.5339 22.0867 64.6383 21.9829 64.7671 21.9829C64.8958 21.9829 65.0002 22.0867 65.0002 22.2154V40.4888C65.0002 40.6175 64.8958 40.7214 64.7671 40.7214Z" fill="black"/>
<path d="M66.9646 38.2369H62.5688V42.6327H66.9646V38.2369Z" fill="#FFD42E"/>
<path d="M66.9648 42.8646H62.5691C62.4403 42.8646 62.3359 42.7602 62.3359 42.632V38.2363C62.3359 38.1076 62.4403 38.0032 62.5691 38.0032H66.9648C67.0929 38.0032 67.1973 38.1076 67.1973 38.2363V42.632C67.1973 42.7608 67.0929 42.8646 66.9648 42.8646ZM62.8022 42.3995H66.7323V38.4694H62.8022V42.3995Z" fill="black"/>
<path d="M79.2545 40.6674H41.9823C41.8542 40.6674 41.7498 40.5629 41.7498 40.4348C41.7498 40.3067 41.8542 40.2023 41.9823 40.2023H79.2545C79.3833 40.2023 79.4877 40.3067 79.4877 40.4348C79.4877 40.5629 79.3833 40.6674 79.2545 40.6674Z" fill="black"/>
<path d="M64.7671 40.7214C64.6383 40.7214 64.5339 40.6175 64.5339 40.4888V22.2154C64.5339 22.0867 64.6383 21.9829 64.7671 21.9829C64.8958 21.9829 65.0002 22.0867 65.0002 22.2154V40.4888C65.0002 40.6175 64.8958 40.7214 64.7671 40.7214Z" fill="black"/>
<path d="M66.9646 38.2369H62.5688V42.6327H66.9646V38.2369Z" fill="#644BFD"/>
<path d="M66.9648 42.8646H62.5691C62.4403 42.8646 62.3359 42.7602 62.3359 42.632V38.2363C62.3359 38.1076 62.4403 38.0032 62.5691 38.0032H66.9648C67.0929 38.0032 67.1973 38.1076 67.1973 38.2363V42.632C67.1973 42.7608 67.0929 42.8646 66.9648 42.8646ZM62.8022 42.3995H66.7323V38.4694H62.8022V42.3995Z" fill="black"/>
<path d="M49.4119 148.263H12.139C12.0109 148.263 11.9065 148.159 11.9065 148.03C11.9065 147.902 12.0109 147.798 12.139 147.798H49.4119C49.54 147.798 49.6444 147.902 49.6444 148.03C49.6438 148.159 49.5394 148.263 49.4119 148.263Z" fill="black"/>
<path d="M30.7754 148.263C30.6466 148.263 30.5422 148.159 30.5422 148.03V126.077C30.5422 125.948 30.6466 125.843 30.7754 125.843C30.9041 125.843 31.0079 125.948 31.0079 126.077V148.03C31.0073 148.159 30.9035 148.263 30.7754 148.263Z" fill="black"/>
<path d="M32.9729 145.778H28.5771V150.173H32.9729V145.778Z" fill="#644BFD"/>
<path d="M32.9732 150.407H28.5775C28.4494 150.407 28.345 150.302 28.345 150.173V145.778C28.345 145.65 28.4494 145.545 28.5775 145.545H32.9732C33.1014 145.545 33.2058 145.65 33.2058 145.778V150.173C33.2052 150.302 33.1008 150.407 32.9732 150.407ZM28.81 149.941H32.7401V146.011H28.81V149.941Z" fill="black"/>
<path d="M159.221 54.0093C157.182 52.3322 154.669 51.9271 152.748 53.7809C150.827 55.6347 150.57 59.5481 152.491 61.4013C154.58 63.417 159.546 63.3897 162.26 63.3423C167.485 63.2521 172.798 63.5031 178.022 63.5031C187.812 63.5031 186.752 55.0931 184.14 53.3004C182.871 52.4301 181.145 52.5701 179.993 53.6367C180.483 50.0964 178.308 46.3348 175.302 45.5221C172.295 44.7094 168.914 46.969 168.007 50.3966C166.654 48.7641 164.41 48.2308 162.612 49.1152C160.815 50.0003 159.659 51.8861 159.221 54.0093Z" fill="white"/>
<path d="M178.022 63.7362C175.808 63.7362 173.54 63.6899 171.347 63.646C168.36 63.5849 165.272 63.5226 162.264 63.5748C159.759 63.6181 154.547 63.7083 152.329 61.5686C151.446 60.7161 150.939 59.3713 150.939 57.8794C150.939 56.203 151.554 54.6078 152.585 53.613C154.359 51.9016 156.819 51.9063 159.074 53.5987C159.613 51.4205 160.851 49.7227 162.508 48.907C164.296 48.0273 166.455 48.4556 167.901 49.9333C168.452 48.2533 169.603 46.8153 171.107 45.9457C172.474 45.1561 173.984 44.9266 175.361 45.2985C178.349 46.1059 180.507 49.6064 180.278 53.1159C181.477 52.3144 183.077 52.2907 184.27 53.1093C185.687 54.0816 186.679 56.8146 185.898 59.3334C185.388 60.9771 183.687 63.7362 178.022 63.7362ZM164.643 63.0908C166.888 63.0908 169.15 63.1364 171.357 63.1809C173.547 63.2254 175.813 63.2711 178.022 63.2711C183.389 63.2711 184.982 60.7173 185.454 59.1951C186.164 56.9065 185.261 54.3533 184.008 53.4926C182.838 52.6899 181.216 52.8222 180.151 53.8081C180.079 53.8752 179.972 53.8894 179.886 53.8437C179.799 53.7987 179.75 53.7031 179.762 53.6059C180.234 50.1984 178.12 46.5264 175.24 45.7476C173.984 45.4076 172.599 45.6212 171.342 46.3485C169.824 47.2258 168.691 48.7231 168.232 50.4571C168.21 50.5413 168.143 50.606 168.058 50.625C167.972 50.6434 167.884 50.6131 167.828 50.5461C166.553 49.0079 164.403 48.4941 162.715 49.3246C161.096 50.1213 159.906 51.8458 159.448 54.0567C159.432 54.1368 159.375 54.202 159.298 54.2293C159.221 54.2566 159.136 54.2418 159.073 54.1896C156.905 52.4064 154.601 52.3162 152.909 53.9487C151.967 54.8581 151.404 56.3275 151.404 57.88C151.404 59.2467 151.859 60.4693 152.653 61.2346C154.732 63.2403 160.005 63.1501 162.256 63.1103C163.047 63.0961 163.844 63.0908 164.643 63.0908Z" fill="black"/>
<path d="M51.3475 56.5993C50.1516 56.5993 49.1787 55.6264 49.1787 54.4305C49.1787 53.2346 50.1522 52.2617 51.3475 52.2617C52.5428 52.2617 53.5163 53.2346 53.5163 54.4305C53.5163 55.6264 52.5434 56.5993 51.3475 56.5993ZM51.3475 52.7268C50.4084 52.7268 49.6438 53.4909 49.6438 54.4305C49.6438 55.3702 50.4084 56.1342 51.3475 56.1342C52.2872 56.1342 53.0512 55.3696 53.0512 54.4305C53.0512 53.4915 52.2872 52.7268 51.3475 52.7268Z" fill="black"/>
<path d="M207.05 79.5965C205.853 79.5965 204.881 78.623 204.881 77.4277C204.881 76.2318 205.854 75.2589 207.05 75.2589C208.246 75.2589 209.219 76.2318 209.219 77.4277C209.219 78.623 208.246 79.5965 207.05 79.5965ZM207.05 75.724C206.11 75.724 205.346 76.4881 205.346 77.4277C205.346 78.3668 206.11 79.1314 207.05 79.1314C207.989 79.1314 208.754 78.3674 208.754 77.4277C208.754 76.4881 207.989 75.724 207.05 75.724Z" fill="black"/>
<path d="M65.8812 164.21C64.6853 164.21 63.7124 163.237 63.7124 162.041C63.7124 160.845 64.6853 159.873 65.8812 159.873C67.0771 159.873 68.05 160.845 68.05 162.041C68.0506 163.237 67.0777 164.21 65.8812 164.21ZM65.8812 160.338C64.9421 160.338 64.1775 161.102 64.1775 162.041C64.1775 162.98 64.9421 163.745 65.8812 163.745C66.8203 163.745 67.5849 162.98 67.5849 162.041C67.5855 161.102 66.8208 160.338 65.8812 160.338Z" fill="black"/>
</svg>
