<svg width="165" height="33" viewBox="0 0 165 33" fill="none" xmlns="http://www.w3.org/2000/svg">
<path fill-rule="evenodd" clip-rule="evenodd" d="M32.8527 6.83697C32.1475 8.27034 31.4398 9.70223 30.7381 11.1375C29.6464 13.37 28.5599 15.605 27.4692 17.8377C27.2386 18.3094 26.9088 18.491 26.5078 18.3802C26.097 18.2665 25.8635 17.881 25.969 17.4666C26.008 17.3133 26.072 17.1642 26.1414 17.0216C27.3401 14.5564 28.5411 12.0925 29.7415 9.62817C29.7973 9.51404 29.8505 9.39906 29.9236 9.24513C29.7284 9.14919 29.5431 9.0581 29.3311 8.95371C29.2726 9.06657 29.2176 9.16679 29.1675 9.26955C26.3266 15.0989 23.4843 20.9275 20.6476 26.7588C20.4466 27.1723 20.1777 27.5085 19.8013 27.7787C18.6047 28.6382 17.4169 29.5104 16.2316 30.3857C15.8245 30.6863 15.3847 30.8664 14.876 30.9001C14.7698 30.9071 14.6383 31.0108 14.576 31.1072C14.4436 31.312 14.3613 31.5486 14.2361 31.7587C14.0082 32.1402 13.5678 32.2712 13.2159 32.0786C12.8372 31.8713 12.6959 31.4455 12.8708 31.035C12.8875 30.9959 12.9038 30.9556 12.9264 30.9198C13.1984 30.4908 13.3646 30.0843 12.9795 29.5987C12.8329 29.4139 12.8266 29.0919 12.8156 28.83C12.7501 27.2718 12.6872 25.7135 12.6599 24.1543C12.6541 23.8155 12.7332 23.443 12.881 23.1381C16.2668 16.1506 19.6638 9.16862 23.0684 2.19021C23.885 0.516148 25.8718 -0.311689 27.8118 0.177195C29.6933 0.651034 31.0144 2.20128 31.1638 4.12325C31.2164 4.80142 31.0301 5.43394 30.743 6.03999C30.5067 6.53906 30.2622 7.03432 30.0097 7.55528C30.2116 7.65334 30.391 7.74063 30.6098 7.84693C30.8628 7.33355 31.1056 6.82859 31.3592 6.32892C31.5473 5.95832 31.8844 5.79823 32.2543 5.8803C32.5709 5.95092 32.7187 6.19409 32.8537 6.45262C32.8531 6.58053 32.8529 6.70864 32.8527 6.83697ZM26.1831 11.8327C24.5263 11.0288 22.9013 10.2403 21.2729 9.45052C21.2332 9.51326 21.2072 9.54694 21.1891 9.58463C18.9392 14.2038 16.6912 18.8238 14.4352 23.4398C14.3418 23.6307 14.4043 23.7225 14.5311 23.8449C15.7679 25.0366 17.2309 25.7608 18.9313 26.0184C19.1761 26.0556 19.2859 26.0052 19.3935 25.7814C20.2902 23.9178 21.2013 22.0613 22.107 20.2024C23.4611 17.4235 24.814 14.6443 26.1831 11.8327ZM26.8636 10.4261C26.9266 10.3031 26.9764 10.21 27.0227 10.1151C27.775 8.57199 28.5127 7.02172 29.284 5.48836C29.7098 4.64208 29.7128 3.83145 29.2268 3.02349C28.6327 2.03543 27.7131 1.5815 26.6005 1.59615C25.5677 1.60964 24.8092 2.14843 24.3525 3.08569C23.5957 4.63846 22.8406 6.19166 22.0853 7.74506C22.0405 7.83708 22.0027 7.93227 21.9545 8.0422C23.5957 8.83915 25.2152 9.62554 26.8636 10.4261ZM14.2504 25.6744C14.2502 25.8461 14.2466 25.9485 14.2503 26.0505C14.2821 26.9246 14.3184 27.7989 14.3454 28.6733C14.353 28.9207 14.3871 29.1559 14.6301 29.2727C14.88 29.393 15.1008 29.2877 15.3103 29.1334C16.0399 28.5952 16.7742 28.0637 17.5057 27.5279C17.561 27.4873 17.6066 27.4334 17.6865 27.3568C16.4204 27.0275 15.309 26.4661 14.2504 25.6744Z" fill="white"/>
<path fill-rule="evenodd" clip-rule="evenodd" d="M0.0319436 10.1871C0.310788 9.70327 0.713001 9.59764 1.24977 9.70924C2.54408 9.97849 3.85409 10.1746 5.14417 10.4618C6.48648 10.7606 7.75941 11.2486 8.83557 12.1467C10.4522 13.4955 10.8738 15.2237 10.4429 17.2222C10.1358 18.6465 9.48725 19.9325 8.82081 21.2091C7.88793 22.9956 6.92619 24.7671 6.00215 26.5582C5.60975 27.3186 5.35109 28.1333 5.23651 28.9882C5.14727 29.654 5.35807 30.0469 5.97089 30.3171C6.85202 30.7052 7.79413 30.7339 8.73265 30.7652C9.27693 30.7832 9.82189 30.7661 10.3666 30.7736C10.8287 30.7798 11.1541 31.0803 11.1777 31.5068C11.2011 31.9308 10.8946 32.3025 10.4386 32.307C8.95655 32.3204 7.46535 32.4009 6.01657 31.9818C5.02615 31.6951 4.18922 31.2036 3.81286 30.1644C3.55762 29.4596 3.66546 28.7553 3.82197 28.0521C4.07689 26.9065 4.5639 25.8506 5.10461 24.8208C6.03156 23.0549 6.99495 21.3081 7.91517 19.5389C8.38278 18.6402 8.76995 17.7056 8.96208 16.6977C9.27778 15.0406 8.65214 13.7025 7.18013 12.8785C5.98648 12.2103 4.68442 11.9048 3.35761 11.6684C2.48606 11.5131 1.61515 11.354 0.74169 11.2093C0.387334 11.1506 0.200129 10.9108 0.0310959 10.636C0.031519 10.4864 0.0317312 10.3367 0.0319436 10.1871Z" fill="white"/>
<path d="M51.6557 11.7688C51.5864 11.059 51.2851 10.5072 50.7519 10.1134C50.2187 9.7197 49.4946 9.52218 48.5795 9.52088C47.9578 9.51999 47.4327 9.60723 47.0043 9.78259C46.5759 9.95208 46.2471 10.1892 46.0179 10.4938C45.7946 10.7985 45.6826 11.1444 45.6821 11.5316C45.6699 11.8542 45.7369 12.1358 45.8832 12.3765C46.0354 12.6172 46.2433 12.8257 46.507 13.002C46.7707 13.1725 47.0755 13.3225 47.4214 13.4521C47.7673 13.5757 48.1367 13.6818 48.5295 13.7704L50.1479 14.1598C50.9336 14.3369 51.6547 14.5725 52.3112 14.8667C52.9677 15.1609 53.5362 15.5225 54.0165 15.9513C54.4969 16.3802 54.8686 16.8851 55.1318 17.4662C55.4008 18.0473 55.5377 18.7132 55.5425 19.464C55.535 20.5667 55.2521 21.5224 54.6938 22.331C54.1413 23.1338 53.3427 23.7574 52.298 24.2017C51.2592 24.6401 50.0066 24.8583 48.5402 24.8562C47.0855 24.8541 45.8189 24.6294 44.7403 24.1821C43.6675 23.7348 42.8297 23.0738 42.2268 22.199C41.6298 21.3183 41.3175 20.2298 41.29 18.9335L44.9765 18.9387C45.0167 19.5429 45.189 20.0476 45.4934 20.4527C45.8037 20.852 46.2168 21.1547 46.7327 21.3607C47.2544 21.5609 47.8438 21.6614 48.5007 21.6624C49.1459 21.6633 49.7062 21.5702 50.1816 21.3832C50.6628 21.1962 51.0357 20.9357 51.3001 20.6017C51.5645 20.2678 51.697 19.8838 51.6976 19.4497C51.6982 19.045 51.5785 18.7047 51.3384 18.4286C51.1041 18.1526 50.7584 17.9175 50.3012 17.7233C49.8498 17.5291 49.2958 17.3523 48.639 17.193L46.6777 16.6976C45.1591 16.3259 43.9604 15.7464 43.0817 14.9592C42.203 14.172 41.7675 13.1126 41.7753 11.7812C41.771 10.6902 42.0627 9.73745 42.6504 8.92298C43.2439 8.10851 44.0572 7.47326 45.0902 7.01722C46.1232 6.56117 47.2966 6.33409 48.6105 6.33595C49.9478 6.33785 51.1147 6.56826 52.1112 7.02718C53.1135 7.48612 53.8927 8.12363 54.4488 8.93973C55.0049 9.75582 55.2909 10.7006 55.307 11.774L51.6557 11.7688ZM58.0272 24.6145L58.0464 11.1004L61.7945 11.1057L61.7753 24.6198L58.0272 24.6145ZM59.9317 9.36103C59.3745 9.36023 58.8967 9.17479 58.4984 8.8047C58.1059 8.42875 57.9101 7.97976 57.9108 7.45773C57.9116 6.94157 58.1087 6.499 58.5022 6.13004C58.9016 5.75521 59.3799 5.56819 59.9371 5.56898C60.4943 5.56977 60.9692 5.75814 61.3616 6.13409C61.76 6.50419 61.9588 6.94731 61.958 7.46348C61.9573 7.98551 61.7572 8.43393 61.3578 8.80876C60.9643 9.17773 60.489 9.36182 59.9317 9.36103ZM70.8585 29.9821C69.6443 29.9803 68.6034 29.8117 67.7358 29.4761C66.8741 29.1464 66.1884 28.6968 65.6789 28.1271C65.1695 27.5574 64.839 26.9176 64.6875 26.2076L68.1546 25.7463C68.2598 26.0162 68.4266 26.2687 68.6551 26.5036C68.8835 26.7386 69.1853 26.9267 69.5605 27.068C69.9415 27.2152 70.4048 27.2891 70.9503 27.2899C71.7656 27.2911 72.4375 27.0926 72.9659 26.6945C73.5003 26.3023 73.7681 25.6428 73.7694 24.716L73.7729 22.2437L73.6145 22.2435C73.4498 22.6187 73.2029 22.9732 72.874 23.307C72.545 23.6409 72.1223 23.9131 71.6059 24.1235C71.0894 24.3339 70.4734 24.4386 69.7578 24.4376C68.7431 24.4362 67.8196 24.2002 66.9873 23.7298C66.161 23.2535 65.5021 22.5282 65.0108 21.5538C64.5254 20.5736 64.2837 19.3356 64.2858 17.8399C64.288 16.309 64.5391 15.0307 65.0391 14.005C65.5391 12.9792 66.203 12.2118 67.0308 11.7026C67.8644 11.1935 68.7769 10.9397 69.7681 10.9411C70.5248 10.9422 71.1581 11.0721 71.668 11.3309C72.178 11.5838 72.5881 11.9012 72.8984 12.2829C73.2146 12.6587 73.4575 13.0286 73.6271 13.3925L73.7679 13.3927L73.7711 11.1227L77.4927 11.128L77.4734 24.7741C77.4717 25.9237 77.1888 26.8853 76.6246 27.6587C76.0605 28.4322 75.2795 29.0117 74.2818 29.3974C73.29 29.789 72.1489 29.9839 70.8585 29.9821ZM70.9495 21.6238C71.5537 21.6247 72.0642 21.4759 72.4811 21.1773C72.9038 20.8729 73.227 20.4393 73.4507 19.8765C73.6803 19.3079 73.7956 18.6277 73.7968 17.8358C73.7979 17.044 73.6874 16.3576 73.4653 15.7766C73.2433 15.1897 72.9213 14.7347 72.4995 14.4115C72.0776 14.0883 71.5646 13.9262 70.9605 13.9254C70.3446 13.9245 69.8253 14.0909 69.4025 14.4247C68.9797 14.7525 68.6594 15.2096 68.4415 15.7958C68.2237 16.3821 68.1142 17.0594 68.1131 17.8278C68.112 18.6079 68.2195 19.2826 68.4358 19.8518C68.6578 20.4152 68.9769 20.8527 69.3929 21.1641C69.8148 21.4697 70.3337 21.623 70.9495 21.6238ZM84.2153 16.8388L84.2042 24.6517L80.4562 24.6463L80.4754 11.1322L84.0474 11.1373L84.0441 13.5216L84.2024 13.5219C84.5027 12.7363 85.0051 12.1153 85.7096 11.6588C86.4141 11.1964 87.2678 10.9659 88.2708 10.9673C89.2093 10.9687 90.0273 11.1751 90.7247 11.5867C91.4221 11.9983 91.9638 12.5856 92.3499 13.3487C92.7359 14.1059 92.9282 15.0094 92.9267 16.0593L92.9145 24.664L89.1664 24.6587L89.1777 16.7227C89.1847 15.8957 88.9745 15.2502 88.547 14.7862C88.1195 14.3163 87.5303 14.0809 86.7795 14.0798C86.2751 14.0791 85.8292 14.187 85.4417 14.4034C85.0602 14.6199 84.7606 14.9362 84.543 15.3524C84.3312 15.7627 84.222 16.2581 84.2153 16.8388ZM104.543 18.9265L104.554 11.1664L108.302 11.1717L108.283 24.6858L104.684 24.6807L104.688 22.226L104.547 22.2258C104.241 23.0172 103.733 23.6529 103.022 24.1329C102.318 24.6129 101.458 24.8521 100.443 24.8507C99.54 24.8494 98.7456 24.643 98.0599 24.2314C97.3742 23.8199 96.8383 23.2355 96.4523 22.4783C96.0721 21.7211 95.8798 20.8146 95.8755 19.7588L95.8877 11.1541L99.6357 11.1594L99.6245 19.0955C99.6292 19.8932 99.8424 20.524 100.264 20.988C100.686 21.452 101.251 21.6845 101.961 21.6855C102.413 21.6861 102.835 21.5841 103.229 21.3793C103.622 21.1687 103.939 20.8583 104.18 20.4481C104.427 20.0378 104.548 19.5306 104.543 18.9265ZM111.281 24.6901L111.3 11.176L114.934 11.1812L114.93 13.5391L115.071 13.5393C115.319 12.7009 115.733 12.068 116.314 11.6406C116.896 11.2074 117.565 10.9913 118.321 10.9924C118.509 10.9927 118.711 11.0047 118.928 11.0285C119.145 11.0522 119.336 11.0848 119.5 11.126L119.495 14.4518C119.319 14.3987 119.076 14.3515 118.765 14.31C118.454 14.2685 118.17 14.2475 117.912 14.2472C117.361 14.2464 116.868 14.3659 116.433 14.6058C116.005 14.8398 115.664 15.1678 115.411 15.5898C115.164 16.0117 115.04 16.4984 115.04 17.0497L115.029 24.6954L111.281 24.6901ZM126.856 24.9938C125.747 24.9922 124.777 24.6975 123.945 24.1098C123.112 23.5221 122.463 22.7029 121.995 21.6523C121.533 20.6017 121.303 19.3784 121.305 17.9825C121.307 16.5923 121.54 15.3756 122.005 14.3322C122.476 13.2829 123.131 12.4685 123.971 11.889C124.81 11.3037 125.787 11.0118 126.902 11.0134C127.723 11.0145 128.406 11.1622 128.951 11.4562C129.496 11.7444 129.933 12.1028 130.261 12.5314C130.588 12.9601 130.843 13.3769 131.024 13.7819L131.165 13.7821L131.175 6.6995L132.75 6.70174L132.724 24.7205L131.193 24.7184L131.197 22.2109L131.012 22.2106C130.83 22.6209 130.571 23.0429 130.236 23.4765C129.901 23.9042 129.458 24.2643 128.906 24.5567C128.36 24.8492 127.677 24.9949 126.856 24.9938ZM127.042 23.5599C127.916 23.5611 128.662 23.3246 129.278 22.8504C129.895 22.3703 130.365 21.7111 130.689 20.8728C131.018 20.0286 131.184 19.0611 131.185 17.9701C131.187 16.8908 131.027 15.9375 130.706 15.11C130.384 14.2766 129.916 13.6249 129.301 13.1548C128.685 12.6788 127.938 12.4402 127.058 12.4389C126.155 12.4376 125.392 12.6829 124.769 13.1747C124.153 13.6607 123.683 14.3199 123.359 15.1523C123.041 15.9848 122.881 16.9201 122.88 17.9583C122.878 19.0082 123.038 19.9557 123.36 20.8008C123.681 21.6459 124.149 22.3182 124.765 22.8176C125.386 23.3112 126.145 23.5586 127.042 23.5599ZM142.437 25.0159C141.27 25.0142 140.238 24.7165 139.341 24.1228C138.451 23.5292 137.754 22.7099 137.251 21.6652C136.748 20.6145 136.498 19.4029 136.499 18.0304C136.501 16.6462 136.755 15.4294 137.261 14.3802C137.767 13.3251 138.466 12.505 139.359 11.9197C140.257 11.3285 141.29 11.0338 142.457 11.0355C143.624 11.0371 144.653 11.3348 145.544 11.9285C146.435 12.5221 147.131 13.3443 147.634 14.3949C148.143 15.4456 148.397 16.663 148.395 18.0473C148.393 19.4198 148.139 20.6307 147.633 21.6799C147.127 22.7232 146.425 23.5405 145.527 24.1316C144.634 24.7228 143.604 25.0175 142.437 25.0159ZM142.439 23.5818C143.378 23.5831 144.173 23.332 144.825 22.8285C145.476 22.325 145.97 21.6541 146.306 20.8158C146.647 19.9775 146.818 19.0539 146.82 18.0451C146.821 17.0362 146.652 16.1092 146.313 15.2641C145.98 14.419 145.489 13.7408 144.838 13.2296C144.188 12.7184 143.393 12.4621 142.455 12.4608C141.522 12.4595 140.727 12.7135 140.07 13.2228C139.418 13.7322 138.921 14.409 138.58 15.2531C138.244 16.0973 138.076 17.0238 138.074 18.0327C138.073 19.0415 138.239 19.9656 138.572 20.8048C138.911 21.6441 139.406 22.3164 140.056 22.8217C140.706 23.3271 141.501 23.5804 142.439 23.5818ZM157.102 25.0367C155.893 25.035 154.841 24.7314 153.944 24.126C153.054 23.5206 152.363 22.6926 151.872 21.6419C151.38 20.5913 151.136 19.3944 151.138 18.0512C151.139 16.6963 151.39 15.4913 151.891 14.4362C152.396 13.3811 153.096 12.5551 153.988 11.958C154.88 11.3552 155.916 11.0546 157.095 11.0562C157.998 11.0575 158.816 11.2346 159.549 11.5876C160.282 11.9347 160.885 12.4253 161.359 13.0595C161.839 13.6878 162.141 14.4214 162.263 15.2603L160.679 15.2581C160.516 14.4953 160.121 13.8437 159.494 13.3032C158.873 12.7568 158.081 12.483 157.119 12.4816C156.257 12.4804 155.494 12.7139 154.831 13.1822C154.167 13.6446 153.647 14.292 153.271 15.1244C152.9 15.9509 152.714 16.9097 152.713 18.0006C152.711 19.0975 152.891 20.0685 153.254 20.9136C153.616 21.7529 154.126 22.4106 154.782 22.8866C155.444 23.3627 156.218 23.6013 157.104 23.6026C157.702 23.6034 158.248 23.4927 158.741 23.2706C159.24 23.0425 159.656 22.7205 159.991 22.3045C160.332 21.8886 160.562 21.3933 160.68 20.8186L162.263 20.8208C162.145 21.636 161.854 22.3629 161.389 23.0016C160.931 23.6344 160.335 24.1321 159.601 24.4947C158.873 24.8574 158.04 25.038 157.102 25.0367Z" fill="white"/>
</svg>
