<svg width="20" height="21" viewBox="0 0 20 21" fill="none" xmlns="http://www.w3.org/2000/svg">
<g clip-path="url(#clip0_1614_2383)">
<path d="M6.25 11.689C5.50832 11.689 4.7833 11.4691 4.16661 11.057C3.54993 10.645 3.06928 10.0593 2.78545 9.37408C2.50162 8.68886 2.42736 7.93486 2.57206 7.20743C2.71675 6.48 3.0739 5.81181 3.59835 5.28737C4.1228 4.76292 4.79098 4.40577 5.51841 4.26107C6.24584 4.11638 6.99984 4.19064 7.68506 4.47447C8.37029 4.7583 8.95596 5.23894 9.36801 5.85563C9.78007 6.47231 10 7.19734 10 7.93902C9.9989 8.93324 9.60345 9.88643 8.90043 10.5894C8.19741 11.2925 7.24422 11.6879 6.25 11.689ZM6.25 5.85568C5.83796 5.85568 5.43516 5.97787 5.09256 6.20679C4.74996 6.43571 4.48293 6.76108 4.32525 7.14176C4.16757 7.52244 4.12631 7.94133 4.2067 8.34546C4.28708 8.74958 4.4855 9.1208 4.77686 9.41216C5.06822 9.70352 5.43943 9.90193 5.84356 9.98232C6.24769 10.0627 6.66658 10.0214 7.04726 9.86377C7.42794 9.70608 7.75331 9.43906 7.98223 9.09646C8.21115 8.75385 8.33333 8.35106 8.33333 7.93902C8.33333 7.38648 8.11384 6.85658 7.72314 6.46588C7.33244 6.07518 6.80253 5.85568 6.25 5.85568ZM12.5 17.5224C12.4987 16.4177 12.0593 15.3586 11.2781 14.5775C10.497 13.7964 9.438 13.357 8.33333 13.3557H4.16667C3.062 13.357 2.00296 13.7964 1.22185 14.5775C0.440735 15.3586 0.00132321 16.4177 0 17.5224L0 20.8557H1.66667V17.5224C1.66667 16.8593 1.93006 16.2234 2.3989 15.7546C2.86774 15.2857 3.50363 15.0224 4.16667 15.0224H8.33333C8.99637 15.0224 9.63226 15.2857 10.1011 15.7546C10.5699 16.2234 10.8333 16.8593 10.8333 17.5224V20.8557H12.5V17.5224ZM14.5833 8.35568C13.8417 8.35568 13.1166 8.13575 12.4999 7.7237C11.8833 7.31164 11.4026 6.72597 11.1188 6.04075C10.835 5.35552 10.7607 4.60152 10.9054 3.8741C11.0501 3.14667 11.4072 2.47848 11.9317 1.95403C12.4561 1.42959 13.1243 1.07243 13.8517 0.927739C14.5792 0.783045 15.3332 0.857307 16.0184 1.14114C16.7036 1.42496 17.2893 1.90561 17.7013 2.5223C18.1134 3.13898 18.3333 3.864 18.3333 4.60568C18.3322 5.59991 17.9368 6.55309 17.2338 7.25612C16.5307 7.95914 15.5776 8.35458 14.5833 8.35568ZM14.5833 2.52235C14.1713 2.52235 13.7685 2.64454 13.4259 2.87346C13.0833 3.10238 12.8163 3.42775 12.6586 3.80843C12.5009 4.18911 12.4596 4.608 12.54 5.01212C12.6204 5.41625 12.8188 5.78746 13.1102 6.07882C13.4016 6.37018 13.7728 6.5686 14.1769 6.64899C14.581 6.72937 14.9999 6.68812 15.3806 6.53043C15.7613 6.37275 16.0866 6.10572 16.3156 5.76312C16.5445 5.42052 16.6667 5.01773 16.6667 4.60568C16.6667 4.05315 16.4472 3.52325 16.0565 3.13254C15.6658 2.74184 15.1359 2.52235 14.5833 2.52235ZM20 14.189C19.9987 13.0844 19.5593 12.0253 18.7782 11.2442C17.997 10.4631 16.938 10.0237 15.8333 10.0224H12.5V11.689H15.8333C16.4964 11.689 17.1323 11.9524 17.6011 12.4213C18.0699 12.8901 18.3333 13.526 18.3333 14.189V17.5224H20V14.189Z" fill="white"/>
</g>
<defs>
<clipPath id="clip0_1614_2383">
<rect width="20" height="20" fill="white" transform="translate(0 0.855682)"/>
</clipPath>
</defs>
</svg>
