<svg width="24" height="25" viewBox="0 0 24 25" fill="none" xmlns="http://www.w3.org/2000/svg">
<g clip-path="url(#clip0_1614_9433)">
<path d="M18 6.35571C18 4.76441 17.3679 3.23829 16.2426 2.11307C15.1174 0.987854 13.5913 0.355713 12 0.355713C10.4087 0.355713 8.88258 0.987854 7.75736 2.11307C6.63214 3.23829 6 4.76441 6 6.35571H0V21.3557C0 22.1514 0.31607 22.9144 0.87868 23.477C1.44129 24.0396 2.20435 24.3557 3 24.3557H21C21.7956 24.3557 22.5587 24.0396 23.1213 23.477C23.6839 22.9144 24 22.1514 24 21.3557V6.35571H18ZM12 2.35571C13.0609 2.35571 14.0783 2.77714 14.8284 3.52729C15.5786 4.27743 16 5.29485 16 6.35571H8C8 5.29485 8.42143 4.27743 9.17157 3.52729C9.92172 2.77714 10.9391 2.35571 12 2.35571ZM22 21.3557C22 21.6209 21.8946 21.8753 21.7071 22.0628C21.5196 22.2504 21.2652 22.3557 21 22.3557H3C2.73478 22.3557 2.48043 22.2504 2.29289 22.0628C2.10536 21.8753 2 21.6209 2 21.3557V8.35571H6V10.3557H8V8.35571H16V10.3557H18V8.35571H22V21.3557Z" fill="white"/>
</g>
<defs>
<clipPath id="clip0_1614_9433">
<rect width="24" height="24" fill="white" transform="translate(0 0.355713)"/>
</clipPath>
</defs>
</svg>
