<svg width="20" height="21" viewBox="0 0 20 21" fill="none" xmlns="http://www.w3.org/2000/svg">
<g clip-path="url(#clip0_1614_9450)">
<path d="M17.5 0.855713H6.66667C5.28833 0.855713 4.16667 1.97738 4.16667 3.35571V5.85571H0V17.939C0 19.5474 1.30833 20.8557 2.91667 20.8557H17.0833C18.6917 20.8557 20 19.5474 20 17.939V3.35571C20 1.97738 18.8783 0.855713 17.5 0.855713ZM4.16667 17.939C4.16667 18.6282 3.60583 19.189 2.91667 19.189C2.2275 19.189 1.66667 18.6282 1.66667 17.939V7.52238H4.16667V17.939ZM18.3333 17.939C18.3333 18.6282 17.7725 19.189 17.0833 19.189H5.55167C5.73167 18.8099 5.83333 18.3865 5.83333 17.939V3.35571C5.83333 2.89655 6.2075 2.52238 6.66667 2.52238H17.5C17.9592 2.52238 18.3333 2.89655 18.3333 3.35571V17.939ZM12.5 5.85571H16.6667V7.52238H12.5V5.85571ZM7.5 9.18905H16.6667V10.8557H7.5V9.18905ZM7.5 12.5224H16.6667V14.189H7.5V12.5224ZM7.5 15.8557H16.6667V17.5224H7.5V15.8557ZM10.8333 7.52238H7.5V4.18905H10.8333V7.52238Z" fill="white"/>
</g>
<defs>
<clipPath id="clip0_1614_9450">
<rect width="20" height="20" fill="white" transform="translate(0 0.855713)"/>
</clipPath>
</defs>
</svg>
