<svg width="24" height="25" viewBox="0 0 24 25" fill="none" xmlns="http://www.w3.org/2000/svg">
<g clip-path="url(#clip0_1614_765)">
<path d="M7.70702 9.6487C7.79987 9.74154 7.87352 9.85177 7.92376 9.97307C7.97401 10.0944 7.99987 10.2244 7.99987 10.3557C7.99987 10.487 7.97401 10.617 7.92376 10.7383C7.87352 10.8596 7.79987 10.9699 7.70702 11.0627C7.61418 11.1555 7.50396 11.2292 7.38265 11.2794C7.26134 11.3297 7.13133 11.3555 7.00002 11.3555C6.86872 11.3555 6.73871 11.3297 6.6174 11.2794C6.49609 11.2292 6.38587 11.1555 6.29302 11.0627C6.10552 10.8752 6.00018 10.6209 6.00018 10.3557C6.00018 10.0905 6.10552 9.83621 6.29302 9.6487C6.48053 9.46119 6.73485 9.35585 7.00002 9.35585C7.2652 9.35585 7.51952 9.46119 7.70702 9.6487ZM22.18 13.2797L20.94 14.5607C21.0364 15.0106 21.0187 15.4775 20.8886 15.9189C20.7585 16.3602 20.5201 16.762 20.195 17.0877L13.951 23.5367C13.419 24.0687 12.726 24.3557 11.989 24.3557C11.252 24.3557 10.559 24.0687 10.039 23.5477L1.02502 14.5357L2.03402 5.4127L11.171 4.1627L19.834 12.8257L20.754 11.8757C20.8265 11.8056 20.8844 11.7219 20.9243 11.6292C20.9642 11.5366 20.9853 11.437 20.9864 11.3362C20.9875 11.2354 20.9686 11.1353 20.9308 11.0419C20.893 10.9484 20.837 10.8634 20.766 10.7917L12.435 2.4627L5.18002 3.3997L4.92402 1.4167L13.153 0.353699L22.179 9.3797C22.6955 9.89747 22.9855 10.5989 22.9855 11.3302C22.9855 12.0615 22.6955 12.7629 22.179 13.2807L22.18 13.2797ZM18.781 14.6007L10.458 6.2797L3.85102 7.1837L3.12002 13.8007L11.453 22.1337C11.5973 22.2718 11.7893 22.3489 11.989 22.3489C12.1888 22.3489 12.3808 22.2718 12.525 22.1337L18.769 15.6847C18.8415 15.6146 18.8994 15.5309 18.9393 15.4382C18.9792 15.3456 19.0003 15.246 19.0014 15.1452C19.0025 15.0444 18.9836 14.9443 18.9458 14.8509C18.908 14.7574 18.852 14.6724 18.781 14.6007Z" fill="white"/>
</g>
<defs>
<clipPath id="clip0_1614_765">
<rect width="24" height="24" fill="white" transform="translate(0 0.355713)"/>
</clipPath>
</defs>
</svg>
