<svg width="20" height="21" viewBox="0 0 20 21" fill="none" xmlns="http://www.w3.org/2000/svg">
<g clip-path="url(#clip0_1614_9492)">
<path d="M3.33333 8.35571H8.33333V10.8557H3.33333V8.35571ZM3.33333 14.189H5V12.5224H3.33333V14.189ZM6.66667 14.189H8.33333V12.5224H6.66667V14.189ZM3.33333 17.5224H5V15.8557H3.33333V17.5224ZM6.66667 17.5224H8.33333V15.8557H6.66667V17.5224ZM20 6.27238V16.3507L17.395 14.7674L15 16.2732L13.3333 15.2257V13.199L15 14.244L17.3342 12.7807L18.3333 13.3882V6.27238C18.3333 4.20488 16.6508 2.52238 14.5833 2.52238C12.705 2.52238 11.1592 3.91488 10.8892 5.71905C11.3658 6.17488 11.6667 6.81238 11.6667 7.52238V20.8557H0V7.52238C0 6.60155 0.506667 5.80405 1.25 5.36988V5.02238C1.25 2.72488 3.11917 0.855713 5.41667 0.855713H14.5833C17.57 0.855713 20 3.28571 20 6.27238ZM10 7.52238C10 7.30137 9.9122 7.0894 9.75592 6.93312C9.59964 6.77684 9.38768 6.68905 9.16667 6.68905H2.5C2.27899 6.68905 2.06702 6.77684 1.91074 6.93312C1.75446 7.0894 1.66667 7.30137 1.66667 7.52238V19.189H10V7.52238ZM9.31417 5.03738C9.53665 4.09139 10.0096 3.22269 10.6833 2.52238H5.41583C4.0375 2.52238 2.91583 3.64405 2.91583 5.02238H9.16583C9.21667 5.02238 9.26333 5.03405 9.31333 5.03738H9.31417Z" fill="white"/>
</g>
<defs>
<clipPath id="clip0_1614_9492">
<rect width="20" height="20" fill="white" transform="translate(0 0.855713)"/>
</clipPath>
</defs>
</svg>
