<svg width="20" height="21" viewBox="0 0 20 21" fill="none" xmlns="http://www.w3.org/2000/svg">
<g clip-path="url(#clip0_1614_9465)">
<path d="M4.28364e-08 19.1891H20V20.8558H4.28364e-08V19.1891ZM20 7.4466V9.1891H17.5V15.8558H19.1667V17.5224H0.833333V15.8558H2.5V9.1891H4.28364e-08V7.4466C-8.30872e-05 6.99747 0.120829 6.55661 0.350027 6.17036C0.579225 5.78411 0.908244 5.46674 1.3025 5.2516L8.8025 1.16077C9.16965 0.959819 9.58146 0.854492 10 0.854492C10.4185 0.854492 10.8304 0.959819 11.1975 1.16077L18.6975 5.2516C19.0918 5.46674 19.4208 5.78411 19.65 6.17036C19.8792 6.55661 20.0001 6.99747 20 7.4466ZM4.16667 15.8558H6.66667V9.1891H4.16667V15.8558ZM8.33333 9.1891V15.8558H11.6667V9.1891H8.33333ZM15.8333 9.1891H13.3333V15.8558H15.8333V9.1891ZM18.3333 7.4466C18.3334 7.29689 18.2931 7.14994 18.2167 7.02119C18.1403 6.89244 18.0306 6.78665 17.8992 6.71494L10.3992 2.6241C10.2767 2.55729 10.1395 2.52228 10 2.52228C9.86052 2.52228 9.72327 2.55729 9.60083 2.6241L2.10083 6.71494C1.96941 6.78665 1.85974 6.89244 1.78334 7.02119C1.70694 7.14994 1.66664 7.29689 1.66667 7.4466V7.52244H18.3333V7.4466Z" fill="white"/>
</g>
<defs>
<clipPath id="clip0_1614_9465">
<rect width="20" height="20" fill="white" transform="translate(0 0.855713)"/>
</clipPath>
</defs>
</svg>
