<svg width="20" height="21" viewBox="0 0 20 21" fill="none" xmlns="http://www.w3.org/2000/svg">
<g clip-path="url(#clip0_1614_9477)">
<path d="M17.5 20.7724L14.4475 18.6799L12.2275 20.2007L10.0058 18.679L7.78417 20.199L5.55833 18.6774L2.5 20.7724V3.35571C2.5 2.69267 2.76339 2.05679 3.23223 1.58795C3.70107 1.1191 4.33696 0.855713 5 0.855713L15 0.855713C15.663 0.855713 16.2989 1.1191 16.7678 1.58795C17.2366 2.05679 17.5 2.69267 17.5 3.35571V20.7724ZM5.55833 16.6574L7.78333 18.179L10.0058 16.6574L12.2275 18.179L14.4483 16.6565L15.8333 17.6057V3.35571C15.8333 3.1347 15.7455 2.92274 15.5893 2.76646C15.433 2.61018 15.221 2.52238 15 2.52238H5C4.77899 2.52238 4.56702 2.61018 4.41074 2.76646C4.25446 2.92274 4.16667 3.1347 4.16667 3.35571V17.6057L5.55833 16.6574Z" fill="white"/>
<path d="M5.83337 7.52246H14.1667V9.18913H5.83337V7.52246ZM5.83337 10.8558H12.5V12.5225H5.83337V10.8558Z" fill="white"/>
</g>
<defs>
<clipPath id="clip0_1614_9477">
<rect width="20" height="20" fill="white" transform="translate(0 0.855713)"/>
</clipPath>
</defs>
</svg>
