<svg width="20" height="21" viewBox="0 0 20 21" fill="none" xmlns="http://www.w3.org/2000/svg">
<g clip-path="url(#clip0_1614_9504)">
<path d="M5.83333 11.2723C5.83328 11.4366 5.80088 11.5991 5.73799 11.7508C5.6751 11.9025 5.58295 12.0403 5.4668 12.1564C5.35065 12.2725 5.21277 12.3645 5.06105 12.4273C4.90932 12.4901 4.74671 12.5224 4.5825 12.5223C4.41829 12.5223 4.2557 12.4899 4.10402 12.427C3.95233 12.3641 3.81452 12.272 3.69844 12.1558C3.58237 12.0397 3.49031 11.9018 3.42752 11.7501C3.36473 11.5983 3.33245 11.4357 3.3325 11.2715C3.33261 10.9399 3.46446 10.6219 3.69903 10.3875C3.93361 10.153 4.2517 10.0214 4.58333 10.0215C4.91497 10.0216 5.23297 10.1535 5.46739 10.388C5.70181 10.6226 5.83344 10.9407 5.83333 11.2723ZM4.58333 15.8557C4.41913 15.8557 4.25654 15.8881 4.10485 15.951C3.95317 16.0139 3.81535 16.1061 3.69928 16.2222C3.5832 16.3384 3.49115 16.4762 3.42836 16.628C3.36557 16.7797 3.33328 16.9423 3.33333 17.1065C3.33339 17.2707 3.36579 17.4333 3.42868 17.585C3.49157 17.7367 3.58372 17.8745 3.69987 17.9906C3.81602 18.1066 3.95389 18.1987 4.10562 18.2615C4.25735 18.3243 4.41996 18.3566 4.58417 18.3565C4.9158 18.3564 5.2338 18.2246 5.46822 17.99C5.70264 17.7554 5.83428 17.4373 5.83417 17.1057C5.83406 16.774 5.70221 16.456 5.46763 16.2216C5.23306 15.9872 4.91497 15.8556 4.58333 15.8557ZM15.4167 10.0223C15.085 10.0225 14.767 10.1543 14.5326 10.3889C14.2982 10.6235 14.1666 10.9415 14.1667 11.2732C14.1668 11.6048 14.2986 11.9228 14.5332 12.1572C14.7678 12.3917 15.0859 12.5233 15.4175 12.5232C15.7491 12.5231 16.0671 12.3912 16.3016 12.1566C16.536 11.9221 16.6676 11.604 16.6675 11.2723C16.6674 10.9407 16.5355 10.6227 16.301 10.3883C16.0664 10.1539 15.7483 10.0222 15.4167 10.0223ZM15.4167 15.8557C15.2525 15.8557 15.0899 15.8881 14.9382 15.951C14.7865 16.0139 14.6487 16.1061 14.5326 16.2222C14.4165 16.3384 14.3245 16.4762 14.2617 16.628C14.1989 16.7797 14.1666 16.9423 14.1667 17.1065C14.1667 17.2707 14.1991 17.4333 14.262 17.585C14.3249 17.7367 14.4171 17.8745 14.5332 17.9906C14.6494 18.1066 14.7872 18.1987 14.939 18.2615C15.0907 18.3243 15.2533 18.3566 15.4175 18.3565C15.7491 18.3564 16.0671 18.2246 16.3016 17.99C16.536 17.7554 16.6676 17.4373 16.6675 17.1057C16.6674 16.774 16.5355 16.456 16.301 16.2216C16.0664 15.9872 15.7483 15.8556 15.4167 15.8557ZM20 10.0223V20.8557H0V10.0223C0 8.64401 1.12167 7.52235 2.5 7.52235H9.165L9.15667 3.30485L7.6725 4.78901L6.49417 3.61068L8.73583 1.36901C9.0647 1.04079 9.51036 0.856445 9.975 0.856445C10.4396 0.856445 10.8853 1.04079 11.2142 1.36901L13.47 3.62401L12.2917 4.80235L10.8242 3.33485L10.8325 7.52151H17.5008C18.8792 7.52151 20.0008 8.64318 20.0008 10.0215L20 10.0223ZM18.3333 10.0223C18.3333 9.80133 18.2455 9.58937 18.0893 9.43309C17.933 9.27681 17.721 9.18901 17.5 9.18901H2.5C2.27899 9.18901 2.06702 9.27681 1.91074 9.43309C1.75446 9.58937 1.66667 9.80133 1.66667 10.0223V19.189H18.3333V10.0223ZM13.3333 14.189C13.3333 16.0273 11.8383 17.5223 10 17.5223C8.16167 17.5223 6.66667 16.0273 6.66667 14.189C6.66667 12.3507 8.16167 10.8557 10 10.8557C11.8383 10.8557 13.3333 12.3507 13.3333 14.189ZM11.6667 14.189C11.6667 13.2698 10.9192 12.5223 10 12.5223C9.08083 12.5223 8.33333 13.2698 8.33333 14.189C8.33333 15.1082 9.08083 15.8557 10 15.8557C10.9192 15.8557 11.6667 15.1082 11.6667 14.189Z" fill="white"/>
</g>
<defs>
<clipPath id="clip0_1614_9504">
<rect width="20" height="20" fill="white" transform="translate(0 0.855713)"/>
</clipPath>
</defs>
</svg>
