<svg width="20" height="21" viewBox="0 0 20 21" fill="none" xmlns="http://www.w3.org/2000/svg">
<g clip-path="url(#clip0_1614_9515)">
<path d="M20 16.689V4.18896C20 3.52592 19.7366 2.89004 19.2678 2.4212C18.7989 1.95236 18.163 1.68896 17.5 1.68896H2.5C1.83696 1.68896 1.20107 1.95236 0.732233 2.4212C0.263392 2.89004 0 3.52592 0 4.18896L0 16.689H9.16667V18.3556H5V20.0223H15V18.3556H10.8333V16.689H20ZM2.5 3.35563H17.5C17.721 3.35563 17.933 3.44343 18.0893 3.59971C18.2455 3.75599 18.3333 3.96795 18.3333 4.18896V11.689H1.66667V4.18896C1.66667 3.96795 1.75446 3.75599 1.91074 3.59971C2.06702 3.44343 2.27899 3.35563 2.5 3.35563ZM1.66667 13.3556H18.3333V15.0223H1.66667V13.3556Z" fill="white"/>
</g>
<defs>
<clipPath id="clip0_1614_9515">
<rect width="20" height="20" fill="white" transform="translate(0 0.855713)"/>
</clipPath>
</defs>
</svg>
