<svg width="32" height="32" viewBox="0 0 32 32" fill="none" xmlns="http://www.w3.org/2000/svg">
<g clip-path="url(#clip0_1614_7407)">
<mask id="mask0_1614_7407" style="mask-type:luminance" maskUnits="userSpaceOnUse" x="0" y="0" width="32" height="32">
<path d="M0 0H32V32H0V0Z" fill="white"/>
</mask>
<g mask="url(#mask0_1614_7407)">
<path fill-rule="evenodd" clip-rule="evenodd" d="M31.6093 7.05737C31.8593 7.30741 31.9997 7.64649 31.9997 8.00004C31.9997 8.35359 31.8593 8.69267 31.6093 8.94271L18.9426 21.6094C18.6926 21.8593 18.3535 21.9998 18 21.9998C17.6464 21.9998 17.3073 21.8593 17.0573 21.6094L11.3333 15.8854L2.27597 24.9427C2.0245 25.1856 1.6877 25.32 1.3381 25.3169C0.988509 25.3139 0.654093 25.1737 0.406882 24.9265C0.159671 24.6793 0.0194457 24.3448 0.0164078 23.9952C0.0133699 23.6456 0.147762 23.3088 0.39064 23.0574L10.3906 13.0574C10.6407 12.8074 10.9798 12.667 11.3333 12.667C11.6869 12.667 12.0259 12.8074 12.276 13.0574L18 18.7814L29.724 7.05737C29.974 6.80741 30.3131 6.66699 30.6666 6.66699C31.0202 6.66699 31.3593 6.80741 31.6093 7.05737Z" fill="white"/>
<path fill-rule="evenodd" clip-rule="evenodd" d="M21.3333 7.99984C21.3333 7.64622 21.4737 7.30708 21.7238 7.05703C21.9738 6.80698 22.313 6.6665 22.6666 6.6665H30.6666C31.0202 6.6665 31.3593 6.80698 31.6094 7.05703C31.8594 7.30708 31.9999 7.64622 31.9999 7.99984V15.9998C31.9999 16.3535 31.8594 16.6926 31.6094 16.9426C31.3593 17.1927 31.0202 17.3332 30.6666 17.3332C30.313 17.3332 29.9738 17.1927 29.7238 16.9426C29.4737 16.6926 29.3333 16.3535 29.3333 15.9998V9.33317H22.6666C22.313 9.33317 21.9738 9.19269 21.7238 8.94265C21.4737 8.6926 21.3333 8.35346 21.3333 7.99984Z" fill="white"/>
</g>
</g>
<defs>
<clipPath id="clip0_1614_7407">
<rect width="32" height="32" fill="white"/>
</clipPath>
</defs>
</svg>
