<svg width="65" height="64" viewBox="0 0 65 64" fill="none" xmlns="http://www.w3.org/2000/svg">
<g clip-path="url(#clip0_628_23598)">
<path d="M49.539 9.18486C49.5668 9.18681 49.5948 9.18875 49.623 9.18875C49.6711 9.18875 49.7192 9.18486 49.7662 9.17825C51.0265 9.20418 52.035 10.2319 52.0365 11.492C52.0365 11.767 52.1458 12.0307 52.3402 12.2252C52.5347 12.4196 52.7984 12.5289 53.0734 12.5289C53.3484 12.5289 53.6122 12.4196 53.8066 12.2252C54.0011 12.0307 54.1103 11.767 54.1103 11.492C54.1077 9.43087 52.6729 7.64766 50.6599 7.20413V6.2078C50.6599 5.93279 50.5507 5.66906 50.3562 5.4746C50.1618 5.28014 49.898 5.1709 49.623 5.1709C49.348 5.1709 49.0843 5.28014 48.8898 5.4746C48.6954 5.66906 48.5861 5.93279 48.5861 6.2078V7.25118C46.4576 7.8203 45.0805 9.87946 45.3676 12.0641C45.6547 14.2488 47.5168 15.8822 49.7202 15.8822C50.9996 15.8822 52.0365 16.9195 52.0365 18.199C52.0365 19.4779 50.9996 20.5152 49.7202 20.5152C48.4408 20.5152 47.4039 19.4779 47.4039 18.199C47.4039 17.924 47.2947 17.6603 47.1002 17.4658C46.9058 17.2714 46.642 17.1621 46.367 17.1621C46.092 17.1621 45.8283 17.2714 45.6338 17.4658C45.4394 17.6603 45.3301 17.924 45.3301 18.199C45.3327 20.1857 46.6672 21.9238 48.5861 22.4397V23.5759C48.5861 23.8509 48.6954 24.1146 48.8898 24.3091C49.0843 24.5035 49.348 24.6128 49.623 24.6128C49.898 24.6128 50.1618 24.5035 50.3562 24.3091C50.5507 24.1146 50.6599 23.8509 50.6599 23.5759V22.4872C52.8497 22.0078 54.3267 19.9553 54.0851 17.7266C53.844 15.4979 51.962 13.8088 49.7202 13.8093C48.4762 13.8098 47.4541 12.8276 47.405 11.5846C47.3564 10.3417 48.2985 9.28207 49.539 9.18538V9.18486Z" fill="black"/>
<path d="M49.7794 0.101562C43.4005 0.101562 37.9568 4.26393 35.9174 9.83727H10.1819C9.61189 9.83727 9.14905 10.3512 9.14503 10.9208L8.90006 47.2952H1.564C0.991376 47.2952 0.499756 47.71 0.499756 48.2835V52.8994C0.512976 57.2451 3.93552 60.8148 8.2765 61.0113V61.0341H40.2908V61.0038C40.55 61.0134 40.6568 61.0341 40.8209 61.0341H40.8432C45.336 61.027 48.9748 57.3827 48.9748 52.8898V29.5514C49.234 29.5657 49.5084 29.5732 49.7768 29.5732C57.8942 29.5732 64.4999 22.9549 64.4999 14.8369C64.5 6.71957 57.8974 0.101692 49.7794 0.101692V0.101562ZM8.67104 58.9605H8.66456C5.31019 58.9559 2.58885 56.2437 2.57368 52.8889V49.3692H32.6438V52.8743C32.6446 53.9458 32.8571 55.0065 33.2691 55.9957C33.6811 56.9848 34.2845 57.8828 35.0446 58.638C35.1534 58.7469 35.2886 58.8309 35.4026 58.9605H8.67104ZM46.9011 52.8888C46.9016 56.2375 44.1904 58.9537 40.8423 58.9604H40.8226C37.4607 58.9543 34.7343 56.2364 34.7176 52.875V48.2837C34.7219 48.1526 34.6992 48.022 34.651 47.9C34.6028 47.778 34.53 47.6673 34.4372 47.5746C34.3444 47.4819 34.2335 47.4093 34.1115 47.3613C33.9894 47.3133 33.8588 47.2908 33.7277 47.2954H10.9739L11.2118 11.9112H35.3419C35.1581 12.8603 35.063 13.8244 35.0579 14.7911C35.0558 16.8347 35.4822 18.856 36.3095 20.7247H26.5157C25.9425 20.7247 25.4788 21.1891 25.4788 21.7616C25.4788 22.3344 25.9425 22.7985 26.5157 22.7985H37.4345C38.4932 24.4632 39.8776 25.8966 41.5044 27.0125C43.1312 28.1285 44.9669 28.904 46.9011 29.2923V52.8888ZM49.7794 27.4999C42.7946 27.4999 37.1316 21.8376 37.1321 14.8521C37.1321 7.86677 42.7945 2.20426 49.7799 2.20426C56.7647 2.20426 62.4273 7.86729 62.4273 14.8521C62.4196 21.8339 56.7619 27.4924 49.7794 27.4999Z" fill="black"/>
<path d="M19.8597 27.6259C18.0296 27.6259 16.541 29.0674 16.541 30.8394C16.541 32.6115 18.0295 34.0529 19.8597 34.0529C21.69 34.0529 23.1791 32.6115 23.1791 30.8394C23.1791 29.0674 21.69 27.6259 19.8597 27.6259ZM19.8597 31.9791C19.1728 31.9791 18.6148 31.4678 18.6148 30.8394C18.6148 30.2107 19.1732 29.6997 19.8597 29.6997C20.5463 29.6997 21.1053 30.2111 21.1053 30.8394C21.1053 31.4678 20.5463 31.9791 19.8597 31.9791ZM25.4787 30.8349C25.4787 31.4075 25.9424 31.8718 26.5156 31.8718H40.3395C40.6145 31.8718 40.8783 31.7625 41.0727 31.5681C41.2672 31.3736 41.3764 31.1099 41.3764 30.8349C41.3764 30.5599 41.2672 30.2961 41.0727 30.1017C40.8783 29.9072 40.6145 29.798 40.3395 29.798H26.5156C25.9424 29.798 25.4787 30.2623 25.4787 30.8349ZM19.8597 18.6123C18.0296 18.6123 16.541 20.0542 16.541 21.8263C16.541 23.5984 18.0295 25.0398 19.8597 25.0398C21.69 25.0398 23.1791 23.5984 23.1791 21.8263C23.1791 20.0542 21.69 18.6123 19.8597 18.6123ZM19.8597 22.966C19.1728 22.966 18.6148 22.4547 18.6148 21.8263C18.6148 21.1979 19.1732 20.6861 19.8597 20.6861C20.5463 20.6861 21.1053 21.1974 21.1053 21.8263C21.1053 22.4547 20.5463 22.9665 19.8597 22.9665V22.966ZM19.8597 36.6385C18.0296 36.6385 16.541 38.08 16.541 39.852C16.541 41.6241 18.0295 43.0655 19.8597 43.0655C21.69 43.0655 23.1791 41.6242 23.1791 39.852C23.1791 38.0798 21.69 36.6385 19.8597 36.6385ZM19.8597 40.9917C19.1728 40.9917 18.6148 40.4809 18.6148 39.852C18.6148 39.2238 19.1732 38.7123 19.8597 38.7123C20.5463 38.7123 21.1053 39.2238 21.1053 39.852C21.1053 40.4804 20.5463 40.9917 19.8597 40.9917ZM40.3395 38.8708H26.5156C25.9424 38.8708 25.4787 39.3351 25.4787 39.9077C25.4787 40.4804 25.9424 40.9446 26.5156 40.9446H40.3395C40.6145 40.9446 40.8783 40.8354 41.0727 40.6409C41.2672 40.4465 41.3764 40.1827 41.3764 39.9077C41.3764 39.6327 41.2672 39.369 41.0727 39.1745C40.8783 38.9801 40.6145 38.8708 40.3395 38.8708Z" fill="black"/>
</g>
<defs>
<clipPath id="clip0_628_23598">
<rect width="64" height="64" fill="white" transform="translate(0.5)"/>
</clipPath>
</defs>
</svg>
