<svg width="54" height="58" viewBox="0 0 54 58" fill="none" xmlns="http://www.w3.org/2000/svg">
<path d="M13.7846 20.2762C13.9974 20.0393 14.2608 19.8534 14.5554 19.7324C14.8557 19.608 15.1969 19.5458 15.579 19.5458C15.9495 19.5458 16.2547 19.5983 16.4942 19.704C16.7336 19.8093 16.9238 19.9395 17.0646 20.0941C17.2054 20.2496 17.3783 20.4779 17.5822 20.7805C17.6564 20.8751 17.7479 20.9493 17.8576 21.0017C17.9674 21.0546 18.0811 21.0808 18.2002 21.0808C18.4046 21.0851 18.6028 21.0105 18.7537 20.8724C18.9079 20.7334 18.9847 20.5659 18.9847 20.3686C18.9847 20.1856 18.9181 19.9763 18.7844 19.7404C18.6506 19.5054 18.4525 19.2824 18.189 19.0714C17.9256 18.8599 17.5826 18.6853 17.1597 18.5458C16.7363 18.4072 16.2503 18.3379 15.7016 18.3379C15.0339 18.3379 14.4363 18.4303 13.9099 18.6151C13.3834 18.7995 12.9365 19.0656 12.5691 19.4139C12.2017 19.7622 11.9236 20.1856 11.7343 20.6849C11.5451 21.1847 11.4504 21.7352 11.4504 22.3363C11.4504 22.948 11.5477 23.5025 11.7428 23.9978C11.9259 24.4761 12.2117 24.9083 12.5802 25.264C12.9436 25.6118 13.3834 25.878 13.8988 26.0605C14.4141 26.2431 14.9855 26.3347 15.6123 26.3347C16.1503 26.3347 16.6474 26.2769 17.1037 26.1605C17.5595 26.0446 18.0344 25.8593 18.528 25.607C18.6986 25.519 18.8386 25.4275 18.9483 25.3328C19.0576 25.2378 19.1327 25.1311 19.1735 25.013C19.2144 24.8948 19.2348 24.738 19.2348 24.5407V23.0582C19.2348 22.7912 19.1855 22.5908 19.0874 22.4571C18.9892 22.3234 18.8603 22.2376 18.7008 22.1981C18.5414 22.1595 18.3463 22.1404 18.1166 22.1404H16.2418C16.0153 22.1404 15.8362 22.1968 15.7047 22.3087C15.6416 22.3605 15.5909 22.426 15.5567 22.5002C15.5225 22.5743 15.5055 22.6553 15.507 22.737C15.507 22.9476 15.5861 23.0973 15.7438 23.1853C15.9015 23.2732 16.1339 23.3172 16.4422 23.3172H17.7217V24.5723C17.3769 24.7482 17.0366 24.8837 16.7008 24.9788C16.35 25.0755 15.9877 25.1233 15.6239 25.1209C14.8375 25.1209 14.2249 24.8766 13.7851 24.3879C13.3452 23.8988 13.1258 23.2008 13.1258 22.2936C13.1258 21.8751 13.1826 21.4935 13.2955 21.1492C13.4083 20.8053 13.5714 20.5135 13.7846 20.2762ZM24.9183 24.861C24.6122 25.0765 24.2146 25.1849 23.725 25.1849C23.3687 25.1849 23.0813 25.1316 22.8623 25.0245C22.6432 24.9175 22.474 24.7806 22.3531 24.6158C22.2176 24.4236 22.1046 24.2164 22.0164 23.9983C21.9311 23.7908 21.828 23.6344 21.7076 23.5287C21.5852 23.4223 21.4273 23.3658 21.2651 23.3701C21.0501 23.3701 20.8729 23.4381 20.7338 23.5736C20.5947 23.7086 20.5254 23.8712 20.5254 24.0614C20.5254 24.3883 20.6414 24.7251 20.8733 25.0716C21.1041 25.4167 21.4141 25.7015 21.7774 25.9024C22.3003 26.1907 22.9645 26.3347 23.7695 26.3347C24.4407 26.3347 25.0214 26.2294 25.5105 26.0179C26.0001 25.8069 26.3724 25.5154 26.6261 25.1427C26.8802 24.7695 27.0073 24.3497 27.0073 23.8814C27.0073 23.4914 26.934 23.1617 26.7874 22.8925C26.6407 22.6233 26.4368 22.4016 26.1752 22.2252C25.9135 22.0493 25.5963 21.9 25.2235 21.7765C24.8129 21.6435 24.396 21.5308 23.9743 21.4389C23.7098 21.3771 23.4464 21.3104 23.1844 21.2389C23.0209 21.1913 22.8626 21.1276 22.7117 21.0488C22.5701 20.9792 22.4448 20.8803 22.3443 20.7587C22.2554 20.6458 22.211 20.5121 22.211 20.358C22.211 20.1083 22.3416 19.8946 22.6033 19.7169C22.8645 19.5396 23.2088 19.4503 23.6353 19.4503C24.0951 19.4503 24.4288 19.5325 24.6367 19.696C24.8441 19.8595 25.0223 20.087 25.1707 20.3788C25.2857 20.5832 25.3924 20.7298 25.4905 20.8191C25.5887 20.9089 25.7327 20.9542 25.9215 20.9542C26.1294 20.9542 26.3031 20.8791 26.4417 20.7298C26.5808 20.5801 26.6505 20.4126 26.6505 20.226C26.6505 20.0221 26.5945 19.8129 26.4835 19.5983C26.3724 19.3837 26.196 19.1793 25.9552 18.9834C25.7145 18.7884 25.4106 18.632 25.0454 18.5138C24.6806 18.397 24.2475 18.3379 23.7468 18.3379C23.1199 18.3379 22.5744 18.4272 22.111 18.6044C21.6472 18.7817 21.2927 19.0363 21.0479 19.3668C20.8031 19.6973 20.6805 20.0754 20.6805 20.501C20.6805 20.9479 20.7964 21.3216 21.0283 21.6219C21.2598 21.9227 21.5735 22.1599 21.9684 22.3336C22.3634 22.5078 22.8538 22.6597 23.4398 22.7899C23.8774 22.8845 24.2275 22.9747 24.4887 23.0582C24.7504 23.1431 24.9636 23.2652 25.1285 23.4247C25.2937 23.5851 25.3764 23.793 25.3764 24.0498C25.3773 24.3741 25.224 24.6442 24.9183 24.861ZM31.904 25.3804V19.7622H33.7068C33.9884 19.7622 34.1999 19.7031 34.3407 19.5854C34.4816 19.4677 34.5522 19.3117 34.5522 19.1189C34.5522 18.9252 34.4825 18.7688 34.3434 18.6489C34.2044 18.5298 33.992 18.4698 33.7063 18.4698H28.4542C28.1832 18.4698 27.9767 18.528 27.834 18.644C27.691 18.7599 27.6199 18.9181 27.6199 19.1189C27.6199 19.3122 27.6883 19.4677 27.8256 19.5854C27.9629 19.7036 28.1726 19.7622 28.4542 19.7622H30.2571V25.3804C30.2571 25.7002 30.3339 25.9393 30.4881 26.0974C30.6413 26.2556 30.8408 26.3347 31.0861 26.3347C31.3269 26.3347 31.5237 26.256 31.6756 26.1001C31.8275 25.9437 31.904 25.7034 31.904 25.3804ZM18.9545 41.2904C19.0516 41.3552 19.1604 41.4002 19.2749 41.4229C19.3894 41.4456 19.5072 41.4455 19.6216 41.4226C19.736 41.3997 19.8448 41.3544 19.9418 41.2894C20.0387 41.2244 20.1218 41.141 20.1865 41.0438L27.2947 30.3815C27.3618 30.2844 27.409 30.175 27.4334 30.0596C27.4578 29.9441 27.4589 29.825 27.4368 29.7091C27.4147 29.5932 27.3697 29.4829 27.3044 29.3846C27.2392 29.2863 27.155 29.2019 27.0568 29.1365C26.9586 29.071 26.8484 29.0258 26.7326 29.0034C26.6167 28.9811 26.4976 28.982 26.3821 29.0062C26.2666 29.0303 26.1571 29.0773 26.0599 29.1442C25.9628 29.2111 25.8799 29.2968 25.8162 29.3961L18.708 40.0584C18.5773 40.2545 18.5299 40.4945 18.5761 40.7255C18.6224 40.9565 18.7585 41.1597 18.9545 41.2904ZM17.6701 35.22C18.0786 35.22 18.483 35.1395 18.8603 34.9832C19.2377 34.8269 19.5805 34.5978 19.8693 34.3089C20.1581 34.0201 20.3871 33.6772 20.5434 33.2999C20.6997 32.9225 20.7801 32.5181 20.78 32.1097C20.7799 31.285 20.4522 30.4941 19.869 29.9109C19.2858 29.3278 18.4949 29.0002 17.6701 29.0002C16.8454 29.0002 16.0545 29.3278 15.4713 29.9109C14.8881 30.4941 14.5604 31.285 14.5603 32.1097C14.5602 32.5181 14.6406 32.9225 14.7969 33.2999C14.9531 33.6772 15.1822 34.0201 15.471 34.3089C15.7598 34.5978 16.1026 34.8269 16.48 34.9832C16.8573 35.1395 17.2617 35.22 17.6701 35.22ZM17.6701 30.7773C18.405 30.7773 19.0029 31.3753 19.0029 32.1097C19.0029 32.8445 18.405 33.4429 17.6701 33.4429C16.9353 33.4429 16.3374 32.8445 16.3374 32.1097C16.3378 31.7564 16.4784 31.4177 16.7283 31.1679C16.9781 30.9181 17.3169 30.7777 17.6701 30.7773ZM28.3325 41.4397C29.1573 41.4397 29.9483 41.112 30.5315 40.5288C31.1147 39.9456 31.4424 39.1546 31.4424 38.3298C31.4424 37.505 31.1147 36.714 30.5315 36.1308C29.9483 35.5476 29.1573 35.22 28.3325 35.22C27.5077 35.22 26.7167 35.5476 26.1335 36.1308C25.5503 36.714 25.2227 37.505 25.2227 38.3298C25.2227 39.1546 25.5503 39.9456 26.1335 40.5288C26.7167 41.112 27.5077 41.4397 28.3325 41.4397ZM28.3325 36.997C29.0673 36.997 29.6653 37.595 29.6653 38.3298C29.6653 39.0646 29.0673 39.6626 28.3325 39.6626C27.5977 39.6626 26.9997 39.0646 26.9997 38.3298C26.9997 37.595 27.5977 36.997 28.3325 36.997Z" fill="#231F20"/>
<path d="M43.6174 47.4662L45.2146 45.8215V14.3396L30.5538 0.567383H4.30711C2.36345 0.567383 0.788086 2.15874 0.788086 4.1215V53.8792C0.788086 55.8419 2.36345 57.4333 4.30711 57.4333H41.6956C43.6392 57.4333 45.2146 55.8419 45.2146 53.8792V53.4016C44.7682 53.7125 44.2374 53.8791 43.6934 53.8792C43.6077 53.8792 43.5228 53.8636 43.4375 53.8552V53.8792C43.4375 54.8592 42.6561 55.6562 41.6956 55.6562H4.30711C3.34661 55.6562 2.56515 54.8592 2.56515 53.8792V4.1215C2.56515 3.14145 3.34661 2.34444 4.30711 2.34444H29.221V11.092C29.221 13.6177 31.226 15.6724 33.6903 15.6724H43.4375V47.2961L43.6174 47.4662ZM33.6903 13.8953C32.2061 13.8953 30.9981 12.6376 30.9981 11.092V3.42356L42.146 13.8953H33.6903Z" fill="#231F20"/>
<path d="M52.9419 41.6906C52.7729 41.5264 52.5455 41.4361 52.3099 41.4395C52.0743 41.443 51.8497 41.5398 51.6855 41.7088L43.6683 49.9642L38.7179 45.267C38.6332 45.1867 38.5336 45.1238 38.4246 45.082C38.3157 45.0402 38.1996 45.0203 38.0829 45.0234C37.9663 45.0264 37.8514 45.0524 37.7448 45.0999C37.6382 45.1474 37.542 45.2154 37.4617 45.3001C37.3814 45.3847 37.3185 45.4844 37.2767 45.5933C37.2349 45.7022 37.215 45.8183 37.2181 45.935C37.2212 46.0516 37.2472 46.1665 37.2947 46.2731C37.3421 46.3797 37.4101 46.4759 37.4948 46.5562L43.0823 51.8581C43.2518 52.0192 43.4781 52.107 43.7119 52.1022C43.9458 52.0975 44.1683 52.0007 44.3311 51.8327L52.9601 42.9475C53.1241 42.7782 53.2143 42.5509 53.2109 42.3153C53.2074 42.0797 53.1107 41.855 52.9419 41.6906Z" fill="#231F20"/>
</svg>
