<svg width="24" height="25" viewBox="0 0 24 25" fill="none" xmlns="http://www.w3.org/2000/svg">
<g clip-path="url(#clip0_1614_2393)">
<path d="M23.577 10.7077L21.444 7.15369L12 10.3017L2.55598 7.15369L0.441975 10.6747C0.207902 11.0628 0.0644769 11.4987 0.0224009 11.9499C-0.019675 12.4011 0.0406841 12.856 0.198975 13.2807C0.508975 14.1197 1.16198 14.7687 1.99998 15.0737V21.0077L12 24.3407L22 21.0077V15.0747C22.4164 14.9298 22.7956 14.6942 23.11 14.385C23.4243 14.0758 23.6662 13.7007 23.818 13.2867C23.9744 12.8662 24.034 12.4159 23.9922 11.9692C23.9505 11.5225 23.8086 11.0909 23.577 10.7067V10.7077ZM2.15698 11.7047L3.44398 9.55869L10.501 11.9117L8.96798 14.4667C8.85142 14.6624 8.67137 14.8123 8.45777 14.8915C8.24417 14.9706 8.00991 14.9742 7.79398 14.9017L2.71298 13.2087C2.56717 13.1601 2.43414 13.0793 2.32369 12.9724C2.21325 12.8655 2.12821 12.7352 2.07485 12.591C2.02149 12.4469 2.00117 12.2926 2.01538 12.1395C2.0296 11.9865 2.07798 11.8386 2.15698 11.7067V11.7047ZM3.99998 15.7427L7.16097 16.7967C7.80831 17.0166 8.51158 17.0073 9.15284 16.7702C9.7941 16.5331 10.3343 16.0828 10.683 15.4947L11 14.9657V21.9017L3.99998 19.5677V15.7427ZM13 21.9017V14.9657L13.317 15.4947C13.6656 16.0828 14.2059 16.5331 14.8471 16.7702C15.4884 17.0073 16.1916 17.0166 16.839 16.7967L20 15.7437V19.5687L13 21.9027V21.9017ZM21.942 12.5947C21.8905 12.7349 21.8082 12.8617 21.701 12.9658C21.5938 13.0698 21.4646 13.1484 21.323 13.1957L16.206 14.9007C15.9901 14.9738 15.7556 14.9705 15.5419 14.8913C15.3281 14.8121 15.1481 14.6618 15.032 14.4657L13.499 11.9107L20.556 9.55769L21.863 11.7367C22.019 11.9967 22.049 12.3087 21.943 12.5937L21.942 12.5947ZM7.16298 6.58169L5.04198 5.87469L10.525 0.391693L13.274 3.14069L14.473 1.94169L18.544 6.01269L16.423 6.71969L14.473 4.76969L11.286 7.95669L9.16498 7.24969L11.859 4.55569L10.524 3.22069L7.16198 6.58269L7.16298 6.58169Z" fill="white"/>
</g>
<defs>
<clipPath id="clip0_1614_2393">
<rect width="24" height="24" fill="white" transform="translate(0 0.355682)"/>
</clipPath>
</defs>
</svg>
