<svg width="28" height="28" viewBox="0 0 28 28" fill="none" xmlns="http://www.w3.org/2000/svg">
<path d="M2.8 3.7627H25.2875C25.9 3.7627 26.3375 4.2002 26.3375 4.8127C26.3375 5.42519 25.9 5.86269 25.2875 5.86269H2.8C2.275 5.86269 1.75 5.3377 1.75 4.8127C1.75 4.2002 2.275 3.7627 2.8 3.7627ZM2.8 12.9502H25.2875C25.9 12.9502 26.3375 13.3877 26.3375 14.0002C26.3375 14.6127 25.9 15.0502 25.2875 15.0502H2.8C2.1875 15.0502 1.75 14.6127 1.75 14.0002C1.75 13.3877 2.275 12.9502 2.8 12.9502ZM2.8 22.1377H25.2875C25.9 22.1377 26.3375 22.5752 26.3375 23.1877C26.3375 23.8002 25.9 24.2377 25.2875 24.2377H2.8C2.1875 24.2377 1.75 23.8002 1.75 23.1877C1.75 22.5752 2.275 22.1377 2.8 22.1377Z" fill="url(#paint0_linear_1614_8898)"/>
<defs>
<linearGradient id="paint0_linear_1614_8898" x1="14.0437" y1="3.7627" x2="14.0437" y2="24.2377" gradientUnits="userSpaceOnUse">
<stop stop-color="#2EA1FF"/>
<stop offset="1" stop-color="#322EFF"/>
</linearGradient>
</defs>
</svg>
