<svg width="20" height="20" viewBox="0 0 20 20" fill="none" xmlns="http://www.w3.org/2000/svg">
<g clip-path="url(#clip0_1614_8904)">
<path d="M19.3824 13.5005L17.2158 5.6913C16.7531 4.02082 15.745 2.55309 14.3518 1.52171C12.9587 0.490329 11.2606 -0.0454277 9.52782 -0.00029466C7.79504 0.0448384 6.12714 0.668268 4.78958 1.77077C3.45202 2.87328 2.52167 4.3915 2.1466 6.0838L0.470763 13.6255C0.389673 13.9908 0.391651 14.3698 0.476551 14.7343C0.56145 15.0988 0.727104 15.4395 0.961292 15.7315C1.19548 16.0234 1.49222 16.259 1.82963 16.421C2.16704 16.5829 2.5365 16.667 2.91076 16.6671H5.9166C6.10786 17.609 6.61887 18.4559 7.36305 19.0641C8.10722 19.6724 9.0388 20.0046 9.99993 20.0046C10.9611 20.0046 11.8926 19.6724 12.6368 19.0641C13.381 18.4559 13.892 17.609 14.0833 16.6671H16.9749C17.36 16.667 17.7399 16.5778 18.0848 16.4067C18.4298 16.2355 18.7306 15.987 18.9637 15.6805C19.1968 15.374 19.356 15.0178 19.4287 14.6396C19.5015 14.2615 19.4851 13.8716 19.3824 13.5005ZM9.99993 18.3338C9.48471 18.3317 8.98274 18.1704 8.56268 17.8721C8.14262 17.5737 7.825 17.1529 7.65326 16.6671H12.3466C12.1749 17.1529 11.8572 17.5737 11.4372 17.8721C11.0171 18.1704 10.5151 18.3317 9.99993 18.3338ZM17.6374 14.6713C17.5597 14.7744 17.4589 14.8578 17.3431 14.915C17.2274 14.9721 17.0999 15.0014 16.9708 15.0005H2.91076C2.78598 15.0004 2.6628 14.9724 2.5503 14.9184C2.43781 14.8644 2.33888 14.7858 2.26081 14.6885C2.18274 14.5912 2.12753 14.4775 2.09925 14.356C2.07097 14.2344 2.07035 14.1081 2.09743 13.9863L3.77326 6.44463C4.06856 5.11647 4.79935 3.92514 5.84948 3.06001C6.8996 2.19488 8.20878 1.70561 9.56891 1.66998C10.929 1.63435 12.262 2.0544 13.356 2.86336C14.45 3.67232 15.2422 4.82376 15.6066 6.13463L17.7733 13.9438C17.8086 14.0673 17.8148 14.1973 17.7912 14.3236C17.7676 14.4499 17.715 14.5689 17.6374 14.6713Z" fill="url(#paint0_linear_1614_8904)"/>
</g>
<defs>
<linearGradient id="paint0_linear_1614_8904" x1="9.94258" y1="-0.00292969" x2="9.94258" y2="20.0046" gradientUnits="userSpaceOnUse">
<stop stop-color="#2EA1FF"/>
<stop offset="1" stop-color="#322EFF"/>
</linearGradient>
<clipPath id="clip0_1614_8904">
<rect width="20" height="20" fill="white"/>
</clipPath>
</defs>
</svg>
