<svg width="21" height="23" viewBox="0 0 21 23" fill="none" xmlns="http://www.w3.org/2000/svg">
<path d="M18.3081 10.0674H3.2652C2.07835 10.0674 1.11621 11.0587 1.11621 12.2815V20.0309C1.11621 21.2537 2.07835 22.245 3.2652 22.245H18.3081C19.495 22.245 20.4571 21.2537 20.4571 20.0309V12.2815C20.4571 11.0587 19.495 10.0674 18.3081 10.0674Z" stroke="#BABCBE" stroke-linecap="round" stroke-linejoin="round"/>
<path d="M5.41406 10.0674V5.92861C5.41406 4.55652 5.98009 3.24062 6.98762 2.27041C7.99515 1.30019 9.36166 0.755127 10.7865 0.755127C12.2114 0.755127 13.5779 1.30019 14.5854 2.27041C15.593 3.24062 16.159 4.55652 16.159 5.92861V10.0674" stroke="#BABCBE" stroke-linecap="round" stroke-linejoin="round"/>
</svg>
