<svg width="21" height="20" viewBox="0 0 21 20" fill="none" xmlns="http://www.w3.org/2000/svg">
<g clip-path="url(#clip0_619_13982)">
<path d="M13.1999 20H8.1999V17.0725C7.33094 16.7651 6.52611 16.3001 5.82573 15.7008L3.28906 17.1667L0.789062 12.8333L3.3249 11.3708C3.15832 10.4645 3.15832 9.53546 3.3249 8.62917L0.789062 7.16667L3.28906 2.83333L5.82573 4.29917C6.52611 3.69994 7.33094 3.23495 8.1999 2.9275V0H13.1999V2.9275C14.0688 3.23495 14.8737 3.69994 15.5741 4.29917L18.1107 2.83333L20.6107 7.16667L18.0749 8.62917C18.2415 9.53546 18.2415 10.4645 18.0749 11.3708L20.6107 12.8333L18.1107 17.1667L15.5741 15.7017C14.8736 16.3006 14.0688 16.7653 13.1999 17.0725V20ZM9.86656 18.3333H11.5332V15.8108L12.1591 15.6492C13.1857 15.3832 14.1202 14.8418 14.8616 14.0833L15.3141 13.6225L17.4999 14.885L18.3332 13.4417L16.1499 12.1808L16.3216 11.5592C16.6038 10.5366 16.6038 9.45672 16.3216 8.43417L16.1499 7.8125L18.3332 6.55167L17.4999 5.10833L15.3141 6.37417L14.8616 5.91667C14.1198 5.15945 13.1854 4.61918 12.1591 4.35417L11.5332 4.18917V1.66667H9.86656V4.18917L9.24073 4.35083C8.21405 4.61679 7.27957 5.15824 6.53823 5.91667L6.08573 6.3775L3.8999 5.11167L3.06656 6.555L5.2499 7.81583L5.07823 8.4375C4.79603 9.46005 4.79603 10.5399 5.07823 11.5625L5.2499 12.1842L3.06656 13.445L3.8999 14.8883L6.08573 13.6258L6.53823 14.0867C7.27997 14.8439 8.21442 15.3841 9.24073 15.6492L9.86656 15.8108V18.3333ZM10.6999 13.3333C10.0406 13.3333 9.39616 13.1378 8.848 12.7716C8.29983 12.4053 7.87259 11.8847 7.6203 11.2756C7.368 10.6665 7.30199 9.9963 7.43061 9.3497C7.55923 8.7031 7.8767 8.10915 8.34287 7.64298C8.80905 7.1768 9.40299 6.85933 10.0496 6.73072C10.6962 6.6021 11.3664 6.66811 11.9755 6.9204C12.5846 7.17269 13.1052 7.59994 13.4715 8.1481C13.8377 8.69626 14.0332 9.34073 14.0332 10C14.0332 10.8841 13.682 11.7319 13.0569 12.357C12.4318 12.9821 11.584 13.3333 10.6999 13.3333ZM10.6999 8.33333C10.3703 8.33333 10.048 8.43108 9.77395 8.61422C9.49986 8.79735 9.28624 9.05765 9.1601 9.36219C9.03395 9.66674 9.00095 10.0018 9.06525 10.3252C9.12956 10.6485 9.2883 10.9454 9.52139 11.1785C9.75447 11.4116 10.0514 11.5703 10.3747 11.6346C10.698 11.699 11.0332 11.6659 11.3377 11.5398C11.6422 11.4137 11.9025 11.2 12.0857 10.926C12.2688 10.6519 12.3666 10.3296 12.3666 10C12.3666 9.55797 12.191 9.13405 11.8784 8.82149C11.5658 8.50893 11.1419 8.33333 10.6999 8.33333Z" fill="#424242"/>
</g>
<defs>
<clipPath id="clip0_619_13982">
<rect width="20" height="20" fill="white" transform="translate(0.699951)"/>
</clipPath>
</defs>
</svg>
