<svg width="65" height="42" viewBox="0 0 65 42" fill="none" xmlns="http://www.w3.org/2000/svg">
<path d="M60.0197 17.9204L58.3624 11.2911C58.8155 11.1948 59.1555 10.7928 59.1555 10.3112V9.24231C59.1555 6.92156 57.2674 5.03356 54.9467 5.03356H47.3977V2.82881C47.3977 1.68681 46.4688 0.757812 45.3267 0.757812H6.8465C5.7045 0.757812 4.7755 1.68681 4.7755 2.82881V21.0001C4.7755 21.2658 4.88108 21.5207 5.06902 21.7087C5.25695 21.8966 5.51184 22.0022 5.77762 22.0022C6.0434 22.0022 6.2983 21.8966 6.48623 21.7087C6.67417 21.5207 6.77975 21.2658 6.77975 21.0001V2.82881C6.77975 2.79194 6.80962 2.76206 6.8465 2.76206H45.3266C45.3635 2.76206 45.3934 2.79194 45.3934 2.82881V21.0003C45.3934 21.2661 45.499 21.521 45.6869 21.7089C45.8748 21.8969 46.1297 22.0024 46.3955 22.0024C46.6613 22.0024 46.9162 21.8969 47.1041 21.7089C47.292 21.521 47.3976 21.2661 47.3976 21.0003V19.8643H59.2187L59.2214 19.8646L59.2241 19.8644C60.6787 19.8654 61.9139 20.8202 62.3381 22.1358H59.2221C58.9563 22.1358 58.7014 22.2414 58.5135 22.4293C58.3256 22.6173 58.22 22.8722 58.22 23.1379V25.2757C58.22 27.0071 59.6285 28.4156 61.3599 28.4156H62.4956V32.8247H59.8754C59.0146 30.3393 56.652 28.5491 53.8776 28.5491C51.1032 28.5491 48.7405 30.3393 47.8799 32.8247H47.3974V25.2756C47.3974 25.0098 47.2918 24.7549 47.1039 24.567C46.9159 24.379 46.661 24.2734 46.3952 24.2734C46.1295 24.2734 45.8746 24.379 45.6866 24.567C45.4987 24.7549 45.3931 25.0098 45.3931 25.2756V32.8244H24.6021C23.7414 30.3391 21.3787 28.5488 18.6044 28.5488C15.83 28.5488 13.4672 30.3391 12.6066 32.8244H6.8465C6.8288 32.8244 6.81182 32.8174 6.7993 32.8049C6.78678 32.7924 6.77975 32.7754 6.77975 32.7577V30.5531H11.1221C11.3879 30.5531 11.6428 30.4475 11.8307 30.2595C12.0187 30.0716 12.1242 29.8167 12.1242 29.5509C12.1242 29.2852 12.0187 29.0303 11.8307 28.8423C11.6428 28.6544 11.3879 28.5488 11.1221 28.5488H1.50212C1.23634 28.5488 0.98145 28.6544 0.793516 28.8423C0.605581 29.0303 0.5 29.2852 0.5 29.5509C0.5 29.8167 0.605581 30.0716 0.793516 30.2595C0.98145 30.4475 1.23634 30.5531 1.50212 30.5531H4.77562V32.7577C4.77562 33.8997 5.70462 34.8287 6.84662 34.8287H12.2596C12.2594 34.8509 12.2579 34.8731 12.2579 34.8954C12.2579 38.3949 15.105 41.2419 18.6044 41.2419C22.1038 41.2419 24.9509 38.3949 24.9509 34.8954C24.9509 34.8729 24.9494 34.8509 24.9491 34.8287H47.5329C47.5326 34.8509 47.5311 34.8731 47.5311 34.8954C47.5311 38.3949 50.3782 41.2419 53.8776 41.2419C57.377 41.2419 60.2241 38.3949 60.2241 34.8954C60.2241 34.8729 60.2226 34.8509 60.2224 34.8287H63.4977C63.7635 34.8287 64.0184 34.7231 64.2064 34.5352C64.3943 34.3472 64.4999 34.0923 64.4999 33.8266V23.1377C64.5 20.4987 62.5529 18.3061 60.0197 17.9204ZM47.3977 7.03769H54.9467C56.1624 7.03769 57.1514 8.02669 57.1514 9.24231V9.30906H47.3977V7.03769ZM47.3977 17.8602V11.3132H56.3021L57.9389 17.8602H47.3977ZM18.6044 39.2381C16.21 39.2381 14.262 37.2902 14.262 34.8957C14.262 32.5012 16.21 30.5533 18.6044 30.5533C20.9987 30.5533 22.9467 32.5012 22.9467 34.8957C22.9467 37.2902 20.9987 39.2381 18.6044 39.2381ZM53.8779 39.2381C51.4835 39.2381 49.5355 37.2902 49.5355 34.8957C49.5355 32.5012 51.4835 30.5533 53.8779 30.5533C56.2722 30.5533 58.2202 32.5012 58.2202 34.8957C58.2202 37.2902 56.2722 39.2381 53.8779 39.2381ZM62.4959 26.4113H61.3601C60.7339 26.4113 60.2244 25.9018 60.2244 25.2756V24.1398H62.4957V26.4113H62.4959Z" fill="black"/>
<path d="M18.6043 32.8247C17.4623 32.8247 16.5333 33.7537 16.5333 34.8957C16.5333 36.0377 17.4623 36.9667 18.6043 36.9667C19.7463 36.9667 20.6753 36.0377 20.6753 34.8957C20.6753 33.7537 19.7463 32.8247 18.6043 32.8247ZM53.8778 32.8247C52.7358 32.8247 51.8068 33.7537 51.8068 34.8957C51.8068 36.0377 52.7358 36.9667 53.8778 36.9667C55.0198 36.9667 55.9488 36.0377 55.9488 34.8957C55.9488 33.7537 55.0198 32.8247 53.8778 32.8247ZM42.1199 28.5492H27.1554C26.8897 28.5492 26.6348 28.6548 26.4468 28.8427C26.2589 29.0307 26.1533 29.2856 26.1533 29.5513C26.1533 29.8171 26.2589 30.072 26.4468 30.2599C26.6348 30.4479 26.8897 30.5535 27.1554 30.5535H42.1199C42.3857 30.5535 42.6406 30.4479 42.8286 30.2599C43.0165 30.072 43.1221 29.8171 43.1221 29.5513C43.1221 29.2856 43.0165 29.0307 42.8286 28.8427C42.6406 28.6548 42.3857 28.5492 42.1199 28.5492ZM16.4666 24.2736H3.63982C3.37404 24.2736 3.11915 24.3792 2.93121 24.5671C2.74328 24.755 2.6377 25.0099 2.6377 25.2757C2.6377 25.5415 2.74328 25.7964 2.93121 25.9843C3.11915 26.1723 3.37404 26.2778 3.63982 26.2778H16.4666C16.7324 26.2778 16.9872 26.1723 17.1752 25.9843C17.3631 25.7964 17.4687 25.5415 17.4687 25.2757C17.4687 25.0099 17.3631 24.755 17.1752 24.5671C16.9872 24.3792 16.7324 24.2736 16.4666 24.2736ZM35.3463 10.6713C35.1584 10.4834 34.9035 10.3779 34.6377 10.3779C34.372 10.378 34.1171 10.4835 33.9292 10.6715L25.0177 19.5828L20.3818 14.947C20.2888 14.8539 20.1783 14.7801 20.0567 14.7297C19.9352 14.6794 19.8049 14.6534 19.6733 14.6534C19.5417 14.6534 19.4114 14.6794 19.2898 14.7297C19.1682 14.7801 19.0577 14.8539 18.9647 14.947C18.8716 15.04 18.7978 15.1505 18.7475 15.272C18.6971 15.3936 18.6712 15.5239 18.6712 15.6555C18.6712 15.7871 18.6971 15.9174 18.7475 16.039C18.7978 16.1606 18.8716 16.271 18.9647 16.3641L24.3092 21.7086C24.5048 21.9043 24.7613 22.0021 25.0177 22.0021C25.2741 22.0021 25.5307 21.9043 25.7262 21.7086L35.3462 12.0886C35.5341 11.9006 35.6397 11.6458 35.6397 11.38C35.6398 11.1142 35.5342 10.8593 35.3463 10.6713Z" fill="black"/>
</svg>
