<svg width="236" height="173" viewBox="0 0 236 173" fill="none" xmlns="http://www.w3.org/2000/svg">
<path d="M175.157 113.397C173.422 114.751 173.113 117.255 174.466 118.99C174.567 119.119 174.676 119.238 174.789 119.352C173.772 120.648 172.972 122.072 172.397 123.571C172.242 123.532 172.084 123.5 171.922 123.48C169.738 123.21 167.749 124.762 167.479 126.946C167.209 129.13 168.76 131.119 170.944 131.389C171.107 131.409 171.268 131.416 171.428 131.417C171.62 133.01 172.05 134.586 172.72 136.091C172.583 136.174 172.449 136.262 172.319 136.363C170.584 137.717 170.275 140.221 171.628 141.956C172.982 143.691 175.485 144.001 177.22 142.647C177.35 142.546 177.468 142.437 177.582 142.324C178.878 143.341 180.302 144.142 181.801 144.716C181.762 144.871 181.73 145.029 181.709 145.192C181.44 147.376 182.991 149.365 185.175 149.635C187.359 149.905 189.348 148.353 189.618 146.169C189.638 146.007 189.645 145.846 189.645 145.686C191.239 145.494 192.814 145.064 194.319 144.393C194.402 144.53 194.491 144.665 194.591 144.794C195.945 146.529 198.449 146.839 200.184 145.485C201.919 144.132 202.228 141.628 200.875 139.893C200.774 139.763 200.665 139.644 200.552 139.531C201.569 138.235 202.369 136.811 202.943 135.312C203.099 135.35 203.256 135.383 203.419 135.403C205.603 135.673 207.592 134.121 207.862 131.937C208.132 129.753 206.58 127.764 204.397 127.494C204.234 127.474 204.073 127.467 203.913 127.466C203.721 125.873 203.291 124.297 202.62 122.792C202.757 122.709 202.892 122.62 203.021 122.519C204.756 121.166 205.066 118.662 203.713 116.927C202.359 115.192 199.856 114.882 198.12 116.236C197.991 116.337 197.872 116.446 197.759 116.558C196.462 115.541 195.039 114.741 193.54 114.167C193.579 114.011 193.611 113.854 193.631 113.691C193.901 111.507 192.35 109.517 190.166 109.247C187.982 108.978 185.993 110.529 185.723 112.713C185.703 112.876 185.696 113.037 185.696 113.197C184.102 113.389 182.526 113.819 181.021 114.49C180.939 114.353 180.85 114.218 180.749 114.089C179.396 112.353 176.892 112.044 175.157 113.397ZM183.12 123.607C186.342 121.093 190.991 121.668 193.505 124.89C196.018 128.113 195.443 132.763 192.221 135.276C188.999 137.79 184.35 137.215 181.836 133.993C179.323 130.77 179.897 126.12 183.12 123.607Z" fill="white"/>
<path d="M185.667 149.818C185.498 149.818 185.328 149.808 185.157 149.787C184.06 149.651 183.082 149.097 182.402 148.225C181.723 147.354 181.423 146.27 181.559 145.173C181.573 145.059 181.594 144.939 181.622 144.81C180.178 144.243 178.824 143.476 177.593 142.526C177.498 142.616 177.406 142.696 177.314 142.767C175.516 144.17 172.911 143.848 171.508 142.05C170.829 141.179 170.529 140.095 170.665 138.998C170.8 137.901 171.355 136.923 172.226 136.243C172.317 136.172 172.416 136.102 172.528 136.031C171.906 134.607 171.492 133.106 171.293 131.567C171.162 131.563 171.04 131.554 170.926 131.54C169.829 131.405 168.851 130.85 168.171 129.979C167.492 129.108 167.192 128.024 167.328 126.927C167.608 124.663 169.679 123.047 171.94 123.328C172.054 123.342 172.174 123.363 172.303 123.392C172.87 121.948 173.638 120.594 174.587 119.363C174.497 119.267 174.417 119.175 174.346 119.084C173.667 118.213 173.367 117.129 173.503 116.032C173.638 114.935 174.192 113.957 175.064 113.277C176.862 111.874 179.466 112.196 180.869 113.995C180.94 114.086 181.01 114.185 181.081 114.297C182.505 113.675 184.006 113.26 185.545 113.062C185.549 112.93 185.558 112.809 185.572 112.695C185.852 110.43 187.921 108.815 190.184 109.096C191.281 109.232 192.259 109.786 192.939 110.657C193.618 111.529 193.918 112.613 193.782 113.709C193.768 113.824 193.747 113.944 193.719 114.072C195.163 114.639 196.517 115.407 197.748 116.357C197.844 116.266 197.936 116.186 198.027 116.115C199.825 114.713 202.43 115.034 203.833 116.833C204.512 117.704 204.812 118.788 204.676 119.884C204.541 120.982 203.986 121.96 203.115 122.64C203.024 122.711 202.925 122.78 202.813 122.851C203.434 124.276 203.849 125.776 204.048 127.316C204.181 127.319 204.3 127.328 204.415 127.342C205.512 127.478 206.49 128.032 207.17 128.904C207.849 129.775 208.149 130.859 208.013 131.956C207.734 134.22 205.664 135.834 203.401 135.554C203.286 135.54 203.166 135.519 203.038 135.49C202.47 136.935 201.703 138.29 200.754 139.52C200.845 139.616 200.923 139.707 200.995 139.799C201.674 140.67 201.974 141.754 201.838 142.85C201.703 143.947 201.149 144.926 200.277 145.605C198.479 147.008 195.875 146.687 194.472 144.888C194.401 144.797 194.331 144.697 194.26 144.586C192.835 145.207 191.335 145.622 189.796 145.82C189.792 145.953 189.783 146.074 189.769 146.188C189.51 148.28 187.723 149.818 185.667 149.818ZM177.582 142.172C177.615 142.172 177.648 142.183 177.676 142.204C178.945 143.2 180.352 143.997 181.855 144.574C181.927 144.601 181.967 144.678 181.948 144.753C181.907 144.92 181.878 145.07 181.861 145.211C181.735 146.226 182.013 147.231 182.642 148.038C183.272 148.845 184.178 149.358 185.194 149.484C187.292 149.742 189.208 148.248 189.467 146.151C189.484 146.011 189.493 145.859 189.493 145.685C189.493 145.608 189.551 145.543 189.627 145.534C191.226 145.341 192.784 144.911 194.258 144.254C194.327 144.223 194.41 144.248 194.45 144.314C194.539 144.463 194.625 144.589 194.712 144.7C196.011 146.367 198.424 146.665 200.09 145.365C200.897 144.735 201.411 143.829 201.536 142.813C201.662 141.797 201.384 140.793 200.755 139.986C200.667 139.874 200.569 139.764 200.444 139.639C200.39 139.584 200.385 139.497 200.432 139.437C201.428 138.168 202.225 136.761 202.801 135.257C202.829 135.185 202.906 135.146 202.98 135.164C203.148 135.205 203.298 135.234 203.438 135.252C205.537 135.511 207.452 134.016 207.711 131.918C207.836 130.902 207.559 129.898 206.929 129.091C206.3 128.284 205.394 127.77 204.378 127.645C204.237 127.627 204.089 127.619 203.912 127.618C203.836 127.618 203.771 127.561 203.762 127.484C203.569 125.885 203.138 124.327 202.481 122.853C202.45 122.783 202.476 122.7 202.542 122.661C202.69 122.571 202.817 122.486 202.928 122.399C203.735 121.769 204.249 120.863 204.374 119.847C204.499 118.831 204.222 117.828 203.593 117.02C202.293 115.354 199.88 115.056 198.214 116.356C198.103 116.442 197.989 116.544 197.866 116.666C197.812 116.721 197.726 116.726 197.665 116.678C196.396 115.682 194.989 114.885 193.486 114.309C193.414 114.281 193.374 114.204 193.392 114.13C193.434 113.962 193.463 113.813 193.48 113.672C193.606 112.656 193.328 111.652 192.698 110.845C192.069 110.038 191.163 109.524 190.147 109.399C188.048 109.14 186.133 110.635 185.874 112.732C185.857 112.872 185.848 113.024 185.848 113.197C185.848 113.274 185.79 113.339 185.714 113.349C184.114 113.541 182.556 113.972 181.083 114.629C181.013 114.66 180.931 114.634 180.891 114.568C180.8 114.417 180.717 114.295 180.629 114.182C179.33 112.516 176.917 112.218 175.251 113.518C174.443 114.148 173.93 115.054 173.804 116.07C173.679 117.086 173.957 118.089 174.586 118.896C174.673 119.008 174.775 119.121 174.897 119.244C174.951 119.298 174.956 119.385 174.908 119.446C173.912 120.716 173.115 122.122 172.539 123.626C172.512 123.697 172.436 123.737 172.361 123.719C172.189 123.676 172.044 123.648 171.903 123.631C169.806 123.374 167.889 124.867 167.63 126.965C167.504 127.98 167.782 128.984 168.411 129.791C169.041 130.599 169.947 131.112 170.963 131.238C171.103 131.255 171.255 131.264 171.428 131.264C171.505 131.264 171.57 131.322 171.579 131.398C171.772 132.998 172.203 134.556 172.859 136.029C172.891 136.099 172.865 136.182 172.799 136.222C172.65 136.311 172.524 136.397 172.413 136.484C171.606 137.113 171.092 138.019 170.967 139.036C170.841 140.051 171.119 141.055 171.748 141.862C173.048 143.528 175.46 143.826 177.127 142.527C177.239 142.439 177.353 142.338 177.474 142.216C177.504 142.187 177.543 142.172 177.582 142.172ZM187.679 136.991C185.43 136.991 183.203 135.993 181.716 134.086C180.476 132.496 179.929 130.518 180.176 128.516C180.423 126.513 181.435 124.727 183.026 123.486C186.309 120.925 191.064 121.513 193.625 124.796C194.865 126.386 195.412 128.365 195.165 130.367C194.918 132.369 193.905 134.155 192.315 135.396C190.938 136.47 189.303 136.991 187.679 136.991ZM183.213 123.727C181.686 124.918 180.715 126.632 180.478 128.554C180.241 130.474 180.766 132.373 181.956 133.899C184.414 137.05 188.977 137.614 192.128 135.156C193.654 133.965 194.626 132.251 194.863 130.329C195.1 128.408 194.575 126.51 193.385 124.984C190.927 121.833 186.364 121.269 183.213 123.727Z" fill="black"/>
<path d="M104.531 124.38H207.981C210.578 124.38 212.683 122.169 212.683 119.441V28.2739C212.683 25.5459 210.578 23.3345 207.981 23.3345H77.0249C74.428 23.3345 72.3228 25.546 72.3228 28.2739L72.3228 81.657L104.531 124.38Z" fill="white"/>
<path d="M207.981 124.533H104.531C104.446 124.533 104.378 124.465 104.378 124.38C104.378 124.296 104.446 124.228 104.531 124.228H207.981C210.49 124.228 212.531 122.081 212.531 119.441V28.274C212.531 25.6342 210.49 23.4869 207.981 23.4869H77.0248C74.5159 23.4869 72.4748 25.6343 72.4748 28.274V81.657C72.4748 81.7411 72.4068 81.8095 72.3227 81.8095C72.2385 81.8095 72.1704 81.7412 72.1704 81.657V28.274C72.1704 25.4662 74.3481 23.182 77.0248 23.182H207.981C210.657 23.182 212.835 25.4662 212.835 28.274V119.441C212.835 122.249 210.657 124.533 207.981 124.533Z" fill="black"/>
<path d="M212.683 31.1395H72.3227C72.2385 31.1395 72.1704 31.0712 72.1704 30.987C72.1704 30.9029 72.2385 30.8346 72.3227 30.8346H212.683C212.767 30.8346 212.835 30.9029 212.835 30.987C212.835 31.0712 212.767 31.1395 212.683 31.1395Z" fill="black"/>
<path d="M208.381 29.0013C207.582 29.0013 206.932 28.3212 206.932 27.4853C206.932 26.6494 207.582 25.9695 208.381 25.9695C209.181 25.9695 209.831 26.6494 209.831 27.4853C209.831 28.3212 209.181 29.0013 208.381 29.0013ZM208.381 26.2744C207.75 26.2744 207.237 26.8176 207.237 27.4854C207.237 28.1532 207.75 28.6964 208.381 28.6964C209.013 28.6964 209.526 28.1531 209.526 27.4854C209.526 26.8177 209.013 26.2744 208.381 26.2744Z" fill="black"/>
<path d="M204.596 29.0013C203.797 29.0013 203.147 28.3212 203.147 27.4853C203.147 26.6494 203.797 25.9695 204.596 25.9695C205.395 25.9695 206.046 26.6494 206.046 27.4853C206.046 28.3212 205.395 29.0013 204.596 29.0013ZM204.596 26.2744C203.965 26.2744 203.451 26.8176 203.451 27.4854C203.451 28.1532 203.965 28.6964 204.596 28.6964C205.228 28.6964 205.741 28.1531 205.741 27.4854C205.741 26.8177 205.228 26.2744 204.596 26.2744Z" fill="black"/>
<path d="M200.812 29.0013C200.012 29.0013 199.362 28.3212 199.362 27.4853C199.362 26.6494 200.012 25.9695 200.812 25.9695C201.611 25.9695 202.261 26.6494 202.261 27.4853C202.261 28.3212 201.611 29.0013 200.812 29.0013ZM200.812 26.2744C200.18 26.2744 199.667 26.8176 199.667 27.4854C199.667 28.1532 200.18 28.6964 200.812 28.6964C201.443 28.6964 201.956 28.1531 201.956 27.4854C201.956 26.8177 201.443 26.2744 200.812 26.2744Z" fill="black"/>
<path d="M107.172 113.481C105.693 113.477 104.498 112.275 104.502 110.797L104.685 46.6542C104.689 45.1757 105.891 43.9805 107.37 43.9848L197.03 44.2402C198.509 44.2444 199.704 45.4464 199.7 46.9249L199.518 110.708C199.513 112.385 198.15 113.741 196.472 113.736L107.172 113.481Z" fill="white"/>
<path d="M196.481 113.888C196.478 113.888 196.475 113.888 196.472 113.888L107.171 113.634C105.611 113.629 104.345 112.356 104.35 110.796L104.532 46.6538C104.535 45.8979 104.831 45.1881 105.367 44.6553C105.903 44.1224 106.617 43.8247 107.37 43.8324L197.03 44.0878C197.786 44.0899 198.496 44.3863 199.029 44.9222C199.562 45.4582 199.854 46.1696 199.852 46.9255L199.67 110.708C199.665 112.464 198.235 113.888 196.481 113.888ZM107.172 113.329L196.473 113.584C196.475 113.584 196.478 113.584 196.481 113.584C198.068 113.584 199.361 112.295 199.366 110.707L199.548 46.9246C199.549 46.2503 199.289 45.6156 198.813 45.1373C198.338 44.6591 197.704 44.3947 197.03 44.3927L107.369 44.1373C107.367 44.1373 107.364 44.1373 107.362 44.1373C106.69 44.1373 106.058 44.398 105.582 44.8716C105.103 45.3472 104.839 45.9804 104.837 46.6547L104.654 110.797C104.65 112.189 105.78 113.325 107.172 113.329Z" fill="black"/>
<path d="M137.869 100.353L137.869 100.32C137.877 97.7569 139.961 95.6848 142.525 95.692L161.592 95.7464C164.155 95.7536 166.228 97.8377 166.22 100.401C166.213 102.962 164.134 105.033 161.573 105.03L142.506 105.008C139.939 105.005 137.862 102.919 137.869 100.353Z" fill="#E2EAFF"/>
<path d="M152.17 57.6427C158.552 57.6606 163.739 52.5026 163.757 46.122C163.775 39.7413 158.616 34.5543 152.235 34.5364C145.853 34.5185 140.666 39.6765 140.648 46.0572C140.63 52.4378 145.789 57.6248 152.17 57.6427Z" fill="white"/>
<path d="M152.2 57.802C152.189 57.802 152.178 57.802 152.166 57.802C149.039 57.7931 146.103 56.5671 143.898 54.35C141.693 52.1329 140.484 49.1898 140.493 46.0631C140.511 39.62 145.759 34.3909 152.199 34.3909C152.21 34.3909 152.221 34.3909 152.233 34.3909C155.36 34.3998 158.296 35.6257 160.501 37.843C162.706 40.0602 163.915 43.0031 163.906 46.1297C163.888 52.5728 158.64 57.802 152.2 57.802ZM152.199 34.6957C145.926 34.6957 140.815 39.7883 140.797 46.0639C140.788 49.1091 141.966 51.9754 144.114 54.1349C146.261 56.2943 149.121 57.4884 152.167 57.497C152.178 57.497 152.189 57.497 152.2 57.497C158.473 57.4975 163.584 52.4044 163.602 46.1288C163.611 43.0836 162.433 40.2174 160.285 38.058C158.138 35.8984 155.278 34.7044 152.232 34.6956C152.221 34.6957 152.21 34.6957 152.199 34.6957Z" fill="black"/>
<path d="M152.295 44.1125C153.836 44.1168 155.089 42.8712 155.093 41.3302C155.097 39.7893 153.852 38.5366 152.31 38.5322C150.769 38.5279 149.517 39.7736 149.512 41.3146C149.508 42.8555 150.754 44.1082 152.295 44.1125Z" fill="#E2EAFF"/>
<path d="M152.288 45.7595C148.93 45.75 146.075 45.6872 145.003 48.6763C146.058 51.6714 148.907 53.8225 152.265 53.832C155.622 53.8416 158.483 51.7067 159.556 48.7178C158.501 45.7227 155.645 45.7691 152.288 45.7595Z" fill="#E2EAFF"/>
<path d="M128.823 86.2121L128.848 77.3738L175.444 77.5065L175.419 86.3444L128.823 86.2121Z" fill="white"/>
<path d="M175.419 86.4969C175.419 86.4969 175.418 86.4969 175.418 86.4969L128.823 86.3645C128.782 86.3644 128.744 86.3483 128.715 86.3195C128.687 86.2908 128.671 86.2521 128.671 86.2116L128.696 77.3733C128.696 77.2893 128.764 77.2213 128.848 77.2213C128.848 77.2213 128.849 77.2213 128.849 77.2213L175.444 77.3541C175.528 77.3544 175.596 77.4227 175.596 77.507L175.571 86.3449C175.571 86.3852 175.555 86.424 175.526 86.4525C175.498 86.481 175.459 86.4969 175.419 86.4969ZM128.976 86.0602L175.267 86.1916L175.291 77.6585L129 77.5267L128.976 86.0602Z" fill="black"/>
<path d="M134.753 84.3768C136.056 84.3805 137.115 83.3274 137.118 82.0246C137.122 80.7219 136.069 79.6629 134.766 79.6592C133.463 79.6555 132.404 80.7087 132.4 82.0114C132.396 83.3142 133.45 84.3732 134.753 84.3768Z" fill="#3018CC"/>
<path d="M141.637 84.3961C142.94 84.3998 143.999 83.3467 144.003 82.0439C144.007 80.7412 142.954 79.6821 141.651 79.6785C140.348 79.6748 139.289 80.7279 139.285 82.0307C139.281 83.3334 140.335 84.3925 141.637 84.3961Z" fill="#3018CC"/>
<path d="M148.522 84.4154C149.825 84.4191 150.884 83.3659 150.888 82.0632C150.892 80.7604 149.838 79.7013 148.535 79.6977C147.232 79.694 146.173 80.7472 146.17 82.0499C146.166 83.3527 147.219 84.4118 148.522 84.4154Z" fill="#3018CC"/>
<path d="M155.328 84.4346C156.631 84.4383 157.691 83.3851 157.694 82.0823C157.698 80.7795 156.645 79.7205 155.342 79.7168C154.039 79.7132 152.979 80.7663 152.976 82.0691C152.972 83.3719 154.025 84.4309 155.328 84.4346Z" fill="#3018CC"/>
<path d="M162.213 84.4538C163.516 84.4574 164.575 83.4043 164.579 82.1015C164.582 80.7988 163.529 79.7398 162.226 79.7361C160.923 79.7325 159.864 80.7856 159.861 82.0883C159.857 83.3911 160.91 84.4501 162.213 84.4538Z" fill="#3018CC"/>
<path d="M128.787 73.6046L128.812 64.7662L175.408 64.899L175.383 73.7369L128.787 73.6046Z" fill="white"/>
<path d="M175.383 73.8894C175.383 73.8894 175.383 73.8894 175.383 73.8894L128.787 73.7571C128.746 73.7569 128.707 73.7409 128.679 73.7122C128.651 73.6834 128.635 73.6447 128.635 73.6042L128.66 64.7659C128.66 64.6819 128.728 64.6139 128.812 64.6139C128.812 64.6139 128.812 64.6139 128.813 64.6139L175.408 64.7467C175.492 64.747 175.56 64.8153 175.56 64.8995L175.535 73.7374C175.535 73.7778 175.519 73.8167 175.49 73.8451C175.462 73.8735 175.423 73.8894 175.383 73.8894ZM128.94 73.4527L175.231 73.5841L175.255 65.0511L128.964 64.9192L128.94 73.4527Z" fill="black"/>
<path d="M134.716 71.5801C136.019 71.5837 137.078 70.5306 137.082 69.2279C137.086 67.9251 136.032 66.8661 134.729 66.8624C133.426 66.8588 132.367 67.9119 132.364 69.2147C132.36 70.5174 133.413 71.5764 134.716 71.5801Z" fill="#E2EAFF"/>
<path d="M141.601 71.5984C142.904 71.6021 143.963 70.5489 143.967 69.2462C143.971 67.9435 142.917 66.8844 141.615 66.8808C140.312 66.8771 139.252 67.9302 139.249 69.233C139.245 70.5357 140.298 71.5947 141.601 71.5984Z" fill="#E2EAFF"/>
<path d="M148.486 71.6177C149.789 71.6213 150.848 70.5682 150.852 69.2655C150.856 67.9627 149.802 66.9037 148.499 66.9C147.196 66.8964 146.137 67.9495 146.134 69.2523C146.13 70.555 147.183 71.614 148.486 71.6177Z" fill="#E2EAFF"/>
<path d="M155.292 71.6369C156.595 71.6405 157.654 70.5874 157.658 69.2846C157.662 67.9818 156.608 66.9227 155.305 66.9191C154.003 66.9154 152.943 67.9686 152.94 69.2714C152.936 70.5741 153.989 71.6332 155.292 71.6369Z" fill="#E2EAFF"/>
<path d="M162.177 71.6562C163.48 71.6598 164.539 70.6067 164.543 69.3039C164.546 68.0011 163.493 66.942 162.19 66.9384C160.887 66.9347 159.828 67.9879 159.824 69.2907C159.821 70.5934 160.874 71.6525 162.177 71.6562Z" fill="#E2EAFF"/>
<path d="M169.062 71.6754C170.365 71.6791 171.424 70.626 171.428 69.3232C171.431 68.0205 170.378 66.9614 169.075 66.9578C167.772 66.9541 166.713 68.0073 166.709 69.31C166.706 70.6127 167.759 71.6718 169.062 71.6754Z" fill="#E2EAFF"/>
<path d="M122.025 86.4885C124.59 86.4885 126.669 84.4095 126.669 81.8449C126.669 79.2803 124.59 77.2013 122.025 77.2013C119.461 77.2013 117.382 79.2803 117.382 81.8449C117.382 84.4095 119.461 86.4885 122.025 86.4885Z" fill="#3018CC"/>
<path d="M122.347 84.9398C122.278 85.0094 122.193 85.0442 122.093 85.0442C121.993 85.0442 121.907 85.0094 121.835 84.9398C121.763 84.8703 121.728 84.7855 121.728 84.6854C121.728 84.5854 121.763 84.4994 121.835 84.4277C121.907 84.3559 121.993 84.32 122.093 84.32C122.193 84.32 122.278 84.3559 122.347 84.4277C122.417 84.4994 122.452 84.5854 122.452 84.6854C122.452 84.7855 122.417 84.8703 122.347 84.9398ZM121.728 78.2734H122.42V83.4287H121.728V78.2734Z" fill="white"/>
<path d="M81.3062 54.0726C81.3062 54.0726 85.3956 43.5901 96.3806 47.3171C103.907 49.8707 98.3738 54.4946 98.3738 54.4946C98.3738 54.4946 101.139 57.422 95.4046 58.7429C94.1793 59.0251 90.1355 62.6232 88.9262 62.8209C84.4916 63.5456 81.3062 54.0726 81.3062 54.0726Z" fill="black"/>
<path d="M100.089 68.5277C99.6513 64.4619 95.5621 55.0299 95.5621 55.0299L94.9774 55.3183L92.7463 57.4251L84.9871 61.2515C84.9871 61.2515 79.2777 72.7452 89.2188 75.2964C97.4457 77.4077 100.534 72.6659 100.089 68.5277Z" fill="white"/>
<path d="M95.4086 55.4455C96.0988 57.0702 99.4016 64.9869 99.7864 68.5604C99.9844 70.3998 99.4487 72.1789 98.3165 73.4413C97.1024 74.7952 95.254 75.5107 92.9712 75.5107C91.8493 75.5107 90.6124 75.3392 89.2944 75.001C86.8297 74.3685 85.1524 73.1128 84.309 71.2687C82.5653 67.4559 84.8667 62.2296 85.2165 61.4782L92.8808 57.6987C92.9081 57.6852 92.9331 57.6678 92.9551 57.6469L95.1531 55.5715L95.4086 55.4455ZM95.5622 55.0299L94.9775 55.3183L92.7464 57.4251L84.9871 61.2515C84.9871 61.2515 79.2778 72.7452 89.2189 75.2964C90.6148 75.6546 91.8635 75.8156 92.9712 75.8156C98.3929 75.8156 100.459 71.9638 100.089 68.5277C99.6514 64.4619 95.5622 55.0299 95.5622 55.0299Z" fill="black"/>
<path d="M81.3769 68.4042C80.6317 68.8338 80.5785 69.9783 81.0773 70.6807C81.5762 71.383 82.4375 71.7235 83.2722 71.9293C84.5587 72.2464 85.8986 72.3308 87.2185 72.2155C88.0325 72.1444 88.8846 71.9775 89.4997 71.4377C90.2572 70.773 90.4889 69.6976 90.6014 68.6942C90.8435 66.5367 90.7338 64.34 90.2782 62.2177C90.0791 61.2908 89.7604 60.3002 88.9739 59.7747C88.0615 59.1652 84.5079 53.1214 83.4238 52.9588C76.9651 51.99 74.7744 56.7646 74.6507 59.25C74.4912 62.4512 76.4631 64.4713 78.4346 65.9483C79.3915 66.6654 80.3346 67.9044 81.3769 68.4042Z" fill="black"/>
<path d="M88.1749 79.7833C88.8867 78.2992 91.1121 73.7495 91.6945 72.7072C92.4386 71.3754 91.6728 66.7818 90.9109 65.4223C90.149 64.0627 87.0642 63.638 86.1494 65.3329C85.2346 67.0279 85.6796 68.9522 88.8019 69.2587L88.4928 70.3093C88.2286 71.2075 87.3531 71.7787 86.428 71.656C84.5633 71.4087 81.6486 70.9525 80.8745 70.434L74.3799 80.8216C77.7787 81.2914 86.2548 79.3205 88.1749 79.7833Z" fill="white"/>
<path d="M76.2337 78.239C76.2064 78.239 76.179 78.2318 76.1542 78.2166C76.0825 78.1725 76.0601 78.0786 76.104 78.0068L81.0592 69.9272C81.1034 69.8553 81.1971 69.8333 81.2686 69.8771C81.3403 69.9211 81.3627 70.015 81.3188 70.0868L76.3636 78.1664C76.3348 78.2133 76.2848 78.239 76.2337 78.239Z" fill="black"/>
<path d="M88.4598 79.3449C88.4376 79.3449 88.4151 79.3401 88.3939 79.3298C88.3181 79.2932 88.2862 79.202 88.3227 79.1263C88.8817 77.9645 90.264 75.1496 90.9553 73.7898C90.9934 73.7148 91.0849 73.6852 91.1601 73.7232C91.235 73.7615 91.2648 73.8533 91.2267 73.9283C90.5362 75.2864 89.1555 78.0981 88.5971 79.2585C88.5708 79.3131 88.5164 79.3449 88.4598 79.3449Z" fill="black"/>
<path d="M90.1116 68.5878C90.0533 68.5878 89.9978 68.5544 89.9725 68.4977C89.7046 67.8983 89.1149 67.4387 88.47 67.3268C88.3872 67.3124 88.3316 67.2335 88.346 67.1506C88.3603 67.0677 88.4398 67.0121 88.522 67.0264C89.2752 67.1573 89.9375 67.6734 90.2505 68.3733C90.2848 68.4501 90.2505 68.5403 90.1736 68.5746C90.1534 68.5836 90.1323 68.5878 90.1116 68.5878Z" fill="black"/>
<path d="M92.7563 124.688C95.1416 133.159 98.7943 143.164 107.654 142.346C122.192 141.003 140.124 125.862 151.736 121.718C153.436 122.821 154.03 122.36 155.237 121.153C156.572 119.819 157.038 116.417 154.509 115.737C154.509 115.737 154.737 111.348 148.223 112.44C148.223 112.44 159.298 107.039 156.438 103.894C154.937 102.244 147.581 108.097 138.837 110.936C133.181 112.772 118.985 117.901 118.985 117.901L118.784 114.869L92.7563 124.688Z" fill="white"/>
<path d="M106.629 142.546C103.054 142.546 100.109 140.752 97.6507 137.086C95.2782 133.548 93.7711 128.854 92.6097 124.73C92.587 124.649 92.6341 124.564 92.7149 124.541C92.7964 124.519 92.8799 124.566 92.9028 124.647C94.0576 128.748 95.5549 133.413 97.9034 136.916C100.529 140.83 103.714 142.558 107.64 142.194C116.61 141.365 127.01 135.185 136.186 129.732C141.876 126.351 147.251 123.156 151.685 121.574C151.729 121.559 151.779 121.564 151.819 121.59C153.415 122.625 153.915 122.259 155.129 121.045C155.966 120.209 156.378 118.644 156.068 117.482C155.915 116.908 155.513 116.165 154.469 115.884C154.4 115.865 154.353 115.801 154.356 115.729C154.357 115.716 154.41 114.355 153.331 113.394C152.293 112.469 150.582 112.199 148.248 112.59C148.173 112.603 148.101 112.558 148.078 112.486C148.055 112.414 148.088 112.336 148.156 112.302C148.236 112.264 156.151 108.372 156.725 105.375C156.825 104.854 156.694 104.403 156.325 103.997C155.586 103.185 152.932 104.564 149.571 106.309C146.589 107.857 142.879 109.784 138.884 111.081C133.295 112.896 119.179 117.994 119.037 118.045C118.992 118.061 118.942 118.055 118.902 118.029C118.862 118.003 118.837 117.959 118.833 117.912L118.632 114.879C118.626 114.795 118.69 114.722 118.774 114.717C118.856 114.712 118.93 114.775 118.936 114.859L119.124 117.69C120.834 117.073 133.552 112.492 138.79 110.791C142.762 109.501 146.459 107.581 149.43 106.039C153.178 104.092 155.654 102.806 156.55 103.792C156.982 104.267 157.142 104.819 157.024 105.433C156.529 108.021 151.16 111.077 149.088 112.169C151.074 111.967 152.567 112.303 153.538 113.17C154.541 114.066 154.653 115.242 154.661 115.622C155.762 115.963 156.194 116.773 156.362 117.403C156.698 118.661 156.251 120.355 155.344 121.261C154.138 122.467 153.473 123.003 151.717 121.887C147.324 123.468 141.988 126.638 136.341 129.994C127.138 135.463 116.706 141.663 107.668 142.497C107.316 142.53 106.969 142.546 106.629 142.546Z" fill="black"/>
<path d="M151.901 121.706C151.845 121.706 151.791 121.674 151.764 121.62C151.728 121.544 151.759 121.453 151.835 121.416C153.823 120.455 154.427 119.232 154.433 119.22C154.469 119.144 154.56 119.112 154.636 119.148C154.711 119.184 154.743 119.275 154.707 119.351C154.682 119.405 154.06 120.679 151.967 121.691C151.946 121.701 151.924 121.706 151.901 121.706Z" fill="black"/>
<path d="M119.41 123.071C119.332 123.071 119.265 123.011 119.258 122.932L118.825 117.872C118.818 117.788 118.88 117.714 118.963 117.707C119.049 117.697 119.121 117.762 119.128 117.846L119.562 122.906C119.569 122.989 119.507 123.063 119.423 123.07C119.419 123.071 119.414 123.071 119.41 123.071Z" fill="black"/>
<path d="M145.496 113.135C145.426 113.135 145.363 113.086 145.347 113.015C145.33 112.932 145.382 112.851 145.464 112.833C146.128 112.69 146.551 112.61 146.96 112.533C147.368 112.456 147.789 112.376 148.449 112.233C148.531 112.215 148.612 112.268 148.63 112.35C148.648 112.432 148.596 112.513 148.514 112.531C147.85 112.675 147.426 112.755 147.017 112.832C146.609 112.909 146.188 112.989 145.528 113.131C145.517 113.134 145.506 113.135 145.496 113.135Z" fill="black"/>
<path d="M149.17 116.803C149.116 116.803 149.065 116.776 149.037 116.726C148.995 116.653 149.021 116.56 149.094 116.518C150.748 115.578 152.77 115.233 154.641 115.573C154.723 115.588 154.778 115.668 154.763 115.751C154.748 115.833 154.67 115.888 154.586 115.873C152.785 115.546 150.838 115.878 149.245 116.783C149.221 116.797 149.195 116.803 149.17 116.803Z" fill="black"/>
<path d="M80.6628 44.7508C82.2922 44.0462 83.7707 43.7863 84.4588 44.8462C85.1469 45.906 84.4115 47.7016 83.0146 48.373C83.9881 47.8537 84.9953 47.3227 86.0412 47.167C87.0871 47.0113 88.191 47.3295 88.5232 48.1703C88.8152 48.9092 88.4405 49.8675 87.8157 50.5891C87.5073 50.9454 87.1463 51.2561 86.7613 51.5422C87.4633 51.3804 88.2309 51.5393 88.6172 52.0222C89.2763 52.846 89.1915 54.0582 88.3817 55.0389C87.6965 55.8688 86.5044 56.732 85.3698 57.4834C84.1054 58.377 83.1294 58.9967 81.3433 60.0458C83.2878 59.8999 86.6179 59.8284 86.1593 62.1572C85.5208 65.3989 70.7493 66.1545 68.3574 67.3718C63.8807 69.6503 53.2014 78.1067 53.2014 78.1067C53.0206 78.0792 57.4162 78.2771 57.4162 78.2771C57.4162 78.2771 48.8708 94.5904 39.4888 103.43C32.5651 102.263 28.5276 99.3086 26.1862 97.0502C18.8738 89.9962 27.2118 77.6337 32.6431 72.6544C47.4707 59.0609 68.5253 47.5151 74.9788 44.3517C76.0609 43.8212 77.1935 43.2824 78.3286 43.2199C79.4637 43.1572 80.5927 43.7273 80.6628 44.7508Z" fill="white"/>
<path d="M39.4886 103.582C39.4803 103.582 39.4718 103.582 39.4634 103.58C34.0544 102.668 29.5518 100.508 26.0806 97.16C24.1104 95.2595 23.1298 92.8503 23.166 89.9993C23.2493 83.4198 28.8176 75.9546 32.5401 72.5421C47.0739 59.2179 68.0542 47.5763 74.9118 44.2148C75.8939 43.7334 77.116 43.1341 78.3201 43.0677C79.3963 43.007 80.5803 43.5024 80.787 44.5327C82.722 43.732 83.9661 43.8076 84.5863 44.7632C84.8873 45.2269 84.9536 45.8378 84.773 46.4831C84.6603 46.8853 84.4598 47.2684 84.197 47.602C84.782 47.3336 85.3951 47.1089 86.0186 47.0163C87.0253 46.8664 88.2822 47.1462 88.6645 48.1142C89.0099 48.9883 88.5118 50.0173 87.9306 50.689C87.744 50.9043 87.528 51.1157 87.2766 51.3285C87.8789 51.3209 88.4262 51.54 88.7356 51.9268C89.4459 52.8146 89.3506 54.1043 88.4987 55.136C87.7509 56.0416 86.4027 56.982 85.4535 57.6104C84.3364 58.4002 83.4338 58.9829 81.9679 59.8537C83.4542 59.781 85.2216 59.8583 85.9809 60.7157C86.3159 61.0941 86.426 61.589 86.3084 62.1866C85.8664 64.4302 79.3269 65.4808 74.0723 66.3249C71.4676 66.7433 69.2179 67.1046 68.426 67.5076C64.458 69.5274 55.4744 76.5163 53.6296 77.9633C53.6985 77.9658 53.7754 77.9688 53.8618 77.9721C54.2577 77.9874 54.7854 78.0094 55.3131 78.0321C56.3682 78.0773 57.4228 78.1248 57.4228 78.1248C57.4749 78.1271 57.5221 78.1559 57.5481 78.2011C57.5739 78.2464 57.575 78.3016 57.5509 78.3479C57.4653 78.5112 48.886 94.7852 39.5931 103.541C39.5644 103.568 39.5271 103.582 39.4886 103.582ZM78.4912 43.3678C78.4396 43.3678 78.3883 43.3692 78.3368 43.3721C77.1944 43.4352 76.0029 44.0193 75.0456 44.4888C68.199 47.8447 47.2528 59.4671 32.7457 72.7669C29.0623 76.1437 23.5527 83.5205 23.4703 90.0032C23.4353 92.7667 24.3845 95.1008 26.2916 96.9406C29.7021 100.23 34.1251 102.359 39.4394 103.267C48.0976 95.0797 56.1281 80.3606 57.1683 78.4187C55.617 78.3493 53.4891 78.2576 53.23 78.2566C53.213 78.2599 53.1956 78.2602 53.1784 78.2575C53.0984 78.2453 53.0363 78.1711 53.0443 78.0905C53.051 78.0233 53.0545 77.9864 53.1301 77.9689C53.6923 77.5251 63.9499 69.4442 68.2882 67.236C69.1227 66.8113 71.394 66.4465 74.024 66.0241C78.9131 65.2387 85.6089 64.1631 86.0097 62.1277C86.1094 61.6213 86.0256 61.2257 85.7531 60.9181C84.8811 59.9333 82.2264 60.1326 81.3546 60.1978C81.2842 60.203 81.2189 60.1589 81.1979 60.0913C81.1767 60.0235 81.205 59.9503 81.2661 59.9144C83.0602 58.8605 84.036 58.2396 85.2817 57.3588C86.2185 56.7385 87.5423 55.8161 88.2641 54.9419C89.0217 54.0245 89.1156 52.8894 88.4981 52.1175C88.1671 51.7038 87.4829 51.5321 86.7953 51.6909C86.7247 51.7074 86.653 51.6718 86.6228 51.6062C86.5926 51.5407 86.6125 51.463 86.6704 51.4199C87.0941 51.1048 87.4311 50.8005 87.7005 50.4893C88.3575 49.7304 88.6248 48.8422 88.3815 48.2265C88.0601 47.4128 86.9538 47.1851 86.0634 47.3179C85.1035 47.4607 84.1473 47.9435 83.2882 48.3998C83.2202 48.4395 83.1509 48.4765 83.0803 48.5104C83.0049 48.5466 82.9159 48.5156 82.8786 48.4417C82.8412 48.3677 82.8698 48.2774 82.9429 48.2384C83.0086 48.2035 83.0749 48.168 83.1419 48.1325C83.7769 47.7593 84.2804 47.1132 84.4798 46.4009C84.6366 45.8412 84.5836 45.3186 84.3311 44.9294C83.7854 44.0892 82.6053 44.0769 80.723 44.8908C80.6779 44.9103 80.626 44.9068 80.5835 44.881C80.5412 44.8554 80.5141 44.8107 80.5107 44.7613C80.4495 43.8677 79.4623 43.3678 78.4912 43.3678Z" fill="black"/>
<path d="M74.2076 63.8922C74.1518 63.8922 74.0982 63.8614 74.0714 63.8082C74.0336 63.7329 74.064 63.6414 74.1391 63.6035C74.1924 63.5767 79.479 60.9173 81.2684 59.9128C81.3423 59.8713 81.4346 59.8979 81.4757 59.9712C81.5169 60.0448 81.4907 60.1376 81.4174 60.1787C79.622 61.1866 74.3291 63.8493 74.2758 63.876C74.2537 63.887 74.2305 63.8922 74.2076 63.8922Z" fill="black"/>
<path d="M77.8281 57.3581C77.7787 57.3581 77.7302 57.334 77.7009 57.2897C77.6547 57.2194 77.674 57.1248 77.7442 57.0784C80.3089 55.3843 83.5802 53.37 86.2086 51.7515L86.7103 51.4426C86.7817 51.3984 86.8756 51.4207 86.9196 51.4926C86.9638 51.5643 86.9413 51.6582 86.8697 51.7023L86.368 52.0112C83.7415 53.6286 80.4725 55.6414 77.9118 57.333C77.886 57.3499 77.8569 57.3581 77.8281 57.3581Z" fill="black"/>
<path d="M75.2592 52.9711C75.2068 52.9711 75.1558 52.944 75.1276 52.8952C75.0854 52.8224 75.1099 52.7292 75.1826 52.6869L82.7636 48.2693C82.836 48.2269 82.9293 48.2516 82.9717 48.3244C83.0139 48.3972 82.9894 48.4905 82.9167 48.5327L75.3357 52.9503C75.3116 52.9644 75.2853 52.9711 75.2592 52.9711Z" fill="black"/>
<path d="M73.3776 48.9813C73.3263 48.9813 73.2761 48.9554 73.2474 48.9082C73.2036 48.8365 73.2263 48.7427 73.2981 48.6987C75.5409 47.328 77.8601 46.028 80.1911 44.8352C80.266 44.7971 80.3577 44.8267 80.396 44.9016C80.4342 44.9766 80.4046 45.0683 80.3297 45.1067C78.0055 46.296 75.6931 47.5922 73.4566 48.9589C73.432 48.9742 73.4046 48.9813 73.3776 48.9813Z" fill="black"/>
<path d="M53.2011 78.2592C53.1999 78.2592 53.1988 78.2592 53.1975 78.2592L41.0798 77.9761C40.9958 77.9741 40.9293 77.9043 40.9312 77.82C40.9331 77.736 41.0006 77.6691 41.087 77.6712L53.2047 77.9543C53.2887 77.9562 53.3553 78.026 53.3533 78.1103C53.3514 78.1932 53.2836 78.2592 53.2011 78.2592Z" fill="black"/>
<path d="M88.8594 149.666L94.7867 131.003L92.6562 124.455L118.88 114.827C118.88 114.827 117.597 87.6671 106.046 82.0808C101.821 80.0373 68.6655 77.9058 68.6655 77.9058C68.6655 77.9058 53.3785 77.706 48.8763 77.5405L37.0725 104.311C36.9316 104.63 37.1344 104.996 37.4801 105.046L45.2593 106.165L29.248 149.666H88.8594V149.666Z" fill="#3018CC"/>
<path d="M45.751 105.1C45.7315 105.1 45.7118 105.096 45.6926 105.088C45.6149 105.056 45.578 104.966 45.6103 104.889L47.1433 101.193C47.1756 101.115 47.2645 101.079 47.3423 101.111C47.42 101.143 47.4568 101.233 47.4245 101.31L45.8916 105.006C45.8673 105.064 45.8106 105.1 45.751 105.1Z" fill="black"/>
<path d="M92.6569 124.533C92.5921 124.533 92.5321 124.491 92.5118 124.426C90.4688 117.895 89.0284 113.732 88.2304 112.054C88.2186 112.029 88.2035 111.991 88.1846 111.943C88.0246 111.54 87.5992 110.468 86.2811 110.468C86.197 110.468 86.1289 110.4 86.1289 110.315C86.1289 110.231 86.197 110.163 86.2811 110.163C87.8059 110.163 88.304 111.418 88.4677 111.831C88.4834 111.87 88.4955 111.902 88.5055 111.923C89.3096 113.614 90.7551 117.79 92.8022 124.335C92.8273 124.415 92.7828 124.501 92.7025 124.526C92.6874 124.53 92.672 124.533 92.6569 124.533Z" fill="black"/>
<path d="M182.643 64.0683H206.791C208.867 64.0683 210.178 61.836 209.166 60.0229L197.092 38.3828C196.054 36.5233 193.379 36.5233 192.342 38.3828L180.268 60.0229C179.256 61.836 180.567 64.0683 182.643 64.0683Z" fill="#DB4437"/>
<path d="M206.791 61.6929C206.84 61.6929 206.988 61.6929 207.088 61.5228C207.188 61.3527 207.116 61.223 207.092 61.1804L195.018 39.5403C194.993 39.4966 194.919 39.3636 194.717 39.3636C194.514 39.3636 194.44 39.4966 194.416 39.5403L182.342 61.1803C182.318 61.223 182.245 61.3526 182.345 61.5227C182.445 61.6929 182.594 61.6928 182.642 61.6928L206.791 61.6929Z" fill="white"/>
<path d="M195.066 58.1465C194.972 58.2407 194.857 58.2879 194.722 58.2879C194.586 58.2879 194.47 58.2407 194.372 58.1465C194.275 58.0523 194.227 57.9373 194.227 57.8017C194.227 57.6661 194.275 57.5496 194.372 57.4524C194.47 57.3551 194.586 57.3065 194.722 57.3065C194.857 57.3065 194.972 57.3551 195.066 57.4524C195.161 57.5496 195.208 57.6661 195.208 57.8017C195.208 57.9372 195.161 58.0522 195.066 58.1465ZM194.554 45.361H195.031V54.6893H194.554V45.361Z" fill="black"/>
<path d="M61.1116 39.9752C61.0276 39.9752 60.9594 39.907 60.9594 39.8227L60.958 36.7995C60.958 36.7592 60.9741 36.7203 61.0027 36.6917C61.0312 36.6631 61.0698 36.6471 61.1103 36.6471C61.111 36.6471 61.1118 36.6471 61.1125 36.6471C62.4084 36.6471 63.6265 36.1426 64.5425 35.2265C65.459 34.31 65.9633 33.0912 65.9628 31.7944C65.9615 29.1173 63.7828 26.9385 61.106 26.9373C61.1052 26.9373 61.1044 26.9373 61.1036 26.9373C59.0492 26.9373 57.2108 28.2377 56.5283 30.1739C56.5003 30.2531 56.4136 30.2944 56.334 30.267C56.2548 30.2388 56.2132 30.1518 56.2411 30.0724C56.9666 28.0147 58.9206 26.6324 61.1036 26.6324C61.1045 26.6324 61.105 26.6324 61.1059 26.6324C63.9506 26.6337 66.2659 28.9492 66.2672 31.7944C66.2678 33.1726 65.7317 34.4681 64.7575 35.4422C63.8195 36.3802 62.5834 36.9123 61.2625 36.9498L61.2639 39.8227C61.2638 39.9068 61.1957 39.9752 61.1116 39.9752Z" fill="#5479F7"/>
<path d="M61.1167 42.5924C61.0326 42.5924 60.9644 42.5242 60.9644 42.4399L60.9639 41.1803C60.9639 41.0962 61.0319 41.0278 61.116 41.0278C61.2001 41.0278 61.2683 41.096 61.2683 41.1803L61.2689 42.4399C61.2689 42.5241 61.2008 42.5924 61.1167 42.5924Z" fill="#5479F7"/>
<path d="M49.3533 45.9389C49.2861 45.9389 49.2247 45.8941 49.2064 45.8259L48.4245 42.9055C48.4141 42.8665 48.4195 42.8248 48.4397 42.7897C48.4601 42.7546 48.4933 42.7292 48.5324 42.7188C49.7863 42.3842 50.834 41.5812 51.4825 40.4578C52.1302 39.3362 52.3023 38.0293 51.9673 36.7775C51.275 34.1916 48.6069 32.6496 46.0209 33.3392C44.0352 33.8692 42.5938 35.6008 42.4344 37.6483C42.4278 37.7321 42.3543 37.794 42.2707 37.7884C42.187 37.7818 42.1243 37.7084 42.1308 37.6245C42.3004 35.4484 43.8322 33.6078 45.9425 33.0448C48.6904 32.3106 51.5257 33.9504 52.2614 36.6986C52.6176 38.0291 52.4346 39.4182 51.7462 40.6103C51.0823 41.7602 50.0251 42.5942 48.7576 42.9718L49.5006 45.7469C49.5224 45.8282 49.4741 45.9119 49.3929 45.9336C49.3796 45.9372 49.3664 45.9389 49.3533 45.9389Z" fill="#5479F7"/>
<path d="M50.034 48.466C49.9668 48.466 49.9054 48.4213 49.8871 48.353L49.5614 47.1362C49.5396 47.0549 49.5879 46.9713 49.6691 46.9495C49.7505 46.9275 49.8336 46.9759 49.8555 47.0573L50.1812 48.2742C50.2029 48.3555 50.1547 48.4391 50.0735 48.4609C50.0604 48.4645 50.047 48.466 50.034 48.466Z" fill="#5479F7"/>
<path d="M38.1511 58.09C38.084 58.09 38.0226 58.0453 38.0042 57.9771L37.2223 55.0567C37.212 55.0177 37.2173 54.976 37.2377 54.9409C37.2579 54.9059 37.2912 54.8805 37.3301 54.87C38.5841 54.5354 39.6316 53.7326 40.2804 52.6092C40.9279 51.4876 41.1 50.1806 40.765 48.9288C40.0728 46.3429 37.4057 44.8009 34.8187 45.4906C32.8331 46.0205 31.3916 47.7522 31.2321 49.7995C31.2256 49.8833 31.1501 49.9466 31.0685 49.9396C30.9848 49.933 30.9221 49.8597 30.9287 49.7757C31.0983 47.5996 32.63 45.7591 34.7404 45.1961C37.4885 44.4624 40.3234 46.1017 41.0591 48.85C41.4152 50.1805 41.2323 51.5696 40.544 52.7617C39.8801 53.9116 38.8229 54.7455 37.5554 55.123L38.2985 57.8981C38.3202 57.9794 38.2719 58.0631 38.1908 58.0848C38.1775 58.0884 38.1642 58.09 38.1511 58.09Z" fill="#5479F7"/>
<path d="M38.8318 60.6172C38.7646 60.6172 38.7033 60.5724 38.685 60.5042L38.3593 59.2875C38.3374 59.2062 38.3857 59.1226 38.4669 59.1008C38.5486 59.079 38.6315 59.1272 38.6533 59.2087L38.979 60.4254C39.0009 60.5066 38.9526 60.5903 38.8714 60.612C38.8581 60.6155 38.845 60.6172 38.8318 60.6172Z" fill="#5479F7"/>
</svg>
